<?xml version="1.0" encoding="UTF-8" standalone="no"?>
<!-- Generated by SVGMaker - https://svgmaker.io -->
<!-- Prompt: STYLE: Clean outline / line-art icons. Use a single consistent stroke weight throughout. Corners should be slightly rounded for a modern, approachable feel. No heavy gradients inside icons. No decorative flourishes or playful elements.

TONE: Clinical, private, and family-friendly. Icons must feel trustworthy and professional — like a medical utility tool, not a consumer wellness app.

SIZE ＆ READABILITY: Every icon must be readable and distinct at 20px to 28px. Shapes should be bold enough silhouettes to work at small sizes.

STROKE ＆ GEOMETRY: Consistent stroke weight and corner radius across all icons in the set. Prefer simple, recognisable silhouettes. Avoid overly complex detail. Use black (000000) as the only colour on a transparent background.

STATES: For status icons (confirm, warning, delete, iCloud), use stronger filled or badge variants to signal importance. All other icons remain outline-only unless noted.

EXPORT: Vector SVG with transparent background. Do not include drop shadows, outer glows, or bounding box fills.

COLOR: Output in monochrome / single foreground color so the app can tint icons programmatically.

DO NOT include: playful cartoon shapes, thick gradients, photorealistic elements, brand logos, or overly decorative styling.

App icon: A plain single-page document with a folded corner at the top right and one or two horizontal lines suggesting content. Plain fallback icon — understated and clean. - updated by SVGMaker Editor -->
<!-- Quality: low -->
<!-- Type: generate -->
<!-- Created: 2026-06-01T14:29:49.848Z -->
<svg xmlns="http://www.w3.org/2000/svg" xmlns:xlink="http://www.w3.org/1999/xlink" version="1.1" width="1024" height="1024" viewBox="0 0 2048 2048">
<desc>Created with SVGMaker Editor 3.0.0</desc>
<defs>
</defs>
<path transform="translate(0,0)" style="fill: rgb(0,0,0)" stroke-linecap="round" d="M 1602.58 1780.88 C 1592.81 1802.2 1551.22 1823.16 1528.33 1824.16 C 1507.78 1825.07 1486.87 1825.1 1466.26 1825.11 L 1358.16 1825.09 L 1010.79 1825.06 L 674.447 1825.04 L 574.832 1825.07 C 556.783 1825.13 534.881 1826.12 517.167 1824.48 C 469.43 1820.06 426.141 1777.84 424.437 1729.16 C 423.43 1700.4 424.118 1670.56 424.147 1641.57 L 424.072 1476.28 L 424.087 941.218 L 424.098 514.54 L 424.057 385.542 C 424.041 366.28 423.122 331.707 425.101 314.002 C 428.013 286.785 441.731 261.877 463.176 244.867 C 494.651 219.716 523.477 222.733 561.298 222.786 L 636.586 222.881 L 885.874 222.898 L 1127.57 222.897 L 1202.2 222.804 C 1238.63 222.778 1273.04 220.503 1303.09 245.824 C 1323.16 262.731 1341.76 282.434 1360.49 300.884 L 1472.29 411.033 L 1569.63 507.047 C 1578.14 515.483 1604.72 540.496 1610.52 547.887 C 1616.56 553.995 1621.11 561.646 1621.51 570.349 C 1622.21 585.455 1621.96 601.201 1621.96 616.329 L 1621.93 698.289 L 1621.92 951.947 L 1621.95 1715.38 C 1621.83 1737.88 1617.12 1762.94 1602.58 1780.88 Z M 1273.09 577.194 C 1271.34 575.68 1269.37 573.761 1267.72 572.11 C 1255.05 559.327 1246.32 543.17 1242.57 525.564 C 1238.55 506.812 1240.14 456.162 1240.15 434.545 L 1240.09 270.629 C 1224.79 272.846 1198.07 271.416 1181.73 271.393 L 1066.3 271.327 L 670.591 271.395 L 574.08 271.344 C 547.533 271.346 515.488 267.23 494.132 284.71 C 478.686 297.353 471.368 313.403 471.659 333.432 C 471.206 372.576 471.469 411.73 471.5 450.875 L 471.406 658.609 L 471.533 1232.77 L 471.517 1572.24 L 471.559 1674.64 C 471.608 1706.33 465.843 1743.46 495.697 1764.15 C 506.551 1771.67 516.278 1775.71 529.788 1776.07 C 555.821 1776.68 582.332 1776.42 608.37 1776.41 L 753.02 1776.46 L 1203.73 1776.47 L 1427.98 1776.5 L 1490.31 1776.48 C 1522.02 1776.4 1545.29 1778.26 1565.33 1748.23 C 1575.63 1732.81 1574.91 1718.31 1574.97 1700.55 C 1575.08 1670.4 1574.98 1640.2 1574.97 1610.02 L 1574.94 1399.02 L 1574.96 874.608 C 1574.95 785.184 1573.4 690.774 1575.12 601.929 L 1410.16 602.08 C 1387.51 602.118 1364.68 602.132 1342.04 602.258 C 1314.23 602.412 1294.68 594.528 1273.09 577.194 Z M 1545.06 553.707 C 1492.21 498.744 1432.14 441.916 1377.62 388.249 L 1319.09 330.207 C 1311.01 322.136 1296.15 306.393 1287.99 299.519 L 1287.85 440.54 C 1287.85 458.299 1287.86 476.065 1287.9 493.855 C 1287.93 511.184 1291.75 524.904 1304.36 537.501 C 1312.74 545.859 1322.59 550.631 1334.2 552.865 C 1354.47 555.176 1379.4 553.995 1400.22 553.953 L 1529.24 553.926 C 1534.51 553.883 1539.78 553.81 1545.06 553.707 Z"></path>
<path transform="translate(0,0)" style="fill: rgb(0,0,0)" stroke-linecap="round" d="M 1610.52 547.887 C 1616.56 553.995 1621.11 561.646 1621.51 570.349 C 1622.21 585.455 1621.96 601.201 1621.96 616.329 L 1621.93 698.289 L 1621.92 951.947 L 1621.95 1715.38 C 1621.83 1737.88 1617.12 1762.94 1602.58 1780.88 C 1601.9 1775.59 1611.39 1759.28 1613.32 1752.1 C 1620.77 1724.3 1618.12 1691.89 1618.13 1662.8 L 1618.11 1537.59 L 1618.07 768.194 C 1618.07 703.701 1618.18 639.152 1618.02 574.66 C 1617.98 560.822 1610.22 555.757 1610.52 547.887 Z"></path>
<path transform="translate(0,0)" style="fill: rgb(0,0,0)" stroke-linecap="round" d="M 653.654 1334.16 C 662.566 1330.64 749.872 1332.21 764.456 1332.2 L 973.162 1332.15 L 1244.41 1332.14 C 1291.06 1332.14 1337.71 1332.07 1384.36 1332.22 C 1390.25 1332.24 1393.61 1333.14 1398.41 1336.43 C 1418.25 1350.14 1410.18 1380.97 1386.27 1381.65 C 1367.71 1382.17 1345.42 1382.93 1326.97 1381.83 C 1298.39 1382.78 1265.45 1381.99 1236.36 1381.99 L 1062.95 1381.98 C 1048.63 1382.04 1034.32 1382 1020 1381.86 C 991.897 1382.91 954.335 1382.14 926.063 1381.85 C 915.109 1382.05 904.153 1382.05 893.199 1381.85 C 875.147 1382.55 853.503 1382 835.151 1382 L 722.774 1381.99 C 702.001 1382.1 674.942 1384.09 655.115 1379.78 C 632.856 1374.93 632.017 1342.37 653.654 1334.16 Z"></path>
<path transform="translate(0,0)" style="fill: rgb(0,0,0)" stroke-linecap="round" d="M 653.654 1334.16 C 662.566 1330.64 749.872 1332.21 764.456 1332.2 L 973.162 1332.15 L 1244.41 1332.14 C 1291.06 1332.14 1337.71 1332.07 1384.36 1332.22 C 1390.25 1332.24 1393.61 1333.14 1398.41 1336.43 C 1391.77 1337.68 1350.19 1335.93 1341.05 1335.93 L 1256.64 1335.95 L 863.999 1336 L 731.191 1335.99 C 720.66 1335.99 659.291 1337.15 653.654 1334.16 Z"></path>
<path transform="translate(0,0)" style="fill: rgb(0,0,0)" stroke-linecap="round" d="M 1062.95 1381.98 L 1068.03 1380.56 C 1074.68 1378.75 1093.96 1381.81 1101.77 1380.78 C 1100.3 1379.35 1092.14 1379.4 1090.09 1379.76 L 1089.07 1378.62 C 1100.37 1378.65 1111.98 1379.51 1122.98 1379.34 C 1143.84 1379.03 1167.69 1377.36 1188.39 1379.06 L 1184.48 1379.39 C 1201.34 1380.3 1223.59 1380.47 1240.39 1379.27 L 1238.48 1378.97 C 1258.18 1378.11 1293.01 1377.66 1312.39 1379.17 L 1311.57 1379.29 C 1316.32 1379.71 1323.58 1379.59 1326.97 1381.83 C 1298.39 1382.78 1265.45 1381.99 1236.36 1381.99 L 1062.95 1381.98 Z"></path>
<path transform="translate(0,0)" style="fill: rgb(0,0,0)" stroke-linecap="round" d="M 926.063 1381.85 L 926.64 1380.18 C 934.894 1377.98 1012.11 1377.72 1019.01 1380.07 L 1020 1381.86 C 991.897 1382.91 954.335 1382.14 926.063 1381.85 Z"></path>
<path transform="translate(0,0)" style="fill: rgb(0,0,0)" stroke-linecap="round" d="M 652.723 950.103 C 664.471 946.97 709.715 948.175 723.68 948.197 L 851.103 948.251 L 1190.03 948.245 C 1252.72 948.206 1315.41 948.159 1378.1 948.268 C 1383.42 948.677 1391.14 948.222 1395.87 950.747 C 1416.59 961.785 1413.15 994.075 1389.2 997.656 C 1381.67 998.781 1368.05 998.487 1360.27 997.851 C 1304.84 999.198 1244.93 998.068 1189.16 998.062 C 1157.02 997.96 1123.67 998.645 1091.65 997.879 C 1082.12 998.167 1071.74 997.997 1062.13 998.032 C 1046.45 998.081 1029.93 998.384 1014.33 997.866 C 1004.79 998.179 994.891 998.134 985.325 998.043 C 924.14 997.465 862.65 998.927 801.494 997.856 C 782.276 999.52 749.365 997.322 728.589 998.109 C 707.807 996.242 678.763 1000.8 658.639 997.392 C 634.008 993.217 630.742 963.789 652.723 950.103 Z"></path>
<path transform="translate(0,0)" style="fill: rgb(0,0,0)" stroke-linecap="round" d="M 652.723 950.103 C 664.471 946.97 709.715 948.175 723.68 948.197 L 851.103 948.251 L 1190.03 948.245 C 1252.72 948.206 1315.41 948.159 1378.1 948.268 C 1383.42 948.677 1391.14 948.222 1395.87 950.747 C 1416.59 961.785 1413.15 994.075 1389.2 997.656 C 1381.67 998.781 1368.05 998.487 1360.27 997.851 C 1362 996.876 1381.28 996.472 1385.55 996.157 L 1384.52 995.763 L 1391.31 994.383 C 1411.94 986.841 1410.05 962.805 1392.02 952.268 C 1371.5 951.455 1347.49 952.026 1326.79 952.026 L 1208.53 952.037 L 848.412 952.043 L 720.657 952.038 C 709.381 952.042 658.884 953.304 652.723 950.103 Z"></path>
<path transform="translate(0,0)" style="fill: rgb(0,0,0)" stroke-linecap="round" d="M 801.494 997.856 C 827.099 992.357 872.581 994.671 899.997 994.601 C 936.376 994.508 974.047 994.262 1010.31 995.259 C 1025.73 994.756 1047.48 994.71 1062.96 994.856 L 1062.13 998.032 C 1046.45 998.081 1029.93 998.384 1014.33 997.866 C 1004.79 998.179 994.891 998.134 985.325 998.043 C 924.14 997.465 862.65 998.927 801.494 997.856 Z"></path>
<path transform="translate(0,0)" style="fill: rgb(0,0,0)" stroke-linecap="round" d="M 1189.82 995.038 C 1200.23 993.981 1213.42 995.925 1224.56 995.887 L 1325.01 996.136 C 1346.01 996.288 1369.27 992.789 1391.31 994.383 L 1384.52 995.763 L 1385.55 996.157 C 1381.28 996.472 1362 996.876 1360.27 997.851 C 1304.84 999.198 1244.93 998.068 1189.16 998.062 L 1189.82 995.038 Z"></path>
<path transform="translate(0,0)" style="fill: rgb(0,0,0)" stroke-linecap="round" d="M 1091.28 995.016 C 1124.13 994.203 1156.98 994.211 1189.82 995.038 L 1189.16 998.062 C 1157.02 997.96 1123.67 998.645 1091.65 997.879 L 1086.96 996.475 L 1091.28 995.016 Z"></path>
<path transform="translate(0,0)" style="fill: rgb(0,0,0)" stroke-linecap="round" d="M 1062.96 994.856 C 1071.37 994.873 1083.18 994.544 1091.28 995.016 L 1086.96 996.475 L 1091.65 997.879 C 1082.12 998.167 1071.74 997.997 1062.13 998.032 L 1062.96 994.856 Z"></path>
<path transform="translate(0,0)" style="fill: rgb(0,0,0)" stroke-linecap="round" d="M 652.128 758.29 C 664.15 754.886 716.042 756.175 732.41 756.182 L 874.017 756.35 L 1210.33 756.201 L 1324 756.204 C 1344.01 756.196 1364.12 756.072 1384.13 756.269 C 1389.59 756.323 1392.94 757.342 1397.71 759.815 C 1401.81 763.039 1404.24 765.193 1406.8 769.867 C 1409.28 775.745 1410.97 785.036 1408.42 790.977 C 1399.74 811.194 1362.64 806.039 1344.35 806.029 L 1270.14 805.995 L 1046.5 806.034 L 795.002 805.968 C 750.699 805.982 706.395 806.164 662.093 805.886 C 657.68 805.859 653.625 804.133 649.968 801.763 C 631.93 792.135 635.465 768.914 652.128 758.29 Z"></path>
<path transform="translate(0,0)" style="fill: rgb(0,0,0)" stroke-linecap="round" d="M 652.128 758.29 C 664.15 754.886 716.042 756.175 732.41 756.182 L 874.017 756.35 L 1210.33 756.201 L 1324 756.204 C 1344.01 756.196 1364.12 756.072 1384.13 756.269 C 1389.59 756.323 1392.94 757.342 1397.71 759.815 C 1372.93 761.326 1334.04 760.049 1308.1 760.049 L 1131.16 760.04 L 822.426 760.043 C 801.649 760.044 659.259 761.488 652.128 758.29 Z"></path>
<path transform="translate(0,0)" style="fill: rgb(0,0,0)" stroke-linecap="round" d="M 1406.8 769.867 C 1409.28 775.745 1410.97 785.036 1408.42 790.977 C 1399.74 811.194 1362.64 806.039 1344.35 806.029 L 1270.14 805.995 L 1046.5 806.034 L 795.002 805.968 C 750.699 805.982 706.395 806.164 662.093 805.886 C 657.68 805.859 653.625 804.133 649.968 801.763 C 651.195 801.622 670.323 802.331 673.317 802.35 C 696.458 802.672 719.602 802.828 742.746 802.818 L 1154.44 802.495 L 1298.74 802.445 C 1326.23 802.462 1354.02 802.629 1381.5 802.306 C 1385.68 802.256 1393.01 801.325 1396.24 799.9 C 1408.28 794.581 1404.3 780.715 1406.19 771.018 C 1406.39 770.634 1406.6 770.251 1406.8 769.867 Z"></path>
<path transform="translate(0,0)" style="fill: rgb(0,0,0)" stroke-linecap="round" d="M 654.925 1138.15 C 694.92 1136.64 742.004 1137.76 782.433 1137.76 L 1018.94 1137.76 L 1264.95 1137.77 C 1301 1137.77 1357.97 1136.27 1395.22 1139.63 C 1398.21 1139.9 1404.93 1147.07 1406.78 1150.72 C 1409.87 1156.95 1410.29 1164.18 1407.93 1170.74 C 1404.88 1179.3 1400.48 1182.39 1392.74 1186.05 C 1383.9 1187.84 1348.13 1187.13 1337.05 1187.12 L 1220.8 1187.03 L 757.358 1187.07 C 724.548 1187.07 685.74 1188.51 653.736 1185.64 C 640.767 1184.48 626.143 1151.71 654.925 1138.15 Z"></path>
<path transform="translate(0,0)" style="fill: rgb(0,0,0)" stroke-linecap="round" d="M 1240.09 270.629 L 1242.5 269.612 C 1246.57 275.815 1241.88 489.751 1244.54 516.375 C 1245.61 528.223 1249.35 539.675 1255.48 549.871 C 1260.36 558.146 1272.46 570.397 1273.09 577.194 C 1271.34 575.68 1269.37 573.761 1267.72 572.11 C 1255.05 559.327 1246.32 543.17 1242.57 525.564 C 1238.55 506.812 1240.14 456.162 1240.15 434.545 L 1240.09 270.629 Z"></path>
</svg>