<?xml version="1.0" encoding="UTF-8" standalone="no"?>
<!-- Generated by SVGMaker - https://svgmaker.io -->
<!-- Prompt: STYLE: Clean outline / line-art icons. Use a single consistent stroke weight throughout. Corners should be slightly rounded for a modern, approachable feel. No heavy gradients inside icons. No decorative flourishes or playful elements.

TONE: Clinical, private, and family-friendly. Icons must feel trustworthy and professional — like a medical utility tool, not a consumer wellness app.

SIZE ＆ READABILITY: Every icon must be readable and distinct at 20px to 28px. Shapes should be bold enough silhouettes to work at small sizes.

STROKE ＆ GEOMETRY: Consistent stroke weight and corner radius across all icons in the set. Prefer simple, recognisable silhouettes. Avoid overly complex detail. Use black (000000) as the only colour on a transparent background.

STATES: For status icons (confirm, warning, delete, iCloud), use stronger filled or badge variants to signal importance. All other icons remain outline-only unless noted.

EXPORT: Vector SVG with transparent background. Do not include drop shadows, outer glows, or bounding box fills.

COLOR: Output in monochrome / single foreground color so the app can tint icons programmatically.

DO NOT include: playful cartoon shapes, thick gradients, photorealistic elements, brand logos, or overly decorative styling.

App icon: A calendar page, clean and minimal. One or two date rows suggested by small lines. Used for an empty health history timeline. Outline style. - updated by SVGMaker Editor -->
<!-- Quality: low -->
<!-- Type: generate -->
<!-- Created: 2026-06-01T15:11:07.825Z -->
<svg xmlns="http://www.w3.org/2000/svg" xmlns:xlink="http://www.w3.org/1999/xlink" version="1.1" width="1024" height="1024" viewBox="0 0 2048 2048">
<desc>Created with SVGMaker Editor 3.0.0</desc>
<defs>
</defs>
<path transform="translate(0,0)" style="fill: rgb(0,0,0)" stroke-linecap="round" d="M 653.774 477.984 C 651.401 447.566 650.496 406.937 671.164 382.63 C 683.56 368.181 701.242 359.317 720.237 358.031 C 763.439 354.725 798.75 384.651 801.035 428.553 C 801.879 444.782 801.285 461.656 801.339 477.971 L 1245.68 478.036 C 1245.29 466.539 1246.28 452.488 1245.58 441.694 C 1238.67 334.645 1392.65 326.732 1393.4 436.717 L 1393.32 478.107 L 1469.96 478.041 C 1505.89 478.01 1539.86 475.016 1572.28 493.889 C 1620.16 521.766 1639.24 565.087 1638.87 618.998 C 1638.84 622.181 1638.79 625.363 1638.7 628.545 C 1639.28 649.815 1638.77 673.95 1638.78 695.491 L 1638.8 827.571 L 1638.77 1226.58 L 1638.75 1426.6 L 1638.78 1489.57 C 1638.84 1512.41 1639.91 1546.45 1633.73 1567.88 C 1624.14 1600.55 1601.92 1628.06 1572 1644.32 C 1555.17 1653.45 1536.53 1658.77 1517.42 1659.9 C 1500.85 1660.86 1479.56 1660.3 1462.6 1660.29 L 1364.09 1660.25 L 1058.4 1660.22 L 696.39 1660.27 L 592.893 1660.26 C 563.924 1660.28 522.429 1662.53 495.62 1654.68 C 463.929 1645.13 437.34 1623.36 421.714 1594.18 C 413.862 1579.61 409.229 1563.52 408.126 1547 C 405.649 1507.9 407.361 1451.67 407.381 1411.12 L 407.424 1160.68 L 407.436 783.388 L 407.384 676.24 C 407.372 643.824 404.82 598.615 413.253 568.079 C 419.727 544.633 440.936 512.124 462.921 500.524 C 493.663 474.359 543.115 477.927 580.442 477.962 L 653.774 477.984 Z M 1566.38 1586.97 C 1594.16 1557.99 1590.49 1533.75 1590.12 1496.29 C 1590.05 1489.12 1590.08 1481.67 1590.08 1474.49 L 1590.13 1328.37 L 1590.2 793.948 C 1511.17 795.528 1428 794.242 1348.68 794.242 L 893.163 794.259 L 601.908 794.268 L 508.157 794.28 C 492.239 794.284 471.35 794.853 455.875 793.921 L 455.834 1316.67 L 455.851 1467.08 C 455.844 1473.6 455.7 1480.17 455.821 1486.68 C 456.533 1525.01 449.378 1558.29 479.261 1587.87 C 492.646 1600.91 509.924 1609.21 528.464 1611.51 C 539.298 1612.8 557.132 1612.33 568.554 1612.32 L 632.651 1612.27 L 847.349 1612.24 L 1287.12 1612.25 C 1359.37 1612.25 1431.7 1612.28 1503.95 1612.28 C 1528.47 1612.28 1548.4 1603.77 1566.38 1586.97 Z M 1314.5 408.127 C 1307.29 411.214 1300.23 414.981 1297.36 422.843 C 1293.84 432.5 1294.62 571.143 1298.12 578.615 C 1300.61 583.929 1306.39 587.725 1311.86 589.304 C 1315.78 590.436 1320.04 590.39 1324.09 590.209 C 1330.97 587.43 1336.57 584.344 1339.81 577.322 C 1341.06 574.608 1341.53 571.833 1341.75 568.873 C 1343 551.99 1343.84 431.509 1339.98 422.041 C 1337.65 416.312 1332.63 411.994 1326.97 409.737 C 1322.93 408.13 1318.8 407.727 1314.5 408.127 Z M 723.223 405.257 C 715.158 408.154 707.435 411.079 703.526 419.428 C 699.035 429.022 698.795 570.573 703.226 579.096 C 706.914 586.189 714.011 590.653 721.595 592.636 C 725.251 593.592 729.073 593.297 732.79 592.862 C 739.997 590.196 747.309 586.241 750.724 578.945 C 754.957 569.904 754.372 455.362 753.524 438.847 C 753.224 432.998 752.873 426.007 750.883 420.477 C 748.786 414.651 743.5 410.413 737.991 407.984 C 733.269 405.901 728.377 404.915 723.223 405.257 Z M 800.982 526.994 C 801.281 559.321 806.12 593.03 781.206 618.117 C 752.161 647.365 701.748 647.669 672.657 618.286 C 652.199 597.623 652.971 571.122 653.535 544.002 C 653.658 538.379 653.81 532.757 653.992 527.136 L 573.342 527.058 C 562.277 527.052 541.873 526.481 531.217 527.369 C 509.051 529.453 489.372 538.048 474.952 555.397 C 466.053 566.195 460.015 579.059 457.394 592.804 C 454.673 606.72 456.033 627.812 455.755 642.449 C 455.115 676.091 456.758 711.659 455.632 745.102 L 1201.73 745.096 C 1330.3 745.103 1461.91 743.687 1590.25 745.317 L 1590.2 647.763 C 1590.21 632.906 1591.02 603.487 1588.61 589.989 C 1581.12 566.055 1569.54 548.394 1546.62 536.421 C 1538.51 532.197 1529.75 529.382 1520.7 528.095 C 1507.98 526.221 1492.19 527.226 1479.18 526.963 C 1451.01 526.394 1421.07 527.892 1393.06 527.046 C 1393.36 559.394 1398.15 592.832 1373.12 617.967 C 1344.92 646.285 1295.28 648.148 1266.42 619.567 C 1245.91 599.256 1245.45 577.322 1245.68 550.14 C 1245.77 542.458 1245.91 534.777 1246.12 527.097 L 949.985 527.078 C 901.916 527.074 848.449 528.302 800.982 526.994 Z"></path>
<path transform="translate(0,0)" style="fill: rgb(0,0,0)" stroke-linecap="round" d="M 653.774 477.984 C 651.401 447.566 650.496 406.937 671.164 382.63 C 683.56 368.181 701.242 359.317 720.237 358.031 C 763.439 354.725 798.75 384.651 801.035 428.553 C 801.879 444.782 801.285 461.656 801.339 477.971 L 1245.68 478.036 C 1245.29 466.539 1246.28 452.488 1245.58 441.694 C 1238.67 334.645 1392.65 326.732 1393.4 436.717 L 1393.32 478.107 L 1469.96 478.041 C 1505.89 478.01 1539.86 475.016 1572.28 493.889 C 1620.16 521.766 1639.24 565.087 1638.87 618.998 C 1638.84 622.181 1638.79 625.363 1638.7 628.545 C 1637.96 624.509 1636.66 607.853 1636.23 602.949 C 1633.35 570.166 1622.36 543.558 1599.99 519.063 C 1584.05 501.652 1552.47 483.076 1528.34 481.94 C 1483.15 479.812 1436.31 483.067 1390.96 481.442 L 1390.76 479.968 C 1385.94 444.549 1400.45 413.949 1370.34 382.184 C 1357.85 368.977 1340.63 361.263 1322.46 360.735 C 1277.04 359.77 1248.09 393.02 1248.38 437.031 C 1248.47 451.864 1248.31 466.933 1248.19 481.772 L 938.724 482.06 L 847.887 482.121 C 835.716 482.134 809.814 482.743 799.024 481.209 C 793.523 445.516 808.533 414.257 778.127 382.037 C 765.507 368.928 748.241 361.304 730.051 360.807 C 686.236 359.57 657.097 391.133 656.51 434.016 C 656.294 449.797 656.166 465.654 655.871 481.435 C 619.511 481.95 583.618 481.057 547.338 481.13 C 523.895 481.177 505.908 481.345 484.111 491.655 C 478.619 494.252 468.379 500.146 462.921 500.524 C 493.663 474.359 543.115 477.927 580.442 477.962 L 653.774 477.984 Z"></path>
<path transform="translate(0,0)" style="fill: rgb(0,0,0)" stroke-linecap="round" d="M 705.383 1242.33 C 743.574 1240.78 791.919 1242.18 831.069 1242.15 L 1095.31 1242.2 L 1262.08 1242.19 C 1285.56 1242.16 1309.02 1242.1 1332.51 1242.15 C 1342.76 1242.17 1356.45 1243.29 1360.83 1254.85 C 1367.37 1272.07 1361.24 1283.65 1344.44 1290.33 C 1320.6 1291.95 1280.94 1290.77 1256.13 1290.76 L 1092.25 1290.76 L 836.525 1290.71 C 795.969 1290.7 755.277 1290.86 714.717 1290.78 C 709.124 1290.76 703.925 1290.51 698.832 1288.02 C 692.935 1285.11 688.522 1279.87 686.658 1273.56 C 682.327 1258.59 690.877 1246.3 705.383 1242.33 Z"></path>
<path transform="translate(0,0)" style="fill: rgb(0,0,0)" stroke-linecap="round" d="M 704.454 1009.22 C 745.17 1008.53 787.83 1009.13 828.71 1009.13 L 1065.66 1009.13 L 1238.71 1009.17 C 1253.81 1009.13 1341.03 1007.22 1349.96 1011.49 C 1355.51 1014.08 1359.77 1018.83 1361.76 1024.63 C 1366.62 1039.04 1359.26 1052.91 1344.48 1056.83 C 1317.16 1058.04 1282.07 1057.08 1254.37 1057.07 L 1083.91 1057.04 L 842.575 1057.06 C 799.862 1057.08 757.07 1057.17 714.357 1057.07 C 709.666 1056.88 703.946 1056.92 699.577 1055.1 C 687.531 1050.07 682.865 1033.02 688.253 1021.73 C 691.534 1014.86 697.429 1011.74 704.454 1009.22 Z"></path>
<path transform="translate(0,0)" style="fill: rgb(0,0,0)" stroke-linecap="round" d="M 723.223 405.257 C 728.377 404.915 733.269 405.901 737.991 407.984 C 743.5 410.413 748.786 414.651 750.883 420.477 C 752.873 426.007 753.224 432.998 753.524 438.847 C 754.372 455.362 754.957 569.904 750.724 578.945 C 747.309 586.241 739.997 590.196 732.79 592.862 C 729.073 593.297 725.251 593.592 721.595 592.636 C 714.011 590.653 706.914 586.189 703.226 579.096 C 698.795 570.573 699.035 429.022 703.526 419.428 C 707.435 411.079 715.158 408.154 723.223 405.257 Z M 731.106 590.153 C 738.281 587.703 743.954 584.944 747.453 577.868 C 749.138 574.459 749.543 571.291 749.786 567.545 C 750.837 551.334 751.66 431.515 748.59 423.349 C 746.164 416.893 741.328 412.183 734.943 409.669 C 730.99 408.113 727.432 407.991 723.255 408.127 C 716.136 410.902 709.647 413.719 706.104 421.035 C 704.93 423.459 704.506 425.848 704.28 428.509 C 702.872 445.057 702.549 568.744 706.121 577.72 C 708.336 583.286 713.129 586.738 718.602 588.72 C 722.755 590.224 726.739 590.207 731.106 590.153 Z"></path>
</svg>