<?xml version="1.0" encoding="UTF-8" standalone="no"?>
<!-- Generated by SVGMaker - https://svgmaker.io -->
<!-- Prompt: STYLE: Clean outline / line-art icons. Use a single consistent stroke weight throughout. Corners should be slightly rounded for a modern, approachable feel. No heavy gradients inside icons. No decorative flourishes or playful elements.

TONE: Clinical, private, and family-friendly. Icons must feel trustworthy and professional — like a medical utility tool, not a consumer wellness app.

SIZE ＆ READABILITY: Every icon must be readable and distinct at 20px to 28px. Shapes should be bold enough silhouettes to work at small sizes.

STROKE ＆ GEOMETRY: Consistent stroke weight and corner radius across all icons in the set. Prefer simple, recognisable silhouettes. Avoid overly complex detail. Use black (000000) as the only colour on a transparent background.

STATES: For status icons (confirm, warning, delete, iCloud), use stronger filled or badge variants to signal importance. All other icons remain outline-only unless noted.

EXPORT: Vector SVG with transparent background. Do not include drop shadows, outer glows, or bounding box fills.

COLOR: Output in monochrome / single foreground color so the app can tint icons programmatically.

DO NOT include: playful cartoon shapes, thick gradients, photorealistic elements, brand logos, or overly decorative styling.

App icon: A medical bag or case with a cross symbol on its face. Conveys serious clinical records and discharge summaries. Outline style with the cross as a distinct filled or thicker inset shape. - updated by SVGMaker Editor -->
<!-- Quality: low -->
<!-- Type: generate -->
<!-- Created: 2026-06-01T14:22:30.350Z -->
<svg xmlns="http://www.w3.org/2000/svg" xmlns:xlink="http://www.w3.org/1999/xlink" version="1.1" width="1024" height="1024" viewBox="0 0 2048 2048">
<desc>Created with SVGMaker Editor 3.0.0</desc>
<defs>
</defs>
<path transform="translate(0,0)" style="fill: rgb(0,0,0)" stroke-linecap="round" d="M 868.056 269.49 C 882.644 267.765 901.742 268.31 916.844 268.317 L 992.795 268.381 L 1101.56 268.389 C 1129.85 268.383 1174.04 266.063 1200.45 273.976 C 1250.09 284.225 1299.64 319.101 1327.52 361.062 C 1358 406.914 1362.42 447.662 1361.13 500.813 C 1360.7 518.43 1361.48 537.244 1360.87 555.165 L 1543.85 555.011 C 1581.54 555.028 1648.54 552.457 1682.46 560.487 C 1718.6 569.053 1751.76 587.22 1778.43 613.071 C 1818.3 652.23 1840.66 701.713 1840.98 757.711 L 1840.97 1318.28 L 1841.04 1474.13 C 1841.06 1502.29 1842.7 1545.27 1838.17 1571.53 C 1831.2 1610.23 1812.93 1646 1785.65 1674.33 C 1740.9 1719.95 1695.57 1736.13 1633.38 1736.38 L 769.017 1736.37 L 501 1736.3 L 428.363 1736.31 C 412.056 1736.35 392.073 1737.02 376.115 1734.94 C 343.55 1730.71 298.073 1712.75 274.858 1688.67 C 257.575 1674.97 243.492 1655.92 231.973 1637.25 C 207.166 1597.03 203.983 1558.13 204.069 1512.33 L 204.112 1454.86 L 204.105 1264.32 L 204.113 908.272 L 204.079 810.82 C 204.076 778.259 202.043 742.906 209.945 711.582 C 212.76 681.771 244.492 632.944 265.792 611.963 C 290.924 586.926 322.426 569.241 356.888 560.823 C 391.582 552.345 460.003 555.047 498.993 555.031 L 685.265 555.151 C 684.126 476.031 676.923 405.942 732.008 341.767 C 766.515 301.566 815.005 274.019 868.056 269.49 Z M 412.684 620.442 C 394.643 621.82 381.369 623.439 364.986 629.696 C 306.288 652.112 269.828 711.095 272.687 773.353 C 272.953 779.146 272.646 785.926 272.638 791.921 L 272.62 860.809 L 272.649 1093.55 L 272.662 1396.09 L 272.68 1490.35 C 272.667 1508.36 272.081 1527.54 273.262 1545.51 C 277.494 1609.93 335.145 1665.97 399.003 1671.11 C 422.019 1672.96 446.624 1672.16 469.8 1672.16 L 595.706 1672.14 L 1007.19 1672.14 L 1440.25 1672.14 L 1573.12 1672.18 C 1611.15 1672.19 1656.57 1676.27 1691.21 1658.95 C 1727.73 1640.5 1753.92 1613.15 1766.88 1573.86 C 1770.73 1562.3 1773.05 1550.28 1773.78 1538.12 C 1774.68 1522.15 1774.15 1501.68 1774.13 1485.52 L 1774.1 1399.16 L 1774.12 1126.97 L 1774.05 880.043 L 1774.07 805.552 C 1774.12 792.202 1774.77 772.997 1773.91 760.007 C 1772.73 739.899 1767.39 720.255 1758.24 702.312 C 1740.03 666.843 1709.78 639.974 1671.74 627.324 C 1643.7 617.999 1599.77 620.379 1569.24 620.401 L 1481.09 620.467 L 1250.03 620.478 L 412.684 620.442 Z M 813.212 555.139 C 813.006 539.909 812.911 524.678 812.927 509.446 C 812.913 478.808 811.787 453.081 834.929 429.252 C 853.581 410.046 874.797 404.2 900.96 404.066 L 1071.61 404.074 C 1091.95 404.054 1148.33 402.648 1165.8 406.309 C 1242.4 428.797 1230.63 490.684 1230.2 555.073 C 1251.5 554.947 1272.8 554.969 1294.1 555.14 C 1293.77 487.072 1303.22 431.316 1249.69 378.684 C 1229.84 359.443 1205.14 345.961 1178.22 339.678 C 1156.76 334.706 1136.3 335.789 1114.44 335.827 L 1055.46 335.882 C 1001.1 335.91 946.684 335.764 892.324 335.839 C 889.133 335.844 883.833 335.926 880.769 336.317 C 798.313 349.846 745.434 413.527 751.82 497.742 C 752.975 512.968 752.071 539.288 751.872 555.111 C 772.318 554.926 792.766 554.935 813.212 555.139 Z M 879.93 555.181 C 971.547 554.007 1063.93 555.526 1155.62 555.034 C 1158.55 555.04 1162.64 555.504 1164.89 553.953 C 1165.35 548.742 1165.95 538.632 1165.23 532.429 C 1163.34 516.196 1168.79 492.508 1160.86 478.245 C 1158.15 473.361 1151.41 472.548 1146.88 472.378 C 1130.42 471.256 1113.5 472.493 1097.01 472.483 L 1002.82 472.295 C 978.183 472.362 953.544 472.239 928.908 471.927 C 918.577 471.897 903.146 471.476 893.231 472.231 C 876.778 479.377 879.865 493.178 879.605 508.557 C 879.343 524.029 880.194 539.709 879.93 555.181 Z"></path>
<path transform="translate(0,0)" style="fill: rgb(0,0,0)" stroke-linecap="round" d="M 274.858 1688.67 C 257.575 1674.97 243.492 1655.92 231.973 1637.25 C 207.166 1597.03 203.983 1558.13 204.069 1512.33 L 204.112 1454.86 L 204.105 1264.32 L 204.113 908.272 L 204.079 810.82 C 204.076 778.259 202.043 742.906 209.945 711.582 L 207.949 1315.99 L 207.881 1476.16 C 207.867 1505.65 206.191 1540.99 210.311 1569.51 C 215.856 1607.89 238.147 1645.4 262.862 1674.42 C 267.211 1679.51 273.075 1681.42 274.858 1688.67 Z"></path>
<path transform="translate(0,0)" style="fill: rgb(0,0,0)" stroke-linecap="round" d="M 868.056 269.49 C 882.644 267.765 901.742 268.31 916.844 268.317 L 992.795 268.381 L 1101.56 268.389 C 1129.85 268.383 1174.04 266.063 1200.45 273.976 C 1192 275.285 1177.99 272.161 1168.92 272.035 C 1159.34 271.903 1149.68 272.005 1140.12 272.007 L 966.585 272.033 C 936.483 272.038 905.727 272.313 875.602 271.625 C 872.419 271.552 870.786 270.903 868.056 269.49 Z"></path>
<path transform="translate(0,0)" style="fill: rgb(0,0,0)" stroke-linecap="round" d="M 953.742 956.62 C 970.135 953.808 1078.03 953.329 1093.12 956.96 C 1106.42 959.451 1119.51 967.514 1128.92 977.07 C 1154.01 1002.57 1150.83 1029.54 1150.82 1062.69 C 1150.86 1081.12 1150.74 1099.56 1150.46 1117.99 C 1180.53 1117.63 1210.77 1118.56 1240.87 1117.98 C 1252.85 1117.75 1266.39 1117.37 1278 1120.21 C 1289.8 1123.09 1300.61 1129.09 1309.32 1137.56 C 1327.21 1154.92 1330.87 1175.66 1331.04 1199.47 L 1331.08 1257.74 C 1331.23 1290.76 1335.96 1325.12 1311.03 1349.98 C 1302.01 1358.87 1290.72 1365.11 1278.39 1368.02 C 1264.91 1371.26 1240.11 1370.14 1225.41 1370.14 L 1150.95 1370.12 L 1151.05 1449.65 C 1151.04 1478.25 1151.16 1499.91 1129.53 1521.12 C 1105.21 1544.98 1079.93 1542.4 1048.32 1542.51 L 996.994 1542.48 C 966.909 1542.31 940.336 1542.45 917.875 1519.38 C 909.076 1510.34 903.698 1500.04 900.647 1487.85 C 895.164 1465.92 898.042 1396.18 898.264 1369.99 C 860.454 1370.53 822.343 1370.18 784.523 1369.97 C 779.92 1369.94 773.724 1368.87 769.233 1367.77 C 757.04 1364.85 745.864 1358.68 736.887 1349.93 C 710.758 1324.27 716.051 1291.59 716.202 1257.62 L 715.951 1198.92 C 715.857 1175.16 719.114 1155.84 736.628 1137.96 C 761.059 1113.01 797.022 1117.96 829.787 1117.95 L 898.808 1117.97 C 898.308 1098.79 898.076 1079.62 898.113 1060.44 C 898.065 1039.42 896.379 1015.5 905.63 996.181 C 915.556 975.457 932.298 963.274 953.742 956.62 Z M 794.416 1184.09 C 791.195 1186.17 784.954 1190.29 784.698 1194.54 C 782.86 1225.06 784.081 1256.78 784.061 1287.34 C 784.049 1305.07 793.884 1306.44 809.118 1306.37 L 844.367 1306.05 L 904.056 1305.88 C 918.121 1305.86 937.262 1304.08 949.713 1310.38 C 949.946 1310.95 950.168 1311.53 950.412 1312.1 C 953.018 1318.18 958.143 1321.91 959.47 1328.85 C 961.19 1337.86 960.123 1348.46 960.059 1357.65 C 959.926 1376.81 957.396 1452.9 962.238 1465.69 C 963.829 1469.89 967.847 1472.87 971.924 1474.43 C 976.52 1476.19 985.012 1477.11 989.479 1474.64 C 989.739 1474.5 989.973 1474.31 990.22 1474.15 C 1005.23 1473.75 1067.66 1476.67 1076.6 1471.85 C 1080.47 1469.76 1082.51 1465.83 1083.46 1461.67 C 1086.09 1450.2 1084.29 1435.53 1084.22 1423.66 L 1083.97 1354.27 C 1083.96 1346.89 1083.3 1332.13 1085.23 1325.42 C 1091.96 1302.05 1123.87 1305.95 1141.84 1305.98 L 1211.73 1306.23 C 1224.07 1306.3 1247.79 1308.21 1258.86 1303.39 C 1268 1298.26 1266.45 1280.04 1266.21 1271.59 C 1265.51 1248.02 1266.68 1224.28 1265.9 1200.73 C 1265.54 1189.8 1259.47 1185.06 1248.99 1184.1 C 1237.89 1183.09 1225.71 1183.62 1214.52 1183.65 L 1142.97 1183.93 C 1125.17 1184 1104 1187.08 1091.26 1172.34 C 1081.83 1161.43 1083.96 1141.79 1084.02 1128.07 L 1084.29 1068.7 C 1084.36 1051.11 1089.95 1018.97 1064.96 1019.42 C 1038.29 1019.9 1011.34 1018.38 984.691 1019.18 C 973.401 1019.52 967.275 1025.56 966.814 1036.79 C 966.255 1047.59 966.608 1058.74 966.654 1069.74 L 966.812 1139.47 C 967.375 1182.36 950.908 1184.1 913.286 1183.96 L 838.252 1183.85 C 825.059 1183.84 807.331 1183.32 794.416 1184.09 Z"></path>
<path transform="translate(0,0)" style="fill: rgb(0,0,0)" stroke-linecap="round" d="M 953.742 956.62 C 970.135 953.808 1078.03 953.329 1093.12 956.96 C 1082.35 956.525 1070.68 958.094 1059.65 958.123 C 1030.97 958.199 1002.3 958.397 973.626 958.167 C 966.877 958.113 960.364 958.147 953.742 956.62 Z"></path>
<path transform="translate(0,0)" style="fill: rgb(0,0,0)" stroke-linecap="round" d="M 785.594 1303.8 C 784.121 1301.22 781.398 1296.6 781.257 1293.35 C 779.941 1262.14 779.461 1229.64 781.268 1198.49 C 782.569 1176.05 812.009 1180.78 827.779 1180.8 L 896.01 1180.93 C 938.353 1181.23 959.602 1189.35 966.812 1139.47 C 967.375 1182.36 950.908 1184.1 913.286 1183.96 L 838.252 1183.85 C 825.059 1183.84 807.331 1183.32 794.416 1184.09 C 791.195 1186.17 784.954 1190.29 784.698 1194.54 C 782.86 1225.06 784.081 1256.78 784.061 1287.34 C 784.049 1305.07 793.884 1306.44 809.118 1306.37 L 844.367 1306.05 C 843.289 1307.15 841.556 1308.99 839.954 1309.15 C 823.265 1310.85 800.373 1312.26 785.594 1303.8 Z"></path>
<path transform="translate(0,0)" style="fill: rgb(0,0,0)" stroke-linecap="round" d="M 949.713 1310.38 C 955.46 1313.42 959.031 1317.56 961.085 1323.77 C 965.993 1338.6 963.115 1411.42 963.061 1431.65 C 963.035 1441.56 961.917 1453.21 964.699 1462.79 C 965.822 1466.66 967.857 1469.87 971.473 1471.81 C 976.922 1474.74 984.206 1474.09 990.22 1474.15 C 989.973 1474.31 989.739 1474.5 989.479 1474.64 C 985.012 1477.11 976.52 1476.19 971.924 1474.43 C 967.847 1472.87 963.829 1469.89 962.238 1465.69 C 957.396 1452.9 959.926 1376.81 960.059 1357.65 C 960.123 1348.46 961.19 1337.86 959.47 1328.85 C 958.143 1321.91 953.018 1318.18 950.412 1312.1 C 950.168 1311.53 949.946 1310.95 949.713 1310.38 Z"></path>
<path transform="translate(0,0)" style="fill: rgb(0,0,0)" stroke-linecap="round" d="M 857.206 739.616 C 859.04 731.345 868.83 718.808 874.882 712.906 C 881.129 706.814 897.963 695.892 906.218 694.632 C 936.413 690.021 974.019 692.558 1005 692.137 C 1043.09 691.618 1080.51 692.297 1118.43 692.219 C 1140.58 692.173 1160.06 699.907 1175.28 716.182 C 1188.95 729.183 1196.18 748.648 1195.93 767.335 C 1195.49 801.564 1201.45 836.913 1175.24 863.98 C 1158.86 881.505 1136.47 888.244 1112.82 888.107 C 1050.82 887.75 988.629 888.386 926.606 887.947 C 906.312 886.716 888.96 880.023 874.418 865.697 C 852.83 844.431 850.985 820.303 851.895 791.661 C 852.523 771.897 849.879 758.913 857.206 739.616 Z M 922.026 768.317 C 921.905 782.729 921.863 797.142 921.902 811.555 C 924.311 815.774 926.527 819.789 931.489 821.231 C 938.103 823.154 1097.94 823.198 1114.9 821.874 C 1127.85 814.169 1126.67 804.61 1126.63 790.502 C 1126.59 776.611 1128.28 766.662 1115.88 758.009 C 1061.53 757.37 1007.06 758.124 952.694 757.809 C 946.156 757.771 939.264 757.725 932.749 758.086 C 927.163 761.314 925.468 762.812 922.026 768.317 Z"></path>
<path transform="translate(0,0)" style="fill: rgb(0,0,0)" stroke-linecap="round" d="M 1175.28 716.182 C 1188.95 729.183 1196.18 748.648 1195.93 767.335 C 1195.49 801.564 1201.45 836.913 1175.24 863.98 C 1158.86 881.505 1136.47 888.244 1112.82 888.107 C 1050.82 887.75 988.629 888.386 926.606 887.947 C 906.312 886.716 888.96 880.023 874.418 865.697 C 852.83 844.431 850.985 820.303 851.895 791.661 C 852.523 771.897 849.879 758.913 857.206 739.616 C 857.792 744.094 856.134 754.639 855.629 760.024 C 851.909 799.667 850.051 847.274 886.864 872.782 C 907.589 887.143 934.973 885.016 959.258 885.005 L 1016.11 885.009 L 1083.42 885.001 C 1099.48 884.992 1122.25 885.794 1137.5 882.54 C 1152.24 879.394 1172.06 866.777 1179.93 853.74 C 1184.6 846.062 1188.04 837.703 1190.12 828.963 C 1195.47 805.858 1194.34 764.844 1188.27 741.459 C 1186.31 733.883 1176.72 725.373 1175.28 716.182 Z"></path>
</svg>