<?xml version="1.0" encoding="UTF-8" standalone="no"?>
<!-- Generated by SVGMaker - https://svgmaker.io -->
<!-- Prompt: STYLE: Clean outline / line-art icons. Use a single consistent stroke weight throughout. Corners should be slightly rounded for a modern, approachable feel. No heavy gradients inside icons. No decorative flourishes or playful elements.

TONE: Clinical, private, and family-friendly. Icons must feel trustworthy and professional — like a medical utility tool, not a consumer wellness app.

SIZE ＆ READABILITY: Every icon must be readable and distinct at 20px to 28px. Shapes should be bold enough silhouettes to work at small sizes.

STROKE ＆ GEOMETRY: Consistent stroke weight and corner radius across all icons in the set. Prefer simple, recognisable silhouettes. Avoid overly complex detail. Use black (000000) as the only colour on a transparent background.

STATES: For status icons (confirm, warning, delete, iCloud), use stronger filled or badge variants to signal importance. All other icons remain outline-only unless noted.

EXPORT: Vector SVG with transparent background. Do not include drop shadows, outer glows, or bounding box fills.

COLOR: Output in monochrome / single foreground color so the app can tint icons programmatically.

DO NOT include: playful cartoon shapes, thick gradients, photorealistic elements, brand logos, or overly decorative styling.

App icon: A triangle with an exclamation mark inside. Used for OCR warnings and actionable issues. Strong, clear silhouette. Reserved — only used for real problems. Outline with slightly bolder stroke. - updated by SVGMaker Editor -->
<!-- Quality: low -->
<!-- Type: generate -->
<!-- Created: 2026-06-01T15:00:24.349Z -->
<svg xmlns="http://www.w3.org/2000/svg" xmlns:xlink="http://www.w3.org/1999/xlink" version="1.1" width="1024" height="1024" viewBox="0 0 2048 2048">
<desc>Created with SVGMaker Editor 3.0.0</desc>
<defs>
</defs>
<path transform="translate(0,0)" style="fill: rgb(0,0,0)" stroke-linecap="round" d="M 1010.01 346.345 C 1014.15 346.102 1018.29 345.953 1022.44 345.898 C 1082.34 345.278 1134.38 381 1161.73 433.079 C 1170.05 448.923 1180.95 466.084 1190.03 481.685 L 1253.32 590.679 L 1496.08 1010.32 L 1664.2 1300.15 L 1719.12 1395 C 1727.81 1410.04 1740.83 1431.07 1748.27 1446.17 C 1758.64 1467 1763.97 1489.99 1763.84 1513.26 C 1764 1553.98 1747.78 1593.06 1718.82 1621.69 C 1695.76 1644.74 1666.46 1660.55 1634.54 1667.17 C 1609.45 1672.19 1573.27 1671.03 1546.61 1671.04 L 1438.47 1671 L 1039.75 1670.99 C 995.593 1671.61 949.85 1670.99 905.587 1670.99 L 634.569 1670.97 L 503.054 1671 C 480.097 1671 444.622 1672.03 423.18 1669.05 C 396.395 1665.35 370.934 1655.11 349.045 1639.23 C 316.198 1616.14 294.003 1580.83 287.447 1541.22 C 276.702 1474.9 303.733 1441.67 334.631 1388.5 C 355.666 1351.5 376.947 1314.65 398.473 1277.93 L 602.407 927.058 L 811.078 566.794 L 869.586 465.865 C 908.126 399.485 926.497 360.017 1010.01 346.345 Z M 899.427 1604.07 L 904.959 1604.12 L 962.665 1604.02 L 1075.46 1604.1 L 1185.82 1603.99 L 1392.55 1604.03 C 1410.5 1604.03 1429.54 1603.68 1447.39 1604.03 L 1449.56 1604.18 L 1589.71 1604.04 C 1619.69 1604.13 1641.96 1600.24 1665.68 1579.96 C 1698.73 1551.72 1704.5 1504.34 1684.05 1466.89 C 1669.7 1440.61 1654.27 1414.78 1639.22 1388.81 L 1562.92 1256.7 L 1333.18 860.519 L 1163.61 568.338 L 1117.53 488.923 C 1108.3 473.107 1098.3 454.418 1086.87 440.369 C 1059.6 407.057 1001.05 403.237 969.992 432.939 C 952.935 449.253 937.67 479.969 925.395 501.011 L 883.506 572.637 L 711.72 867.893 L 477.559 1271.17 L 404.028 1398.29 C 390.023 1422.51 375.626 1446.75 362.393 1471.4 C 355.922 1483.46 352.815 1497.36 352.267 1511.02 C 351.545 1534.79 360.169 1557.89 376.289 1575.38 C 393.998 1594.24 418.136 1603.37 443.719 1604.03 L 899.427 1604.07 Z"></path>
<path transform="translate(0,0)" style="fill: rgb(0,0,0)" stroke-linecap="round" d="M 1012.64 658.213 C 1026.68 657.639 1039.56 657.755 1052.47 664.1 C 1065.58 670.545 1074.7 681.024 1079.23 694.896 C 1085.38 713.689 1080.56 764.888 1080.11 787.547 L 1074.17 1008.64 L 1070.61 1154.19 C 1069.47 1190.57 1078.5 1229.97 1034.74 1242.7 C 1022.26 1244.72 1015.46 1243.4 1003.91 1238.35 C 996.785 1235.75 982.504 1220.92 981.796 1213.34 C 977.283 1165.03 977.417 1113.99 975.849 1065.51 L 969.847 864.428 L 967.786 786.342 C 966.933 762.185 965.659 738.993 966.16 714.703 C 966.818 682.81 982.662 666.332 1012.64 658.213 Z"></path>
<path transform="translate(0,0)" style="fill: rgb(0,0,0)" stroke-linecap="round" d="M 1013.52 1313.62 C 1057.9 1307.75 1098.59 1339.12 1104.18 1383.54 C 1109.78 1427.96 1078.15 1468.45 1033.69 1473.77 C 989.63 1479.04 949.578 1447.74 944.032 1403.72 C 938.486 1359.69 969.526 1319.44 1013.52 1313.62 Z"></path>
<path transform="translate(0,0)" style="fill: rgb(0,0,0)" stroke-linecap="round" d="M 443.719 1604.03 L 899.427 1604.07 C 892.611 1610.34 857.086 1607.25 846.644 1607.41 C 759.501 1608.75 672.306 1607.76 585.164 1607.3 C 543.018 1607.08 500.443 1609.1 458.229 1607.62 C 451.906 1607.4 449.526 1606.65 443.719 1604.03 Z"></path>
<path transform="translate(0,0)" style="fill: rgb(0,0,0)" stroke-linecap="round" d="M 1449.56 1604.18 L 1589.71 1604.04 C 1578.01 1610.09 1546.69 1607.91 1532.34 1608.01 C 1504.67 1608.21 1476.84 1609 1449.56 1604.18 Z"></path>
<path transform="translate(0,0)" style="fill: rgb(0,0,0)" stroke-linecap="round" d="M 1075.46 1604.1 L 1185.82 1603.99 C 1177.56 1610.04 1095.44 1609.2 1083.22 1606.06 L 1075.46 1604.1 Z"></path>
<path transform="translate(0,0)" style="fill: rgb(0,0,0)" stroke-linecap="round" d="M 1392.55 1604.03 C 1410.5 1604.03 1429.54 1603.68 1447.39 1604.03 C 1441.26 1610.41 1400.28 1609.47 1392.55 1604.03 Z"></path>
<path transform="translate(0,0)" style="fill: rgb(0,0,0)" stroke-linecap="round" d="M 904.959 1604.12 L 962.665 1604.02 C 950.04 1612.4 919.338 1607.06 904.959 1604.12 Z"></path>
</svg>