<?xml version="1.0" encoding="UTF-8" standalone="no"?>
<!-- Generated by SVGMaker - https://svgmaker.io -->
<!-- Prompt: STYLE: Clean outline / line-art icons. Use a single consistent stroke weight throughout. Corners should be slightly rounded for a modern, approachable feel. No heavy gradients inside icons. No decorative flourishes or playful elements.

TONE: Clinical, private, and family-friendly. Icons must feel trustworthy and professional — like a medical utility tool, not a consumer wellness app.

SIZE ＆ READABILITY: Every icon must be readable and distinct at 20px to 28px. Shapes should be bold enough silhouettes to work at small sizes.

STROKE ＆ GEOMETRY: Consistent stroke weight and corner radius across all icons in the set. Prefer simple, recognisable silhouettes. Avoid overly complex detail.

STATES: For status icons (confirm, warning, delete, iCloud), use stronger filled or badge variants to signal importance. All other icons remain outline-only unless noted.

EXPORT: Vector SVG with transparent background. Do not include drop shadows, outer glows, or bounding box fills.

COLOR: Output in monochrome / single foreground color so the app can tint icons programmatically.

DO NOT include: playful cartoon shapes, thick gradients, photorealistic elements, brand logos, or overly decorative styling.

App icon: A line graph with a smooth upward-then-curved trend line, suggesting medical metric movement over time. Use a simple axis frame. Outline style. Should not look like a generic stock chart — lean clinical. - updated by SVGMaker Editor -->
<!-- Quality: low -->
<!-- Type: generate -->
<!-- Created: 2026-06-01T14:21:35.897Z -->
<svg xmlns="http://www.w3.org/2000/svg" xmlns:xlink="http://www.w3.org/1999/xlink" version="1.1" width="1024" height="1024" viewBox="0 0 2048 2048">
<desc>Created with SVGMaker Editor 3.0.0</desc>
<defs>
</defs>
<path transform="translate(0,0)" style="fill: rgb(0,0,0)" stroke-linecap="round" d="M 402.637 255.664 C 416.332 253.863 455.065 254.79 470.201 254.807 L 603.686 254.903 L 1062.72 254.863 L 1476.5 254.875 L 1587.64 254.902 C 1598.93 254.901 1632.28 254.124 1641.24 255.707 C 1674.04 256.933 1710.34 275.434 1734.92 296.372 C 1769.3 325.1 1790.44 366.634 1793.44 411.337 C 1795.03 434.181 1793.88 469.134 1793.87 492.761 L 1793.84 648.491 L 1793.86 1132.32 L 1793.86 1484.13 L 1793.88 1589.42 C 1793.88 1604.93 1794.7 1631.94 1793.02 1646.4 C 1788.9 1679.18 1775.27 1710.04 1753.79 1735.16 C 1724.93 1768.84 1683.77 1789.55 1639.52 1792.65 C 1616.92 1794.26 1579.38 1793.16 1555.66 1793.15 L 1396.89 1793.08 L 901.891 1793.1 L 559.217 1793.12 L 457.273 1793.14 C 397.82 1793.15 362.338 1795.61 313.775 1754.21 C 245.742 1696.2 254.8 1628.1 254.858 1548.69 L 254.868 1387.77 L 254.832 887.86 L 254.857 558.664 L 254.757 463.973 C 254.723 442.472 254.026 420.566 256.332 399.207 C 264.116 327.118 329.328 260.013 402.637 255.664 Z M 1625.91 1737.97 C 1684.71 1737.33 1732.47 1695.85 1739.01 1637.02 C 1741.05 1618.74 1740.18 1599.47 1740.09 1581.04 L 1740.09 1502.8 L 1740.09 1220.84 L 1740.1 688.463 L 1740.05 511.753 C 1740.05 483.036 1740.23 454.506 1740.18 425.584 C 1740.1 370.281 1698.45 319.666 1642.89 312.791 C 1632.8 311.544 1621.88 312.41 1611.72 312.078 C 1605.59 311.95 1599.48 312.083 1593.38 312.087 L 1504.87 312.152 L 1215.05 312.164 L 680.051 312.155 L 504.71 312.155 C 476.375 312.151 444.552 311.385 416.451 312.146 C 414.422 312.206 412.395 312.285 410.368 312.383 C 355.98 317.681 314.867 356.991 310.895 412.103 C 309.419 432.591 310.202 454.067 310.239 474.684 L 310.369 590.753 L 310.356 1031.39 L 310.443 1438.61 L 310.348 1561.99 C 310.3 1585.16 309.375 1618.29 311.582 1640.76 C 314.56 1668.9 328.51 1694.73 350.406 1712.65 C 385.843 1741.59 418.794 1738.09 461.798 1738.02 L 538.03 1737.94 L 792.535 1737.96 L 1625.91 1737.97 Z"></path>
<path transform="translate(0,0)" style="fill: rgb(0,0,0)" stroke-linecap="round" d="M 402.637 255.664 C 416.332 253.863 455.065 254.79 470.201 254.807 L 603.686 254.903 L 1062.72 254.863 L 1476.5 254.875 L 1587.64 254.902 C 1598.93 254.901 1632.28 254.124 1641.24 255.707 C 1632.98 256.149 1626.03 257.94 1616.18 258.124 C 1581.23 258.778 1546.08 258.584 1511.12 258.577 L 1321.24 258.51 L 798.934 258.547 L 531.73 258.607 L 461.498 258.548 C 445.97 258.523 428.31 258.97 412.996 256.562 C 408.719 255.889 408.541 255.736 403.854 255.671 L 402.637 255.664 Z"></path>
<path transform="translate(0,0)" style="fill: rgb(0,0,0)" stroke-linecap="round" d="M 854.777 1591.91 C 825.291 1592.77 793.441 1592.1 763.723 1592.1 L 593.801 1592.12 L 502.64 1592.17 C 487.948 1592.17 472.204 1592.54 457.586 1591.59 C 452.922 1591.29 446.444 1587.29 443.048 1584.18 C 436.331 1578.03 434.176 1570.09 434.121 1561.19 C 433.964 1535.84 433.992 1510.42 433.987 1485.07 L 433.985 1339.38 L 433.997 904.23 L 433.979 610.56 L 433.973 516.017 C 433.974 498.453 433.482 480.2 434.296 462.76 C 435.941 427.501 489.166 428.268 489.979 464.323 C 490.267 477.11 489.994 489.944 489.998 502.701 L 490.075 579.46 L 490.077 818.662 L 490.018 1537.32 C 564.78 1535.65 644.259 1537.03 719.484 1537.02 L 1157.24 1537.03 L 1453.25 1537.05 L 1551.14 1537.09 C 1568.2 1537.1 1601.67 1533 1613.74 1544.39 C 1619.32 1549.58 1622.47 1556.88 1622.43 1564.5 C 1622.39 1598.8 1583.56 1592.13 1560.53 1592.14 L 1481.12 1592.14 L 1350.97 1592.1 C 1330.53 1592.1 1303.05 1592.9 1283.01 1591.89 C 1271.72 1592.74 1253.4 1592.2 1241.83 1591.93 C 1231.63 1592.24 1221.43 1592.24 1211.23 1591.92 C 1195.18 1592.86 1168.08 1592.25 1151.76 1591.89 C 1143.51 1592.32 1134.56 1592.27 1126.3 1592.14 C 1087.41 1591.54 1047.91 1593.11 1009.09 1591.91 C 982.398 1593.33 936.094 1592.46 908.721 1591.91 C 905.826 1592.13 901.191 1591.93 898.15 1591.9 C 884.757 1592.53 868.22 1592.26 854.777 1591.91 Z"></path>
<path transform="translate(0,0)" style="fill: rgb(0,0,0)" stroke-linecap="round" d="M 908.721 1591.91 C 915.582 1587.84 1003.73 1588.14 1009.09 1591.91 C 982.398 1593.33 936.094 1592.46 908.721 1591.91 Z"></path>
<path transform="translate(0,0)" style="fill: rgb(0,0,0)" stroke-linecap="round" d="M 1151.76 1591.89 C 1157.32 1588.35 1205.13 1588.49 1211.23 1591.92 C 1195.18 1592.86 1168.08 1592.25 1151.76 1591.89 Z"></path>
<path transform="translate(0,0)" style="fill: rgb(0,0,0)" stroke-linecap="round" d="M 854.777 1591.91 C 860.628 1588.07 892.036 1588.31 898.15 1591.9 C 884.757 1592.53 868.22 1592.26 854.777 1591.91 Z"></path>
<path transform="translate(0,0)" style="fill: rgb(0,0,0)" stroke-linecap="round" d="M 1241.83 1591.93 C 1247.24 1588.39 1277.6 1588.57 1283.01 1591.89 C 1271.72 1592.74 1253.4 1592.2 1241.83 1591.93 Z"></path>
<path transform="translate(0,0)" style="fill: rgb(0,0,0)" stroke-linecap="round" d="M 1488.74 499.371 C 1513.23 494.594 1545.98 507.8 1562.87 525.726 C 1578.34 541.925 1586.58 563.708 1585.7 586.091 C 1584.88 609.918 1574.39 632.383 1556.65 648.305 C 1538.96 664.182 1519.01 669.932 1495.6 668.543 C 1488.15 690.047 1475.01 716.901 1464.98 737.562 C 1418.04 834.233 1358.31 916.42 1292.88 1000.9 C 1344.43 1081.95 1258.96 1169.79 1174.7 1125.7 C 1165.17 1133.19 1156.18 1141.29 1146.45 1148.71 C 1080.5 1199.01 1009.1 1248.04 935.784 1286.93 C 942.395 1314.23 932.676 1344.97 912.725 1364.47 C 895.695 1380.8 872.912 1389.75 849.322 1389.39 C 823.336 1388.87 803.714 1377.26 786.161 1359.17 C 740.629 1379.29 678.024 1395.59 629.744 1407.24 C 609.995 1411.03 577.831 1421.12 558.498 1416.46 C 535.508 1410.83 537.691 1371.16 558.434 1366.53 C 625.544 1351.55 702.345 1338.03 765.321 1309.19 C 763.794 1287.24 769.604 1266.73 783.586 1249.53 C 798.028 1231.91 819.014 1220.92 841.72 1219.09 C 865.998 1216.92 888.254 1223.49 907.051 1239.14 C 917.66 1232.45 929.186 1226.67 940.003 1220.23 C 954.21 1211.78 968.272 1203.04 982.28 1194.26 C 1037.26 1160.17 1089.97 1122.57 1140.09 1081.67 C 1134.07 1068.42 1132.91 1050.93 1135.41 1036.71 C 1139.3 1014.74 1151.86 995.254 1170.26 982.636 C 1193.56 966.494 1218.37 965.554 1245.58 970.458 C 1253.31 961.971 1273.07 935.139 1280.69 925.28 C 1346.26 840.482 1402.88 750.156 1444.24 651.052 C 1427.28 638.029 1415.01 616.458 1412.31 595.369 C 1405.81 544.647 1439.47 505.626 1488.74 499.371 Z M 1225.53 1087.4 C 1238.32 1085.74 1249.2 1077.28 1253.95 1065.3 C 1258.71 1053.31 1256.59 1039.69 1248.42 1029.72 C 1240.25 1019.74 1227.32 1014.98 1214.63 1017.28 C 1195.69 1020.72 1182.93 1038.63 1185.89 1057.66 C 1188.85 1076.68 1206.44 1089.88 1225.53 1087.4 Z M 1503.56 618.654 C 1522.49 616.04 1535.85 598.758 1533.61 579.779 C 1531.37 560.8 1514.35 547.103 1495.33 548.969 C 1482.69 550.209 1471.71 558.183 1466.61 569.819 C 1461.52 581.454 1463.11 594.934 1470.77 605.064 C 1478.44 615.193 1490.97 620.391 1503.56 618.654 Z M 854.518 1338.09 C 873.569 1336.52 887.743 1319.8 886.183 1300.75 C 884.622 1281.7 867.918 1267.51 848.864 1269.06 C 829.794 1270.61 815.594 1287.33 817.156 1306.4 C 818.718 1325.47 835.449 1339.66 854.518 1338.09 Z"></path>
</svg>