<?xml version="1.0" encoding="UTF-8" standalone="no"?>
<!-- Generated by SVGMaker - https://svgmaker.io -->
<!-- Prompt: STYLE: Clean outline / line-art icons. Use a single consistent stroke weight throughout. Corners should be slightly rounded for a modern, approachable feel. No heavy gradients inside icons. No decorative flourishes or playful elements.

TONE: Clinical, private, and family-friendly. Icons must feel trustworthy and professional — like a medical utility tool, not a consumer wellness app.

SIZE ＆ READABILITY: Every icon must be readable and distinct at 20px to 28px. Shapes should be bold enough silhouettes to work at small sizes.

STROKE ＆ GEOMETRY: Consistent stroke weight and corner radius across all icons in the set. Prefer simple, recognisable silhouettes. Avoid overly complex detail.

STATES: For status icons (confirm, warning, delete, iCloud), use stronger filled or badge variants to signal importance. All other icons remain outline-only unless noted.

EXPORT: Vector SVG with transparent background. Do not include drop shadows, outer glows, or bounding box fills.

COLOR: Output in monochrome / single foreground color so the app can tint icons programmatically.

DO NOT include: playful cartoon shapes, thick gradients, photorealistic elements, brand logos, or overly decorative styling.

App icon: Two human silhouettes side by side, slightly different heights to suggest a family pair. Warm but professional. Outline style. No childlike exaggeration of proportions. - updated by SVGMaker Editor -->
<!-- Quality: low -->
<!-- Type: generate -->
<!-- Created: 2026-06-01T14:21:45.791Z -->
<svg xmlns="http://www.w3.org/2000/svg" xmlns:xlink="http://www.w3.org/1999/xlink" version="1.1" width="1024" height="1024" viewBox="0 0 2048 2048">
<desc>Created with SVGMaker Editor 3.0.0</desc>
<defs>
</defs>
<path transform="translate(0,0)" style="fill: rgb(0,0,0)" stroke-linecap="round" d="M 726.492 298.286 C 776.647 296.189 826.923 301.712 871.84 326.19 C 936.603 360.339 979.483 415.296 1001.06 484.675 C 1004.76 496.415 1007.44 508.452 1009.07 520.653 C 1016.62 571.53 1013.99 619.611 998.07 669.057 C 995.956 675.624 990.275 690.536 986.687 696.262 C 984.735 703.532 977.359 716.244 973.488 722.779 C 952.85 757.622 924.091 788.972 889.735 810.823 C 904.889 814.872 921.331 821.505 936.063 827.222 C 1024.74 861.631 1123.48 886.542 1174.26 975.608 C 1192.62 1007.82 1201.16 1041.48 1202.31 1078.42 C 1220.59 1071.63 1242.49 1064.09 1260.23 1056.65 C 1250.46 1048.8 1240.94 1041.35 1232.14 1032.38 C 1193.8 992.576 1169.86 941.11 1164.11 886.149 C 1156.77 819.4 1170.88 752.493 1213.41 699.253 C 1247.29 656.178 1296.97 628.425 1351.42 622.164 C 1480.46 607.881 1582.81 695.22 1595.98 823.701 C 1602.78 890.018 1586.05 963.449 1543.4 1015.62 C 1528.76 1033.24 1517.45 1043.14 1499.69 1056.92 C 1521.35 1064.04 1548.45 1076.39 1569.66 1085.41 C 1627.56 1110.03 1693.82 1137.27 1724.02 1196.86 C 1731.83 1212.16 1737.31 1228.53 1740.29 1245.45 C 1744.19 1268.99 1745.59 1300.33 1747.32 1324.58 C 1750.59 1369.22 1753.56 1413.88 1756.23 1458.56 L 1761.96 1552.25 C 1764.09 1586 1769.16 1619.96 1758.22 1653.06 C 1743.81 1696.64 1700.49 1729.96 1654.69 1733.57 C 1627.33 1735.73 1598.27 1733.25 1570.75 1734 C 1502.59 1734.39 1433.35 1731.76 1365.33 1732.17 C 1340.5 1732.11 1303.76 1732.95 1279.56 1731.14 C 1274.84 1731.65 1262.38 1731.22 1257.06 1731.19 L 1211.72 1730.94 L 1126.49 1730.45 C 1077.13 1730.11 1048.06 1733.17 1006.1 1701.93 C 958.415 1702.63 908.93 1701.46 861.145 1701.2 C 812.886 1700.94 762.131 1701.63 714.082 1699.97 C 700.135 1700.8 677.634 1700.12 663.267 1700.11 L 562.995 1700.06 L 521.684 1700.03 L 445.855 1700.07 C 412.2 1700.14 381.999 1702.19 351.856 1683.59 C 342.336 1680.38 326.825 1666.68 320.153 1659.34 C 285.53 1621.24 286.45 1576.39 289.261 1528.31 C 290.22 1511.91 290.226 1493.56 291.029 1476.62 C 292.678 1450.06 293.109 1419.94 294.178 1393.03 L 301.126 1221.61 L 303.363 1160.8 C 303.689 1150.24 303.576 1134.69 304.923 1124.84 C 306.333 1076.95 304.29 1029.45 327.023 986.181 C 370.135 904.116 440.134 876.668 521.962 847.699 C 554.823 836.065 585.689 824.238 618.976 813.102 C 612.734 807.751 604.705 802.755 597.998 797.56 C 484.07 709.309 464.005 525.526 544.726 406.486 C 577.07 358.008 625.746 322.756 681.894 307.147 C 698.432 302.537 710.289 301.358 726.492 298.286 Z M 363.236 1186.66 C 361.938 1230.96 360.237 1275.24 358.132 1319.5 C 357.512 1335.84 357.457 1352.32 356.349 1368.68 C 355.937 1374.75 356.086 1383.56 355.106 1389.27 C 354.854 1410.83 353.207 1432.61 352.21 1454.15 C 351.599 1467.35 351.866 1480.39 350.943 1493.61 C 350.341 1503.74 350.604 1530.14 349.15 1537.36 C 347.801 1582.53 344.763 1616.45 394.687 1635.74 C 407.159 1638.04 459.371 1639.96 471.453 1637.69 L 472.752 1633.73 C 470.086 1624.72 471.671 1598.31 471.708 1588.01 L 471.6 1505.13 L 471.349 1354.65 C 471.298 1339.4 471.164 1324.16 471.092 1308.92 C 470.8 1297.78 471.103 1287.68 471.367 1276.5 C 471.989 1250.14 503.561 1238.92 522.223 1255.77 C 525.206 1258.46 529.019 1264.65 529.467 1268.88 C 531.11 1284.39 530.744 1300.16 530.744 1315.75 L 530.726 1390.38 L 530.76 1639.14 L 985.919 1638.88 C 985.921 1618.12 988.294 1589.56 989.298 1568.15 L 997.032 1415.85 L 1002.01 1314.55 C 1002.91 1297.33 1003.51 1276.09 1005.69 1259.17 C 1007.79 1241.79 1012.32 1224.8 1019.15 1208.68 C 1044.32 1148.07 1086.42 1121.93 1144.12 1098.13 C 1142.55 956.926 1046.5 933.687 935.915 892.047 C 896.723 877.169 857.441 862.532 818.07 848.135 C 777.856 860.072 729.022 858.083 688.269 849.345 C 641.987 867.809 594.333 883.95 547.921 902.302 C 511.228 916.811 472.764 928.793 439.38 950.484 C 401.394 975.166 375.147 1015.01 369.173 1060.11 C 366.33 1088.73 366.791 1117.88 364.835 1146.51 C 364.138 1156.71 365.344 1177.94 363.236 1186.66 Z M 1200.67 1586.61 C 1201.05 1613.65 1201.9 1645.06 1201.08 1671.84 L 1349.23 1672.13 C 1369.06 1672.18 1404.31 1671.33 1423.4 1672.98 C 1466.68 1672.97 1509.95 1673.2 1553.22 1673.66 C 1552.19 1616.15 1553.09 1557.1 1552.73 1499.4 L 1552.34 1440.07 C 1552.29 1431.33 1551.31 1415.37 1552.78 1407.4 C 1557.02 1384.53 1587.78 1379.08 1603.13 1394.54 C 1612.35 1404.14 1611.22 1423.85 1611.02 1436.7 C 1610.55 1466.77 1611.81 1497.15 1611.85 1527.14 C 1611.96 1576.84 1613.2 1625.82 1612.9 1675.79 C 1631.84 1673.63 1650.07 1677.29 1668.26 1668.43 C 1691.35 1657.18 1704.12 1635.05 1703.77 1609.51 C 1703.48 1588.58 1702.01 1567.54 1700.94 1546.6 L 1693.32 1416.06 L 1687.72 1323.26 C 1686.6 1304.85 1685.85 1282.93 1683.22 1264.85 C 1681.47 1252.47 1677.8 1240.43 1672.37 1229.17 C 1663.77 1211.58 1651.23 1196.22 1635.72 1184.29 C 1607.64 1163.11 1556.86 1145.09 1523.14 1130.9 C 1495.64 1119.32 1462 1105.19 1433.88 1095.58 C 1401.49 1103.59 1354.26 1102.63 1321.39 1094.85 C 1286.52 1108.62 1251.73 1122.6 1217.01 1136.77 C 1187.75 1148.57 1135.03 1166.6 1113.07 1184.63 C 1094.13 1200.13 1079.99 1220.71 1072.32 1243.95 C 1063.24 1271.86 1062.77 1316.55 1061.25 1347.44 L 1055.8 1446.38 C 1054.87 1463.28 1054.57 1482.24 1052.98 1498.81 C 1050.94 1540.48 1049.91 1588.77 1045.93 1630.08 C 1045.96 1635.58 1045.68 1647.31 1047.09 1652.13 C 1070 1680.94 1108.55 1666.87 1141.35 1671.13 C 1139.02 1665.25 1139.65 1529.76 1139.37 1512.41 C 1138.93 1492.32 1136.11 1408.6 1141.85 1395 C 1144.85 1387.91 1151.76 1382.89 1158.79 1380.27 C 1165.28 1377.85 1172.66 1377.05 1179.12 1379.84 C 1190.43 1382.36 1198.83 1392.48 1199.42 1403.79 C 1200.53 1425.04 1199.97 1447.1 1199.91 1468.4 C 1199.67 1507.81 1199.92 1547.21 1200.67 1586.61 Z M 770.766 794.563 C 955.919 777.347 1009.49 513.434 875.351 401.637 C 837.418 370.475 788.826 355.336 739.906 359.44 C 493.133 378.451 503.267 776.741 741.373 795.059 C 749.222 795.663 757.866 795.876 765.727 795.122 C 767.41 794.965 769.09 794.779 770.766 794.563 Z M 1378.75 1040.33 C 1580.7 1040.33 1594.22 682.472 1380.37 680.468 C 1358.67 681.31 1343.54 682.61 1322.89 690.727 C 1164.42 753.025 1204.02 1036.75 1378.75 1040.33 Z"></path>
<path transform="translate(0,0)" style="fill: rgb(0,0,0)" stroke-linecap="round" d="M 304.923 1124.84 C 305.627 1134.15 306.717 1143.62 306.552 1152.91 C 305.504 1212.01 302.471 1271.29 300.288 1330.35 L 297.066 1410.83 C 296.481 1426.53 296.887 1463.83 291.029 1476.62 C 292.678 1450.06 293.109 1419.94 294.178 1393.03 L 301.126 1221.61 L 303.363 1160.8 C 303.689 1150.24 303.576 1134.69 304.923 1124.84 Z"></path>
<path transform="translate(0,0)" style="fill: rgb(0,0,0)" stroke-linecap="round" d="M 1009.07 520.653 C 1016.62 571.53 1013.99 619.611 998.07 669.057 C 995.956 675.624 990.275 690.536 986.687 696.262 C 984.826 691.25 990.871 677.822 992.983 672.586 C 1012.27 624.772 1009.16 573.439 1007.05 523.148 C 1007.72 522.317 1008.4 521.485 1009.07 520.653 Z"></path>
<path transform="translate(0,0)" style="fill: rgb(0,0,0)" stroke-linecap="round" d="M 351.856 1683.59 C 360.361 1682.78 384.04 1696.15 397.082 1696.39 C 438.335 1697.14 479.367 1696.15 520.652 1697.02 L 521.684 1700.03 L 445.855 1700.07 C 412.2 1700.14 381.999 1702.19 351.856 1683.59 Z"></path>
<path transform="translate(0,0)" style="fill: rgb(0,0,0)" stroke-linecap="round" d="M 726.492 298.286 C 776.647 296.189 826.923 301.712 871.84 326.19 C 870.263 326.816 869.7 326.827 868.027 327.157 C 857.895 323.806 849.025 318.736 839.315 315.504 C 821.671 309.632 802.156 306.328 784.157 302.776 C 771.195 300.218 734.225 303.753 726.492 298.286 Z"></path>
<path transform="translate(0,0)" style="fill: rgb(0,0,0)" stroke-linecap="round" d="M 561.826 1696.95 C 579.982 1697.08 707.353 1695.73 714.082 1699.97 C 700.135 1700.8 677.634 1700.12 663.267 1700.11 L 562.995 1700.06 L 561.826 1696.95 Z"></path>
<path transform="translate(0,0)" style="fill: rgb(0,0,0)" stroke-linecap="round" d="M 1279.56 1731.14 C 1287.98 1730.23 1295.6 1728.5 1304.15 1728.52 C 1324.22 1728.55 1345.41 1728.47 1365.33 1730.47 L 1366.33 1731.36 L 1365.33 1732.17 C 1340.5 1732.11 1303.76 1732.95 1279.56 1731.14 Z"></path>
<path transform="translate(0,0)" style="fill: rgb(0,0,0)" stroke-linecap="round" d="M 520.652 1697.02 L 561.826 1696.95 L 562.995 1700.06 L 521.684 1700.03 L 520.652 1697.02 Z"></path>
<path transform="translate(0,0)" style="fill: rgb(0,0,0)" stroke-linecap="round" d="M 1201.08 1671.84 L 1349.23 1672.13 C 1369.06 1672.18 1404.31 1671.33 1423.4 1672.98 C 1421.72 1673.79 1420.01 1674.23 1418.15 1674.46 C 1398.87 1676.8 1211.92 1677.95 1204.07 1674.13 C 1202.94 1673.58 1202.08 1672.6 1201.08 1671.84 Z"></path>
<path transform="translate(0,0)" style="fill: rgb(0,0,0)" stroke-linecap="round" d="M 1179.12 1379.84 C 1190.43 1382.36 1198.83 1392.48 1199.42 1403.79 C 1200.53 1425.04 1199.97 1447.1 1199.91 1468.4 C 1199.67 1507.81 1199.92 1547.21 1200.67 1586.61 C 1197.23 1574.35 1199.28 1556.5 1197.3 1540.79 C 1196.46 1543.16 1197.09 1548.94 1196.58 1552.47 C 1194.58 1502.48 1198.56 1448.59 1195.19 1398.51 C 1194.55 1389.09 1180.87 1384.2 1179.12 1379.84 Z"></path>
<path transform="translate(0,0)" style="fill: rgb(0,0,0)" stroke-linecap="round" d="M 355.106 1389.27 C 354.593 1384.96 353.907 1380.68 353.565 1376.35 C 352.145 1358.39 358.716 1193.59 361.089 1189.17 C 361.609 1188.2 362.52 1187.5 363.236 1186.66 C 361.938 1230.96 360.237 1275.24 358.132 1319.5 C 357.512 1335.84 357.457 1352.32 356.349 1368.68 C 355.937 1374.75 356.086 1383.56 355.106 1389.27 Z"></path>
<path transform="translate(0,0)" style="fill: rgb(0,0,0)" stroke-linecap="round" d="M 1139.37 1512.41 C 1140.29 1516.19 1142.68 1526.96 1142.57 1530.34 C 1141.91 1550.14 1146.71 1657.95 1143.45 1670.69 C 1141.47 1671.18 1141.99 1671.14 1141.35 1671.13 C 1139.02 1665.25 1139.65 1529.76 1139.37 1512.41 Z"></path>
<path transform="translate(0,0)" style="fill: rgb(0,0,0)" stroke-linecap="round" d="M 1606.34 1404.84 C 1603.98 1401.48 1603 1400.45 1601.72 1396.64 L 1603.13 1394.54 C 1612.35 1404.14 1611.22 1423.85 1611.02 1436.7 C 1610.55 1466.77 1611.81 1497.15 1611.85 1527.14 C 1603.32 1521.28 1609.66 1465.79 1609.05 1453.94 C 1608.22 1437.81 1607.13 1420.95 1606.34 1404.84 Z"></path>
<path transform="translate(0,0)" style="fill: rgb(0,0,0)" stroke-linecap="round" d="M 1052.98 1498.81 C 1050.94 1540.48 1049.91 1588.77 1045.93 1630.08 L 1044.18 1629.79 L 1043.01 1630.88 C 1044.93 1598.6 1047.74 1536.35 1050.83 1501.1 C 1051.55 1500.34 1052.26 1499.57 1052.98 1498.81 Z"></path>
<path transform="translate(0,0)" style="fill: rgb(0,0,0)" stroke-linecap="round" d="M 472.752 1633.73 C 474.497 1636.91 474.164 1635.22 473.485 1639.02 C 467.193 1644.38 403.412 1642.41 395.236 1638.14 L 394.687 1635.74 C 407.159 1638.04 459.371 1639.96 471.453 1637.69 L 472.752 1633.73 Z"></path>
<path transform="translate(0,0)" style="fill: rgb(0,0,0)" stroke-linecap="round" d="M 349.15 1537.36 C 345.437 1531.46 345.516 1499.31 350.943 1493.61 C 350.341 1503.74 350.604 1530.14 349.15 1537.36 Z"></path>
<path transform="translate(0,0)" style="fill: rgb(0,0,0)" stroke-linecap="round" d="M 1043.01 1630.88 L 1044.18 1629.79 L 1045.93 1630.08 C 1045.96 1635.58 1045.68 1647.31 1047.09 1652.13 L 1046.16 1652.44 L 1044.37 1651.48 C 1041.49 1645.26 1042.59 1637.76 1043.01 1630.88 Z"></path>
</svg>