<?xml version="1.0" encoding="UTF-8" standalone="no"?>
<!-- Generated by SVGMaker - https://svgmaker.io -->
<!-- Prompt: STYLE: Clean outline / line-art icons. Use a single consistent stroke weight throughout. Corners should be slightly rounded for a modern, approachable feel. No heavy gradients inside icons. No decorative flourishes or playful elements.

TONE: Clinical, private, and family-friendly. Icons must feel trustworthy and professional — like a medical utility tool, not a consumer wellness app.

SIZE ＆ READABILITY: Every icon must be readable and distinct at 20px to 28px. Shapes should be bold enough silhouettes to work at small sizes.

STROKE ＆ GEOMETRY: Consistent stroke weight and corner radius across all icons in the set. Prefer simple, recognisable silhouettes. Avoid overly complex detail. Use black (000000) as the only colour on a transparent background.

STATES: For status icons (confirm, warning, delete, iCloud), use stronger filled or badge variants to signal importance. All other icons remain outline-only unless noted.

EXPORT: Vector SVG with transparent background. Do not include drop shadows, outer glows, or bounding box fills.

COLOR: Output in monochrome / single foreground color so the app can tint icons programmatically.

DO NOT include: playful cartoon shapes, thick gradients, photorealistic elements, brand logos, or overly decorative styling.

App icon: A padlock, closed. Represents private on-device local storage. Clean, compact, universally understood. Outline style. - updated by SVGMaker Editor -->
<!-- Quality: low -->
<!-- Type: generate -->
<!-- Created: 2026-06-01T15:09:03.861Z -->
<svg xmlns="http://www.w3.org/2000/svg" xmlns:xlink="http://www.w3.org/1999/xlink" version="1.1" width="1024" height="1024" viewBox="0 0 2048 2048">
<desc>Created with SVGMaker Editor 3.0.0</desc>
<defs>
</defs>
<path transform="translate(0,0)" style="fill: rgb(0,0,0)" stroke-linecap="round" d="M 996.547 234.402 C 1002.82 233.824 1015.14 233.92 1021.67 233.959 C 1132.06 234.616 1247.28 284.092 1324.8 362.219 C 1390.78 427.575 1432.9 513.199 1444.39 605.354 C 1448.16 636.708 1447.33 670.85 1447.36 702.64 L 1447.28 827.176 C 1485.08 829.462 1516.01 843.132 1542.97 869.911 C 1573.97 900.705 1585.88 935.451 1586.05 978.34 L 1586.03 1429.69 L 1586.08 1547.82 C 1586.11 1568.67 1587.34 1604.18 1583.77 1623.5 C 1578.22 1653.01 1563.88 1680.15 1542.63 1701.37 C 1523.6 1720.38 1497.06 1736.53 1470.65 1742.41 C 1451.68 1746.64 1425.12 1745.59 1405.19 1745.56 L 1328.06 1745.45 L 1055.75 1745.52 L 722.928 1745.42 L 638.634 1745.58 C 620.441 1745.65 596.747 1746.93 579.473 1743.67 C 512.913 1731.14 461.766 1670.78 460.444 1603 C 460.126 1586.68 460.115 1570.72 460.115 1554.51 L 460.15 1468.8 L 460.172 1211.09 L 460.121 1051.14 C 460.106 1023.09 458.611 979.133 462.844 953.044 C 467.267 924.152 480.058 897.189 499.636 875.486 C 527.35 844.913 559.192 829.621 600.247 827.594 C 599.374 764.131 598.927 697.3 600.775 633.987 C 603.379 544.77 643.208 450.39 699.68 382.751 C 756.197 316.144 831.931 268.648 916.501 246.774 C 946.033 239.372 966.284 237.14 996.547 234.402 Z M 1439.18 1696.96 C 1489.01 1692.98 1528.31 1662.56 1536.48 1610.74 C 1538.14 1600.19 1537.45 1586.38 1537.45 1575.55 L 1537.4 1521.14 L 1537.3 1340.15 L 1537.28 1092.68 L 1537.33 1012.2 C 1537.34 967.011 1540.97 933.336 1502.95 900.836 C 1471 873.521 1440.33 877.197 1401.37 877.225 L 1321.82 877.311 L 1051.24 877.392 L 746.052 877.321 L 654.544 877.271 C 643.739 877.263 620.227 876.586 610.048 877.445 C 579.797 878.917 557.533 886.205 536.346 908.856 C 504.553 942.844 511.486 992.139 511.5 1035.31 L 511.563 1192.59 L 511.611 1471.45 L 511.633 1555.43 C 511.47 1599.42 505.802 1639.88 543.03 1671.98 C 555.163 1682.45 576.309 1694.03 592.317 1695.43 C 622.942 1698.09 655.79 1697.03 686.562 1697 L 855.246 1696.99 L 1439.18 1696.96 Z M 650.073 827.158 C 686.773 828.213 723.214 827.008 759.669 827.626 C 757.593 794.45 760.018 758.924 759.151 725.826 C 756.787 635.509 758.03 557.826 822.521 486.281 C 888.014 413.623 967.758 388.011 1062.84 400.609 C 1140.57 416.063 1201.98 451.971 1247.36 518.646 C 1292.37 584.785 1288.22 650.578 1287.78 725.948 C 1287.59 758.909 1288.7 794.71 1287.29 827.624 C 1297.43 827.061 1310.25 827.045 1320.45 827.445 C 1345.88 828.441 1373.36 826.168 1398.57 827.765 C 1397.53 783.066 1398.96 738.013 1398.42 693.33 C 1398.13 669.56 1399.43 644.758 1396.95 621.324 C 1376.35 426.823 1196.78 272.207 1000.65 284.067 C 998.068 284.224 995.288 284.056 992.737 284.41 C 798.35 303.035 654.667 451.446 649.982 650.314 C 649.539 669.143 649.946 688.118 649.946 706.969 L 650.073 827.158 Z M 808.899 827.035 C 835.349 827.913 862.03 827.393 888.5 827.471 L 1046.26 827.683 C 1085 827.37 1123.74 827.326 1162.48 827.554 C 1187.04 827.572 1214.73 826.821 1239.07 827.77 L 1239.16 715.64 C 1239.17 691.149 1240.03 659.09 1237.72 635.564 C 1233.19 589.317 1209.66 544.628 1176.98 511.845 C 1135.31 470.189 1078.93 446.583 1020.01 446.118 C 1016.32 446.12 1009.81 446.089 1006.21 446.419 C 947.946 451.173 897.441 474.009 859.201 519.153 C 807.986 579.616 808.025 629.624 808.853 703.481 C 809.281 741.594 809.809 788.74 808.899 827.035 Z"></path>
<path transform="translate(0,0)" style="fill: rgb(0,0,0)" stroke-linecap="round" d="M 1012.96 1020.39 C 1050.86 1018.84 1088 1031.33 1117.27 1055.46 C 1148.31 1080.55 1167.88 1117.13 1171.51 1156.88 C 1175.19 1196.44 1161.64 1235.66 1134.32 1264.51 C 1125.89 1273.33 1114.17 1280.73 1106.89 1290.08 C 1107.79 1304.91 1112.58 1327 1115.18 1342.29 C 1122.12 1384.65 1130.96 1426.81 1137.1 1469.3 C 1146.43 1533.91 1091.19 1565.79 1035.49 1572.83 C 976.225 1578.86 902.226 1543.43 908.431 1474.71 C 910.118 1456.02 914.255 1436.26 917.5 1417.68 L 932.378 1332.3 C 934.669 1319.63 938.578 1303.89 937.764 1290.92 C 936.022 1284.52 925.581 1277.22 921.038 1273.13 C 863.597 1221.45 859.206 1131.78 909.204 1073.17 C 938.472 1038.87 968.526 1025.17 1012.96 1020.39 Z M 1035.23 1520.85 C 1057.81 1517.03 1078.53 1511.39 1090 1489.39 C 1090.57 1475.08 1083.41 1441.28 1080.57 1425.62 L 1061.43 1319.18 C 1060.21 1312.12 1059.14 1304.62 1057.95 1297.95 C 1055.3 1283.12 1053.52 1266.38 1067.74 1256.19 C 1096.91 1235.31 1120.97 1214.09 1123.89 1175.35 C 1127.85 1122.87 1081.87 1073.4 1029.5 1070.24 C 1023.45 1069.93 1017.38 1069.97 1011.33 1070.36 C 957.558 1077.68 915.532 1124.92 923.48 1179.98 C 926.236 1200.22 935.567 1219 950.037 1233.43 C 966.481 1249.63 992.09 1258.72 989.541 1282.97 C 987.748 1300.03 984.417 1317.66 981.518 1334.57 L 964.881 1429.65 C 962.596 1442.39 955.483 1474.59 957.273 1486.05 C 962.22 1517.72 1009.33 1522.58 1035.23 1520.85 Z"></path>
</svg>