<?xml version="1.0" encoding="UTF-8" standalone="no"?>
<!-- Generated by SVGMaker - https://svgmaker.io -->
<!-- Prompt: STYLE: Clean outline / line-art icons. Use a single consistent stroke weight throughout. Corners should be slightly rounded for a modern, approachable feel. No heavy gradients inside icons. No decorative flourishes or playful elements.

TONE: Clinical, private, and family-friendly. Icons must feel trustworthy and professional — like a medical utility tool, not a consumer wellness app.

SIZE ＆ READABILITY: Every icon must be readable and distinct at 20px to 28px. Shapes should be bold enough silhouettes to work at small sizes.

STROKE ＆ GEOMETRY: Consistent stroke weight and corner radius across all icons in the set. Prefer simple, recognisable silhouettes. Avoid overly complex detail. Use black (000000) as the only colour on a transparent background.

STATES: For status icons (confirm, warning, delete, iCloud), use stronger filled or badge variants to signal importance. All other icons remain outline-only unless noted.

EXPORT: Vector SVG with transparent background. Do not include drop shadows, outer glows, or bounding box fills.

COLOR: Output in monochrome / single foreground color so the app can tint icons programmatically.

DO NOT include: playful cartoon shapes, thick gradients, photorealistic elements, brand logos, or overly decorative styling.

App icon: A shield or seal shape with a checkmark inside it. Conveys verification and safety. Use a slightly filled badge treatment to distinguish it from the plain confirm icon. - updated by SVGMaker Editor -->
<!-- Quality: low -->
<!-- Type: generate -->
<!-- Created: 2026-06-01T14:32:03.936Z -->
<svg xmlns="http://www.w3.org/2000/svg" xmlns:xlink="http://www.w3.org/1999/xlink" version="1.1" width="1024" height="1024" viewBox="0 0 2048 2048">
<desc>Created with SVGMaker Editor 3.0.0</desc>
<defs>
</defs>
<path transform="translate(0,0)" style="fill: rgb(0,0,0)" stroke-linecap="round" d="M 1015.92 288.273 C 1023.77 287.883 1036.4 287.672 1043.09 291.513 C 1064 303.525 1082.07 319.905 1102.17 333.308 C 1202.62 400.263 1326.1 440.398 1445.36 454.935 C 1482.6 459.485 1520.09 461.535 1557.6 461.072 C 1578.06 460.976 1598.63 459.449 1618.97 460.494 C 1638.5 461.498 1660.62 479.175 1662.77 499.215 C 1664.92 519.391 1664.14 540.937 1664.18 561.362 L 1664.74 672.065 C 1665.3 733.741 1666.35 796.164 1663.65 857.666 C 1655.49 1044.11 1600.35 1214.86 1491.36 1367.26 C 1393.19 1504.52 1257.17 1613.6 1115.39 1703.39 C 1095.17 1716.19 1051.31 1745.34 1029.47 1748.96 C 1023.48 1749.19 1016.53 1749.51 1010.88 1747.53 C 981.03 1737.09 944.216 1712.7 917.137 1695.65 C 672.673 1541.72 472.207 1328.37 407.14 1038.93 C 396.628 991.623 389.444 943.634 385.641 895.319 C 378.922 811.403 381.485 720.163 381.741 635.656 L 382.01 550.133 C 382.08 529.417 379.112 498.503 390.214 480.774 C 405.978 455.597 437.539 460.672 463.052 461.17 C 478.01 461.529 492.974 461.555 507.933 461.25 C 565.581 460.176 612.646 455.96 669.573 444.708 C 743.141 430.187 814.234 405.147 880.664 370.359 C 906.252 356.821 931.039 341.82 954.9 325.429 C 974.611 311.654 991.967 292.86 1015.92 288.273 Z M 438.297 515.892 L 436.327 709.875 C 435.931 770.54 436.569 831.14 440.655 891.238 C 455.683 1112.22 550.801 1307.14 706.389 1463.16 C 781.322 1538.3 874.225 1608.6 964.886 1664.19 C 982.47 1674.97 1004.93 1688.61 1023.18 1698.14 C 1032.98 1695.45 1098.28 1654 1109.88 1646.31 C 1264.69 1543.65 1402.56 1426.1 1495.5 1262.49 C 1563.1 1143.5 1599.81 1016.63 1607.53 880.225 C 1610.46 828.502 1610.83 776.609 1610.2 724.834 C 1609.36 655.295 1610.13 584.565 1608.96 515.193 C 1596.57 516.689 1560.98 516.233 1546.26 515.99 C 1375.6 513.171 1184.36 461.363 1046.64 357.339 C 1042.3 354.058 1028.4 342.21 1024.77 340.724 C 898.329 436.941 747.574 496.016 589.425 511.318 C 535.175 516.631 492.618 516.385 438.297 515.892 Z"></path>
<path transform="translate(0,0)" style="fill: rgb(0,0,0)" stroke-linecap="round" d="M 1349.15 694.367 C 1350.49 694.269 1351.83 694.208 1353.17 694.185 C 1393.67 693.669 1426 731.294 1425.92 770.679 C 1425.81 786.256 1421.14 801.461 1412.5 814.423 C 1402.99 828.76 1387.16 843.529 1374.67 855.969 C 1358.66 871.991 1342.54 887.914 1326.33 903.735 C 1284.83 944.709 1243.65 986.001 1202.78 1027.61 L 1051.31 1177.72 L 1005.39 1223.71 C 994.679 1234.43 982.949 1247.39 970.561 1255.97 C 911.534 1296.88 869.684 1240.23 831.104 1202.2 C 795.821 1167.46 760.74 1132.52 725.862 1097.38 C 707.516 1079.3 688.199 1060.14 670.521 1041.45 C 656.263 1026.38 648.801 1004.89 650.435 983.947 C 652.114 964.445 661.35 946.372 676.17 933.585 C 690.834 921.102 709.958 915.146 729.117 917.098 C 759.784 920.033 777.881 943.124 798.397 963.628 L 843.34 1008.59 L 895.791 1061.05 C 905.87 1071.16 919.688 1084.5 928.605 1095.15 C 934.814 1087.35 944.921 1077.73 952.112 1070.56 L 990.145 1032.68 L 1115.08 907.904 L 1246.99 775.638 L 1288.09 734.301 C 1307.89 714.409 1319.88 697.866 1349.15 694.367 Z M 730.439 1025.25 L 849.449 1144.55 C 869.966 1165.13 891.787 1187.59 913.003 1207.7 C 924.845 1218.93 931.549 1220.63 944.278 1208.43 C 969.845 1183.91 994.927 1158.3 1020.12 1133.11 L 1161.46 991.949 L 1296.08 857.419 C 1318.85 834.638 1341.98 811.549 1364.47 788.44 C 1370.45 782.293 1374.91 775.403 1374.29 766.501 C 1373.93 760.532 1371.06 754.994 1366.4 751.249 C 1363 748.55 1359.77 747.305 1355.45 746.994 C 1343.78 750.36 1317.14 779.854 1306.76 790.274 L 1242.03 855.285 C 1172.78 925.764 1103.13 995.851 1033.08 1065.54 C 1019.77 1078.84 999.646 1097.64 987.402 1111.24 C 923.852 1181.8 907.694 1148.55 854.9 1095.73 L 766.53 1007.08 C 755.692 996.202 744.21 983.318 731.97 973.8 C 716.409 961.699 696.681 976.403 704.246 994.892 C 708.562 1005.44 721.895 1016.95 730.439 1025.25 Z"></path>
</svg>