<?xml version="1.0" encoding="UTF-8" standalone="no"?>
<!-- Generated by SVGMaker - https://svgmaker.io -->
<!-- Prompt: STYLE: Clean outline / line-art icons. Use a single consistent stroke weight throughout. Corners should be slightly rounded for a modern, approachable feel. No heavy gradients inside icons. No decorative flourishes or playful elements.

TONE: Clinical, private, and family-friendly. Icons must feel trustworthy and professional — like a medical utility tool, not a consumer wellness app.

SIZE ＆ READABILITY: Every icon must be readable and distinct at 20px to 28px. Shapes should be bold enough silhouettes to work at small sizes.

STROKE ＆ GEOMETRY: Consistent stroke weight and corner radius across all icons in the set. Prefer simple, recognisable silhouettes. Avoid overly complex detail. Use black (000000) as the only colour on a transparent background.

STATES: For status icons (confirm, warning, delete, iCloud), use stronger filled or badge variants to signal importance. All other icons remain outline-only unless noted.

EXPORT: Vector SVG with transparent background. Do not include drop shadows, outer glows, or bounding box fills.

COLOR: Output in monochrome / single foreground color so the app can tint icons programmatically.

DO NOT include: playful cartoon shapes, thick gradients, photorealistic elements, brand logos, or overly decorative styling.

App icon: A short checklist — two or three lines with check marks beside them. Used as a status filter control. Outline style. - updated by SVGMaker Editor -->
<!-- Quality: low -->
<!-- Type: generate -->
<!-- Created: 2026-06-01T15:19:08.225Z -->
<svg xmlns="http://www.w3.org/2000/svg" xmlns:xlink="http://www.w3.org/1999/xlink" version="1.1" width="1024" height="1024" viewBox="0 0 2048 2048">
<desc>Created with SVGMaker Editor 3.0.0</desc>
<defs>
</defs>
<path transform="translate(0,0)" style="fill: rgb(0,0,0)" stroke-linecap="round" d="M 514.261 237.432 C 528.128 235.566 553.008 236.943 567.961 236.961 L 670.185 237.021 L 1004.48 237.048 L 1364.85 237.037 L 1474.57 237.021 C 1522.9 237.025 1561.91 231.096 1602.36 262.487 C 1653.35 302.063 1647.15 352.524 1647.09 409.363 L 1647.1 527.574 L 1647.05 916.881 L 1647.07 1437.85 L 1647.12 1607.51 C 1647.1 1637.4 1648.26 1668.66 1646.31 1698.32 C 1642.05 1763.05 1592.27 1804.55 1530.91 1811.5 C 1505.91 1812.41 1477.92 1811.82 1452.74 1811.83 L 1314.5 1811.83 L 892.219 1811.87 L 640.617 1811.84 L 559.254 1811.91 C 541.283 1811.9 522.116 1812.51 504.196 1810.37 C 450.738 1803.96 404.868 1756.01 402.21 1702.07 C 400.646 1670.32 401.388 1637.46 401.406 1605.64 L 401.344 1444.54 L 401.368 924.675 L 401.34 531.677 L 401.33 409.492 C 401.332 388.974 401.236 368.023 401.823 347.979 C 403.063 305.62 429.82 265.744 468.294 248.194 C 484.286 240.9 496.734 238.45 514.261 237.432 Z M 1532.36 1765.48 C 1556.61 1760.69 1574.33 1753.12 1588.93 1732.05 C 1597.8 1719.25 1600.65 1706.15 1601.21 1690.79 C 1601.5 1654.73 1601.34 1618.28 1601.32 1582.16 L 1601.3 1377.52 L 1601.32 745.15 L 1601.33 458.937 L 1601.39 385.466 C 1601.47 347.003 1604.27 316.667 1567.21 293.173 C 1542.95 277.795 1507.59 282.158 1479.48 282.17 L 1385.1 282.233 L 1096.5 282.23 L 713.535 282.224 L 588.209 282.205 C 565.407 282.198 540.412 281.685 517.742 282.443 C 494.207 284.739 480.255 289.497 463.755 307.873 C 457.896 314.397 448.186 333.116 448.04 341.577 C 447.538 370.864 447.729 400.613 447.729 429.926 L 447.748 601.306 L 447.779 1122.28 L 447.812 1516.42 L 447.764 1640.24 C 447.76 1661.06 447.306 1683.89 448.299 1704.48 C 449.046 1719.97 462.552 1739.57 474.693 1749.33 C 486.665 1758.93 501.282 1764.63 516.587 1765.68 C 536.096 1767.14 565.473 1766.35 585.414 1766.34 L 705.101 1766.3 L 1092.82 1766.16 L 1397.65 1766.21 L 1483.1 1766.38 C 1496.93 1766.4 1519.14 1766.94 1532.36 1765.48 Z"></path>
<path transform="translate(0,0)" style="fill: rgb(0,0,0)" stroke-linecap="round" d="M 583.987 1518.35 L 1159.06 1518.29 L 1348.98 1518.29 C 1382.75 1518.26 1416.34 1518.09 1450.29 1518.51 C 1462.99 1517.3 1478.71 1525.23 1478.33 1539.99 C 1477.84 1559.11 1462.59 1564.23 1447.75 1564.08 C 1389.8 1564.71 1331 1564.22 1272.99 1564.22 L 921.307 1564.25 L 700.897 1564.28 C 662.309 1564.29 615.603 1565.53 577.664 1563.83 C 576.969 1563.44 576.281 1563.03 575.598 1562.62 C 555.04 1550.01 556.922 1522.25 583.987 1518.35 Z"></path>
<path transform="translate(0,0)" style="fill: rgb(0,0,0)" stroke-linecap="round" d="M 582.222 1265.37 C 639.345 1263.74 704.108 1265.23 762.138 1265.24 L 1112.82 1265.23 L 1338.66 1265.23 C 1375.2 1265.21 1429.41 1263.59 1464.1 1266.41 C 1483.66 1280.28 1482.55 1303.09 1459.53 1311.03 C 1402.1 1311.97 1342.37 1311.14 1284.8 1311.13 L 948.401 1311.15 L 713.133 1311.17 C 672.002 1311.19 630.653 1311.4 589.535 1311.04 C 583.186 1310.38 576.509 1311.4 571.242 1307.11 C 554.988 1293.85 560.061 1268.07 582.222 1265.37 Z"></path>
<path transform="translate(0,0)" style="fill: rgb(0,0,0)" stroke-linecap="round" d="M 1347.93 983.862 C 1323.98 984.9 1294.03 984.047 1269.61 984.037 L 1119.08 983.985 L 1021.68 984.02 C 1006.85 984.034 992.062 984.388 977.236 984.102 C 956.948 983.71 942.528 961.587 957.824 945.568 C 962.001 941.273 967.537 938.559 973.49 937.888 C 980.059 937.186 1011.07 937.919 1019.03 937.925 L 1123.89 937.937 L 1457.75 938.001 C 1484.36 942.314 1481.41 974.427 1467.9 980.052 C 1446.9 988.79 1393.76 981.871 1369.59 984.021 C 1363.53 984.56 1352.9 984.117 1347.93 983.862 Z"></path>
<path transform="translate(0,0)" style="fill: rgb(0,0,0)" stroke-linecap="round" d="M 1457.75 938.001 C 1484.36 942.314 1481.41 974.427 1467.9 980.052 C 1446.9 988.79 1393.76 981.871 1369.59 984.021 C 1363.53 984.56 1352.9 984.117 1347.93 983.862 C 1352.85 980.467 1364.84 982.046 1371.13 981.72 C 1399.71 980.238 1428.89 982.718 1457.32 980.486 C 1462.1 980.11 1470.37 975.421 1472.53 971.018 C 1480.3 955.176 1470.97 945.366 1457.75 938.001 Z"></path>
<path transform="translate(0,0)" style="fill: rgb(0,0,0)" stroke-linecap="round" d="M 971.931 596.349 L 1444.06 596.352 C 1455.6 596.453 1464.03 594.844 1472.31 603.794 C 1476.44 608.282 1478.49 614.307 1477.96 620.386 C 1477.32 628.463 1473.28 634.05 1467.25 639.038 C 1452.38 643.593 1394.88 641.861 1376.54 641.858 L 1247.28 641.83 L 1074.4 641.82 C 1044.08 641.858 1013.65 642.035 983.327 641.938 C 977.424 641.653 969.299 641.43 964.114 638.55 C 952.834 632.287 948.548 617.372 955.781 606.435 C 959.955 600.123 964.732 597.757 971.931 596.349 Z"></path>
<path transform="translate(0,0)" style="fill: rgb(0,0,0)" stroke-linecap="round" d="M 847.509 826.21 C 860.818 825.409 874.33 833.458 873.745 847.311 C 873.057 863.609 849.148 885.949 838.621 897.837 L 788.277 955.006 L 730.299 1020.71 C 719.402 1033.14 708.889 1045.62 697.415 1057.67 C 690.433 1066.17 677.169 1068.73 668.042 1061.7 C 657.498 1053.58 647.288 1041.49 638.089 1031.49 L 599.341 989.604 C 585.197 971.898 553.302 949.158 587.548 930.118 C 590.032 929.98 592.518 929.902 595.005 929.886 C 599.459 929.899 605.082 930.816 608.586 933.574 C 619.852 942.44 631.751 956.575 641.597 967.234 C 654.239 981.012 667.133 994.556 680.274 1007.86 C 716.951 968.455 754.118 925 789.663 884.393 L 819.647 849.991 C 829.273 838.934 833.282 831.109 847.509 826.21 Z"></path>
<path transform="translate(0,0)" style="fill: rgb(0,0,0)" stroke-linecap="round" d="M 848.02 487.165 C 867.589 486.066 880.851 505.007 869.691 521.593 C 863.826 530.309 853.144 540.967 845.909 549.09 L 799.696 601.046 L 731.88 677.18 C 720.256 690.205 708.713 703.451 696.764 715.997 C 687.491 725.734 674.487 726.855 664.119 718.345 C 655.071 710.919 647.046 701.647 639.078 693.112 C 625.698 678.865 612.448 664.496 599.328 650.008 C 586.496 636.973 560.826 616.952 578.989 597.974 C 583.24 593.537 589.143 591.064 595.288 591.145 C 611.038 591.23 626.482 612.81 636.813 624.016 C 650.58 639.177 664.637 654.073 678.975 668.695 C 732.211 611.268 782.155 549.471 835.847 492.404 C 838.621 489.455 844.249 488.011 848.02 487.165 Z"></path>
</svg>