<?xml version="1.0" encoding="UTF-8" standalone="no"?>
<!-- Generated by SVGMaker - https://svgmaker.io -->
<!-- Prompt: STYLE: Clean outline / line-art icons. Use a single consistent stroke weight throughout. Corners should be slightly rounded for a modern, approachable feel. No heavy gradients inside icons. No decorative flourishes or playful elements.

TONE: Clinical, private, and family-friendly. Icons must feel trustworthy and professional — like a medical utility tool, not a consumer wellness app.

SIZE ＆ READABILITY: Every icon must be readable and distinct at 20px to 28px. Shapes should be bold enough silhouettes to work at small sizes.

STROKE ＆ GEOMETRY: Consistent stroke weight and corner radius across all icons in the set. Prefer simple, recognisable silhouettes. Avoid overly complex detail. Use black (000000) as the only colour on a transparent background.

STATES: For status icons (confirm, warning, delete, iCloud), use stronger filled or badge variants to signal importance. All other icons remain outline-only unless noted.

EXPORT: Vector SVG with transparent background. Do not include drop shadows, outer glows, or bounding box fills.

COLOR: Output in monochrome / single foreground color so the app can tint icons programmatically.

DO NOT include: playful cartoon shapes, thick gradients, photorealistic elements, brand logos, or overly decorative styling.

App icon: A cloud outline with a small upward or bidirectional sync arrow inside or below it. Should carry a sense of privacy and medical reliability — not a generic cloud. Outline style with subtle sync arrow detail. - updated by SVGMaker Editor -->
<!-- Quality: low -->
<!-- Type: generate -->
<!-- Created: 2026-06-01T15:10:03.784Z -->
<svg xmlns="http://www.w3.org/2000/svg" xmlns:xlink="http://www.w3.org/1999/xlink" version="1.1" width="1024" height="1024" viewBox="0 0 2048 2048">
<desc>Created with SVGMaker Editor 3.0.0</desc>
<defs>
</defs>
<path transform="translate(0,0)" style="fill: rgb(0,0,0)" stroke-linecap="round" d="M 575.421 805.527 L 577.507 805.324 C 582.297 780.36 582.597 763.544 589.607 736.696 C 616.384 635.388 678.574 547.027 764.904 487.634 C 851.441 428.671 957.992 406.835 1060.75 427.006 C 1213.69 456.706 1350.55 583.597 1387.41 735.598 C 1428.31 724.355 1493.51 732.24 1532.92 746.46 C 1549.06 752.285 1565.66 760.299 1580.66 768.844 C 1658.45 813.977 1715.55 887.67 1739.85 974.254 C 1763.36 1060.84 1756.04 1155.97 1710.96 1234.51 C 1669.11 1307.83 1599.98 1361.62 1518.63 1384.17 C 1497.11 1390.01 1475.08 1393.79 1452.84 1395.45 C 1435.84 1396.59 1416.06 1396.14 1398.83 1396.13 L 1311.15 1396.07 L 1230.21 1396.06 C 1216 1396.05 1201.76 1396.24 1187.56 1395.76 C 1175.98 1395.37 1171.62 1391.19 1166.12 1381.75 C 1165.18 1359.6 1172.26 1353.73 1194.49 1353.82 L 1349.66 1354 C 1366.95 1354 1387.75 1353.08 1404.66 1354.01 C 1578.61 1363.51 1711 1241.17 1710.25 1065.48 C 1709.85 986.268 1678.35 910.382 1622.53 854.173 C 1569.67 801.613 1508.83 773.275 1433.79 773.723 C 1421.7 773.711 1409.62 774.646 1397.67 776.518 C 1379.68 779.52 1360.89 788.514 1352.42 765.318 C 1349.15 756.363 1346.63 747.232 1344.01 738.073 C 1298.43 578.597 1148.53 460.984 979.464 462.04 C 886.671 463.311 798.162 501.299 733.318 567.686 C 681.074 619.746 644.773 685.636 628.681 757.613 C 623.939 779.121 620.832 801.706 618.721 823.286 C 617.481 835.966 612.957 852.692 597.549 850.681 C 516.854 840.15 443.803 861.313 384.889 920.26 C 340.372 964.802 307.928 1028.74 307.926 1095.22 C 308.057 1161.34 334.401 1224.71 381.182 1271.45 C 429.329 1319.67 493.338 1348.78 561.324 1353.38 C 589.075 1355.48 637.616 1354.03 666.864 1354.02 L 838.83 1353.81 C 846.519 1353.81 856.344 1353.24 862.192 1358.7 C 877.641 1373.12 868.773 1395.44 847.576 1395.89 C 830.528 1396.26 813.971 1396.18 797.147 1396.16 L 702.242 1396.06 L 608.187 1396.11 C 590.152 1396.11 566.824 1396.78 549.415 1394.9 C 483.063 1388.38 420.343 1361.53 369.833 1318.01 C 361.571 1310.91 340.85 1291.91 335.743 1283.77 C 285.923 1228.63 257.62 1140.43 267.538 1066.57 C 274.844 1006.4 296.913 959.638 335.09 912.516 C 377.351 860.352 450.926 813.201 518.695 807.07 C 532.15 803.376 560.964 804.283 575.421 805.527 Z"></path>
<path transform="translate(0,0)" style="fill: rgb(0,0,0)" stroke-linecap="round" d="M 335.743 1283.77 C 285.923 1228.63 257.62 1140.43 267.538 1066.57 C 271.172 1072.88 270.271 1080.82 269.936 1087.86 C 266.898 1151.61 287.692 1213.87 324.969 1265.28 C 328.357 1269.96 335.462 1278.4 335.743 1283.77 Z"></path>
<path transform="translate(0,0)" style="fill: rgb(0,0,0)" stroke-linecap="round" d="M 518.695 807.07 C 532.15 803.376 560.964 804.283 575.421 805.527 C 566.256 806.637 525.442 811.711 518.695 807.07 Z"></path>
<path transform="translate(0,0)" style="fill: rgb(0,0,0)" stroke-linecap="round" d="M 999.973 1000.75 C 977.27 1025.48 948.435 1050.53 924.68 1074.82 C 907.383 1091.41 890.825 1108.83 873.406 1125.27 C 865.312 1132.91 854.179 1134.58 844.806 1128.5 C 840.306 1125.53 837.211 1120.86 836.239 1115.55 C 832.982 1098.05 854.734 1081.93 866.139 1070.67 C 883.668 1053.31 901.322 1036.08 919.099 1018.98 L 977.885 961.487 C 988.288 951.359 998.771 941.071 1009.61 931.449 C 1019.44 922.723 1032.04 924.662 1041.14 933.25 C 1055.66 946.966 1069.82 960.963 1084.1 974.907 L 1150.16 1038.86 C 1169.39 1057.59 1191.03 1076.12 1208.4 1096.22 C 1225.52 1117.75 1192.35 1141.66 1176.79 1125.05 C 1144.97 1091.05 1103.77 1058.55 1073.17 1024.4 L 1071.82 1022.87 C 1062.62 1014.94 1050.4 1001.91 1041.8 995.502 L 1041.95 1379.06 L 1041.99 1502.79 C 1042.01 1524.47 1042.31 1546.24 1041.61 1567.89 C 1041.47 1572.17 1038.4 1576.92 1035.46 1579.86 C 1029.69 1584.65 1026.44 1584.66 1019.14 1585.69 C 1008.58 1581.79 1000.44 1577.65 1000.11 1564.94 C 999.551 1544.18 999.829 1523.35 999.844 1502.57 L 999.922 1377.12 L 999.973 1000.75 Z"></path>
<path transform="translate(0,0)" style="fill: rgb(0,0,0)" stroke-linecap="round" d="M 1035.46 1579.86 C 1035.21 1578.17 1035.23 1577.85 1035.63 1576.2 C 1039.94 1558.16 1038.35 1536.51 1038.33 1517.93 L 1038.25 1449.74 L 1038.21 1145.93 L 1038.21 1052.14 C 1038.22 1043.1 1036.8 996.439 1041.7 992.45 C 1049.51 996.261 1070.11 1014.62 1071.82 1022.87 C 1062.62 1014.94 1050.4 1001.91 1041.8 995.502 L 1041.95 1379.06 L 1041.99 1502.79 C 1042.01 1524.47 1042.31 1546.24 1041.61 1567.89 C 1041.47 1572.17 1038.4 1576.92 1035.46 1579.86 Z"></path>
</svg>