<?xml version="1.0" encoding="UTF-8" standalone="no"?>
<!-- Generated by SVGMaker - https://svgmaker.io -->
<!-- Prompt: STYLE: Clean outline / line-art icons. Use a single consistent stroke weight throughout. Corners should be slightly rounded for a modern, approachable feel. No heavy gradients inside icons. No decorative flourishes or playful elements.

TONE: Clinical, private, and family-friendly. Icons must feel trustworthy and professional — like a medical utility tool, not a consumer wellness app.

SIZE ＆ READABILITY: Every icon must be readable and distinct at 20px to 28px. Shapes should be bold enough silhouettes to work at small sizes.

STROKE ＆ GEOMETRY: Consistent stroke weight and corner radius across all icons in the set. Prefer simple, recognisable silhouettes. Avoid overly complex detail. Use black (000000) as the only colour on a transparent background.

STATES: For status icons (confirm, warning, delete, iCloud), use stronger filled or badge variants to signal importance. All other icons remain outline-only unless noted.

EXPORT: Vector SVG with transparent background. Do not include drop shadows, outer glows, or bounding box fills.

COLOR: Output in monochrome / single foreground color so the app can tint icons programmatically.

DO NOT include: playful cartoon shapes, thick gradients, photorealistic elements, brand logos, or overly decorative styling.

App icon: Three horizontal lines of decreasing width, stacked, inside or paired with a circle. Classic filter/sliders metaphor. Compact and readable. Outline style. - updated by SVGMaker Editor -->
<!-- Quality: low -->
<!-- Type: generate -->
<!-- Created: 2026-06-01T15:18:02.443Z -->
<svg xmlns="http://www.w3.org/2000/svg" xmlns:xlink="http://www.w3.org/1999/xlink" version="1.1" width="1024" height="1024" viewBox="0 0 2048 2048">
<desc>Created with SVGMaker Editor 3.0.0</desc>
<defs>
</defs>
<path transform="translate(0,0)" style="fill: rgb(0,0,0)" stroke-linecap="round" d="M 972.816 1848.56 C 538.371 1822.05 198.202 1464.43 193.44 1029.2 C 188.678 593.973 520.942 228.998 954.703 192.99 C 1388.46 156.982 1776.36 462.175 1843.43 892.23 C 1910.5 1322.29 1633.95 1731.1 1209.82 1828.88 C 1136.63 1844.37 1047.73 1855.23 972.816 1848.56 Z M 429.379 518.822 C 287.789 686.92 222.512 902.942 252.833 1121.51 C 272.725 1273.17 337.275 1415.48 438.275 1530.35 C 571.608 1684.48 760.583 1779.49 963.818 1794.57 C 1176.17 1808.73 1374.46 1746.26 1535.52 1604.93 C 1692.38 1466.79 1787.5 1271.67 1799.72 1063.02 C 1812.41 866.754 1743.09 663.388 1613.62 514.964 C 1481.63 363.663 1278.05 256.698 1076.1 244.477 C 889.634 232.154 704.937 287.168 555.604 399.515 C 531.274 417.632 510.996 436.043 488.27 456.226 C 468.228 476.358 447.336 496.824 429.379 518.822 Z"></path>
<path transform="translate(0,0)" style="fill: rgb(0,0,0)" stroke-linecap="round" d="M 972.816 1848.56 C 1052.35 1853.41 1132.18 1846.78 1209.82 1828.88 C 1136.63 1844.37 1047.73 1855.23 972.816 1848.56 Z"></path>
<path transform="translate(0,0)" style="fill: rgb(0,0,0)" stroke-linecap="round" d="M 575.733 991.342 C 593.329 939.548 643.609 906.107 698.178 909.906 C 752.748 913.705 797.91 953.79 808.159 1007.52 C 818.408 1061.26 791.172 1115.15 741.832 1138.77 C 692.493 1162.39 633.433 1149.8 598.008 1108.12 C 567.533 1077.7 562.82 1030.77 575.733 991.342 Z M 696.818 1096.59 C 733.5 1092.5 759.967 1059.51 756.016 1022.81 C 752.066 986.117 719.185 959.522 682.472 963.33 C 645.557 967.159 618.783 1000.26 622.756 1037.16 C 626.728 1074.06 659.934 1100.7 696.818 1096.59 Z"></path>
<path transform="translate(0,0)" style="fill: rgb(0,0,0)" stroke-linecap="round" d="M 575.733 991.342 C 562.099 1031.48 570.558 1075.82 598.008 1108.12 C 567.533 1077.7 562.82 1030.77 575.733 991.342 Z"></path>
<path transform="translate(0,0)" style="fill: rgb(0,0,0)" stroke-linecap="round" d="M 675.032 1231.23 C 740.985 1223.54 800.725 1270.67 808.592 1336.6 C 816.459 1402.54 769.486 1462.4 703.574 1470.44 C 637.414 1478.52 577.275 1431.33 569.379 1365.15 C 561.482 1298.97 608.83 1238.95 675.032 1231.23 Z M 691.619 1418.14 C 728.59 1417 757.572 1385.99 756.208 1349.03 C 754.844 1312.06 723.657 1283.27 686.702 1284.86 C 650.066 1286.44 621.576 1317.3 622.928 1353.94 C 624.28 1390.59 654.966 1419.27 691.619 1418.14 Z"></path>
<path transform="translate(0,0)" style="fill: rgb(0,0,0)" stroke-linecap="round" d="M 785.895 780.089 C 755.338 823.346 700.014 841.422 649.811 824.55 C 599.609 807.679 566.429 759.86 568.199 706.928 C 569.968 653.995 606.266 608.499 657.483 595.017 C 708.7 581.535 762.694 603.265 790.295 648.466 C 818.117 685.111 815.335 745.135 785.895 780.089 Z M 697.587 777.393 C 733.89 773.061 759.93 740.298 755.956 703.954 C 751.982 667.61 719.477 641.249 683.096 644.864 C 646.204 648.531 619.391 681.592 623.421 718.446 C 627.451 755.3 660.775 781.786 697.587 777.393 Z"></path>
<path transform="translate(0,0)" style="fill: rgb(0,0,0)" stroke-linecap="round" d="M 790.295 648.466 C 818.117 685.111 815.335 745.135 785.895 780.089 C 813.492 741.022 815.221 689.288 790.295 648.466 Z"></path>
<path transform="translate(0,0)" style="fill: rgb(0,0,0)" stroke-linecap="round" d="M 881.126 728.908 C 837.212 729.16 844.594 674.477 875.106 673.998 C 915.323 673.367 956.699 673.657 996.998 673.667 L 1231.96 673.638 L 1385.27 673.632 C 1411.18 673.634 1438.97 673.02 1464.84 674.642 C 1470.42 674.992 1476.31 679.413 1479.72 683.817 C 1484.57 690.141 1486.69 698.138 1485.62 706.033 C 1482.84 725.964 1465.35 730.188 1448.14 728.988 C 1414.92 730.599 1373.7 729.379 1339.92 729.36 L 1148.14 729.443 L 972.084 729.364 C 945.754 729.34 906.397 730.44 881.126 728.908 Z"></path>
<path transform="translate(0,0)" style="fill: rgb(0,0,0)" stroke-linecap="round" d="M 881.126 728.908 C 884.647 726.691 891.134 727.106 895.328 727.087 C 1026.79 726.483 1158.41 726.359 1289.86 726.51 L 1396.74 726.643 C 1405.49 726.654 1442.77 725.484 1448.14 728.988 C 1414.92 730.599 1373.7 729.379 1339.92 729.36 L 1148.14 729.443 L 972.084 729.364 C 945.754 729.34 906.397 730.44 881.126 728.908 Z"></path>
<path transform="translate(0,0)" style="fill: rgb(0,0,0)" stroke-linecap="round" d="M 868.983 999.283 C 885.075 997.69 918.544 998.756 935.903 998.769 L 1068.82 998.826 L 1327.48 998.814 C 1368.75 998.817 1410.07 998.634 1451.34 998.729 C 1455.81 998.739 1467.86 999.415 1471.77 1001.12 C 1477.48 1004.19 1481.5 1009.99 1483.78 1015.85 C 1487.06 1024.27 1486.78 1031.44 1482.47 1039.4 C 1478.82 1046.13 1473.83 1049.37 1466.84 1051.89 C 1423.83 1053.04 1377.81 1052.24 1334.57 1052.24 L 1096.04 1052.23 C 1066.81 1052.23 877.331 1054.43 867.89 1050.85 C 860.954 1048.22 855.124 1043.11 852.223 1036.21 C 849.351 1029.37 849.386 1020.42 852.42 1013.65 C 855.771 1006.17 861.637 1002.25 868.983 999.283 Z"></path>
<path transform="translate(0,0)" style="fill: rgb(0,0,0)" stroke-linecap="round" d="M 1405.5 1322.23 C 1421.99 1322.16 1462.8 1318.36 1475.51 1327.8 C 1481.14 1331.95 1484.88 1338.17 1485.91 1345.09 C 1486.93 1352.22 1485.21 1358.7 1480.94 1364.46 C 1470.68 1378.29 1454.07 1375.34 1439.18 1375.28 L 1394.27 1375.2 L 1237.21 1375.17 L 990.5 1375.16 L 911.475 1375.22 C 900.882 1375.25 889.666 1375.24 879.089 1375.66 C 855.952 1376.57 840.428 1347.06 857.322 1330.4 C 861.013 1326.82 865.598 1324.31 870.596 1323.11 C 879.36 1320.99 932.149 1322.14 944.503 1322.24 C 1037.1 1320.55 1134.69 1322.08 1227.67 1322.09 L 1344.48 1322.09 C 1363.07 1322.09 1387.39 1321.3 1405.5 1322.23 Z"></path>
<path transform="translate(0,0)" style="fill: rgb(0,0,0)" stroke-linecap="round" d="M 944.503 1322.24 C 1037.1 1320.55 1134.69 1322.08 1227.67 1322.09 L 1344.48 1322.09 C 1363.07 1322.09 1387.39 1321.3 1405.5 1322.23 C 1414.93 1322.94 1445.11 1322.4 1452.54 1324.39 C 1340.36 1325.85 1228.17 1326.2 1115.99 1325.44 L 984.194 1325.36 C 956.064 1325.37 922.798 1326.21 895.187 1324.22 C 911.879 1321.65 927.606 1322.96 944.503 1322.24 Z"></path>
<path transform="translate(0,0)" style="fill: rgb(0,0,0)" stroke-linecap="round" d="M 429.379 518.822 C 429.797 516.35 430.115 514.066 432.373 511.468 C 448.475 492.946 466.364 472.593 485.001 456.739 C 486.091 456.568 487.18 456.397 488.27 456.226 C 468.228 476.358 447.336 496.824 429.379 518.822 Z"></path>
</svg>