<?xml version="1.0" encoding="UTF-8" standalone="no"?>
<!-- Generated by SVGMaker - https://svgmaker.io -->
<!-- Prompt: STYLE: Clean outline / line-art icons. Use a single consistent stroke weight throughout. Corners should be slightly rounded for a modern, approachable feel. No heavy gradients inside icons. No decorative flourishes or playful elements.

TONE: Clinical, private, and family-friendly. Icons must feel trustworthy and professional — like a medical utility tool, not a consumer wellness app.

SIZE ＆ READABILITY: Every icon must be readable and distinct at 20px to 28px. Shapes should be bold enough silhouettes to work at small sizes.

STROKE ＆ GEOMETRY: Consistent stroke weight and corner radius across all icons in the set. Prefer simple, recognisable silhouettes. Avoid overly complex detail. Use black (000000) as the only colour on a transparent background.

STATES: For status icons (confirm, warning, delete, iCloud), use stronger filled or badge variants to signal importance. All other icons remain outline-only unless noted.

EXPORT: Vector SVG with transparent background. Do not include drop shadows, outer glows, or bounding box fills.

COLOR: Output in monochrome / single foreground color so the app can tint icons programmatically.

DO NOT include: playful cartoon shapes, thick gradients, photorealistic elements, brand logos, or overly decorative styling.

App icon: A circular profile placeholder (ring/circle crop) with a small plus badge on its edge. Represents an empty profile with an invitation to add. Outline circle with filled plus badge. - updated by SVGMaker Editor -->
<!-- Quality: low -->
<!-- Type: generate -->
<!-- Created: 2026-06-01T15:14:53.599Z -->
<svg xmlns="http://www.w3.org/2000/svg" xmlns:xlink="http://www.w3.org/1999/xlink" version="1.1" width="1024" height="1024" viewBox="0 0 2048 2048">
<desc>Created with SVGMaker Editor 3.0.0</desc>
<defs>
</defs>
<path transform="translate(0,0)" style="fill: rgb(0,0,0)" stroke-linecap="round" d="M 918.717 372.438 C 989.258 368.753 1075.13 378.957 1141.82 399.944 C 1401.47 481.654 1571.08 742.358 1554.18 1011.94 C 1552.2 1043.49 1549.54 1080.33 1540.15 1110.56 C 1603.57 1128.83 1651.51 1161.66 1688.46 1217.16 C 1726.48 1274.8 1739.83 1345.27 1725.52 1412.83 C 1711.93 1478.48 1672.61 1535.94 1616.35 1572.39 C 1558.31 1610.67 1485.95 1620.97 1418.53 1607.07 C 1351.19 1593.78 1291.9 1554.25 1253.74 1497.2 C 1243.52 1503.9 1233.09 1510.27 1222.46 1516.3 C 1149.72 1555.87 1076.84 1575.07 994.753 1581 C 833.077 1592.65 673.413 1539.48 550.998 1433.23 C 428.298 1327.11 357.928 1176.27 346.787 1015.24 C 335.01 858.406 386.012 703.313 488.576 584.077 C 573.596 486.487 686.66 413.473 813.795 386.046 C 851.174 377.983 880.931 375.064 918.717 372.438 Z M 568.672 1392 C 556.475 1305.15 583.261 1218.22 635.663 1148.81 C 668.846 1105.18 713.321 1071.45 764.281 1051.26 C 772.962 1047.72 791.167 1041.05 800.208 1039.77 C 890.767 1015.78 1018.93 1023.95 1109.21 1047.72 C 1184.7 1067.59 1244.26 1117.07 1287.14 1181.22 C 1330.69 1128.5 1405.29 1100.09 1472.39 1100.91 C 1481.41 1101.02 1490.61 1101.62 1499.62 1102.17 C 1529.14 943.548 1505.53 789.854 1413.09 655.38 C 1332.24 535.831 1207.3 453.214 1065.63 425.637 C 1022.92 417.732 980.404 414.916 937.062 415.692 C 929.389 415.829 910.732 415.348 903.619 416.405 C 786.711 426.025 694.85 462.4 602.625 535.076 C 450.778 654.736 375.552 830.937 391.484 1024.06 C 400.311 1137.37 443.539 1245.27 515.382 1333.33 C 530.98 1352.68 551.293 1373.88 568.672 1392 Z M 612.407 1427.45 C 628.694 1440.83 643.75 1450.18 661.938 1460.99 C 758.946 1518.63 877.907 1544.97 990.278 1537.77 C 990.598 1537.74 990.917 1537.71 991.237 1537.68 C 1066.34 1530.12 1129.92 1516.83 1197.45 1480.53 C 1208.17 1474.77 1224.62 1465.75 1234.13 1458.55 C 1207.92 1396.32 1207.63 1326.2 1233.32 1263.76 C 1239.67 1248.13 1248.27 1232.75 1257.28 1218.49 C 1250.01 1206.45 1243.34 1195.46 1235 1184.22 C 1158.95 1081.76 1034.21 1067.22 916.301 1069.99 C 908.564 1070.17 900.695 1069.93 892.893 1070.42 C 865.488 1072.5 841.565 1074.63 814.899 1081.49 C 672.184 1118.16 597.515 1255.47 608.884 1396.05 C 609.832 1406.54 611.006 1417.01 612.407 1427.45 Z M 1477.53 1572.49 C 1595.94 1569.92 1689.82 1471.8 1687.17 1353.4 C 1684.53 1235 1586.36 1141.18 1467.95 1143.9 C 1349.65 1146.61 1255.93 1244.68 1258.58 1362.98 C 1261.22 1481.28 1359.23 1575.06 1477.53 1572.49 Z"></path>
<path transform="translate(0,0)" style="fill: rgb(0,0,0)" stroke-linecap="round" d="M 930.548 575.085 C 1044.84 564.7 1145.98 648.745 1156.7 763.003 C 1167.42 877.261 1083.67 978.652 969.444 989.704 C 854.745 1000.8 752.844 916.63 742.081 801.899 C 731.318 687.169 815.787 585.513 930.548 575.085 Z M 970.299 946.05 C 1060.15 934.563 1123.9 852.719 1113.04 762.787 C 1102.17 672.856 1020.77 608.543 930.769 618.78 C 839.876 629.119 774.789 711.498 785.758 802.318 C 796.728 893.138 879.558 957.651 970.299 946.05 Z"></path>
<path transform="translate(0,0)" style="fill: rgb(0,0,0)" stroke-linecap="round" d="M 1464.73 1220.28 C 1501.91 1216.37 1494.79 1249.28 1494.74 1275.42 L 1494.73 1340.34 C 1520.88 1339.61 1547.46 1340.4 1573.65 1339.98 C 1582.3 1339.84 1595.56 1339.56 1602.07 1346.04 C 1614.67 1358.58 1609.04 1382.67 1589.57 1383.56 C 1578.03 1384.41 1567.74 1384.2 1556.43 1384.18 L 1494.81 1384 C 1494.02 1417.1 1496.74 1461.81 1492.84 1494.84 C 1492.1 1501.14 1483.95 1505.14 1478.55 1507.8 C 1477.35 1507.91 1476.16 1508 1474.96 1508.05 C 1450.36 1509.13 1449.99 1487.19 1450.33 1468.8 C 1450.84 1440.58 1450.07 1412.31 1450.81 1384.09 C 1420.7 1383.67 1388.87 1385.15 1358.78 1383.6 C 1335.33 1382.39 1332.46 1342 1359.21 1340.51 C 1370.69 1339.87 1381.87 1339.98 1393.47 1340.02 L 1450.96 1340.08 C 1450.39 1308.48 1449.76 1266.03 1451.83 1234.05 C 1452.22 1227.97 1459.81 1223.34 1464.73 1220.28 Z"></path>
</svg>