<?xml version="1.0" encoding="UTF-8" standalone="no"?>
<!-- Generated by SVGMaker - https://svgmaker.io -->
<!-- Prompt: STYLE: Clean outline / line-art icons. Use a single consistent stroke weight throughout. Corners should be slightly rounded for a modern, approachable feel. No heavy gradients inside icons. No decorative flourishes or playful elements.

TONE: Clinical, private, and family-friendly. Icons must feel trustworthy and professional — like a medical utility tool, not a consumer wellness app.

SIZE ＆ READABILITY: Every icon must be readable and distinct at 20px to 28px. Shapes should be bold enough silhouettes to work at small sizes.

STROKE ＆ GEOMETRY: Consistent stroke weight and corner radius across all icons in the set. Prefer simple, recognisable silhouettes. Avoid overly complex detail. Use black (000000) as the only colour on a transparent background.

STATES: For status icons (confirm, warning, delete, iCloud), use stronger filled or badge variants to signal importance. All other icons remain outline-only unless noted.

EXPORT: Vector SVG with transparent background. Do not include drop shadows, outer glows, or bounding box fills.

COLOR: Output in monochrome / single foreground color so the app can tint icons programmatically.

DO NOT include: playful cartoon shapes, thick gradients, photorealistic elements, brand logos, or overly decorative styling.

App icon: Warning triangle with a bold exclamation mark inside. Strong, high-contrast silhouette. Used for high-value alerts and items needing review. Slightly bolder stroke than standard icons. - updated by SVGMaker Editor -->
<!-- Quality: low -->
<!-- Type: generate -->
<!-- Created: 2026-06-01T15:03:41.953Z -->
<svg xmlns="http://www.w3.org/2000/svg" xmlns:xlink="http://www.w3.org/1999/xlink" version="1.1" width="1024" height="1024" viewBox="0 0 2048 2048">
<desc>Created with SVGMaker Editor 3.0.0</desc>
<defs>
</defs>
<path transform="translate(0,0)" style="fill: rgb(0,0,0)" stroke-linecap="round" d="M 1012.84 212.344 C 1053.7 209.082 1097.4 223.341 1125.91 252.951 C 1147.09 274.957 1164.33 308.887 1180.06 335.477 L 1253.18 460.274 L 1523.79 924.769 L 1747.24 1307.76 L 1831.96 1452.66 C 1844.67 1474.58 1862.61 1503.06 1873.55 1525.02 C 1885.73 1549.19 1892.1 1575.87 1892.15 1602.93 C 1892.31 1645 1875.59 1685.38 1845.72 1715.01 C 1822.66 1738.09 1793.05 1753.53 1760.92 1759.23 C 1737.85 1763.34 1698.06 1762.03 1673.31 1762.02 L 1537.34 1762.01 L 1036.75 1762 L 525.46 1761.99 L 374.473 1762.02 C 355.352 1762.03 311.931 1763.11 294.291 1760.76 C 267.771 1757.17 242.573 1746.99 221 1731.15 C 159.867 1686.73 141.906 1599.95 171.843 1532.47 C 181.505 1510.68 198.943 1484.49 211.425 1463.36 L 282.365 1342.95 L 510.467 954.037 L 793.428 470.117 L 872.53 334.733 C 911.273 268.681 928.82 224.656 1012.84 212.344 Z M 1030.31 1680.9 L 1532 1680.94 L 1673.38 1680.91 C 1697.64 1680.92 1723.1 1681.97 1747.08 1679.78 C 1761.68 1678.45 1782.38 1667.51 1792.45 1657 C 1843.82 1603.38 1798.97 1551.33 1770.66 1502.39 L 1670.4 1331.08 L 1380.83 833.534 L 1157.36 451.354 L 1108.78 368.397 C 1100.69 354.66 1090.2 335.88 1081.22 322.922 C 1070 306.719 1041.83 294.413 1021.88 296.408 C 975.069 302.031 967.959 326.875 946.047 364.008 L 897.025 447.121 L 715.696 756.82 L 399.541 1296.6 L 296.227 1472.69 C 284.698 1492.15 272.931 1511.78 261.156 1531.1 C 244.908 1557.76 230.147 1578.84 234.72 1611.75 C 237.612 1632.86 248.883 1651.91 265.989 1664.61 C 276.137 1672.11 293.29 1679.22 305.827 1680.02 C 332.38 1681.72 360.99 1681.02 387.695 1681 L 537.823 1680.97 L 1030.31 1680.9 Z"></path>
<path transform="translate(0,0)" style="fill: rgb(0,0,0)" stroke-linecap="round" d="M 1010.08 616.215 C 1051.59 614.865 1088.5 624.826 1110.77 663.105 C 1117.57 674.663 1121.36 687.741 1121.79 701.143 C 1122.04 710.273 1120.33 727.563 1119.62 737.412 C 1118.17 757.546 1116.83 777.687 1115.59 797.835 L 1102.03 1012.34 L 1093.57 1151.08 C 1089.64 1216.7 1096.87 1241.79 1033.23 1277.11 C 1030.37 1278.93 1026.39 1280.56 1023.21 1281.98 C 996.665 1271.03 965.353 1245.82 959.579 1216.16 C 957.405 1205 956.887 1191.56 956.12 1180.15 L 952.348 1121.9 L 939.938 926.483 L 929.762 769.42 C 928.739 752.288 925.417 715.877 926.17 700.509 C 926.808 685.14 931.588 670.228 940.002 657.351 C 957.022 631.822 981.481 622.102 1010.08 616.215 Z"></path>
<path transform="translate(0,0)" style="fill: rgb(0,0,0)" stroke-linecap="round" d="M 1011.84 1339.18 C 1066.07 1332.5 1115.48 1370.98 1122.27 1425.2 C 1129.05 1479.42 1090.66 1528.9 1036.45 1535.78 C 982.102 1542.68 932.471 1504.17 925.668 1449.81 C 918.865 1395.45 957.472 1345.89 1011.84 1339.18 Z"></path>
</svg>