<?xml version="1.0" encoding="UTF-8" standalone="no"?>
<!-- Generated by SVGMaker - https://svgmaker.io -->
<!-- Prompt: STYLE: Clean outline / line-art icons. Use a single consistent stroke weight throughout. Corners should be slightly rounded for a modern, approachable feel. No heavy gradients inside icons. No decorative flourishes or playful elements.

TONE: Clinical, private, and family-friendly. Icons must feel trustworthy and professional — like a medical utility tool, not a consumer wellness app.

SIZE ＆ READABILITY: Every icon must be readable and distinct at 20px to 28px. Shapes should be bold enough silhouettes to work at small sizes.

STROKE ＆ GEOMETRY: Consistent stroke weight and corner radius across all icons in the set. Prefer simple, recognisable silhouettes. Avoid overly complex detail. Use black (000000) as the only colour on a transparent background.

STATES: For status icons (confirm, warning, delete, iCloud), use stronger filled or badge variants to signal importance. All other icons remain outline-only unless noted.

EXPORT: Vector SVG with transparent background. Do not include drop shadows, outer glows, or bounding box fills.

COLOR: Output in monochrome / single foreground color so the app can tint icons programmatically.

DO NOT include: playful cartoon shapes, thick gradients, photorealistic elements, brand logos, or overly decorative styling.

App icon: A trash can with a lid slightly separate or hinged open. Conveys destructive action but should not feel alarming or heavy. Outline style, clean silhouette. - updated by SVGMaker Editor -->
<!-- Quality: low -->
<!-- Type: generate -->
<!-- Created: 2026-06-01T14:38:43.230Z -->
<svg xmlns="http://www.w3.org/2000/svg" xmlns:xlink="http://www.w3.org/1999/xlink" version="1.1" width="1024" height="1024" viewBox="0 0 2048 2048">
<desc>Created with SVGMaker Editor 3.0.0</desc>
<defs>
</defs>
<path transform="translate(0,0)" style="fill: rgb(0,0,0)" stroke-linecap="round" d="M 1065.78 414.964 C 1076.2 409.645 1096.49 402.283 1107.81 397.779 L 1182.39 367.886 L 1246.71 341.88 C 1261.13 335.971 1276.47 329.004 1291.37 324.763 C 1340.87 310.672 1393.49 329.264 1425.49 369.022 C 1444.35 390.723 1466.76 445.772 1437.74 466.509 C 1423.52 476.67 1388.39 489.174 1370.74 495.227 C 1334.1 511.18 1291.03 526.671 1253.29 541.506 L 1016.91 634.199 L 776.362 728.213 C 744.112 740.742 707.553 756.471 675.664 767.711 C 736.193 765.806 803.097 767.197 864.071 767.194 L 1200.82 767.526 L 1385.39 767.951 L 1439.8 767.889 C 1466.99 767.797 1511.13 764.515 1511.76 806.547 C 1512 822.512 1508.76 842.169 1507.16 858.49 L 1498.28 951.011 L 1472.49 1221.48 L 1446.41 1487.76 L 1438.36 1571.6 C 1436.84 1587.29 1434.99 1611.24 1431.78 1625.99 C 1427.02 1648.51 1415.73 1669.13 1399.34 1685.29 C 1386.24 1698.07 1365.27 1710.63 1347.37 1714.92 C 1324.37 1722.15 1299 1720.06 1274.62 1720.06 L 1211.93 1720.04 L 889.725 1719.87 L 803.101 1719.95 C 783.754 1719.97 760.145 1721.03 741.514 1717.71 C 721.073 1712.66 702.415 1704.35 686.342 1690.58 C 668.011 1674.7 655.178 1653.43 649.682 1629.81 C 645.406 1611.84 641.504 1559.56 639.514 1538.95 L 622.466 1365.41 L 584.1 982.882 C 578.886 930.347 571.938 873.502 567.699 821.281 C 536.308 815.716 520.75 793.028 509.165 764.807 C 497.906 737.383 501.218 702.641 512.45 675.679 C 521.191 654.439 535.749 636.097 554.45 622.762 C 566.008 614.571 576.022 609.997 589.08 604.929 C 651.767 580.598 714.883 556.468 777.154 531.169 C 757.504 471.18 778.71 413.985 829.92 377.394 C 849.269 363.568 872.694 356.446 894.648 347.882 C 916.274 339.447 940.959 338.062 963.642 342.507 C 1009.02 351.662 1040.18 377.715 1065.78 414.964 Z M 619.868 819.988 C 623.1 837.327 625.147 868.83 627.007 887.149 L 641.331 1033.39 L 681.69 1430.94 L 693.678 1553.46 C 696.438 1580.71 695.826 1619.38 712.759 1641.27 C 724.938 1657.03 741.27 1665.68 761.009 1668.14 L 1315.23 1668.14 C 1348.36 1667.77 1375.68 1645.4 1381.87 1612.4 C 1386.91 1585.51 1387.95 1556.14 1390.59 1528.76 C 1396.68 1468.86 1402.4 1408.92 1407.74 1348.94 L 1458.43 821.404 C 1432.62 820.377 1400.93 821.168 1374.58 821.121 L 1206.46 820.687 L 619.868 819.988 Z M 1399.85 426.734 C 1384.84 390.652 1359.09 368.002 1318.44 371.233 C 1304.59 373.346 1286.15 381.976 1272.81 387.33 L 1206.34 414.029 L 945.524 519.192 C 869.422 549.97 793.157 580.344 716.732 610.313 L 636.244 642.062 C 624.154 646.869 608.377 652.527 596.949 657.837 C 585.346 663.195 575.277 671.383 567.666 681.649 C 556.432 696.781 551.453 715.173 554.513 733.861 C 555.826 741.727 558.641 749.267 562.803 756.07 C 578.446 748.931 598.002 741.889 614.252 735.573 L 1145.9 527.37 L 1323.98 457.656 C 1340.06 451.268 1386.82 434.098 1399.85 426.734 Z M 823.441 512.801 C 837.366 505.931 856.251 499.122 871.073 493.281 L 962.759 457.129 C 978.893 450.775 1001.66 442.41 1016.91 435.068 C 998.791 411.878 995.34 409.143 969.128 394.617 C 937.561 386.093 922.098 390.463 892.183 403.491 C 877.05 410.081 867.33 413.379 852.952 423.001 C 823.325 449.916 814.692 473.657 823.441 512.801 Z"></path>
<path transform="translate(0,0)" style="fill: rgb(0,0,0)" stroke-linecap="round" d="M 1209.68 1717.17 C 1219.33 1717.62 1231.64 1716.78 1241.62 1716.78 C 1265.81 1716.97 1290.01 1716.86 1314.19 1716.46 C 1322.78 1716.26 1340.47 1714.07 1347.37 1714.92 C 1324.37 1722.15 1299 1720.06 1274.62 1720.06 L 1211.93 1720.04 L 889.725 1719.87 L 803.101 1719.95 C 783.754 1719.97 760.145 1721.03 741.514 1717.71 C 748.834 1714.86 797.266 1716.37 808.939 1716.36 L 950.314 1716.36 L 1090.55 1716.48 C 1129.82 1716.41 1170.55 1715.95 1209.68 1717.17 Z"></path>
<path transform="translate(0,0)" style="fill: rgb(0,0,0)" stroke-linecap="round" d="M 1425.49 369.022 C 1444.35 390.723 1466.76 445.772 1437.74 466.509 C 1423.52 476.67 1388.39 489.174 1370.74 495.227 C 1376.99 485.191 1427.35 475.346 1438.94 461.674 C 1457.62 440.406 1444.9 408.586 1433.34 387.12 C 1430.86 382.518 1425.16 374.079 1425.49 369.022 Z"></path>
<path transform="translate(0,0)" style="fill: rgb(0,0,0)" stroke-linecap="round" d="M 1009.98 1058.69 C 1009.08 1050.11 1009.33 1028.28 1009.38 1019.02 C 1011.15 1002.37 1006.13 973.344 1010.96 957.595 C 1018.43 933.184 1048.61 932.104 1061.51 954.596 C 1064.22 965.89 1064.12 978.598 1063.61 990.216 C 1064.8 1091.58 1063.89 1194.93 1063.96 1296.42 L 1064.01 1417.26 C 1064.01 1436.72 1064.71 1461.42 1063.89 1480.57 C 1064.04 1491.3 1063.97 1502.01 1064.22 1513.29 C 1064.71 1534.69 1066.64 1563.5 1037.13 1564.47 C 1031.58 1564.66 1023.42 1562.54 1019.63 1557.95 C 1013.74 1553.22 1011.01 1545.92 1010.68 1538.55 C 1009.89 1520.89 1010.23 1502.95 1010.24 1485.28 L 1010.43 1376.18 L 1009.96 1171.69 C 1009.89 1134.76 1009.14 1095.46 1009.98 1058.69 Z"></path>
<path transform="translate(0,0)" style="fill: rgb(0,0,0)" stroke-linecap="round" d="M 1060.1 1023.2 C 1061.74 1019.38 1061.56 1015.16 1061.78 1010.92 L 1062.07 1017.63 C 1063.57 1010.89 1061.65 995.689 1063.61 990.216 C 1064.8 1091.58 1063.89 1194.93 1063.96 1296.42 L 1064.01 1417.26 C 1064.01 1436.72 1064.71 1461.42 1063.89 1480.57 C 1059.33 1463.24 1060.97 1394.22 1060.71 1371.81 C 1059.79 1255.61 1059.58 1139.4 1060.1 1023.2 Z"></path>
<path transform="translate(0,0)" style="fill: rgb(0,0,0)" stroke-linecap="round" d="M 1009.98 1058.69 C 1011.82 1065.94 1011.26 1087.61 1011.3 1096.05 C 1011.48 1121.78 1011.51 1147.51 1011.37 1173.23 L 1013.58 1389.21 L 1013.76 1488.68 C 1013.76 1505.44 1013.26 1522.69 1014.26 1539.41 C 1014.74 1547.42 1018.82 1552.04 1019.63 1557.95 C 1013.74 1553.22 1011.01 1545.92 1010.68 1538.55 C 1009.89 1520.89 1010.23 1502.95 1010.24 1485.28 L 1010.43 1376.18 L 1009.96 1171.69 C 1009.89 1134.76 1009.14 1095.46 1009.98 1058.69 Z"></path>
<path transform="translate(0,0)" style="fill: rgb(0,0,0)" stroke-linecap="round" d="M 1061.51 954.596 C 1064.22 965.89 1064.12 978.598 1063.61 990.216 C 1061.65 995.689 1063.57 1010.89 1062.07 1017.63 L 1061.78 1010.92 C 1061.56 1015.16 1061.74 1019.38 1060.1 1023.2 C 1059.45 1013.7 1059.55 961.228 1061.51 954.596 Z"></path>
<path transform="translate(0,0)" style="fill: rgb(0,0,0)" stroke-linecap="round" d="M 817.929 938.228 C 822.54 938.037 827.125 939.01 831.261 941.059 C 835.776 943.317 842.928 949.77 843.736 954.398 C 846.799 971.94 847.456 993.864 848.493 1011.58 L 855.076 1121.06 L 873.139 1407.41 C 875.779 1449.8 878.848 1492.18 881.372 1534.58 C 882.355 1551.1 874.411 1560.91 858.487 1564.32 C 851.556 1564.23 847.227 1563.88 841.019 1560.39 C 835.433 1557.31 831.404 1552.02 829.921 1545.82 C 828.116 1538.19 826.199 1497.15 825.542 1486.81 L 817.242 1362.25 L 800.56 1094.2 C 797.945 1052.37 794.757 1010.57 792.313 968.729 C 791.182 949.361 799.723 942.085 817.929 938.228 Z"></path>
<path transform="translate(0,0)" style="fill: rgb(0,0,0)" stroke-linecap="round" d="M 1255.72 938.251 C 1260.79 938.569 1266.05 939.419 1270.61 941.754 C 1276.79 944.918 1280.83 950.243 1282.7 956.885 C 1286.89 971.739 1278.88 1049.99 1277.48 1071 L 1266.24 1244.99 L 1254.77 1428.3 L 1250.23 1498.56 C 1249.33 1513.84 1250.61 1538.98 1243.79 1553.02 C 1240.52 1559.76 1232.47 1562.77 1225.36 1564.35 C 1219.89 1564.32 1214.76 1563.94 1209.79 1561.39 C 1203.45 1558.14 1199.3 1552.71 1197.4 1545.88 C 1193.5 1531.85 1199.5 1480.05 1200.56 1462.56 L 1211.73 1284.49 L 1224.88 1071.15 C 1226.99 1036.38 1229.04 1001.59 1231.06 966.819 C 1232.1 949.051 1238.64 942.248 1255.72 938.251 Z"></path>
<path transform="translate(0,0)" style="fill: rgb(0,0,0)" stroke-linecap="round" d="M 761.009 1668.14 L 1315.23 1668.14 L 1313.63 1670.07 C 1305.07 1673.07 1218.87 1672.04 1204.61 1672.04 L 964.156 1672.04 L 845.01 1672.04 C 828.188 1672.04 774.47 1674.13 761.009 1668.14 Z"></path>
<path transform="translate(0,0)" style="fill: rgb(0,0,0)" stroke-linecap="round" d="M 852.952 423.001 L 853.325 420.499 C 864.613 408.267 917.335 388.992 935.435 387.02 C 944.19 386.066 964.549 385.627 969.128 394.617 C 937.561 386.093 922.098 390.463 892.183 403.491 C 877.05 410.081 867.33 413.379 852.952 423.001 Z"></path>
</svg>