<?xml version="1.0" encoding="UTF-8" standalone="no"?>
<!-- Generated by SVGMaker - https://svgmaker.io -->
<!-- Prompt: STYLE: Clean outline / line-art icons. Use a single consistent stroke weight throughout. Corners should be slightly rounded for a modern, approachable feel. No heavy gradients inside icons. No decorative flourishes or playful elements.

TONE: Clinical, private, and family-friendly. Icons must feel trustworthy and professional — like a medical utility tool, not a consumer wellness app.

SIZE ＆ READABILITY: Every icon must be readable and distinct at 20px to 28px. Shapes should be bold enough silhouettes to work at small sizes.

STROKE ＆ GEOMETRY: Consistent stroke weight and corner radius across all icons in the set. Prefer simple, recognisable silhouettes. Avoid overly complex detail. Use black (000000) as the only colour on a transparent background.

STATES: For status icons (confirm, warning, delete, iCloud), use stronger filled or badge variants to signal importance. All other icons remain outline-only unless noted.

EXPORT: Vector SVG with transparent background. Do not include drop shadows, outer glows, or bounding box fills.

COLOR: Output in monochrome / single foreground color so the app can tint icons programmatically.

DO NOT include: playful cartoon shapes, thick gradients, photorealistic elements, brand logos, or overly decorative styling.

App icon: A smooth ECG waveform — a flat line that peaks with a sharp spike and returns to baseline. Represents a tracked health metric or confidence score. Outline style, wave should be clearly readable at small sizes. - updated by SVGMaker Editor -->
<!-- Quality: low -->
<!-- Type: generate -->
<!-- Created: 2026-06-01T15:06:52.104Z -->
<svg xmlns="http://www.w3.org/2000/svg" xmlns:xlink="http://www.w3.org/1999/xlink" version="1.1" width="1024" height="1024" viewBox="0 0 2048 2048">
<desc>Created with SVGMaker Editor 3.0.0</desc>
<defs>
</defs>
<path transform="translate(0,0)" style="fill: rgb(0,0,0)" stroke-linecap="round" d="M 484.898 225.443 C 488.028 225.278 491.162 225.197 494.296 225.198 L 1258.84 225.176 L 1460.54 225.206 C 1506.27 225.147 1566.31 221.759 1610.3 231.066 C 1725.22 255.938 1823.17 349.701 1844.73 466.589 C 1852.52 508.873 1849.78 558.544 1849.78 601.887 L 1849.79 792.45 L 1849.74 1505.17 C 1849.71 1526.45 1848.84 1549.29 1845.29 1570.28 C 1834.36 1631.68 1804.78 1688.22 1760.58 1732.22 C 1708.18 1784.09 1639.08 1816.31 1565.11 1818.15 C 1554.19 1818.43 1543.17 1818.33 1532.25 1818.31 L 771.392 1818.3 L 567.438 1818.31 C 533.119 1818.32 474.677 1820.27 442.946 1814.86 C 388.446 1805.25 337.79 1780.37 296.854 1743.13 C 239.421 1691.18 202.395 1619.8 197.965 1541.92 C 196.535 1516.78 197.334 1486.07 197.348 1460.52 L 197.453 1320.3 L 197.475 879.52 L 197.477 617.44 C 197.521 578.965 195.243 509.401 201.173 474.481 C 210.417 419.284 235.257 367.883 272.764 326.346 C 328.944 264.681 401.082 229.16 484.898 225.443 Z M 576.651 295.738 C 562.234 295.858 547.816 295.862 533.399 295.751 C 502.211 295.958 470.257 293.524 439.801 300.561 C 397.391 310.36 363.076 330.834 332.669 361.729 C 316.029 378.561 301.997 397.784 291.035 418.761 C 287.855 424.821 283.463 435.438 280.866 440.022 C 265.282 483.503 265.888 503.528 265.905 548.507 L 265.949 628.354 L 265.981 878.52 L 265.939 1313.38 C 265.928 1388.76 264.896 1467.1 266.102 1542.29 C 267.319 1545.24 269.283 1561.78 270.028 1565.95 C 277.806 1609.44 302.759 1652.09 333.876 1683.13 C 368.299 1717.86 412.661 1741.05 460.833 1749.49 C 480.137 1752.92 497.908 1752.29 517.431 1752.33 L 578.879 1752.37 L 793.275 1752.29 L 1542.33 1752.4 C 1659.85 1752.32 1761.6 1669.83 1780.07 1551.27 C 1785.12 1518.83 1782.27 1472.3 1782.25 1438.61 L 1782.25 1250.07 L 1782.26 536.696 C 1782.25 522.475 1782.53 507.842 1780.72 493.669 C 1768.62 397.406 1683.5 308.966 1586.7 296.958 C 1568.09 294.649 1541.53 295.855 1522.27 295.855 L 1421.46 295.92 L 620.273 295.69 C 605.734 295.977 591.191 295.992 576.651 295.738 Z"></path>
<path transform="translate(0,0)" style="fill: rgb(0,0,0)" stroke-linecap="round" d="M 806.025 1123.96 C 810.074 1109.53 814.266 1084.98 817.511 1069.17 L 838.73 967.002 L 906.164 644.605 L 920.964 573.349 C 925.022 553.254 928.597 505.625 953.16 500.971 C 994.61 493.117 996.172 523.872 1000.1 553.724 C 1002.34 570.475 1004.42 587.247 1006.34 604.038 C 1010.95 641.1 1015.79 678.134 1020.85 715.137 L 1080.92 1188.78 L 1094.91 1297.31 C 1096.68 1310.9 1098.79 1337.09 1102.8 1349.14 C 1111.89 1315.79 1123.66 1280.34 1134.08 1247.28 L 1181.18 1096.96 L 1214.9 990.097 C 1221 970.926 1227.02 950.764 1234.27 932.303 C 1239.41 917.881 1263.5 910.517 1276.67 915.98 C 1294.57 923.408 1308.44 958.933 1316.94 975.825 L 1361.03 1062.87 L 1562 1062.81 C 1598.75 1062.79 1636.06 1062.49 1672.82 1063.08 C 1677.15 1063.15 1682.2 1063.74 1686.05 1065.78 C 1694.52 1070.33 1700.77 1078.15 1703.32 1087.42 C 1708.31 1105.23 1696.79 1122.73 1679.15 1127.25 C 1668.78 1128.61 1647.44 1128.09 1636.36 1128.08 L 1560.05 1128 L 1423.33 1128 C 1399.95 1128 1374.04 1128.55 1350.82 1127.87 C 1320.55 1127.15 1313.41 1103.21 1301.06 1079.91 C 1291.21 1061.07 1281.19 1042.31 1270.99 1023.65 C 1256.47 1064.15 1241.99 1114.37 1228.94 1156.05 L 1153.77 1397.02 L 1126.49 1483.64 C 1121.35 1500.06 1116.28 1519.1 1109.15 1534.6 C 1106.67 1539.97 1098.73 1544.79 1092.95 1546.34 C 1085.14 1548.35 1076.86 1547.18 1069.91 1543.1 C 1061.61 1538.25 1056.29 1529.64 1054.34 1520.49 C 1049.99 1499.98 1047.72 1476.55 1045.29 1455.68 C 1041.65 1423.55 1037.67 1391.46 1033.34 1359.42 L 982.284 938.503 L 965.776 804.489 C 963.054 782.937 959.792 749.701 954.944 729.257 C 954.828 730.05 954.703 730.842 954.57 731.632 C 949.314 761.66 940.557 797.587 934.076 827.928 L 894.131 1014.98 L 868.574 1135.63 C 864.086 1156.73 859.739 1178.66 854.238 1199.52 C 852.004 1207.99 848.917 1215.8 841.333 1220.54 C 831.895 1226.44 822.29 1229.31 811.3 1226.26 C 793.538 1222.2 788.278 1212.25 779.298 1198.01 C 756.963 1162.62 736.028 1126.09 713.527 1090.8 C 694.548 1102.29 672.893 1119.27 652.362 1127.06 C 649.371 1128.2 643.652 1128 640.352 1127.92 C 630.816 1128.48 616.489 1128.02 606.685 1128.02 L 542.446 1127.99 C 492.629 1127.98 440.175 1128.97 390.653 1127.86 C 386.276 1128.08 381.629 1128.22 377.317 1127.37 C 368.879 1125.71 360.675 1121.24 355.867 1113.95 C 350.79 1106.26 349.44 1095.66 351.659 1086.8 C 354.078 1077.14 361.21 1068.14 370.801 1064.82 C 383.109 1060.55 549.963 1062.61 576.679 1062.78 C 592.788 1062.89 614.707 1065.24 630.04 1061.86 C 647.083 1058.11 681.37 1030.47 698.778 1020.63 C 708.629 1015.06 720.119 1011.81 731.292 1015.23 C 737.185 1017.04 742.297 1021.68 746.25 1026.26 C 756.32 1037.91 763.832 1052.88 771.771 1066.06 C 783.32 1085.23 795.396 1104.26 806.025 1123.96 Z"></path>
<path transform="translate(0,0)" style="fill: rgb(0,0,0)" stroke-linecap="round" d="M 1350.82 1127.87 C 1351.23 1126.35 1350.87 1127.11 1352.04 1125.68 C 1366.9 1124.47 1386.44 1124.76 1401.68 1124.67 L 1499.15 1124.75 L 1599.64 1124.73 C 1621.5 1124.64 1649.45 1123.27 1670.92 1126.41 C 1675.08 1127.02 1673.84 1127.3 1679.15 1127.25 C 1668.78 1128.61 1647.44 1128.09 1636.36 1128.08 L 1560.05 1128 L 1423.33 1128 C 1399.95 1128 1374.04 1128.55 1350.82 1127.87 Z"></path>
<path transform="translate(0,0)" style="fill: rgb(0,0,0)" stroke-linecap="round" d="M 390.653 1127.86 C 386.106 1126.54 382.881 1126.27 378.221 1125.81 C 396.451 1123.24 641.869 1124.43 644.983 1126.27 C 643.35 1126.92 642.022 1127.38 640.352 1127.92 C 630.816 1128.48 616.489 1128.02 606.685 1128.02 L 542.446 1127.99 C 492.629 1127.98 440.175 1128.97 390.653 1127.86 Z"></path>
<path transform="translate(0,0)" style="fill: rgb(0,0,0)" stroke-linecap="round" d="M 266.102 1542.29 C 263.943 1540.33 263.41 1539.48 263.166 1536.81 C 261.973 1523.77 262.477 1509.19 262.564 1496.08 L 262.545 1431.72 L 262.875 1129.09 L 262.814 706.81 L 262.678 582.624 C 262.531 548.976 260.304 511.869 266.421 478.571 C 268.069 469.601 274.849 444.539 279.805 437.764 L 280.866 440.022 C 265.282 483.503 265.888 503.528 265.905 548.507 L 265.949 628.354 L 265.981 878.52 L 265.939 1313.38 C 265.928 1388.76 264.896 1467.1 266.102 1542.29 Z"></path>
<path transform="translate(0,0)" style="fill: rgb(0,0,0)" stroke-linecap="round" d="M 620.273 295.69 C 632.487 288.703 757.708 294.002 779.623 293.109 C 822.533 291.361 872.346 293.243 915.266 293.088 L 1277.43 293.11 L 1383.64 293.119 C 1391.83 293.152 1414.74 291.919 1420.65 295.425 L 1421.46 295.92 L 620.273 295.69 Z"></path>
<path transform="translate(0,0)" style="fill: rgb(0,0,0)" stroke-linecap="round" d="M 533.399 295.751 C 546.049 292.696 581.965 290.073 592.364 294.319 C 586.398 295.218 582.634 295.454 576.651 295.738 C 562.234 295.858 547.816 295.862 533.399 295.751 Z"></path>
</svg>