<?xml version="1.0" encoding="UTF-8" standalone="no"?>
<!-- Generated by SVGMaker - https://svgmaker.io -->
<!-- Prompt: STYLE: Clean outline / line-art icons. Use a single consistent stroke weight throughout. Corners should be slightly rounded for a modern, approachable feel. No heavy gradients inside icons. No decorative flourishes or playful elements.

TONE: Clinical, private, and family-friendly. Icons must feel trustworthy and professional — like a medical utility tool, not a consumer wellness app.

SIZE ＆ READABILITY: Every icon must be readable and distinct at 20px to 28px. Shapes should be bold enough silhouettes to work at small sizes.

STROKE ＆ GEOMETRY: Consistent stroke weight and corner radius across all icons in the set. Prefer simple, recognisable silhouettes. Avoid overly complex detail. Use black (000000) as the only colour on a transparent background.

STATES: For status icons (confirm, warning, delete, iCloud), use stronger filled or badge variants to signal importance. All other icons remain outline-only unless noted.

EXPORT: Vector SVG with transparent background. Do not include drop shadows, outer glows, or bounding box fills.

COLOR: Output in monochrome / single foreground color so the app can tint icons programmatically.

DO NOT include: playful cartoon shapes, thick gradients, photorealistic elements, brand logos, or overly decorative styling.

App icon: A single rightward-pointing arrow. Clean, bold, directional. Used for progression steps in onboarding flows. Balanced stroke. - updated by SVGMaker Editor -->
<!-- Quality: low -->
<!-- Type: generate -->
<!-- Created: 2026-06-01T14:40:37.714Z -->
<svg xmlns="http://www.w3.org/2000/svg" xmlns:xlink="http://www.w3.org/1999/xlink" version="1.1" width="1024" height="1024" viewBox="0 0 2048 2048">
<desc>Created with SVGMaker Editor 3.0.0</desc>
<defs>
</defs>
<path transform="translate(0,0)" style="fill: rgb(0,0,0)" stroke-linecap="round" d="M 1059.75 473.433 C 1100.56 467.681 1130.76 507.839 1156.63 533.143 L 1247.79 621.714 L 1436.89 807.261 L 1533.41 901.921 C 1553.95 921.871 1574.58 941.339 1595.05 961.632 C 1610.1 975.529 1618.43 995.825 1618.31 1016.05 C 1618.12 1046.33 1601.49 1064.73 1580.63 1084.22 C 1571.62 1092.63 1562.39 1102.32 1553.48 1111.16 L 1453.61 1210.13 L 1225.76 1435.61 C 1193.41 1467.58 1161.21 1499.8 1128.94 1531.86 C 1097.3 1563.29 1048.41 1561.64 1018.05 1529.2 C 1004.93 1515.41 997.91 1496.92 998.569 1477.9 C 1000.14 1441.01 1026.94 1421.73 1051.26 1397.37 L 1132.96 1316.45 L 1273.62 1176.78 C 1302.38 1148.1 1333.1 1116.15 1362.71 1088.69 C 1352.46 1088.99 1341.79 1088.9 1331.5 1088.97 L 670.669 1088.9 L 471.173 1088.91 L 411.85 1088.92 C 398.575 1088.92 385.407 1089.22 372.177 1088 C 334.687 1084.56 305.334 1049.68 304.891 1012.51 C 304.762 992.037 312.748 972.346 327.102 957.745 C 351.441 933.276 375.955 935.777 407.7 935.943 L 465.936 936.035 L 672.281 936.022 L 1352.93 935.984 C 1351.09 934.493 1349.27 932.968 1347.48 931.41 C 1325.86 912.586 1297.38 881.984 1276.14 860.779 L 1136.62 721.785 L 1044.52 631.091 C 1020.3 607.209 990.84 586.698 988.899 550.731 C 986.625 508.581 1018.55 475.876 1059.75 473.433 Z"></path>
</svg>