<?xml version="1.0" encoding="UTF-8" standalone="no"?>
<!-- Generated by SVGMaker - https://svgmaker.io -->
<!-- Prompt: STYLE: Clean outline / line-art icons. Use a single consistent stroke weight throughout. Corners should be slightly rounded for a modern, approachable feel. No heavy gradients inside icons. No decorative flourishes or playful elements.

TONE: Clinical, private, and family-friendly. Icons must feel trustworthy and professional — like a medical utility tool, not a consumer wellness app.

SIZE ＆ READABILITY: Every icon must be readable and distinct at 20px to 28px. Shapes should be bold enough silhouettes to work at small sizes.

STROKE ＆ GEOMETRY: Consistent stroke weight and corner radius across all icons in the set. Prefer simple, recognisable silhouettes. Avoid overly complex detail. Use black (000000) as the only colour on a transparent background.

STATES: For status icons (confirm, warning, delete, iCloud), use stronger filled or badge variants to signal importance. All other icons remain outline-only unless noted.

EXPORT: Vector SVG with transparent background. Do not include drop shadows, outer glows, or bounding box fills.

COLOR: Output in monochrome / single foreground color so the app can tint icons programmatically.

DO NOT include: playful cartoon shapes, thick gradients, photorealistic elements, brand logos, or overly decorative styling.

App icon: Two human silhouettes side by side, filled. Warm and trustworthy. Represents a family profile group header. Filled/solid variant — this is the only fully filled icon in this group. - updated by SVGMaker Editor -->
<!-- Quality: low -->
<!-- Type: generate -->
<!-- Created: 2026-06-01T15:12:21.098Z -->
<svg xmlns="http://www.w3.org/2000/svg" xmlns:xlink="http://www.w3.org/1999/xlink" version="1.1" width="1024" height="1024" viewBox="0 0 2048 2048">
<desc>Created with SVGMaker Editor 3.0.0</desc>
<defs>
</defs>
<path transform="translate(0,0)" style="fill: rgb(0,0,0)" stroke-linecap="round" d="M 1262.11 284.988 C 1272.75 283.353 1312.72 284.78 1323.41 286.931 C 1326.77 287.27 1330.13 287.663 1333.48 288.11 C 1423.55 299.487 1505.39 346.223 1560.96 418.012 C 1627.64 505.419 1637.71 614.392 1623.75 720.288 C 1612.04 809.187 1575.42 889.543 1510.08 951.812 C 1497.75 963.564 1485.18 972.9 1471.65 983.198 C 1477.66 984.917 1486.34 987.948 1492.3 990.176 C 1618.94 1037.54 1746.9 1120.68 1805.1 1247.09 C 1820.34 1281.08 1831.26 1316.86 1837.58 1353.57 C 1848.31 1416.58 1846.02 1478.98 1845.97 1542.58 C 1845.94 1569.56 1846.56 1598.14 1845.5 1625.07 C 1845.03 1636.96 1840.95 1652.78 1836.77 1664 C 1821.48 1704.78 1790.7 1737.87 1751.13 1756.06 C 1737.97 1762.03 1719.43 1767.36 1704.91 1767.73 C 1676.05 1768.47 1646.75 1768.2 1617.85 1768.19 L 1462.67 1768.16 L 988.65 1768.08 L 558.372 1768.09 L 425.91 1768.2 C 387.454 1768.29 340.366 1772.25 304.483 1759.05 C 266.866 1745.2 237.615 1714.37 221.03 1678.5 C 203.887 1641.41 205.996 1604.17 206.013 1564.5 C 204.72 1492.72 207.023 1439.47 232.934 1371.75 C 271.941 1269.81 350.544 1195.68 444.327 1143.06 C 466.498 1130.62 491.255 1119.68 514.531 1109.3 C 507.567 1104.81 500.454 1098.23 494.726 1092.27 C 426.496 1021.35 396.225 932.96 397.918 835.499 C 398.04 757.347 424.701 680.155 481.907 624.778 C 587.812 522.26 767.517 526.074 867.699 635.089 C 929.643 702.495 949.863 780.394 946.026 869.397 C 941.729 969.081 903.654 1045.06 831.886 1112.74 L 868.036 1128.15 C 919.787 1079.47 978.805 1039.15 1042.97 1008.63 C 1061.34 999.772 1078.26 993.326 1096.58 985.189 C 1065.35 960.509 1047.25 943.196 1022.9 911.56 C 969.015 841.571 947.555 764.473 942.281 677.612 C 935.866 571.97 951.113 471.466 1026.27 391.302 C 1088.31 324.43 1171.77 289.113 1262.11 284.988 Z M 1131.23 1679.81 L 1132.9 1679.65 C 1148.41 1678.24 1171.53 1678.83 1187.74 1678.83 L 1280.3 1678.81 L 1574.6 1678.83 L 1652 1678.83 C 1666.73 1678.82 1693.86 1680.45 1707.2 1676.5 C 1739.55 1666.91 1753.81 1640.66 1755.91 1610.23 C 1756.12 1557.58 1755.95 1504.83 1756.05 1452.18 C 1756.07 1439.86 1754.06 1426.85 1754.06 1413.84 C 1752.26 1403.59 1751.51 1392.85 1750.13 1382.5 C 1736.03 1277.34 1687.2 1206.91 1601.5 1146.86 C 1541.51 1105.57 1475.46 1073.87 1405.73 1052.89 C 1378.54 1044.78 1357.5 1038.84 1328.96 1043.3 C 1311.56 1046.01 1292.08 1045.98 1274.51 1046.28 C 1250.92 1046.95 1228.21 1040.13 1205.02 1043.19 C 1191.02 1045.49 1169.29 1052.53 1155.77 1057.11 C 1080.92 1083.18 1011.01 1121.73 949.015 1171.13 C 1044.83 1237.96 1108.26 1331.35 1129.11 1446.91 C 1137.03 1490.85 1136.94 1532.27 1137.22 1576.69 C 1137.44 1612.43 1139.79 1644.46 1131.23 1679.81 Z M 636.25 1678.82 L 885.507 1678.81 L 952.887 1678.82 C 969.057 1678.81 986.89 1679.29 1002.87 1676.84 C 1012.53 1675.35 1023.58 1667.65 1030.62 1660.72 C 1051.07 1640.58 1049.23 1617.39 1049.31 1591.05 L 1049.37 1549.43 C 1049.29 1529.97 1049.25 1510.79 1047.3 1491.42 C 1039.2 1411.4 1005.89 1345.38 948.995 1288.97 C 899.953 1240.34 840.851 1203.03 775.844 1179.69 C 757.092 1172.87 732.108 1164.56 711.94 1166.45 C 686.789 1168.23 646.138 1166.58 624.321 1170.45 C 534.562 1186.36 434.651 1241.2 374.604 1309.62 C 325.957 1364.31 299.13 1432.72 296.298 1505.77 C 295.746 1519.99 295.065 1539.29 295.954 1553.49 C 298.272 1590.54 286.503 1636.38 318.202 1663.64 C 339.092 1681.61 361.378 1678.88 386.609 1678.85 L 439.533 1678.81 L 636.25 1678.82 Z M 1309.35 954.026 C 1486.15 929.863 1555.4 762.252 1537.92 602.397 C 1522.5 461.367 1400 362.763 1258.99 376.571 C 1084.81 392.724 1014.13 520.649 1031.08 683.936 C 1044.76 815.74 1124.66 948.977 1270.77 954.666 C 1284.19 955.005 1296.08 954.346 1309.35 954.026 Z M 696.223 1073.84 C 746.975 1064.18 787.52 1039.05 816.441 995.468 C 880.578 898.824 874.579 737.209 771.241 668.915 C 737.725 646.616 688.704 634.775 648.637 640.394 C 518.128 656.155 475.367 772.901 489.487 889.825 C 502.816 1000.21 579.613 1086.03 696.223 1073.84 Z"></path>
<path transform="translate(0,0)" style="fill: rgb(0,0,0)" stroke-linecap="round" d="M 1262.11 284.988 C 1272.75 283.353 1312.72 284.78 1323.41 286.931 C 1316.64 290.102 1268.21 288.828 1262.11 284.988 Z"></path>
<path transform="translate(0,0)" style="fill: rgb(0,0,0)" stroke-linecap="round" d="M 1754.06 1413.84 C 1762.02 1421.07 1760.89 1598.19 1755.91 1610.23 C 1756.12 1557.58 1755.95 1504.83 1756.05 1452.18 C 1756.07 1439.86 1754.06 1426.85 1754.06 1413.84 Z"></path>
</svg>