<?xml version="1.0" encoding="UTF-8" standalone="no"?>
<!-- Generated by SVGMaker - https://svgmaker.io -->
<!-- Prompt: STYLE: Clean outline / line-art icons. Use a single consistent stroke weight throughout. Corners should be slightly rounded for a modern, approachable feel. No heavy gradients inside icons. No decorative flourishes or playful elements.

TONE: Clinical, private, and family-friendly. Icons must feel trustworthy and professional — like a medical utility tool, not a consumer wellness app.

SIZE ＆ READABILITY: Every icon must be readable and distinct at 20px to 28px. Shapes should be bold enough silhouettes to work at small sizes.

STROKE ＆ GEOMETRY: Consistent stroke weight and corner radius across all icons in the set. Prefer simple, recognisable silhouettes. Avoid overly complex detail. Use black (000000) as the only colour on a transparent background.

STATES: For status icons (confirm, warning, delete, iCloud), use stronger filled or badge variants to signal importance. All other icons remain outline-only unless noted.

EXPORT: Vector SVG with transparent background. Do not include drop shadows, outer glows, or bounding box fills.

COLOR: Output in monochrome / single foreground color so the app can tint icons programmatically.

DO NOT include: playful cartoon shapes, thick gradients, photorealistic elements, brand logos, or overly decorative styling.

App icon: A small, compact X / cross mark. Used for clearing active filters. Should be noticeably smaller / lighter weight than the reject action icon to signal a soft, reversible action. - updated by SVGMaker Editor -->
<!-- Quality: low -->
<!-- Type: generate -->
<!-- Created: 2026-06-01T15:21:03.008Z -->
<svg xmlns="http://www.w3.org/2000/svg" xmlns:xlink="http://www.w3.org/1999/xlink" version="1.1" width="1024" height="1024" viewBox="0 0 2048 2048">
<desc>Created with SVGMaker Editor 3.0.0</desc>
<defs>
</defs>
<path transform="translate(0,0)" style="fill: rgb(0,0,0)" stroke-linecap="round" d="M 559.494 378.299 C 642.48 370.847 679.621 424.182 732.375 476.937 L 923.184 666.471 L 979.02 722.234 C 1019.42 762.883 1021.53 774.598 1065.35 726.029 C 1073.92 716.526 1087.25 703.987 1096.5 694.76 L 1298.66 492.206 L 1350.17 440.844 C 1363.25 427.815 1377.36 412.687 1392.21 402.128 C 1409.62 389.95 1429.67 382.084 1450.71 379.179 C 1487.52 373.669 1525 383.084 1554.83 405.333 C 1573.71 419.569 1644.55 488.152 1656.11 506.186 C 1665.55 520.893 1671.65 538.22 1673.98 555.511 C 1677.86 584.164 1672.86 615.489 1658.12 640.573 C 1648.68 656.626 1634.59 668.734 1621.55 681.752 L 1582.24 721.054 L 1390.15 913.851 L 1331.02 973.331 C 1321.02 983.399 1309.27 993.35 1300.78 1004.7 C 1294.53 1013.06 1291.74 1023.58 1296.27 1033.41 C 1302.88 1047.75 1350 1091.05 1364.92 1105.98 L 1553.16 1296.38 L 1614.67 1357.84 C 1644.29 1387.45 1667.8 1407.54 1674.07 1451.64 C 1678.9 1485.64 1671.31 1523.36 1650.47 1551.34 C 1638.95 1566.8 1622.36 1579.78 1609.2 1593.87 C 1570.02 1632 1549.84 1661.1 1492.12 1668.89 C 1461.23 1673.28 1428.46 1666.87 1401.09 1651.64 C 1383.7 1641.97 1363.42 1620.33 1348.95 1605.85 L 1305.52 1562.45 L 1116.73 1373.52 C 1100.4 1357.36 1084.15 1341.12 1067.99 1324.78 C 1025.18 1281.7 1027.56 1275.11 983.275 1319.65 L 942.522 1360.61 L 746.21 1558.99 L 699.994 1605.2 C 684.468 1620.7 669.552 1636.88 651.099 1648.88 C 619.535 1669.41 578.966 1674.99 542.453 1666.65 C 524.873 1662.68 508.196 1655.43 493.293 1645.3 C 474.42 1632.7 404.509 1563.73 393.059 1545.11 C 369.277 1506.43 367.126 1452.93 387.394 1412.35 C 401.481 1384.13 452.907 1338.35 477.267 1314.06 L 656.662 1134.32 L 711.24 1079.66 C 722.522 1068.56 734.864 1057.04 745.473 1045.34 C 752.426 1037.68 754.142 1032.59 756.41 1022.86 C 750.627 1002.89 728.758 985.32 713.965 970.691 L 661.155 918.027 L 468.016 726.6 L 428.792 687.58 C 420.89 679.702 412.498 671.749 405.275 663.344 C 362.798 615.381 362.34 528.501 410.313 483.88 C 435.536 460.418 462.437 430.38 488.861 408.323 C 494.406 403.68 500.325 399.503 506.557 395.833 C 523.56 385.838 540.191 381.158 559.494 378.299 Z M 1484.66 1584.7 C 1518.04 1575.76 1537.67 1541.65 1563.41 1520.05 C 1584.13 1502.66 1595.36 1481.02 1586.8 1453.63 C 1582.05 1439.47 1551.62 1412.14 1540.36 1400.93 L 1475.66 1336.55 L 1266.46 1127.38 L 1211.5 1072.39 C 1203.95 1064.82 1196.39 1056.82 1188.71 1049.42 C 1154.49 1016.47 1195.81 989.946 1220.52 965.668 L 1287.76 898.889 L 1504.36 682.467 C 1518.89 667.934 1578.36 612.08 1584.86 597.602 C 1593.2 579.044 1590.23 556.986 1578.11 540.888 C 1569.82 529.871 1558.56 520.838 1548.75 511.186 C 1535.26 497.899 1521.6 481.555 1505.93 470.945 C 1498.89 466.18 1490.92 462.841 1482.48 461.659 C 1468.53 459.706 1453.23 462.667 1441.97 471.38 C 1426.11 483.658 1412.25 499.206 1398.14 513.452 L 1340.86 570.576 L 1124.85 786.737 L 1071.47 840.3 C 1052.06 859.739 1029.31 892.797 1001.1 866.692 C 989.526 855.984 978.918 844.273 967.859 833.037 L 903.076 768.216 L 680.951 545.853 L 634.129 498.894 C 616.86 481.61 598.048 458.4 570.694 461.438 C 542.676 463.349 527.457 481.994 509.304 501.333 C 488.598 523.392 456.963 543.564 459.84 576.992 C 461.97 605.51 485.476 622.812 504.656 641.943 L 565.975 703.144 L 798.875 934.113 C 811.463 946.606 828.003 964.178 840.65 975.607 C 895.268 1024.97 875.257 1033.64 833.428 1075.51 L 768.634 1140.49 L 559.642 1349.43 L 502.764 1406.16 C 493.282 1415.64 475.957 1432 469.023 1442.04 C 461.969 1452.28 458.768 1464.68 459.988 1477.06 C 460.811 1485.82 463.71 1494.26 468.445 1501.68 C 474.372 1511.07 490.518 1526.55 498.781 1534.17 C 523.721 1557.18 542.867 1591.27 581.991 1585.64 C 611.073 1581.98 628.81 1557.89 648.535 1538.12 L 711.814 1475.11 L 933.646 1253.61 L 978.788 1207.99 C 988.007 1198.67 998.037 1187.51 1008.71 1179.94 C 1016.02 1174.77 1027.6 1174.76 1035.69 1177.55 C 1039.15 1178.71 1042.17 1181.81 1044.87 1184.25 C 1078.42 1217.28 1111.73 1250.84 1145.05 1284.07 L 1362.83 1501.48 L 1406.68 1545.43 C 1431.14 1570.08 1446.44 1590.78 1484.66 1584.7 Z"></path>
</svg>