<?xml version="1.0" encoding="UTF-8" standalone="no"?>
<!-- Generated by SVGMaker - https://svgmaker.io -->
<!-- Prompt: STYLE: Clean outline / line-art icons. Use a single consistent stroke weight throughout. Corners should be slightly rounded for a modern, approachable feel. No heavy gradients inside icons. No decorative flourishes or playful elements.

TONE: Clinical, private, and family-friendly. Icons must feel trustworthy and professional — like a medical utility tool, not a consumer wellness app.

SIZE ＆ READABILITY: Every icon must be readable and distinct at 20px to 28px. Shapes should be bold enough silhouettes to work at small sizes.

STROKE ＆ GEOMETRY: Consistent stroke weight and corner radius across all icons in the set. Prefer simple, recognisable silhouettes. Avoid overly complex detail. Use black (000000) as the only colour on a transparent background.

STATES: For status icons (confirm, warning, delete, iCloud), use stronger filled or badge variants to signal importance. All other icons remain outline-only unless noted.

EXPORT: Vector SVG with transparent background. Do not include drop shadows, outer glows, or bounding box fills.

COLOR: Output in monochrome / single foreground color so the app can tint icons programmatically.

DO NOT include: playful cartoon shapes, thick gradients, photorealistic elements, brand logos, or overly decorative styling.

App icon: A document page with a small plus badge in its lower right corner. Friendly empty-state symbol for when no documents exist yet. Outline style with badge as a small filled circle. - updated by SVGMaker Editor -->
<!-- Quality: low -->
<!-- Type: generate -->
<!-- Created: 2026-06-01T14:45:29.324Z -->
<svg xmlns="http://www.w3.org/2000/svg" xmlns:xlink="http://www.w3.org/1999/xlink" version="1.1" width="1024" height="1024" viewBox="0 0 2048 2048">
<desc>Created with SVGMaker Editor 3.0.0</desc>
<defs>
</defs>
<path transform="translate(0,0)" style="fill: rgb(0,0,0)" stroke-linecap="round" d="M 679.382 237.491 C 712.805 236.794 749.663 237.778 783.464 237.694 L 1073.87 237.635 L 1203.72 237.702 C 1227.45 237.704 1266.19 236.617 1288.39 240.194 C 1312.8 244.262 1336.07 253.463 1356.65 267.189 C 1382.19 284.099 1421.58 324.926 1444.77 347.782 C 1476.51 378.452 1508.06 409.324 1539.4 440.397 C 1568.43 469.449 1592.61 501.597 1602.65 542.3 C 1609.88 571.636 1607.89 609.314 1607.88 640.331 L 1607.83 743.195 L 1607.88 1098.63 C 1623.49 1109.33 1637.3 1118.77 1651.93 1130.74 C 1728.91 1193.72 1773.84 1277.89 1783.09 1376.88 C 1790.94 1469.79 1761.58 1562.01 1701.47 1633.28 C 1631.28 1717.09 1545.62 1755.94 1438.37 1765.55 C 1435.09 1765.96 1430.44 1765.79 1427.01 1765.89 C 1367.85 1767.56 1309.93 1755.55 1256.13 1730.96 C 1248.6 1727.52 1237.73 1718.23 1229.47 1718.04 C 1209.4 1717.56 1189.25 1717.76 1169.18 1717.77 L 1045.59 1717.81 L 654.938 1717.78 L 556.148 1717.84 C 530.104 1717.85 499.892 1719.55 474.661 1714.03 C 394.666 1696.51 342.061 1629.05 340.903 1548.69 C 340.348 1448.23 340.341 1347.76 340.881 1247.3 L 340.882 748.453 L 340.834 513.128 L 340.786 440.446 C 340.804 421.76 340.062 400.974 342.906 382.62 C 352.97 318.515 400.909 261.168 464.118 243.99 C 495.703 235.407 534.348 237.67 567.524 237.634 C 604.81 237.81 642.097 237.763 679.382 237.491 Z M 1156.18 1658.02 C 1084.9 1581.41 1052.87 1489.05 1058.4 1385.19 C 1058.73 1379.01 1059.61 1372.94 1059.9 1367.24 C 1066.77 1279.15 1115.66 1190.75 1182.43 1133.7 C 1256.39 1069.67 1353.13 1038.32 1450.59 1046.78 C 1491.64 1049.99 1508.04 1055.62 1546.16 1066.94 L 1546.16 711.544 L 1546.23 621.802 C 1546.26 552.91 1546.79 537.469 1495.6 486.322 L 1381.58 373.586 C 1350.67 343.376 1319.61 304.212 1273.12 300.231 C 1252.67 298.479 1230.71 299.08 1210.13 299.097 L 747.921 299.164 L 600.348 299.173 C 575.646 299.158 542.695 298.19 518.467 299.523 C 451.074 300.966 402.018 348.307 401.881 415.97 C 401.858 426.91 401.802 437.927 401.801 448.877 L 401.804 536.171 L 401.837 821.964 L 401.854 1307.54 L 401.829 1463.03 C 401.795 1491.07 401.569 1519.37 401.881 1547.41 C 402.23 1578.69 414.07 1605.57 437.059 1627.11 C 452.572 1641.6 471.928 1651.32 492.815 1655.11 C 510.811 1658.28 538.288 1657.34 557.394 1657.31 L 652.09 1657.18 L 987.162 1657.25 L 1093.02 1657.22 C 1111.76 1657.22 1137.99 1656.55 1156.18 1658.02 Z M 1439.62 1708.15 C 1605.8 1697.13 1731.78 1553.79 1721.37 1387.57 C 1710.96 1221.35 1568.1 1094.85 1401.84 1104.63 C 1234.7 1114.47 1107.38 1258.26 1117.84 1425.36 C 1128.31 1592.45 1272.57 1719.24 1439.62 1708.15 Z"></path>
<path transform="translate(0,0)" style="fill: rgb(0,0,0)" stroke-linecap="round" d="M 606.597 776.295 C 647.107 775.683 688.794 776.218 729.43 776.216 L 966.264 776.183 L 1154.8 776.159 C 1186.79 776.161 1218.89 776.136 1250.88 776.225 C 1256.24 776.68 1267.5 776.386 1272.04 779.043 C 1289.35 789.194 1295.21 809.992 1283.54 826.817 C 1277.75 835.169 1271.94 837.598 1262.38 839.735 C 1219.35 841.222 1169.64 840.088 1126.18 840.079 L 878.236 840.09 L 697.929 840.102 C 667.82 840.1 637.607 840.343 607.542 839.797 C 593.441 839.088 581.085 826.926 578.822 813.357 C 575.656 794.382 588.768 780.184 606.597 776.295 Z"></path>
<path transform="translate(0,0)" style="fill: rgb(0,0,0)" stroke-linecap="round" d="M 608.13 562.205 C 637.975 560.646 679.112 561.876 709.903 561.87 L 904.176 561.845 L 1134.27 561.84 C 1173.85 561.846 1213.7 561.705 1253.3 562.057 C 1261.46 562.306 1265.14 562.28 1272.51 565.929 C 1288.88 573.768 1294.19 595.644 1285.57 610.967 C 1280.64 619.749 1270.25 623.603 1261.02 625.494 C 1227.23 627.04 1181.9 625.719 1147 625.711 L 926.59 625.696 L 714.684 625.705 C 680.172 625.707 645.265 625.831 610.733 625.647 C 604.487 625.613 598.159 623.872 592.819 620.523 C 586.028 616.223 581.238 609.385 579.517 601.533 C 574.937 580.817 588.764 566.37 608.13 562.205 Z"></path>
<path transform="translate(0,0)" style="fill: rgb(0,0,0)" stroke-linecap="round" d="M 602.039 991.111 C 618.979 989.879 648.561 990.79 666.197 990.787 L 792.89 990.786 L 997.723 990.766 C 1032.94 990.765 1068.25 990.684 1103.46 990.856 C 1107.53 991.137 1113.76 990.936 1117.55 992.377 C 1134.77 998.927 1142.5 1019.64 1135.07 1036.23 C 1131.1 1045.09 1123.71 1050.44 1114.68 1053.66 L 1112.68 1053.94 C 1099.01 1055.92 1062.86 1055.06 1047.39 1055.07 L 923.117 1055.09 L 700.524 1055.08 C 672.772 1055.07 645.183 1054.96 617.226 1054.9 C 593.669 1054.84 577.235 1045.45 578.67 1019.07 C 579.495 1003.91 589.321 997.107 602.039 991.111 Z"></path>
<path transform="translate(0,0)" style="fill: rgb(0,0,0)" stroke-linecap="round" d="M 602.05 994.264 C 612.015 993.111 647.002 993.928 658.138 993.939 L 774.032 994.017 L 998.145 994.015 C 1032.88 994.02 1067.71 993.973 1102.45 993.857 C 1107.72 993.839 1115.99 994.032 1120.48 996.603 C 1127.11 1000.44 1131.9 1006.78 1133.79 1014.19 C 1135.86 1022.15 1134.86 1031.81 1130.33 1038.77 C 1126.06 1045.26 1119.43 1049.84 1111.84 1051.53 C 1090.3 1055.5 1059.5 1054.27 1036.74 1054.29 L 927.107 1054.33 L 726.38 1054.33 C 691.749 1054.32 657.063 1054.46 622.467 1054.03 C 617.146 1053.97 604.707 1052.45 600.295 1050.78 C 583.772 1044.55 577.009 1025.01 583.816 1009.34 C 587.214 1001.52 595.555 997.157 602.05 994.264 Z"></path>
<path transform="translate(0,0)" style="fill: rgb(0,0,0)" stroke-linecap="round" d="M 606.384 1208.29 C 667.309 1207.26 731.082 1208.22 792.217 1208.2 L 863.712 1208.14 C 876.31 1208.12 910 1206.32 920.32 1212.18 C 927.767 1216.47 933.105 1223.65 935.065 1232.02 C 939.752 1251.66 927.602 1265.49 908.978 1269.63 C 891.865 1270.38 871.144 1269.86 853.828 1269.85 L 753.682 1269.86 L 661.056 1269.91 C 644.509 1269.91 628.11 1269.63 610.864 1269.65 C 585.105 1269.69 571.792 1246.82 582.75 1223.86 C 586.875 1215.21 597.05 1210.51 606.384 1208.29 Z"></path>
<path transform="translate(0,0)" style="fill: rgb(0,0,0)" stroke-linecap="round" d="M 1414.5 1212.28 C 1458.57 1210.54 1450.28 1251.54 1450.27 1282.49 L 1450.02 1374.19 C 1493.98 1374.62 1540.29 1373.02 1584.2 1374.98 C 1605.23 1378.22 1614.62 1405.1 1603.44 1421.78 C 1590.21 1441.53 1560.74 1436.24 1537.98 1436.24 C 1508.7 1436.32 1479.41 1436.24 1450.13 1436.02 L 1450.29 1523.31 C 1450.3 1540.51 1450.7 1557.96 1449.68 1575.12 C 1448.72 1591.11 1438.21 1598.41 1424 1601.9 L 1422.8 1601.93 C 1400 1602.37 1388.79 1588.59 1388.84 1566.82 C 1388.87 1552.71 1388.77 1538.44 1388.8 1524.31 L 1388.86 1436.25 C 1352.92 1435.7 1316.78 1436.67 1280.82 1436.25 C 1272.23 1436.15 1262.48 1436.7 1254.06 1435.14 C 1248.24 1434.06 1242.87 1431.27 1238.63 1427.13 C 1221.27 1410.38 1229.4 1378.81 1252.88 1375.35 C 1267.26 1373.23 1285.75 1374.24 1300.52 1374.26 C 1330.03 1374.39 1359.54 1374.35 1389.05 1374.13 C 1387.09 1329.7 1389.72 1281.88 1389.25 1237.26 C 1389.11 1224.01 1402.93 1215.44 1414.5 1212.28 Z"></path>
</svg>