<?xml version="1.0" encoding="UTF-8" standalone="no"?>
<!-- Generated by SVGMaker - https://svgmaker.io -->
<!-- Prompt: STYLE: Clean outline / line-art icons. Use a single consistent stroke weight throughout. Corners should be slightly rounded for a modern, approachable feel. No heavy gradients inside icons. No decorative flourishes or playful elements.

TONE: Clinical, private, and family-friendly. Icons must feel trustworthy and professional — like a medical utility tool, not a consumer wellness app.

SIZE ＆ READABILITY: Every icon must be readable and distinct at 20px to 28px. Shapes should be bold enough silhouettes to work at small sizes.

STROKE ＆ GEOMETRY: Consistent stroke weight and corner radius across all icons in the set. Prefer simple, recognisable silhouettes. Avoid overly complex detail. Use black (000000) as the only colour on a transparent background.

STATES: For status icons (confirm, warning, delete, iCloud), use stronger filled or badge variants to signal importance. All other icons remain outline-only unless noted.

EXPORT: Vector SVG with transparent background. Do not include drop shadows, outer glows, or bounding box fills.

COLOR: Output in monochrome / single foreground color so the app can tint icons programmatically.

DO NOT include: playful cartoon shapes, thick gradients, photorealistic elements, brand logos, or overly decorative styling.

App icon: A small heart shape with a downward arrow below or beside it. Health-specific low signal indicator. Outline style, heart and arrow clearly distinct. - updated by SVGMaker Editor -->
<!-- Quality: low -->
<!-- Type: generate -->
<!-- Created: 2026-06-01T15:04:44.287Z -->
<svg xmlns="http://www.w3.org/2000/svg" xmlns:xlink="http://www.w3.org/1999/xlink" version="1.1" width="1024" height="1024" viewBox="0 0 2048 2048">
<desc>Created with SVGMaker Editor 3.0.0</desc>
<defs>
</defs>
<path transform="translate(0,0)" style="fill: rgb(0,0,0)" stroke-linecap="round" d="M 1024.95 446.306 C 1036.76 428.561 1050.91 410.23 1065.75 395.052 C 1119.26 339.286 1192.82 307.182 1270.09 305.865 C 1350.48 305.02 1420.78 332.977 1478.03 389.252 C 1534.7 445.563 1566.94 521.898 1567.81 601.779 C 1568.17 746.087 1481.44 821.516 1388.67 914.577 L 1247.08 1057.36 L 1138.62 1166.29 C 1113.28 1191.71 1085.96 1222.64 1055.61 1241.49 C 1027.89 1258.72 997.411 1246.95 974.401 1227.69 C 953.534 1210.22 933.857 1189.38 914.339 1169.9 C 879.419 1135.42 844.679 1100.75 810.12 1065.9 L 652.503 909.255 C 613.831 870.86 566.572 827.973 536.428 783.481 C 507.355 740.845 489.023 691.81 482.995 640.558 C 473.31 559.726 496.506 478.392 547.371 414.828 C 599.597 349.314 667.403 315.564 749.723 306.398 C 758.705 305.499 770.971 305.779 780.116 305.973 C 879.388 308.083 972.022 363.139 1024.95 446.306 Z M 1025.77 1198.7 C 1040.2 1191.37 1088.97 1139.75 1104.11 1124.55 L 1243.7 983.744 L 1366.08 860.907 C 1443.25 783.666 1517.23 722.163 1516.38 602.281 C 1515.44 470.076 1404.72 353.536 1270.93 356.086 C 1183.25 356.981 1104.06 410.492 1060.73 485.053 C 1056.58 492.191 1047.29 510.932 1042.25 515.405 C 1014.1 540.359 998.229 500.389 989.431 485.203 C 984.941 477.617 980.114 470.234 974.966 463.078 C 931.832 403.02 853.976 357.007 779.785 356.107 C 775.08 356.05 762.049 355.833 757.694 356.432 C 689.417 361.912 636.123 389.128 591.472 441.559 C 547.969 492.1 526.666 558.039 532.376 624.48 C 536.164 670.222 551.727 714.205 577.551 752.15 C 600.476 785.521 640.981 822.305 670.62 851.797 L 820.953 1001.03 L 948.805 1128.28 L 989.856 1169.14 C 1002.61 1181.82 1009.29 1190.93 1025.77 1198.7 Z"></path>
<path transform="translate(0,0)" style="fill: rgb(0,0,0)" stroke-linecap="round" d="M 929.627 1300.12 C 951.805 1298.2 961.066 1310.81 960.91 1331.47 C 960.658 1365 961.862 1399.13 961.176 1432.61 C 960.796 1451.17 963.305 1480.36 960.609 1497.37 C 959.726 1502.8 957.19 1507.83 953.348 1511.77 C 942.273 1523.12 918.158 1520.15 902.83 1520.13 L 840.964 1519.95 C 877.299 1558.11 919.612 1598.53 957.18 1636.12 L 995.666 1674.87 C 1004.5 1683.78 1014.47 1694.56 1024.41 1701.88 C 1039.73 1688.89 1062.09 1665.12 1076.67 1650.47 L 1158.04 1568.61 C 1173.66 1552.9 1190.9 1534.94 1207.09 1519.98 L 1144.86 1520.12 C 1132.45 1520.14 1107.57 1521.99 1097.55 1515.11 C 1082.03 1504.45 1085.96 1476.42 1085.96 1458.86 L 1085.97 1392.51 L 1086 1348.25 C 1085.99 1327.43 1082.26 1301.15 1110.49 1299.77 C 1143.75 1298.16 1138.01 1337.49 1137.98 1357.61 L 1137.9 1418.5 L 1137.94 1469.95 C 1164.44 1470.14 1190.94 1470.15 1217.44 1469.98 C 1231.63 1469.96 1260.24 1467.56 1270.46 1476.5 C 1305.22 1506.88 1247.08 1553.69 1227.3 1573.52 L 1160.2 1640.79 L 1098.85 1702.43 C 1075.93 1725.4 1042.69 1767.15 1006.64 1749.49 C 978.758 1735.83 954.26 1707.34 932.229 1685.29 L 859.566 1612.58 L 813.341 1566.29 C 795.941 1548.84 768.777 1526.02 767.952 1500.24 C 766.756 1462.89 808.131 1469.98 832.431 1470.06 L 908.947 1469.99 L 908.875 1378.03 C 908.87 1360.64 908.504 1342.93 909.318 1325.55 C 910.014 1310.72 915.9 1304.62 929.627 1300.12 Z"></path>
</svg>