<?xml version="1.0" encoding="UTF-8" standalone="no"?>
<!-- Generated by SVGMaker - https://svgmaker.io -->
<!-- Prompt: STYLE: Clean outline / line-art icons. Use a single consistent stroke weight throughout. Corners should be slightly rounded for a modern, approachable feel. No heavy gradients inside icons. No decorative flourishes or playful elements.

TONE: Clinical, private, and family-friendly. Icons must feel trustworthy and professional — like a medical utility tool, not a consumer wellness app.

SIZE ＆ READABILITY: Every icon must be readable and distinct at 20px to 28px. Shapes should be bold enough silhouettes to work at small sizes.

STROKE ＆ GEOMETRY: Consistent stroke weight and corner radius across all icons in the set. Prefer simple, recognisable silhouettes. Avoid overly complex detail. Use black (000000) as the only colour on a transparent background.

STATES: For status icons (confirm, warning, delete, iCloud), use stronger filled or badge variants to signal importance. All other icons remain outline-only unless noted.

EXPORT: Vector SVG with transparent background. Do not include drop shadows, outer glows, or bounding box fills.

COLOR: Output in monochrome / single foreground color so the app can tint icons programmatically.

DO NOT include: playful cartoon shapes, thick gradients, photorealistic elements, brand logos, or overly decorative styling.

App icon: A circular arrow in a clockwise retry loop. Represents re-running OCR or parser tasks. Single continuous arrow forming most of a circle with a clear arrowhead. - updated by SVGMaker Editor -->
<!-- Quality: low -->
<!-- Type: generate -->
<!-- Created: 2026-06-01T14:39:42.361Z -->
<svg xmlns="http://www.w3.org/2000/svg" xmlns:xlink="http://www.w3.org/1999/xlink" version="1.1" width="1024" height="1024" viewBox="0 0 2048 2048">
<desc>Created with SVGMaker Editor 3.0.0</desc>
<defs>
</defs>
<path transform="translate(0,0)" style="fill: rgb(0,0,0)" stroke-linecap="round" d="M 424.001 1041.16 C 425.618 1053.48 426.242 1068.08 427.419 1080.74 C 429.24 1100 431.886 1119.18 435.352 1138.22 C 456.374 1252.57 513.547 1367.37 595.314 1450.38 C 707.412 1565.51 861.22 1630.53 1021.9 1630.72 C 1179.69 1632.15 1331.32 1569.52 1442.1 1457.15 C 1472.35 1426.51 1495.64 1395.5 1521.39 1361.47 C 1534.55 1344.07 1578.16 1356.94 1571.86 1386.32 C 1568.07 1403.96 1560.34 1412.54 1549.66 1427.27 C 1520.4 1468.3 1486.28 1505.64 1448.04 1538.46 C 1314.79 1652.75 1140.85 1708.07 966.054 1691.74 C 594.886 1660.59 333.031 1331.57 363.96 965.49 C 379.39 782.851 463.073 626.206 603.129 508.767 C 736.362 396.088 909.203 341.518 1082.98 357.267 C 1262.33 373.13 1422.12 461.861 1537.1 599.414 C 1647.55 729.262 1700.93 898.179 1685.16 1067.91 C 1722.64 1031.04 1759.07 992.833 1796.37 955.692 C 1823.7 928.475 1864.85 964.3 1845.22 993.779 C 1838.14 1004.41 1821.17 1019.74 1811.51 1029.33 C 1788.59 1052.17 1765.49 1074.83 1742.22 1097.31 L 1694.53 1144.29 C 1683.01 1155.68 1665.49 1176.58 1649.54 1179.49 C 1624.14 1184.13 1604.34 1157.1 1587.68 1140.48 L 1526.29 1078.98 L 1473.83 1026.48 C 1455.39 1008.19 1416.05 980.122 1441.55 952.716 C 1447.97 945.691 1457.04 941.689 1466.55 941.69 C 1480.26 941.59 1487.03 949.414 1495.87 958.405 C 1505.07 967.764 1514.38 977.056 1523.65 986.349 C 1556.02 1019.18 1588.62 1051.77 1621.46 1084.14 C 1622.27 1073.53 1623.2 1063.01 1624.02 1052.33 C 1647.46 747.624 1405.49 463.884 1105.93 422.934 C 1047.2 414.907 977.128 415.248 918.875 426.164 C 775.063 453.403 645.895 531.584 555.068 646.364 C 532.76 674.103 522.428 693.742 503.687 721.142 C 495.363 737.426 486.128 753.702 478.563 770.281 C 445.984 841.172 427.513 917.726 424.179 995.673 C 423.528 1009.7 423.95 1026.93 424.001 1041.16 Z"></path>
<path transform="translate(0,0)" style="fill: rgb(0,0,0)" stroke-linecap="round" d="M 424.001 1041.16 C 417.946 1035.69 421.522 991.936 422.169 982.33 C 426.779 903.563 447.177 826.526 482.15 755.798 C 485.895 748.333 496.546 726.856 501.566 720.817 L 503.687 721.142 C 495.363 737.426 486.128 753.702 478.563 770.281 C 445.984 841.172 427.513 917.726 424.179 995.673 C 423.528 1009.7 423.95 1026.93 424.001 1041.16 Z"></path>
</svg>