<?xml version="1.0" encoding="UTF-8" standalone="no"?>
<!-- Generated by SVGMaker - https://svgmaker.io -->
<!-- Prompt: STYLE: Clean outline / line-art icons. Use a single consistent stroke weight throughout. Corners should be slightly rounded for a modern, approachable feel. No heavy gradients inside icons. No decorative flourishes or playful elements.

TONE: Clinical, private, and family-friendly. Icons must feel trustworthy and professional — like a medical utility tool, not a consumer wellness app.

SIZE ＆ READABILITY: Every icon must be readable and distinct at 20px to 28px. Shapes should be bold enough silhouettes to work at small sizes.

STROKE ＆ GEOMETRY: Consistent stroke weight and corner radius across all icons in the set. Prefer simple, recognisable silhouettes. Avoid overly complex detail. Use black (000000) as the only colour on a transparent background.

STATES: For status icons (confirm, warning, delete, iCloud), use stronger filled or badge variants to signal importance. All other icons remain outline-only unless noted.

EXPORT: Vector SVG with transparent background. Do not include drop shadows, outer glows, or bounding box fills.

COLOR: Output in monochrome / single foreground color so the app can tint icons programmatically.

DO NOT include: playful cartoon shapes, thick gradients, photorealistic elements, brand logos, or overly decorative styling.

App icon: A compact pencil angled diagonally. Simple and readable. Represents editing or renaming a field. Outline style, no unnecessary detail. - updated by SVGMaker Editor -->
<!-- Quality: low -->
<!-- Type: generate -->
<!-- Created: 2026-06-01T14:33:03.908Z -->
<svg xmlns="http://www.w3.org/2000/svg" xmlns:xlink="http://www.w3.org/1999/xlink" version="1.1" width="1024" height="1024" viewBox="0 0 2048 2048">
<desc>Created with SVGMaker Editor 3.0.0</desc>
<defs>
</defs>
<path transform="translate(0,0)" style="fill: rgb(0,0,0)" stroke-linecap="round" d="M 1750.45 610.004 C 1747.63 616.779 1744.29 623.32 1740.44 629.567 C 1726.92 651.174 1692.81 683.723 1673.78 702.913 L 1576.55 801.003 C 1419.38 962.533 1261.06 1122.94 1101.61 1282.22 L 892.382 1492.56 L 841.19 1543.91 C 835.056 1550.08 811.976 1573.98 806.434 1576.52 C 779.192 1589.04 738.802 1600.19 709.977 1609.29 L 555.693 1658.86 L 388.083 1712.52 C 359.4 1721.69 330.845 1731.28 301.747 1739.34 C 288.291 1744.77 265.216 1734.44 264.707 1718.6 C 264.008 1696.83 278.664 1662.92 285.384 1642.11 L 329.728 1505.27 L 391.467 1314.06 C 400.52 1286.13 420.488 1211.27 434.919 1192.13 C 446.188 1177.18 461.407 1163.88 474.686 1150.63 L 544.433 1080.93 L 794.725 830.635 L 1163.75 463.259 L 1291.21 336.252 C 1307.82 319.811 1337.91 288.446 1355.13 274.023 C 1375.98 256.643 1401.26 245.412 1428.13 241.588 C 1461.37 236.803 1506.9 249.167 1531.91 270.658 C 1569.22 302.715 1606.55 341.805 1641.58 376.443 L 1696.61 429.889 C 1733.74 466.402 1754.43 487.707 1761.46 541.795 C 1762.91 564.44 1760.31 589.306 1750.45 610.004 Z M 596.937 1323.51 C 629.017 1355.65 663.634 1388.07 694.886 1420.26 C 709.676 1406.26 725.075 1389.81 739.668 1375.25 L 835.152 1280.15 L 1090.41 1024.74 C 1149.17 965.887 1207.57 906.682 1265.62 847.126 L 1319.07 792.318 C 1327.09 784.099 1338.74 773 1345.99 764.728 C 1325.48 743.863 1304.85 723.114 1284.11 702.482 C 1277.27 695.636 1258.52 676.064 1251.72 670.79 C 1213.7 711.088 1169.8 753.181 1130.38 792.478 L 935.41 987.39 L 678.986 1242.56 C 651.759 1269.26 624.59 1297.39 596.937 1323.51 Z M 479.338 1207.01 L 566.68 1293.25 C 587.376 1269.79 618.967 1241.51 642.074 1218.53 L 801.86 1059.81 L 1222.06 640.714 C 1193.53 612.079 1164.08 581.635 1135.12 553.758 C 1123.2 566.979 1107.8 581.537 1095.03 594.216 L 1027.89 661.067 C 950.418 738.924 872.523 816.356 794.206 893.36 L 574.701 1112.37 C 544.082 1142.87 510.607 1177.81 479.338 1207.01 Z M 1271.68 417.128 L 1569.4 713.978 L 1585.49 730.105 L 1651.03 662.6 C 1667.1 646.238 1691.82 623.898 1702.81 604.846 C 1712.19 588.913 1716.89 570.66 1716.37 552.179 C 1715.4 504.32 1683.03 480.539 1651.99 450.229 C 1608.04 407.316 1564.28 364.108 1520.36 321.156 C 1497.26 298.567 1468.47 284.308 1435.8 287.4 C 1392.03 292.069 1376.31 315.752 1346.88 343.333 C 1321.39 367.223 1297.23 393.662 1271.68 417.128 Z M 724.777 1451.48 L 766.058 1491.5 C 770.358 1495.75 795.37 1521.15 798.725 1522.99 C 829.469 1491.29 861.428 1461.06 892.519 1429.83 L 1140.63 1180.77 L 1353.72 967.014 C 1386 934.505 1418.51 900.484 1451.08 868.488 C 1442.2 859.581 1381.75 797.82 1377.19 795.754 C 1344.02 831.64 1305.15 869.163 1270.76 904.031 L 1059.38 1117.42 L 829.076 1347.83 C 795.153 1381.54 759.311 1419 724.777 1451.48 Z M 363.687 1548.59 L 332.972 1640.72 C 328.994 1652.76 322.206 1675.82 317.592 1686.97 C 330.065 1684.43 377.167 1670.01 390.212 1664.93 C 413.228 1658.24 435.793 1650.35 458.737 1643.49 L 395.669 1580.36 C 387.007 1571.67 372.571 1556.26 363.687 1548.59 Z M 503.69 1628.21 C 546.47 1614.07 590.852 1600.55 633.921 1586.93 L 712.736 1562.37 C 727.104 1557.91 745.217 1552.74 759.175 1547.49 C 694.097 1480.55 624.357 1412.98 558.046 1346.66 L 491.708 1280.23 C 486.233 1274.75 465.985 1253.6 460.615 1249.35 C 442.243 1303.59 424.53 1358.05 407.481 1412.71 C 398.366 1441.38 388.356 1476 377.86 1503.58 C 407.243 1531.36 435.692 1561.57 464.732 1589.79 C 476.804 1601.53 491.377 1617.58 503.69 1628.21 Z M 1238.9 450.695 C 1215.13 474.538 1191.16 498.179 1166.99 521.614 C 1243.64 596.837 1319.83 672.526 1395.56 748.677 C 1407.94 761.056 1474.42 830.23 1482.62 834.341 C 1506.38 810.074 1529.29 785.723 1553.54 761.902 L 1322.96 533.586 L 1269.22 479.683 C 1263.69 474.12 1243.79 453.564 1238.9 450.695 Z"></path>
<path transform="translate(0,0)" style="fill: rgb(0,0,0)" stroke-linecap="round" d="M 1761.46 541.795 C 1762.91 564.44 1760.31 589.306 1750.45 610.004 L 1749.55 607.859 C 1753.58 590.543 1758.67 574.929 1758.93 556.886 C 1759 552.205 1759.08 545.713 1761.46 541.795 Z"></path>
</svg>