<?xml version="1.0" encoding="UTF-8" standalone="no"?>
<!-- Generated by SVGMaker - https://svgmaker.io -->
<!-- Prompt: STYLE: Clean outline / line-art icons. Use a single consistent stroke weight throughout. Corners should be slightly rounded for a modern, approachable feel. No heavy gradients inside icons. No decorative flourishes or playful elements.

TONE: Clinical, private, and family-friendly. Icons must feel trustworthy and professional — like a medical utility tool, not a consumer wellness app.

SIZE ＆ READABILITY: Every icon must be readable and distinct at 20px to 28px. Shapes should be bold enough silhouettes to work at small sizes.

STROKE ＆ GEOMETRY: Consistent stroke weight and corner radius across all icons in the set. Prefer simple, recognisable silhouettes. Avoid overly complex detail. Use black (000000) as the only colour on a transparent background.

STATES: For status icons (confirm, warning, delete, iCloud), use stronger filled or badge variants to signal importance. All other icons remain outline-only unless noted.

EXPORT: Vector SVG with transparent background. Do not include drop shadows, outer glows, or bounding box fills.

COLOR: Output in monochrome / single foreground color so the app can tint icons programmatically.

DO NOT include: playful cartoon shapes, thick gradients, photorealistic elements, brand logos, or overly decorative styling.

App icon: An hourglass shape. Top and bottom chambers, a narrow waist in the middle. Simple time/progress metaphor. Outline style. Can remain minimal. - updated by SVGMaker Editor -->
<!-- Quality: low -->
<!-- Type: generate -->
<!-- Created: 2026-06-01T14:41:38.660Z -->
<svg xmlns="http://www.w3.org/2000/svg" xmlns:xlink="http://www.w3.org/1999/xlink" version="1.1" width="1024" height="1024" viewBox="0 0 2048 2048">
<desc>Created with SVGMaker Editor 3.0.0</desc>
<defs>
</defs>
<path transform="translate(0,0)" style="fill: rgb(0,0,0)" stroke-linecap="round" d="M 592.451 214.427 C 598.547 213.7 619.831 214.127 626.842 214.133 L 700.905 214.208 L 944.834 214.201 L 1287.94 214.22 L 1396.94 214.188 C 1435.59 214.181 1475 209.545 1509.03 231.01 C 1533.43 246.271 1550.69 270.684 1556.94 298.777 C 1569.73 356.467 1531.66 410.541 1474.72 422.857 C 1479.49 453.562 1472.72 512.516 1467.16 543.682 C 1456.54 601.547 1433.67 663.31 1398.82 711.42 C 1343.11 788.315 1255.76 843.979 1185.13 906.565 C 1148.9 938.662 1098.57 969.204 1094.29 1022.37 C 1092.85 1040.26 1097.26 1060.88 1108.02 1075.79 C 1128.35 1100.87 1159.69 1123.89 1184.76 1144.26 L 1269.88 1213.7 C 1316.28 1252.01 1353.47 1283.19 1389.78 1330.68 C 1443.72 1401.24 1468.64 1479.75 1474.09 1567.94 C 1475.08 1584.09 1477.11 1605.53 1474.98 1621.22 C 1495.55 1627.23 1511.11 1634.36 1526.87 1649.51 C 1547.65 1669.18 1559.58 1696.43 1559.91 1725.04 C 1560.1 1753.15 1549.1 1780.18 1529.35 1800.17 C 1492.8 1836.94 1455.37 1831.66 1408.79 1831.56 C 1326.03 1830.45 1240.07 1831.3 1157.14 1831.43 L 845.522 1831.43 L 675.02 1831.48 C 651.547 1831.47 609.398 1832.83 587.566 1830.98 C 571.067 1829.73 555.075 1824.71 540.818 1816.31 C 516.853 1801.92 499.578 1778.61 492.786 1751.5 C 478.267 1692.49 515.205 1635.47 573.787 1621.23 C 572.529 1605.57 573.57 1589.09 574.601 1573.4 C 589.129 1352.36 705.073 1273.53 863.52 1143.49 C 880.714 1129.38 898.301 1115.6 915.024 1100.94 C 936.531 1082.09 953.315 1063.29 955.092 1033.52 C 956.491 1010.09 947.395 987.454 933.527 968.919 C 913.678 942.39 883.416 920.991 857.833 900.107 C 824.767 873.114 791.361 846.498 758.594 819.147 C 729.533 794.89 700.471 770.378 675.454 741.872 C 600.718 656.71 566.614 535.994 573.975 423.913 C 556.398 418.916 543.646 414.116 528.984 402.631 C 507.665 386.054 493.844 361.654 490.588 334.846 C 485.203 286.664 509.816 241.207 555.161 222.707 C 567.944 217.492 578.827 215.821 592.451 214.427 Z M 962.318 921.876 C 987.077 942.936 1005.04 983.498 1007.6 1016.02 C 1010.77 1052.3 999.016 1088.3 975.048 1115.72 C 959.756 1133.26 940.342 1146.6 922.738 1161.6 C 863.149 1212.38 799.228 1260.08 742.781 1314.26 C 658.213 1395.43 625.33 1505.44 626.857 1620.69 L 1146.63 1620.69 L 1320.46 1620.68 C 1353.81 1620.67 1388.85 1620.17 1422.1 1620.99 C 1422.11 1594.9 1421.83 1572.77 1418.68 1546.73 C 1408.62 1459.04 1368.94 1377.41 1306.2 1315.34 C 1289.02 1298.19 1268.35 1280.99 1249.78 1265.19 C 1213.63 1234.82 1177.3 1204.67 1140.78 1174.75 C 1129.87 1165.69 1117.89 1155.34 1106.68 1146.93 C 1068.79 1118.55 1042.2 1078.48 1042 1029.91 C 1041.95 1017.89 1043.81 1000.35 1048.07 988.695 C 1057.84 941.823 1118.09 895.298 1153.53 865.95 L 1250.52 786.023 C 1272.07 768.102 1295.37 749.178 1315.33 729.509 C 1376.07 669.656 1409.21 591.589 1419.06 507.627 C 1422.48 478.47 1422.12 453.276 1422.34 424.097 C 1379.35 424.808 1335.09 424.335 1292 424.339 L 1051.52 424.277 C 910.68 424.281 767.297 425.877 626.755 424.143 C 626.806 540.604 649.323 642.977 734.126 729.047 C 753.501 748.711 780.33 769.588 802.259 787.238 C 826.617 806.86 850.869 826.614 875.013 846.499 C 894.202 862.134 913.272 877.916 932.218 893.845 C 940.804 901.13 955.746 913.034 962.318 921.876 Z M 1465.89 1775.81 C 1513.4 1762.61 1520.9 1700.86 1474.92 1679.36 C 1467.64 1675.95 1458.91 1676.67 1451.05 1676.12 C 1393.91 1675.95 1336.64 1676.07 1279.51 1676.07 L 942.677 1676.06 L 705.46 1676.07 C 669.346 1676.07 621.195 1674.6 585.91 1676.2 C 571.485 1679.37 563.07 1683.78 553.836 1695.69 C 528.501 1728.37 553.648 1776.49 594.243 1776.94 C 616.386 1777.18 638.662 1777.08 660.854 1777.05 L 781.642 1777.01 L 1164.91 1777.03 L 1367.35 1777.02 L 1426.67 1777.04 C 1438.37 1777.04 1454.71 1777.5 1465.89 1775.81 Z M 1460.96 369.59 C 1507.65 361.163 1522.51 306.452 1483.3 278.13 C 1474.73 271.942 1465.48 269.491 1455.07 269.186 C 1436.27 268.708 1417.18 268.919 1398.37 268.929 L 1293.64 268.989 L 971.498 268.967 L 714.831 268.987 L 633.195 268.947 C 620.238 268.937 601.142 268.363 588.82 269.31 C 560.653 272.549 540.928 297.29 543.872 325.477 C 545.296 339.168 552.346 351.651 563.335 359.939 C 581.774 373.794 613.701 369.997 636.265 369.975 L 719.545 369.868 L 978.086 369.873 L 1299.48 369.873 L 1402.52 369.875 C 1421.07 369.89 1442.61 370.475 1460.96 369.59 Z"></path>
<path transform="translate(0,0)" style="fill: rgb(0,0,0)" stroke-linecap="round" d="M 962.318 921.876 C 987.077 942.936 1005.04 983.498 1007.6 1016.02 C 1010.77 1052.3 999.016 1088.3 975.048 1115.72 C 959.756 1133.26 940.342 1146.6 922.738 1161.6 C 863.149 1212.38 799.228 1260.08 742.781 1314.26 C 658.213 1395.43 625.33 1505.44 626.857 1620.69 L 1146.63 1620.69 L 1320.46 1620.68 C 1353.81 1620.67 1388.85 1620.17 1422.1 1620.99 C 1422.11 1594.9 1421.83 1572.77 1418.68 1546.73 C 1408.62 1459.04 1368.94 1377.41 1306.2 1315.34 C 1289.02 1298.19 1268.35 1280.99 1249.78 1265.19 C 1213.63 1234.82 1177.3 1204.67 1140.78 1174.75 C 1129.87 1165.69 1117.89 1155.34 1106.68 1146.93 C 1068.79 1118.55 1042.2 1078.48 1042 1029.91 C 1041.95 1017.89 1043.81 1000.35 1048.07 988.695 C 1048.92 998.08 1045 1018.87 1045.23 1030.83 C 1045.79 1060.78 1055.04 1085.84 1072.79 1109.8 C 1090.54 1133.78 1114.17 1148.63 1136.85 1167.62 C 1165.16 1191.53 1193.65 1215.22 1222.31 1238.7 C 1250.56 1261.91 1282.39 1288.13 1308.22 1313.62 C 1373.2 1377.73 1412.72 1459.9 1422.21 1550.64 C 1424.81 1575.48 1425.11 1598.24 1425.03 1623.34 C 1400.4 1625.42 1351.39 1623.89 1325.4 1623.86 L 1140.01 1623.96 L 812.815 1623.89 C 751.127 1623.89 686.419 1624.79 624.882 1623.54 C 624.606 1609.79 624.034 1595.76 624.67 1582.1 C 628.962 1489.83 659.425 1400.51 722.41 1331.67 C 753.923 1297.23 794.598 1263.79 830.896 1234.02 L 911.511 1167.09 C 943.475 1140.9 974.478 1122.43 992.474 1083.77 C 1013.2 1040.76 1007.41 990.702 982.223 950.875 C 977.731 943.773 964.008 928.233 962.318 921.876 Z"></path>
</svg>