<?xml version="1.0" encoding="UTF-8" standalone="no"?>
<!-- Generated by SVGMaker - https://svgmaker.io -->
<!-- Prompt: STYLE: Clean outline / line-art icons. Use a single consistent stroke weight throughout. Corners should be slightly rounded for a modern, approachable feel. No heavy gradients inside icons. No decorative flourishes or playful elements.

TONE: Clinical, private, and family-friendly. Icons must feel trustworthy and professional — like a medical utility tool, not a consumer wellness app.

SIZE ＆ READABILITY: Every icon must be readable and distinct at 20px to 28px. Shapes should be bold enough silhouettes to work at small sizes.

STROKE ＆ GEOMETRY: Consistent stroke weight and corner radius across all icons in the set. Prefer simple, recognisable silhouettes. Avoid overly complex detail. Use black (000000) as the only colour on a transparent background.

STATES: For status icons (confirm, warning, delete, iCloud), use stronger filled or badge variants to signal importance. All other icons remain outline-only unless noted.

EXPORT: Vector SVG with transparent background. Do not include drop shadows, outer glows, or bounding box fills.

COLOR: Output in monochrome / single foreground color so the app can tint icons programmatically.

DO NOT include: playful cartoon shapes, thick gradients, photorealistic elements, brand logos, or overly decorative styling.

App icon: A minus symbol inside a circle. Used for removing a draft family member row. Should feel undoable, not destructive. Outline style. - updated by SVGMaker Editor -->
<!-- Quality: low -->
<!-- Type: generate -->
<!-- Created: 2026-06-01T15:17:00.236Z -->
<svg xmlns="http://www.w3.org/2000/svg" xmlns:xlink="http://www.w3.org/1999/xlink" version="1.1" width="1024" height="1024" viewBox="0 0 2048 2048">
<desc>Created with SVGMaker Editor 3.0.0</desc>
<defs>
</defs>
<path transform="translate(0,0)" style="fill: rgb(0,0,0)" stroke-linecap="round" d="M 988.347 235.152 C 1423.63 215.291 1792.75 551.726 1813.22 986.98 C 1833.69 1422.23 1497.77 1791.83 1062.54 1812.9 C 626.459 1834.02 255.977 1497.29 235.468 1061.18 C 214.959 625.064 552.204 255.053 988.347 235.152 Z M 1065.56 1741.28 C 1461.91 1718.55 1764.79 1378.83 1742.07 982.481 C 1719.34 586.133 1379.62 283.251 983.272 305.975 C 586.925 328.7 284.044 668.423 306.767 1064.77 C 329.491 1461.12 669.214 1764 1065.56 1741.28 Z"></path>
<path transform="translate(0,0)" style="fill: rgb(0,0,0)" stroke-linecap="round" d="M 661.781 940.314 C 709.63 938.674 765.48 940.136 814.302 940.13 L 1110.84 940.108 L 1293.96 940.039 L 1351.54 940.051 C 1377.57 940.071 1397.06 937.777 1419.48 953.334 C 1435.32 964.32 1448.8 982.201 1451.19 1001.76 C 1454.41 1028.17 1455.41 1060.05 1439.01 1082.51 C 1424.66 1101.63 1409.4 1109.88 1386.71 1113.72 C 1377.29 1114.69 1359.66 1114.29 1349.9 1114.28 L 1286.87 1114.22 L 1076.54 1114.26 L 802.466 1114.26 L 713.286 1114.28 C 684.892 1114.27 652.566 1118.23 628.375 1102.05 C 614.429 1092.72 599.524 1073.74 597.335 1056.96 C 595.296 1041.32 594.332 1008.83 598.059 994.039 C 600.119 986.166 603.543 978.716 608.175 972.025 C 621.542 952.592 639.401 944.471 661.781 940.314 Z M 675.216 1008.45 C 669.591 1013.06 665.442 1016.81 664.338 1024.37 C 661.218 1045.74 681.233 1045.84 695.805 1045.95 L 1218.59 1045.89 L 1314.84 1045.96 C 1330.3 1045.97 1347.62 1046.79 1362.88 1045.37 C 1385.04 1043.29 1387.72 1023.08 1371.96 1009.53 L 1370.92 1008.65 C 1356.95 1005.56 1327.62 1006.53 1311.82 1006.53 L 1220.72 1006.57 L 838.739 1006.48 L 737.968 1006.66 C 723.982 1006.64 686.526 1005.51 675.216 1008.45 Z"></path>
</svg>