<?xml version="1.0" encoding="UTF-8" standalone="no"?>
<!-- Generated by SVGMaker - https://svgmaker.io -->
<!-- Prompt: STYLE: Clean outline / line-art icons. Use a single consistent stroke weight throughout. Corners should be slightly rounded for a modern, approachable feel. No heavy gradients inside icons. No decorative flourishes or playful elements.

TONE: Clinical, private, and family-friendly. Icons must feel trustworthy and professional — like a medical utility tool, not a consumer wellness app.

SIZE ＆ READABILITY: Every icon must be readable and distinct at 20px to 28px. Shapes should be bold enough silhouettes to work at small sizes.

STROKE ＆ GEOMETRY: Consistent stroke weight and corner radius across all icons in the set. Prefer simple, recognisable silhouettes. Avoid overly complex detail.

STATES: For status icons (confirm, warning, delete, iCloud), use stronger filled or badge variants to signal importance. All other icons remain outline-only unless noted.

EXPORT: Vector SVG with transparent background. Do not include drop shadows, outer glows, or bounding box fills.

COLOR: Output in monochrome / single foreground color so the app can tint icons programmatically.

DO NOT include: playful cartoon shapes, thick gradients, photorealistic elements, brand logos, or overly decorative styling.

App icon: A single pill or capsule, divided cleanly down the middle into two halves. Simple and clinical — should not resemble any pharmacy branding. Outline style. - updated by SVGMaker Editor -->
<!-- Quality: low -->
<!-- Type: generate -->
<!-- Created: 2026-06-01T14:22:09.384Z -->
<svg xmlns="http://www.w3.org/2000/svg" xmlns:xlink="http://www.w3.org/1999/xlink" version="1.1" width="1024" height="1024" viewBox="0 0 2048 2048">
<desc>Created with SVGMaker Editor 3.0.0</desc>
<defs>
</defs>
<path transform="translate(0,0)" style="fill: rgb(0,0,0)" stroke-linecap="round" d="M 1350.75 212.403 C 1454.89 207.43 1542.55 237.903 1623.66 303.146 C 1706.75 369.977 1766.48 462.951 1777.66 570.513 C 1788.04 665.508 1760.13 760.723 1700.1 835.079 C 1679.7 860.165 1657.61 880.867 1634.66 903.474 L 1552.38 984.969 L 1267.57 1269.47 L 1010.15 1527.17 L 935.16 1601.9 C 907.392 1629.73 883.546 1655.84 851.146 1678.49 C 792.251 1719.68 735.216 1740.24 664.292 1747.61 C 561.579 1756.2 467.837 1727.29 387.206 1662.96 C 304.491 1597.03 251.28 1501 239.23 1395.9 C 226.346 1280.12 273.3 1171.12 353.567 1089.52 C 369.376 1073.45 385.174 1057.4 401.067 1041.4 L 498.467 942.899 C 612.411 826.982 726.965 711.667 842.124 596.958 L 1044.77 394.095 L 1101.46 337.363 C 1123.38 315.436 1140.34 297.289 1166.03 279.269 C 1226.63 236.78 1278.18 220.242 1350.75 212.403 Z M 746.685 1675.9 C 822.807 1643.11 847.165 1616.45 904.029 1559.32 L 991.667 1471.5 L 1150.87 1311.81 C 1180.36 1282.31 1212.4 1251.76 1240.82 1221.71 C 1200.74 1179.71 1152.94 1134.45 1111.55 1093.49 L 892.122 875.22 L 806.118 789.662 C 801.235 784.75 769.202 751.911 765.612 749.622 L 512.371 1004 L 429.759 1087.66 C 392.79 1125.35 361.979 1154.48 334.497 1200.4 C 204.673 1417.33 385.245 1703.2 633.499 1697.03 C 676.57 1695.96 705.666 1690.41 746.685 1675.9 Z M 803.27 710.085 C 850.086 759.079 902.745 808.296 951.214 856.529 L 1231.86 1136.36 C 1246.21 1150.52 1266.36 1169.31 1279.42 1184.07 C 1305.13 1155.19 1341.83 1121.12 1369.82 1093.11 L 1554.67 908.611 C 1599.9 863.438 1655.33 815.189 1686.82 760.248 C 1716.33 709.168 1730.16 650.536 1726.59 591.653 C 1716.51 420.776 1552.49 264.801 1380.95 263.895 C 1372.19 263.848 1358.06 263.231 1349.56 264.401 C 1294.68 270.434 1253 283.281 1206.03 314.003 C 1179.91 331.085 1154.71 358.288 1132.46 380.526 L 1058.08 454.947 L 803.27 710.085 Z"></path>
</svg>