<?xml version="1.0" encoding="UTF-8" standalone="no"?>
<!-- Generated by SVGMaker - https://svgmaker.io -->
<!-- Prompt: STYLE: Clean outline / line-art icons. Use a single consistent stroke weight throughout. Corners should be slightly rounded for a modern, approachable feel. No heavy gradients inside icons. No decorative flourishes or playful elements.

TONE: Clinical, private, and family-friendly. Icons must feel trustworthy and professional — like a medical utility tool, not a consumer wellness app.

SIZE ＆ READABILITY: Every icon must be readable and distinct at 20px to 28px. Shapes should be bold enough silhouettes to work at small sizes.

STROKE ＆ GEOMETRY: Consistent stroke weight and corner radius across all icons in the set. Prefer simple, recognisable silhouettes. Avoid overly complex detail.

STATES: For status icons (confirm, warning, delete, iCloud), use stronger filled or badge variants to signal importance. All other icons remain outline-only unless noted.

EXPORT: Vector SVG with transparent background. Do not include drop shadows, outer glows, or bounding box fills.

COLOR: Output in monochrome / single foreground color so the app can tint icons programmatically.

DO NOT include: playful cartoon shapes, thick gradients, photorealistic elements, brand logos, or overly decorative styling.

App icon: Two test tubes at a slight angle, one slightly taller than the other, as if in a rack. Core BioLens medical-analysis symbol. Clean outline, minimal detail, readable at 24px. - updated by SVGMaker Editor -->
<!-- Quality: low -->
<!-- Type: generate -->
<!-- Created: 2026-06-01T14:21:58.497Z -->
<svg xmlns="http://www.w3.org/2000/svg" xmlns:xlink="http://www.w3.org/1999/xlink" version="1.1" width="1024" height="1024" viewBox="0 0 2048 2048">
<desc>Created with SVGMaker Editor 3.0.0</desc>
<defs>
</defs>
<path transform="translate(0,0)" style="fill: rgb(0,0,0)" stroke-linecap="round" d="M 1137.25 376.189 C 1154.86 374.974 1202.35 385.961 1221.94 389.877 L 1350.57 415.557 L 1437.14 432.535 C 1458.61 436.668 1492.39 439.967 1509.14 454.018 C 1521.68 464.622 1529.47 479.786 1530.81 496.154 C 1533.86 536.131 1501.37 564.051 1463.58 567.074 C 1458.41 605.795 1446.91 657.229 1439.58 697.101 L 1389.19 970.215 L 1358.44 1138.03 C 1346.86 1200.93 1345.16 1249.54 1297.08 1298.36 C 1288.43 1307.26 1278.85 1315.21 1268.51 1322.08 C 1230.8 1346.98 1184.66 1355.64 1140.48 1346.12 C 1094.04 1336.87 1053.36 1309.1 1027.85 1269.2 C 986.837 1205.83 999.978 1154.78 1012.86 1087.19 L 1039.58 949.449 L 1091.44 682.425 C 1102.89 622.66 1114.2 559.2 1126.66 499.849 L 1122.97 497.574 C 1104.11 485.877 1087.91 473.778 1082.9 450.476 C 1079.46 434.493 1082.68 417.8 1091.83 404.246 C 1103.08 387.519 1118.11 380.076 1137.25 376.189 Z M 1140.27 1288.21 C 1099.66 1230.09 1091.11 1192.6 1103.53 1122.78 L 1113.73 1067.36 L 1144.82 901.641 L 1153.92 851.093 C 1155.36 843.051 1157.51 828.865 1159.82 821.576 C 1174.73 822.318 1195.38 826.583 1210.52 829.366 L 1305.68 846.828 C 1318.9 849.211 1341.14 853.932 1353.77 854.923 C 1365.43 785.172 1380.68 711.213 1393.68 641.315 L 1405.55 577.375 C 1409.41 556.23 1408.15 540.539 1426.55 525.261 C 1438.88 515.026 1479.15 516.754 1473.5 499.153 C 1468.78 495.128 1413.19 485.456 1403.92 483.6 L 1258.23 454.177 L 1186.91 439.578 C 1178.41 437.791 1153.07 431.829 1145.45 431.779 C 1141.9 435.126 1142.64 433.558 1141.45 437.928 C 1142.17 442.256 1143.93 444.551 1147.47 447.148 C 1161.53 457.453 1182.39 457.09 1186.31 478.742 C 1188.59 491.33 1171.26 564.613 1167.65 582.943 L 1090.64 979.97 L 1067.84 1097.78 C 1065.17 1111.95 1062.64 1127.16 1059.41 1141.18 C 1044.59 1205.57 1076.64 1265.56 1140.27 1288.21 Z"></path>
<path transform="translate(0,0)" style="fill: rgb(0,0,0)" stroke-linecap="round" d="M 621.421 422.429 L 826.954 422.462 L 908.336 422.418 C 924.664 422.385 940.73 422.286 957.062 422.74 C 983.096 423.465 1005.83 441.495 1013.45 466.473 C 1018.37 483.165 1016.39 501.133 1007.94 516.347 C 997.439 535.551 981.305 543.849 961.111 549.59 L 961.193 1020.38 L 961.26 1140.96 C 961.306 1209.17 965.453 1250.26 917.065 1305.49 C 884.692 1338.53 841.908 1358.31 795.406 1358.78 C 748.378 1359.13 703.118 1340.88 669.482 1308.01 C 645.647 1284.77 629.537 1254.76 623.335 1222.06 C 618.819 1197.81 620.271 1164.28 620.277 1138.76 L 620.297 1014.58 L 620.148 545.22 C 608.274 541.978 598.197 538.348 588.44 530.486 C 575.87 520.291 567.882 505.506 566.243 489.405 C 562.412 453.793 585.881 426.227 621.421 422.429 Z M 769.094 1294.94 C 760.819 1285.43 753.168 1276.89 746.23 1266.25 C 709.974 1210.65 716.554 1148.03 716.599 1084.75 C 716.446 1003.43 717.692 919.221 716.313 838.255 C 778.896 838.644 841.481 838.594 904.063 838.106 C 903.072 814.066 903.544 787.249 903.516 762.991 L 903.352 638.86 L 903.287 572.42 C 903.275 554.424 900.415 528.4 912.609 514.601 C 916.211 510.556 920.59 507.275 925.485 504.954 C 931.996 501.804 956.703 496.362 956.345 487.372 C 956.252 485.06 955.245 482.687 953.328 481.282 C 947.528 477.029 660.272 479.125 625.807 479.025 C 623.583 483.512 623.541 482.102 623.73 486.592 C 628.592 495.233 643.079 495.034 651.987 498.536 C 671.153 506.069 679.448 519.451 679.813 539.745 C 680.197 561.091 679.886 582.707 679.792 604.178 L 679.744 712.353 L 679.706 1071.39 L 679.715 1146.16 C 679.725 1165.38 678.035 1202.6 683.504 1219.79 C 696.384 1260.26 727.538 1287.73 769.094 1294.94 Z"></path>
<path transform="translate(0,0)" style="fill: rgb(0,0,0)" stroke-linecap="round" d="M 1529.12 949.847 C 1519.68 949.972 1510.02 949.991 1500.69 949.879 C 1453.94 949.319 1455.4 884.584 1502.17 884.501 C 1525.79 884.46 1550.27 883.808 1574.02 884.158 C 1592.11 884.425 1610.63 883.28 1628.65 885.127 C 1653.7 891.407 1663.9 923.317 1643.92 941.373 C 1630.24 953.736 1603.67 949.971 1585.71 949.9 L 1585.79 1263.75 L 1585.85 1604.35 C 1606.58 1611.25 1620.63 1624.9 1614.27 1647.24 C 1605.23 1678.98 1573.43 1670.94 1548.45 1672.29 C 1526.13 1673.5 1503.52 1665.38 1502.09 1640.07 C 1501.55 1621.1 1511.84 1611.46 1528.48 1604.98 C 1530.27 1572.8 1528.88 1525.92 1529.01 1492.76 C 1489.57 1494.03 1444.8 1493.05 1404.99 1493.04 L 1175.1 1493 L 518.318 1492.93 C 519.417 1503.2 518.936 1521.61 518.939 1532.29 L 518.807 1604.95 C 550.789 1617.87 555.945 1655.41 522.4 1669.56 C 510.79 1674.46 489.07 1670.82 476.433 1671.99 C 460.285 1673.49 444.184 1669.06 436.668 1653.64 C 424.293 1631.86 437.939 1611.24 460.939 1605.56 C 459.231 1586.18 460.422 1547.54 460.412 1526.41 L 460.414 1369.35 L 460.457 1095.99 C 460.474 1047.82 459.713 997.897 460.732 949.859 C 446.096 950.071 430.334 951.985 417.96 943.654 C 410.737 938.805 405.859 931.168 404.497 922.577 C 403.061 913.842 405.172 904.895 410.362 897.724 C 416.63 889.069 424.321 885.757 434.548 884.385 C 455.624 883.608 478.738 884.433 500.098 884.147 C 516.614 884.725 534.126 882.734 550.417 885.376 C 575.686 889.608 585.701 922.226 568.392 940.495 C 557.031 952.487 534.209 949.976 518.904 949.884 C 519.005 1110.48 520.448 1273.83 518.766 1434.11 L 1529.05 1434.16 C 1528.44 1415.46 1528.98 1394.44 1528.98 1375.54 L 1528.96 1264.74 L 1529.12 949.847 Z"></path>
</svg>