<?xml version="1.0" encoding="UTF-8" standalone="no"?>
<!-- Generated by SVGMaker - https://svgmaker.io -->
<!-- Prompt: STYLE: Clean outline / line-art icons. Use a single consistent stroke weight throughout. Corners should be slightly rounded for a modern, approachable feel. No heavy gradients inside icons. No decorative flourishes or playful elements.

TONE: Clinical, private, and family-friendly. Icons must feel trustworthy and professional — like a medical utility tool, not a consumer wellness app.

SIZE ＆ READABILITY: Every icon must be readable and distinct at 20px to 28px. Shapes should be bold enough silhouettes to work at small sizes.

STROKE ＆ GEOMETRY: Consistent stroke weight and corner radius across all icons in the set. Prefer simple, recognisable silhouettes. Avoid overly complex detail. Use black (000000) as the only colour on a transparent background.

STATES: For status icons (confirm, warning, delete, iCloud), use stronger filled or badge variants to signal importance. All other icons remain outline-only unless noted.

EXPORT: Vector SVG with transparent background. Do not include drop shadows, outer glows, or bounding box fills.

COLOR: Output in monochrome / single foreground color so the app can tint icons programmatically.

DO NOT include: playful cartoon shapes, thick gradients, photorealistic elements, brand logos, or overly decorative styling.

App icon: A plus symbol with equal arm lengths, balanced stroke weight. Used for adding manual fields. Simple and universally recognisable. - updated by SVGMaker Editor -->
<!-- Quality: low -->
<!-- Type: generate -->
<!-- Created: 2026-06-01T14:37:44.337Z -->
<svg xmlns="http://www.w3.org/2000/svg" xmlns:xlink="http://www.w3.org/1999/xlink" version="1.1" width="1024" height="1024" viewBox="0 0 2048 2048">
<desc>Created with SVGMaker Editor 3.0.0</desc>
<defs>
</defs>
<path transform="translate(0,0)" style="fill: rgb(0,0,0)" stroke-linecap="round" d="M 853.816 447.908 C 859.443 408.471 880.388 372.841 912.111 348.745 C 947.237 322.161 979.066 315.896 1021.77 317.091 C 1036.35 317.5 1047.74 316.57 1063.01 318.812 C 1103.61 325.135 1140.11 347.152 1164.63 380.122 C 1178.31 398.241 1187.5 419.336 1191.47 441.685 C 1194.85 461.331 1194.02 482.468 1194.01 502.489 L 1193.95 579.858 L 1193.98 846.66 L 1461.48 846.862 L 1535.65 846.785 C 1555.09 846.764 1576.29 846.083 1595.49 848.171 C 1632.43 852.191 1676.49 877.12 1697.46 908.161 C 1696.73 913.895 1705.88 926.273 1708.76 932.419 C 1716.94 949.859 1726.2 970.146 1725.92 989.928 C 1725.36 1028.33 1730.91 1066.99 1715.51 1103.35 C 1712.3 1110.93 1697.9 1135.08 1697.3 1140.81 C 1678.55 1167.8 1641.78 1190.38 1609.99 1197.52 C 1587.68 1202.53 1564.26 1201.34 1541.48 1201.3 L 1470.62 1201.21 C 1379.06 1201.14 1285.45 1200.17 1194.03 1201.35 L 1194.01 1556.78 C 1193.99 1607.96 1188.01 1647.34 1150.44 1684.23 C 1109.37 1724.56 1071.55 1728.52 1018.08 1728.13 C 967.414 1727.76 933.315 1721.62 895.914 1684.34 C 849.512 1638.08 851.617 1588.02 852.209 1528.05 L 852.24 1468.49 L 852.308 1201.25 C 761.643 1200.18 668.885 1201.19 578.072 1201.24 L 501.07 1201.27 C 488.065 1201.28 470.433 1201.81 458.004 1201.02 C 419.415 1198.57 381.262 1178.18 356.297 1149.16 C 324.932 1112.71 316.458 1073.33 317.977 1026.47 C 318.355 1014.82 317.647 1003.21 318.543 991.203 C 321.945 948.423 342.507 908.838 375.552 881.456 C 423.327 841.153 464.915 846.749 522.677 846.825 L 651.393 846.855 L 779.186 846.782 C 796.315 846.768 829.058 845.801 845.018 847.18 C 847.378 846.772 848.859 846.438 851.175 845.822 C 852.095 844.38 852.136 844.358 852.136 842.63 L 852.004 544.568 C 852.082 514.757 849.517 475.626 853.816 447.908 Z M 1055.97 1672.01 C 1073.42 1669.06 1085.22 1664.54 1099.79 1654.41 C 1148.17 1620.8 1138.21 1564.42 1138.23 1513.26 L 1138.23 1277.49 L 1138.16 1214.21 C 1138.16 1157.57 1138.53 1142.8 1203.1 1145.87 C 1215.59 1146.46 1232.14 1145.97 1244.96 1145.97 L 1476.56 1145.94 L 1544.12 1146.03 C 1576.36 1146.06 1601.33 1148.39 1629.39 1129.69 C 1651.83 1114.77 1667.33 1091.44 1672.38 1064.97 C 1675.85 1046.82 1673.28 1028.96 1674.24 1010.98 C 1678.1 964.764 1643.22 915.766 1597.98 905.013 C 1575.73 899.725 1534.89 902.144 1510.58 902.149 L 1269.33 902.13 L 1208.59 902.16 C 1156.15 902.279 1135.88 902.7 1138.2 841.524 C 1138.77 826.604 1138.25 807.978 1138.26 792.792 L 1138.24 561.578 L 1138.35 501.003 C 1138.6 466.193 1142.11 443.354 1119.31 413.438 C 1087.86 372.164 1047.76 372.229 1000.25 374.052 C 961.595 375.291 924.029 404.19 912.644 441.098 C 906.31 461.635 908.037 492.455 908.037 514.398 L 908.042 587.967 L 908.035 795.625 C 907.934 909.059 918.885 902.27 802.183 902.085 L 569.682 902.08 L 501.893 902.084 C 469.812 902.097 444.731 899.614 416.965 919.124 C 394.993 934.794 380.017 958.433 375.234 984.993 C 373.142 997.056 374.054 1007.76 373.916 1019.79 C 373.538 1052.64 372.325 1077.79 392.509 1105.95 C 402.503 1120.21 423.851 1138.06 441.354 1142.03 C 469.23 1148.36 506.16 1145.98 535.059 1145.97 L 774.472 1145.91 L 841.32 1145.83 C 881.74 1145.8 909.99 1141.9 908.196 1195.21 C 907.624 1212.2 908.095 1232.69 908.087 1249.89 L 908.166 1476.77 L 908.19 1543.28 C 908.207 1559.47 907.377 1578.13 910.094 1593.96 C 917.447 1636.79 948.19 1665.16 990.582 1672.05 L 1055.97 1672.01 Z"></path>
<path transform="translate(0,0)" style="fill: rgb(0,0,0)" stroke-linecap="round" d="M 853.816 447.908 L 854.98 718.303 L 854.992 801.214 C 854.988 809.661 856.388 844.348 852.186 849.105 C 849.132 849.619 847.728 848.957 845.018 847.18 C 847.378 846.772 848.859 846.438 851.175 845.822 C 852.095 844.38 852.136 844.358 852.136 842.63 L 852.004 544.568 C 852.082 514.757 849.517 475.626 853.816 447.908 Z"></path>
<path transform="translate(0,0)" style="fill: rgb(0,0,0)" stroke-linecap="round" d="M 990.582 1672.05 L 1055.97 1672.01 C 1048.32 1677.92 997.61 1678.06 990.582 1672.05 Z"></path>
<path transform="translate(0,0)" style="fill: rgb(0,0,0)" stroke-linecap="round" d="M 1697.46 908.161 C 1734.09 953.402 1731.54 1008.36 1728.77 1063.55 C 1727.51 1088.53 1713.03 1121.27 1697.3 1140.81 C 1697.9 1135.08 1712.3 1110.93 1715.51 1103.35 C 1730.91 1066.99 1725.36 1028.33 1725.92 989.928 C 1726.2 970.146 1716.94 949.859 1708.76 932.419 C 1705.88 926.273 1696.73 913.895 1697.46 908.161 Z"></path>
</svg>