<?xml version="1.0" encoding="UTF-8" standalone="no"?>
<!-- Generated by SVGMaker - https://svgmaker.io -->
<!-- Prompt: STYLE: Clean outline / line-art icons. Use a single consistent stroke weight throughout. Corners should be slightly rounded for a modern, approachable feel. No heavy gradients inside icons. No decorative flourishes or playful elements.

TONE: Clinical, private, and family-friendly. Icons must feel trustworthy and professional — like a medical utility tool, not a consumer wellness app.

SIZE ＆ READABILITY: Every icon must be readable and distinct at 20px to 28px. Shapes should be bold enough silhouettes to work at small sizes.

STROKE ＆ GEOMETRY: Consistent stroke weight and corner radius across all icons in the set. Prefer simple, recognisable silhouettes. Avoid overly complex detail. Use black (000000) as the only colour on a transparent background.

STATES: For status icons (confirm, warning, delete, iCloud), use stronger filled or badge variants to signal importance. All other icons remain outline-only unless noted.

EXPORT: Vector SVG with transparent background. Do not include drop shadows, outer glows, or bounding box fills.

COLOR: Output in monochrome / single foreground color so the app can tint icons programmatically.

DO NOT include: playful cartoon shapes, thick gradients, photorealistic elements, brand logos, or overly decorative styling.

App icon: A simple child-height figure, human and neutral in proportions. Could include a small upward arrow or height measurement line beside it. Represents growth tracking records. - updated by SVGMaker Editor -->
<!-- Quality: low -->
<!-- Type: generate -->
<!-- Created: 2026-06-01T14:27:25.673Z -->
<svg xmlns="http://www.w3.org/2000/svg" xmlns:xlink="http://www.w3.org/1999/xlink" version="1.1" width="1024" height="1024" viewBox="0 0 2048 2048">
<desc>Created with SVGMaker Editor 3.0.0</desc>
<defs>
</defs>
<path transform="translate(0,0)" style="fill: rgb(0,0,0)" stroke-linecap="round" d="M 797.624 386.399 C 887.251 378.224 969.892 425.089 1015.39 501.498 C 1045.43 551.954 1054.3 612.24 1040.07 669.211 C 1024.93 729.025 988.13 776.057 935.362 807.339 C 1027.35 832.408 1080.69 882.375 1130.92 961.56 C 1155.34 1002.24 1179.31 1044.16 1201.32 1086.21 C 1221.64 1125.03 1254.77 1165.02 1243.76 1210.98 C 1238.43 1232.92 1224.57 1251.83 1205.25 1263.52 C 1184.82 1275.83 1160.69 1278.56 1137.69 1272.85 C 1096.4 1262.58 1081.62 1231.37 1060.97 1198.16 C 1048.42 1177.97 1036.07 1157.66 1023.92 1137.23 C 1023.73 1173.92 1027.55 1221.16 1029.21 1258.39 L 1038.22 1480.8 L 1041.1 1546.51 C 1041.73 1560.03 1043.17 1579.3 1041.68 1592.12 C 1039.9 1607.32 1034.19 1621.8 1025.12 1634.12 C 1010.92 1653.22 989.835 1666.02 966.342 1669.8 C 941.737 1673.74 916.584 1667.52 896.654 1652.56 C 857.023 1622.97 861.054 1582.82 853.585 1538.26 C 852.256 1530.34 851.397 1522.21 850.311 1514.23 C 843.532 1464.09 836.495 1413.98 829.2 1363.91 C 828.181 1357.96 827.451 1349.24 823.274 1344.59 C 819.663 1340.32 810.316 1341.21 808.72 1346.92 C 803.915 1364.1 802.431 1383.5 800.252 1401.2 L 783.788 1530.53 C 778.643 1570.85 779.055 1617.05 747.776 1646.57 C 730.348 1663.1 706.995 1671.91 682.993 1671.01 C 658.216 1670.22 634.815 1659.43 618.125 1641.1 C 606.337 1628.28 598.818 1612.12 596.606 1594.85 C 594.266 1576.53 596.741 1549.92 597.232 1531.26 C 597.826 1508.69 599.061 1485.77 599.735 1463.23 L 610.053 1136.1 C 596.402 1157.73 583.568 1180.21 570.093 1201.97 C 560.074 1218 551.477 1234.47 538.53 1248.43 C 494.004 1296.43 412.338 1277.99 393.898 1214.72 C 380.618 1169.17 411.264 1125.79 432.43 1087.02 L 484.178 992.571 C 522.771 923.157 568.462 859.226 642.982 824.315 C 659.047 816.789 680.367 810.896 697.688 805.958 C 639.356 768.839 601.052 709.614 593.925 640.383 C 587.176 578.04 606.053 515.631 646.225 467.48 C 685.982 419.105 735.525 392.474 797.624 386.399 Z M 649.203 1366.3 L 645.172 1485.5 C 644.193 1509.45 641.986 1543.02 641.982 1566.34 C 641.566 1583.8 640.535 1597.63 653.576 1611.78 C 655.189 1613.55 656.922 1615.2 658.765 1616.73 C 680.053 1628.83 707.316 1628.69 721.574 1605.36 C 731.589 1588.98 732.504 1559.85 735.014 1540.41 L 751.418 1410.46 C 754.576 1384.48 756.717 1355.82 763.078 1330.65 C 769.615 1304.78 796.408 1290.34 822.339 1292.55 C 841.161 1294.03 857.959 1304.93 866.986 1321.51 C 876.369 1338.38 878.769 1371.2 881.567 1391.46 L 899.502 1522.3 C 902.117 1541.68 904.641 1561.09 907.474 1580.43 C 909.081 1591.4 912.62 1602.14 920.046 1610.53 C 926.956 1618.43 939.257 1625.68 950.249 1625.08 C 983.628 1623.29 995.987 1601.62 994.724 1571.69 C 993.275 1537.35 991.723 1504.18 990.561 1470.57 L 980.046 1193.23 L 976.563 1103.55 C 975.894 1087.68 974.759 1071.03 974.68 1055.25 C 975.259 1047.44 974.919 1040.79 981.233 1035.27 C 989.414 1027.1 1007.9 1026.88 1015.68 1036 C 1024.88 1046.8 1033.08 1062.24 1040.85 1074.5 L 1095.39 1162.08 C 1104.78 1177.23 1114.38 1193.39 1124.45 1208.03 C 1131.63 1218.47 1141.61 1225.57 1154.53 1227.1 C 1165 1228.33 1175.51 1225.17 1183.58 1218.38 C 1191.12 1211.96 1195.39 1202.94 1196.06 1193.07 C 1196.85 1179.88 1191.13 1167.22 1184.93 1155.93 C 1175.77 1139.24 1166.48 1122.64 1157.27 1105.99 C 1142.42 1078.98 1127.3 1052.11 1111.93 1025.4 C 1093.21 992.85 1076.9 964.692 1052.62 936.234 C 1000.36 874.976 927.974 847.866 849.924 842.069 C 768.987 836.057 668.733 850.299 607.033 906.494 C 590.009 922.195 573.086 940.075 560.379 959.638 C 517.533 1025.6 481.043 1096.9 444.274 1166.4 C 430.149 1193.09 443.853 1226.53 475.511 1227.53 C 484.169 1227.81 495.449 1223.17 501.81 1216.85 C 517.661 1198.67 529.583 1175.46 542.144 1154.65 L 591.836 1073.05 C 599.461 1060.55 613.882 1030.94 629.442 1029.33 C 659.229 1026.25 659.046 1052.34 658.163 1073.77 C 657.437 1091.39 656.784 1110.66 656.177 1128.5 L 651.916 1265.58 C 651.956 1286.23 651.184 1306.86 650.299 1327.48 C 649.831 1338.39 650.487 1356.04 649.203 1366.3 Z M 831.571 790.663 C 929.591 783.565 1003.37 698.473 996.519 600.436 C 989.663 502.398 904.755 428.404 806.701 435.016 C 708.302 441.652 633.991 526.924 640.871 625.306 C 647.751 723.687 733.207 797.787 831.571 790.663 Z"></path>
<path transform="translate(0,0)" style="fill: rgb(0,0,0)" stroke-linecap="round" d="M 649.203 1366.3 C 648.848 1364.45 648.524 1362.59 648.23 1360.73 C 646.003 1346.47 648.301 1286.48 649.724 1268.56 C 650.455 1267.57 651.186 1266.58 651.916 1265.58 C 651.956 1286.23 651.184 1306.86 650.299 1327.48 C 649.831 1338.39 650.487 1356.04 649.203 1366.3 Z"></path>
<path transform="translate(0,0)" style="fill: rgb(0,0,0)" stroke-linecap="round" d="M 658.765 1616.73 L 655.99 1616.52 C 641.15 1607.22 634.044 1581.16 639.908 1565.84 L 641.982 1566.34 C 641.566 1583.8 640.535 1597.63 653.576 1611.78 C 655.189 1613.55 656.922 1615.2 658.765 1616.73 Z"></path>
<path transform="translate(0,0)" style="fill: rgb(0,0,0)" stroke-linecap="round" d="M 1447.76 500.792 L 1398.62 550.549 C 1383.89 565.442 1359.37 599.263 1337 575.655 C 1316.5 554.014 1342.49 534.324 1357.32 519.627 L 1394.48 482.686 C 1407.22 469.987 1419.86 457.188 1432.4 444.289 C 1440.23 436.248 1447.78 428.025 1456.08 420.468 C 1478.22 400.31 1492.43 420.146 1507.34 435.569 C 1516.35 444.862 1525.43 454.07 1534.61 463.193 L 1584.44 513.089 C 1594.43 523.07 1605.29 533.191 1614.22 544.076 C 1617.37 547.912 1618.45 556.378 1617.79 561.356 C 1616.88 568.226 1613.17 574.415 1607.54 578.458 C 1597.94 585.436 1586.69 585.647 1577.6 577.624 C 1567.7 568.895 1558.4 559.274 1549.03 549.966 C 1531.33 532.447 1513.74 514.82 1496.26 497.086 C 1497.29 509.655 1496.27 529.303 1496.24 542.772 L 1496.33 634.902 L 1496.64 946.759 L 1497.44 1390.52 L 1497.7 1562.14 C 1497.71 1587.83 1497.7 1613.51 1498.01 1639.2 C 1498.18 1653.84 1490.5 1667.59 1474.51 1668.02 C 1467.35 1668.23 1460.42 1665.52 1455.31 1660.51 C 1445.62 1650.9 1447.7 1631.55 1447.87 1618.51 C 1448.35 1580.72 1447.15 1542.57 1448.03 1504.84 L 1448.06 1503.85 C 1423.2 1503.44 1398.34 1503.36 1373.48 1503.62 C 1359.57 1503.69 1344.48 1504.64 1330.92 1502.69 C 1304.75 1498.94 1304.97 1455.61 1332.63 1453.41 C 1346.05 1452.34 1359.19 1452.85 1372.56 1452.9 L 1448.02 1453.14 L 1447.89 1303.91 C 1447.88 1278.03 1447.18 1249.22 1448.18 1223.73 C 1412.78 1224.84 1373.65 1224.04 1337.97 1224.05 C 1335.81 1224.07 1333.76 1224.05 1331.62 1223.66 C 1324.94 1222.5 1319.04 1218.58 1315.38 1212.87 C 1306.5 1199.29 1311.43 1183.81 1324.78 1175.49 C 1335.62 1170.38 1372.94 1171.95 1387.11 1172.07 C 1404.86 1172.22 1430.74 1171.07 1448.15 1172.57 C 1447.34 1143.08 1447.81 1111.98 1447.81 1082.39 L 1447.96 948.109 L 1372.51 948.302 C 1363.21 948.322 1338.58 948.883 1330.41 947.391 C 1326.32 946.634 1322.53 944.719 1319.5 941.874 C 1304.86 928.135 1310.27 899.186 1331.67 896.228 C 1344.08 894.512 1358.95 895.244 1371.7 895.251 L 1447.99 895.269 C 1446.39 764.24 1449.57 631.656 1447.76 500.792 Z"></path>
<path transform="translate(0,0)" style="fill: rgb(0,0,0)" stroke-linecap="round" d="M 1324.78 1175.49 C 1335.62 1170.38 1372.94 1171.95 1387.11 1172.07 C 1404.86 1172.22 1430.74 1171.07 1448.15 1172.57 L 1447.73 1174.47 C 1442.74 1176.15 1327.83 1177.26 1324.78 1175.49 Z"></path>
<path transform="translate(0,0)" style="fill: rgb(0,0,0)" stroke-linecap="round" d="M 1337.97 1224.05 L 1334.36 1221.77 C 1338.7 1219.71 1437.87 1220.53 1447.4 1221.5 L 1448.93 1222.66 L 1448.18 1223.73 C 1412.78 1224.84 1373.65 1224.04 1337.97 1224.05 Z"></path>
</svg>