<?xml version="1.0" encoding="UTF-8" standalone="no"?>
<!-- Generated by SVGMaker - https://svgmaker.io -->
<!-- Prompt: STYLE: Clean outline / line-art icons. Use a single consistent stroke weight throughout. Corners should be slightly rounded for a modern, approachable feel. No heavy gradients inside icons. No decorative flourishes or playful elements.

TONE: Clinical, private, and family-friendly. Icons must feel trustworthy and professional — like a medical utility tool, not a consumer wellness app.

SIZE ＆ READABILITY: Every icon must be readable and distinct at 20px to 28px. Shapes should be bold enough silhouettes to work at small sizes.

STROKE ＆ GEOMETRY: Consistent stroke weight and corner radius across all icons in the set. Prefer simple, recognisable silhouettes. Avoid overly complex detail. Use black (000000) as the only colour on a transparent background.

STATES: For status icons (confirm, warning, delete, iCloud), use stronger filled or badge variants to signal importance. All other icons remain outline-only unless noted.

EXPORT: Vector SVG with transparent background. Do not include drop shadows, outer glows, or bounding box fills.

COLOR: Output in monochrome / single foreground color so the app can tint icons programmatically.

DO NOT include: playful cartoon shapes, thick gradients, photorealistic elements, brand logos, or overly decorative styling.

App icon: A medical bag or case with a cross on its face. High-severity health signal. Should look serious and clinical but not alarming or overly dramatic. Slightly filled cross treatment allowed. - updated by SVGMaker Editor -->
<!-- Quality: low -->
<!-- Type: generate -->
<!-- Created: 2026-06-01T15:05:44.431Z -->
<svg xmlns="http://www.w3.org/2000/svg" xmlns:xlink="http://www.w3.org/1999/xlink" version="1.1" width="1024" height="1024" viewBox="0 0 2048 2048">
<desc>Created with SVGMaker Editor 3.0.0</desc>
<defs>
</defs>
<path transform="translate(0,0)" style="fill: rgb(0,0,0)" stroke-linecap="round" d="M 650.411 489.032 C 649.343 482.655 649.444 437.507 649.76 429.506 C 651.058 396.676 646.71 342.856 652.754 311.993 C 656.444 293.141 663.702 275.169 674.138 259.042 C 695.301 226.635 728.422 203.912 766.274 195.831 C 792.663 190.153 850.002 192.146 880.048 192.14 L 1074.71 192.165 L 1193.15 192.144 C 1233.44 192.06 1282.42 187.689 1317.69 210.383 C 1351.81 228.436 1377.59 259.028 1389.6 295.714 C 1401.99 334.356 1397.28 383.849 1398.03 424.928 C 1398.33 441.871 1398.7 474.695 1397.7 490.954 C 1436.34 490.152 1475.24 491.142 1513.9 490.784 C 1520.12 490.726 1526.95 490.714 1533.15 491.053 C 1563.87 489.982 1595.73 491.073 1626.98 490.844 C 1698.85 490.318 1753.17 484.682 1811.67 536.655 C 1813.63 538.399 1819.84 544.297 1821.25 546.141 C 1822.78 553.37 1829.85 559.74 1834.34 565.703 C 1868.46 611.009 1868.12 648.35 1868.04 702.143 L 1868 786.497 L 1868 1075.45 L 1868 1443.99 L 1868.02 1558.64 C 1868.06 1608.14 1872.48 1645.88 1848.01 1691.37 C 1826.16 1732.02 1793.88 1756.79 1749.75 1770.91 C 1720.96 1779.96 1686.86 1776.58 1656.41 1777.09 C 1653.29 1801.61 1651.88 1821.71 1630.63 1838.27 C 1610.14 1854.24 1590.72 1852.49 1566.17 1852.5 L 1516.64 1852.49 L 1459.68 1852.45 C 1419.15 1852.46 1381.8 1855.61 1366.52 1809.36 C 1364.79 1804.11 1363.54 1781.39 1361.65 1779.54 L 1360.75 1779.6 C 1344.82 1781.28 1308.41 1780.09 1290.57 1780.07 L 1149.82 1780.07 L 688.146 1780.02 C 687.866 1801.46 681.513 1822.83 665.483 1837.68 C 657.287 1845.27 645.735 1852.52 634.466 1854.14 C 608.341 1856.57 582.585 1856.75 555.832 1855.92 C 516.085 1854.68 471.75 1859.64 432.965 1852.07 C 423.52 1850.22 411.394 1840.3 404.958 1833.45 C 390.945 1818.55 387.575 1799.62 388.418 1779.79 C 321.394 1781.49 272.126 1781.26 222.081 1729.19 C 198.077 1704.3 182.272 1672.65 176.791 1638.51 C 172.316 1610.28 174.088 1551.89 174.089 1520.65 L 174.083 1310.02 L 174.072 879.034 C 174.071 807.097 173.895 734.958 174.116 663.014 C 174.262 615.533 195.032 571.462 229.468 538.776 C 251.403 517.899 278.439 503.154 307.868 496.019 C 340.797 488.003 405.631 490.907 441.997 490.894 C 481.177 490.881 526.184 489.883 565.04 490.971 C 589.598 489.348 622.975 491.567 648.992 490.627 L 650.411 489.032 Z M 331.78 1725.95 L 783.833 1726.03 L 826.518 1726.06 L 1712.37 1726.04 C 1757.69 1717.11 1800.61 1689.27 1811.97 1640.99 C 1819.01 1611.07 1815.99 1564.69 1815.99 1532.92 L 1815.92 1369.13 C 1815.9 1341.28 1815.02 1307.39 1816.21 1279.9 C 1816.2 1276.8 1816.4 1275.32 1815.29 1272.39 C 1804.03 1271.33 1784.42 1272 1772.41 1272.04 L 1698.88 1272.15 C 1681.99 1272.17 1659.14 1273.74 1643.33 1268.34 C 1621.35 1260.31 1602.6 1238.11 1602.36 1214 C 1601.81 1159.58 1601.48 1104.6 1602.54 1050.16 C 1602.68 1043.07 1605.06 1034.75 1607.46 1028.14 C 1630.61 982.766 1671.21 990.143 1714.69 990.149 L 1815.96 990.05 L 1815.94 771.666 L 1816 702.421 C 1816 678.465 1817.82 652.045 1809.61 629.285 C 1796.76 593.666 1771.01 570.253 1737.31 554.229 C 1728.51 541.084 1674.59 542.288 1658.65 542.309 L 1581.36 542.704 L 1241.66 543.245 L 661.71 543.228 L 434.634 542.654 L 378.45 543.012 C 365.332 542.983 350.057 543.439 338.216 543.264 C 295.464 542.635 232.091 593.15 228.895 639.04 C 221.918 739.224 228.178 849.637 225.911 950.914 C 225.762 957.596 225.325 988.578 227.148 991.577 C 239.336 994.676 253.781 993.267 266.285 993.194 C 292.234 993.043 386.406 990.162 404.737 996.281 C 417.853 1000.66 429.088 1010.79 436.103 1022.57 C 439.986 1029.08 442.288 1036.11 443.26 1043.62 C 446.391 1067.81 444.282 1094.17 444.377 1118.58 C 444.481 1145.22 447.96 1201.21 441.862 1225.1 C 438.16 1239.61 428.866 1252.89 415.885 1260.55 C 409.805 1264.14 403.011 1266.24 396.06 1267.3 C 380.294 1269.72 363.544 1268.74 347.613 1268.76 L 269.039 1268.75 C 256.915 1268.73 238.94 1268.09 227.269 1268.8 C 225.264 1283.44 225.976 1309.12 225.975 1324.59 L 225.991 1420.13 L 226.061 1551.06 C 226.093 1596.42 220.579 1645.23 250.088 1682.6 C 258.868 1693.71 283.972 1719.26 299.232 1717.36 C 306.436 1719.9 311.794 1721.73 319.266 1723.35 C 321.053 1723.74 330.914 1725.62 331.78 1725.95 Z M 626.882 1795.92 C 630.159 1789.84 630.193 1786.67 631.421 1780.03 L 443.551 1779.96 C 445.173 1792.73 446.552 1799.84 461.565 1800.2 C 508.219 1801.3 555.002 1800.5 601.683 1800.59 C 610.009 1800.61 620.073 1801.01 626.882 1795.92 Z M 882.335 247.883 C 858.061 248.319 807.809 246.536 786.275 248.903 C 781.781 246.437 777.988 246.968 772.935 248.582 C 737.95 259.756 708.516 290.462 703.442 327.443 C 701.303 343.03 701.887 358.873 701.91 374.324 C 701.956 405.029 702.131 435.374 701.838 466.044 C 701.75 475.304 701.642 484.319 703.43 493.387 C 714.616 494.2 761.969 494.837 771.152 491.461 L 770.96 489.971 C 770.425 483.394 770.411 473.027 770.632 466.178 C 771.659 434.427 767.73 394.34 772.79 363.628 C 776.83 339.112 806.195 317.249 830.214 316.525 C 849.643 315.94 871.814 316.072 892.214 316.078 L 1012.33 316.118 L 1142.91 316.118 C 1166.97 316.087 1223.32 311.528 1241.2 326.273 C 1279.42 344.107 1274.15 393.622 1274.07 427.54 L 1274.03 490.796 L 1342.29 490.894 C 1341.32 457.785 1342.56 423.316 1342.06 390.113 C 1341.76 369.292 1343.75 344.278 1339.07 324.307 C 1335.53 309.555 1328.65 295.815 1318.95 284.148 C 1300.39 261.374 1277.24 250.787 1248.6 247.764 C 1244.2 248.37 1229.86 248.149 1225.04 248.133 L 1180.54 248.056 L 1024.33 248.108 C 977.738 247.25 928.547 249.378 882.335 247.883 Z M 1591.12 1800.58 C 1602.02 1796.91 1602.95 1789.92 1604.78 1779.83 C 1542.9 1780.97 1477.79 1780.02 1415.67 1779.89 C 1416.32 1790.76 1415.88 1793.28 1425.21 1799.98 C 1475.67 1802.9 1539.43 1799.89 1591.12 1800.58 Z M 228.907 1216.62 C 238.834 1214.71 250.328 1215.85 260.484 1215.85 C 279.089 1215.86 377.262 1218.55 385.033 1213.81 C 388.757 1211.54 389.902 1206.61 391.065 1202.75 C 392.491 1197.73 393.244 1192.76 393.59 1187.57 C 394.694 1171.01 396.087 1057.54 391.407 1049.84 C 389.876 1047.32 386.354 1044.98 384.053 1043.15 C 355.849 1041.44 321.37 1042.6 292.778 1042.4 C 276.973 1042.29 242.14 1041.64 227.355 1043.26 C 225.476 1056.64 224.726 1208.84 227.301 1217.43 L 228.342 1217.79 L 228.907 1216.62 Z M 1666.44 1046.12 C 1663.58 1048.16 1658.96 1051.19 1658.81 1055.12 C 1656.99 1102.56 1658.25 1150.39 1658.2 1197.89 C 1658.2 1202.33 1659.79 1210.16 1661.79 1214 C 1670.44 1217.61 1791.33 1215.97 1810.25 1215.96 L 1814.58 1215.72 C 1815 1215.2 1815.42 1214.69 1815.84 1214.18 C 1816.43 1165.51 1815.42 1092.1 1816.06 1045.97 L 1718.27 1045.86 C 1704.53 1045.85 1679.57 1045.13 1666.44 1046.12 Z M 835.164 372.099 C 831.273 374.597 827.145 377.169 826.591 382.177 C 825.317 393.697 825.816 407.105 825.844 418.816 L 826.072 490.972 L 1211.25 490.77 C 1215 490.772 1215.02 491.389 1217.74 489.7 C 1218.48 485.25 1219.11 470.505 1218.33 462.68 C 1216.38 443.151 1221.85 392.009 1214.9 375.891 C 1212.52 370.356 1171.5 371.915 1161.89 371.913 L 1081.24 371.913 L 923.578 371.903 C 894.899 371.889 863.572 371.274 835.164 372.099 Z"></path>
<path transform="translate(0,0)" style="fill: rgb(0,0,0)" stroke-linecap="round" d="M 1317.69 210.383 C 1351.81 228.436 1377.59 259.028 1389.6 295.714 C 1401.99 334.356 1397.28 383.849 1398.03 424.928 C 1398.33 441.871 1398.7 474.695 1397.7 490.954 C 1436.34 490.152 1475.24 491.142 1513.9 490.784 C 1520.12 490.726 1526.95 490.714 1533.15 491.053 C 1527.04 494.52 1407.29 494.684 1394.76 493.168 C 1393.97 484.499 1394.35 470.192 1394.32 461.13 C 1394.22 436.387 1394.26 411.643 1394.43 386.901 C 1394.44 337.484 1396.34 298.545 1365.47 255.82 C 1357.39 244.879 1347.89 235.595 1337.32 227.131 C 1331.31 222.318 1322.11 216.305 1317.69 210.383 Z"></path>
<path transform="translate(0,0)" style="fill: rgb(0,0,0)" stroke-linecap="round" d="M 650.411 489.032 L 652.283 489.995 L 650.734 492.595 L 652.56 492.277 C 647.369 495.374 570.423 494.974 565.04 490.971 C 589.598 489.348 622.975 491.567 648.992 490.627 L 650.411 489.032 Z"></path>
<path transform="translate(0,0)" style="fill: rgb(0,0,0)" stroke-linecap="round" d="M 913.861 769.623 C 937.659 757.279 1081.17 766.212 1116.89 765.352 C 1120.75 765.259 1133.33 770.806 1137.04 773.534 L 1134.8 775.43 C 1155.93 790.683 1161.66 805.695 1161.81 831.198 C 1161.9 847.307 1161.5 864.844 1162.19 880.898 C 1165.78 875.803 1163.03 831.006 1164.78 819.735 C 1166.08 838.32 1164.02 990.604 1165.9 995.264 C 1175.55 994.799 1184.52 994.902 1194.16 994.994 L 1335.98 994.899 C 1340.81 998.767 1350.76 1000.95 1356.6 1003 C 1370.88 1008 1387.36 1028.95 1388.52 1044.35 C 1392.28 1093.83 1388.92 1147.18 1390.16 1196.81 C 1390.73 1203.55 1390.99 1218.22 1392.15 1223.51 C 1390.4 1246.09 1368.61 1266.17 1346.98 1270.48 C 1338.42 1272.19 1329.73 1272.08 1321.04 1272.14 C 1269.16 1272.53 1217.1 1271.42 1165.23 1272.22 C 1166.39 1309.75 1166.03 1349.58 1165.58 1387.23 C 1164.98 1437.54 1178.29 1499.71 1110.82 1510 L 990.942 1510.24 C 982.929 1510.25 938.561 1510.84 933.377 1509.19 C 910.336 1507.59 887.496 1488.71 882.981 1465.86 C 880.726 1454.83 880.878 1443.42 880.973 1432.19 C 881.422 1378.85 880.236 1325.29 881.255 1271.98 L 765.419 1272.07 C 749.017 1272.07 713.479 1273.1 698.575 1270.16 C 683.287 1267.1 669.905 1257.94 661.519 1244.8 C 647.738 1223.23 652.133 1185.22 652.101 1159.57 L 652.008 1094.86 C 651.983 1075.49 650.776 1055.59 654.945 1036.82 C 672.736 985.892 722.271 994.791 765.741 994.814 L 881.139 994.917 L 881.012 887.529 C 881.005 870.203 881.242 852.001 881.02 834.745 C 880.621 803.707 885.275 785.349 913.861 769.623 Z M 760.301 1052.03 C 755.326 1052.03 749.562 1051.69 744.602 1052.03 C 733.374 1052.79 710.79 1047.05 710.191 1064.31 C 709.485 1084.61 709.918 1104.78 709.964 1124.92 L 710.052 1175.09 C 709.983 1188.91 706.329 1205.25 716.294 1215.69 C 779.198 1217.04 843.774 1214.61 906.761 1216.75 C 918.748 1217.16 934.973 1231.72 936.727 1243.78 C 938.853 1258.06 938.028 1277.09 937.996 1291.63 L 937.862 1388.33 C 937.845 1406.13 935.902 1432.63 940.531 1449.93 C 941.606 1453.94 951.868 1453.65 955.307 1453.98 C 983.652 1453.9 1012.89 1454.34 1041.2 1454.09 C 1056.96 1453.96 1087.88 1455.16 1102.09 1453.21 C 1103.48 1451.54 1106.73 1448.47 1107.06 1446.49 C 1108.98 1435.03 1108.3 1422.07 1108.29 1410.44 L 1108.09 1304.24 C 1108.09 1285.87 1105.96 1251.97 1112.65 1236.1 C 1117.64 1227.22 1125.26 1220.72 1135.08 1217.73 C 1148.55 1213.62 1170.13 1215.92 1184.6 1215.97 C 1202.75 1216.02 1323.7 1218.44 1330.58 1213.98 C 1334.13 1211.68 1334.57 1206.39 1335.26 1202.64 C 1333.88 1182.74 1339.06 1061.8 1331.07 1054.47 C 1326.01 1049.82 1294.22 1052.11 1285.4 1052.09 C 1274.21 1052.15 1263.02 1052.14 1251.83 1052.08 L 1151.37 1052.05 C 1138.56 1051.81 1128.47 1049.26 1118.73 1040.27 C 1104.44 1027.08 1108.44 1002.31 1108.45 984.16 L 1108.44 884.074 C 1108.48 866.644 1109.23 846.699 1107.49 829.405 C 1107.15 825.97 1104.38 822.334 1102.36 819.526 C 1091.69 820.622 1072.75 820.024 1061.61 820.01 L 984.273 819.833 C 974.322 819.813 948.384 818.153 941.411 823.067 C 939.175 826.281 938.239 827.92 938.047 831.891 C 937.271 847.881 938.056 863.905 938.059 879.911 L 938.055 978.402 C 938.066 987.664 937.588 998.634 938.079 1007.75 C 940.935 1060.72 893.345 1052.04 855.086 1052.08 L 760.301 1052.03 Z"></path>
<path transform="translate(0,0)" style="fill: rgb(0,0,0)" stroke-linecap="round" d="M 881.255 1271.98 L 765.419 1272.07 C 749.017 1272.07 713.479 1273.1 698.575 1270.16 C 683.287 1267.1 669.905 1257.94 661.519 1244.8 C 647.738 1223.23 652.133 1185.22 652.101 1159.57 L 652.008 1094.86 C 651.983 1075.49 650.776 1055.59 654.945 1036.82 C 658.159 1042.79 655.446 1063.41 655.287 1071.79 C 654.98 1087.95 655.332 1104.08 655.625 1120.26 C 656.587 1146.11 652.042 1211.03 659.211 1231.83 C 664.234 1246.54 675.341 1258.38 689.7 1264.32 C 709.988 1272.86 853.53 1268.65 883.201 1268.59 L 883.369 1270.06 C 884.911 1284.17 884.084 1309.04 884.043 1324.04 L 884.043 1413.15 C 884.071 1441.25 879.884 1471.96 902.577 1492.42 C 910.439 1499.5 930.415 1504.6 933.377 1509.19 C 910.336 1507.59 887.496 1488.71 882.981 1465.86 C 880.726 1454.83 880.878 1443.42 880.973 1432.19 C 881.422 1378.85 880.236 1325.29 881.255 1271.98 Z"></path>
<path transform="translate(0,0)" style="fill: rgb(0,0,0)" stroke-linecap="round" d="M 1390.16 1196.81 C 1390.73 1203.55 1390.99 1218.22 1392.15 1223.51 C 1390.4 1246.09 1368.61 1266.17 1346.98 1270.48 C 1338.42 1272.19 1329.73 1272.08 1321.04 1272.14 C 1269.16 1272.53 1217.1 1271.42 1165.23 1272.22 C 1166.39 1309.75 1166.03 1349.58 1165.58 1387.23 C 1164.98 1437.54 1178.29 1499.71 1110.82 1510 C 1116.56 1503.34 1134.57 1500.9 1144.54 1491.43 C 1151.79 1484.55 1157.03 1476.48 1159.45 1466.75 C 1163.52 1450.46 1161.9 1432.68 1162.12 1416 C 1162.69 1371.12 1160.79 1326.12 1161.82 1281.29 C 1161.88 1278.67 1161.84 1272.8 1163.79 1270.78 C 1169.48 1264.87 1321.39 1272.77 1348.14 1266.55 C 1357.81 1264.3 1366.58 1259.65 1373.63 1252.62 C 1389.73 1236.54 1389.96 1217.91 1390.16 1196.81 Z"></path>
<path transform="translate(0,0)" style="fill: rgb(0,0,0)" stroke-linecap="round" d="M 913.861 769.623 C 937.659 757.279 1081.17 766.212 1116.89 765.352 C 1120.75 765.259 1133.33 770.806 1137.04 773.534 L 1134.8 775.43 C 1118.27 765.805 1096.16 767.997 1077.51 767.954 C 1032.34 767.918 987.153 767.88 941.986 768.031 C 932.746 768.062 922.587 769.997 913.861 769.623 Z"></path>
<path transform="translate(0,0)" style="fill: rgb(0,0,0)" stroke-linecap="round" d="M 1164.78 819.735 C 1166.08 838.32 1164.02 990.604 1165.9 995.264 L 1162.99 998.125 C 1161.95 993.156 1162 987.79 1162.12 982.714 C 1162.93 948.836 1161.43 914.735 1162.19 880.898 C 1165.78 875.803 1163.03 831.006 1164.78 819.735 Z"></path>
<path transform="translate(0,0)" style="fill: rgb(0,0,0)" stroke-linecap="round" d="M 1165.9 995.264 C 1175.55 994.799 1184.52 994.902 1194.16 994.994 C 1188.64 999.843 1171.13 998.175 1162.99 998.125 L 1165.9 995.264 Z"></path>
<path transform="translate(0,0)" style="fill: rgb(0,0,0)" stroke-linecap="round" d="M 756.646 1049.04 C 779.929 1047.77 803.614 1049.91 826.904 1050.29 C 842.048 1050.53 857.411 1049.41 872.591 1049.17 C 884.872 1048.97 900.526 1050.42 912.099 1046.32 C 920.462 1043.35 928.766 1037.62 931.985 1029.05 C 937.116 1015.38 934.412 995.729 934.424 981.159 C 934.442 960.62 932.298 832.287 936.564 823.946 C 937.518 822.08 937.636 821.911 939.66 821.173 L 941.411 823.067 C 939.175 826.281 938.239 827.92 938.047 831.891 C 937.271 847.881 938.056 863.905 938.059 879.911 L 938.055 978.402 C 938.066 987.664 937.588 998.634 938.079 1007.75 C 940.935 1060.72 893.345 1052.04 855.086 1052.08 L 760.301 1052.03 L 761.336 1050.63 L 756.646 1049.04 Z"></path>
<path transform="translate(0,0)" style="fill: rgb(0,0,0)" stroke-linecap="round" d="M 1102.36 819.526 C 1110.01 819.556 1111.4 829.779 1111.69 835.915 C 1112.47 852.238 1112.1 868.814 1112.04 885.178 L 1111.94 970.576 C 1111.89 987.119 1109.59 1017.93 1116.49 1032.63 C 1123.06 1046.64 1146.74 1046.51 1151.37 1052.05 C 1138.56 1051.81 1128.47 1049.26 1118.73 1040.27 C 1104.44 1027.08 1108.44 1002.31 1108.45 984.16 L 1108.44 884.074 C 1108.48 866.644 1109.23 846.699 1107.49 829.405 C 1107.15 825.97 1104.38 822.334 1102.36 819.526 Z"></path>
<path transform="translate(0,0)" style="fill: rgb(0,0,0)" stroke-linecap="round" d="M 1112.65 1236.1 C 1113.25 1244 1112.19 1251.86 1112.1 1259.79 C 1111.46 1318.55 1112.44 1377.34 1111.63 1436.09 C 1111.52 1443.56 1111.29 1452.4 1102.09 1453.21 C 1103.48 1451.54 1106.73 1448.47 1107.06 1446.49 C 1108.98 1435.03 1108.3 1422.07 1108.29 1410.44 L 1108.09 1304.24 C 1108.09 1285.87 1105.96 1251.97 1112.65 1236.1 Z"></path>
<path transform="translate(0,0)" style="fill: rgb(0,0,0)" stroke-linecap="round" d="M 716.294 1215.69 C 713.886 1215.71 714.748 1215.93 712.603 1215.11 C 710.528 1214.31 709.477 1212.92 708.664 1210.83 C 704.056 1199.01 707.074 1133.25 707.175 1116.5 C 707.269 1100.8 706.035 1084.92 706.967 1069.25 C 707.207 1065.2 707.573 1057.48 709.806 1054.15 C 716.007 1044.92 746.214 1049.15 756.646 1049.04 L 761.336 1050.63 L 760.301 1052.03 C 755.326 1052.03 749.562 1051.69 744.602 1052.03 C 733.374 1052.79 710.79 1047.05 710.191 1064.31 C 709.485 1084.61 709.918 1104.78 709.964 1124.92 L 710.052 1175.09 C 709.983 1188.91 706.329 1205.25 716.294 1215.69 Z"></path>
<path transform="translate(0,0)" style="fill: rgb(0,0,0)" stroke-linecap="round" d="M 1288.05 1049.01 C 1300.8 1048.96 1316.67 1048.47 1329.14 1049.13 C 1331.56 1051.32 1334.54 1053.87 1336.68 1056.24 C 1338.25 1066.07 1338.18 1098.6 1337.88 1109.5 C 1337.2 1134.33 1339.11 1178.54 1335.26 1202.64 C 1333.88 1182.74 1339.06 1061.8 1331.07 1054.47 C 1326.01 1049.82 1294.22 1052.11 1285.4 1052.09 L 1288.05 1049.01 Z"></path>
<path transform="translate(0,0)" style="fill: rgb(0,0,0)" stroke-linecap="round" d="M 1251.83 1052.08 C 1264.02 1047.84 1275.15 1048.9 1288.05 1049.01 L 1285.4 1052.09 C 1274.21 1052.15 1263.02 1052.14 1251.83 1052.08 Z"></path>
<path transform="translate(0,0)" style="fill: rgb(0,0,0)" stroke-linecap="round" d="M 1335.98 994.899 C 1351.36 995.947 1366.92 1002.83 1377.3 1014.36 C 1384.86 1022.84 1389.96 1033.24 1392.05 1044.41 C 1394.03 1054.91 1393.35 1071.72 1393.31 1082.81 L 1393.15 1138.46 C 1393.12 1164.83 1393.79 1191.64 1393.07 1217.97 C 1393.02 1219.78 1392.56 1221.75 1392.15 1223.51 C 1390.99 1218.22 1390.73 1203.55 1390.16 1196.81 C 1388.92 1147.18 1392.28 1093.83 1388.52 1044.35 C 1387.36 1028.95 1370.88 1008 1356.6 1003 C 1350.76 1000.95 1340.81 998.767 1335.98 994.899 Z"></path>
<path transform="translate(0,0)" style="fill: rgb(0,0,0)" stroke-linecap="round" d="M 1137.04 773.534 C 1151.05 781.022 1166.37 803.705 1164.78 819.735 C 1163.03 831.006 1165.78 875.803 1162.19 880.898 C 1161.5 864.844 1161.9 847.307 1161.81 831.198 C 1161.66 805.695 1155.93 790.683 1134.8 775.43 L 1137.04 773.534 Z"></path>
<path transform="translate(0,0)" style="fill: rgb(0,0,0)" stroke-linecap="round" d="M 834.906 369.097 C 913.635 367.315 997.709 369.011 1076.92 368.928 L 1157.41 368.86 C 1174.51 368.858 1196.89 367.868 1213.26 371.13 C 1214.23 371.846 1214.9 372.291 1215.76 373.204 C 1225.32 383.356 1221.98 474.689 1220.23 492.884 L 1205.89 493.546 C 1190.79 494.669 1170.51 493.888 1154.98 493.741 L 1064.19 492.986 L 897 493.267 C 872.092 493.177 848.543 494.428 823.041 493.645 C 823.155 475.447 819.94 390.023 824.68 377.682 C 826.444 373.09 830.762 371.073 834.906 369.097 Z M 826.072 490.972 L 1211.25 490.77 C 1215 490.772 1215.02 491.389 1217.74 489.7 C 1218.48 485.25 1219.11 470.505 1218.33 462.68 C 1216.38 443.151 1221.85 392.009 1214.9 375.891 C 1212.52 370.356 1171.5 371.915 1161.89 371.913 L 1081.24 371.913 L 923.578 371.903 C 894.899 371.889 863.572 371.274 835.164 372.099 C 831.273 374.597 827.145 377.169 826.591 382.177 C 825.317 393.697 825.816 407.105 825.844 418.816 L 826.072 490.972 Z"></path>
<path transform="translate(0,0)" style="fill: rgb(0,0,0)" stroke-linecap="round" d="M 227.269 1268.8 C 238.94 1268.09 256.915 1268.73 269.039 1268.75 L 347.613 1268.76 C 363.544 1268.74 380.294 1269.72 396.06 1267.3 C 403.011 1266.24 409.805 1264.14 415.885 1260.55 C 428.866 1252.89 438.16 1239.61 441.862 1225.1 C 447.96 1201.21 444.481 1145.22 444.377 1118.58 C 444.282 1094.17 446.391 1067.81 443.26 1043.62 C 442.288 1036.11 439.986 1029.08 436.103 1022.57 C 429.088 1010.79 417.853 1000.66 404.737 996.281 C 386.406 990.162 292.234 993.043 266.285 993.194 C 253.781 993.267 239.336 994.676 227.148 991.577 C 225.325 988.578 225.762 957.596 225.911 950.914 C 228.178 849.637 221.918 739.224 228.895 639.04 C 232.091 593.15 295.464 542.635 338.216 543.264 C 350.057 543.439 365.332 542.983 378.45 543.012 L 434.634 542.654 L 661.71 543.228 L 1241.66 543.245 L 1581.36 542.704 L 1658.65 542.309 C 1674.59 542.288 1728.51 541.084 1737.31 554.229 C 1725.03 550.216 1711.4 545.97 1698.41 545.601 C 1673.86 544.902 1648.75 545.154 1624.18 545.152 L 1490.32 545.149 L 1074.45 545.158 L 590.185 545.165 L 432.11 545.135 C 403.531 545.127 374.671 544.919 346.112 545.423 C 328.868 545.556 311.733 550.537 296.454 558.21 C 270.114 571.439 243.804 598.512 235.32 627.273 C 226.818 656.095 229.223 694.272 229.267 724.684 L 229.293 809.951 C 229.301 869.525 228.583 930.742 229.458 990.136 L 333.733 990.029 C 351.451 990.02 385.39 988.872 400.892 992.429 C 411.637 994.948 421.465 1000.42 429.27 1008.22 C 437.428 1016.29 443.157 1026.49 445.804 1037.66 C 449.383 1053.42 448.026 1095.15 447.954 1113.85 L 448.127 1203.6 C 448.019 1223.85 443.366 1239.5 428.929 1254.2 C 409.174 1274.31 386.789 1271.94 361.19 1272.11 C 317.438 1272.4 273.572 1271.56 229.877 1272.08 C 228.476 1348.55 229.805 1428.06 229.842 1504.73 L 229.887 1578.34 C 229.908 1596.92 228.932 1617.95 232.533 1635.99 C 236.639 1656.73 246.692 1675.84 261.466 1690.97 C 273.906 1703.86 283.465 1709.74 299.232 1717.36 C 283.972 1719.26 258.868 1693.71 250.088 1682.6 C 220.579 1645.23 226.093 1596.42 226.061 1551.06 L 225.991 1420.13 L 225.975 1324.59 C 225.976 1309.12 225.264 1283.44 227.269 1268.8 Z"></path>
<path transform="translate(0,0)" style="fill: rgb(0,0,0)" stroke-linecap="round" d="M 441.21 1777.17 C 502.344 1775.78 570.902 1776.38 632.229 1777.12 C 632.277 1788.1 633.645 1792.6 626.229 1800.44 C 620.658 1802.96 612.817 1803.85 606.59 1803.9 C 558.974 1804.26 510.996 1805.05 463.417 1803.65 C 444.892 1803.1 440.782 1794.59 441.21 1777.17 Z M 626.882 1795.92 C 630.159 1789.84 630.193 1786.67 631.421 1780.03 L 443.551 1779.96 C 445.173 1792.73 446.552 1799.84 461.565 1800.2 C 508.219 1801.3 555.002 1800.5 601.683 1800.59 C 610.009 1800.61 620.073 1801.01 626.882 1795.92 Z"></path>
<path transform="translate(0,0)" style="fill: rgb(0,0,0)" stroke-linecap="round" d="M 826.518 1726.06 L 1712.37 1726.04 C 1708.52 1728.66 1706.28 1729.02 1701.53 1729.22 C 1671.46 1730.52 1640.67 1729.97 1610.57 1729.95 L 1465.65 1730.22 L 1042.33 1730.26 L 896.981 1730.29 C 876.44 1730.31 851.26 1729.51 831.057 1730.14 C 829.401 1727.75 828.978 1727.74 826.518 1726.06 Z"></path>
<path transform="translate(0,0)" style="fill: rgb(0,0,0)" stroke-linecap="round" d="M 331.78 1725.95 L 783.833 1726.03 C 780.147 1727.18 779.236 1727.18 776.635 1730.11 L 493.301 1730.14 L 401.779 1730.12 C 388.503 1730.11 339.57 1731.9 331.78 1725.95 Z"></path>
<path transform="translate(0,0)" style="fill: rgb(0,0,0)" stroke-linecap="round" d="M 1248.6 247.764 C 1253.91 244.637 1261.82 245.646 1267.51 247.461 C 1295.5 256.394 1317.7 271.895 1332.12 297.286 C 1337.59 306.852 1341.26 317.34 1342.95 328.229 C 1345.18 342.871 1345.43 386.188 1345.22 402.833 C 1344.9 428.868 1346.66 468.44 1344.63 493.707 C 1324.27 494.063 1291.03 494.927 1271.13 493.532 C 1270.02 471.028 1270.77 449.073 1270.52 426.403 C 1270.28 404.575 1272.48 382.533 1266.65 361.276 C 1262.62 346.576 1243.45 333.351 1241.2 326.273 C 1279.42 344.107 1274.15 393.622 1274.07 427.54 L 1274.03 490.796 L 1342.29 490.894 C 1341.32 457.785 1342.56 423.316 1342.06 390.113 C 1341.76 369.292 1343.75 344.278 1339.07 324.307 C 1335.53 309.555 1328.65 295.815 1318.95 284.148 C 1300.39 261.374 1277.24 250.787 1248.6 247.764 Z"></path>
<path transform="translate(0,0)" style="fill: rgb(0,0,0)" stroke-linecap="round" d="M 227.355 1043.26 C 242.14 1041.64 276.973 1042.29 292.778 1042.4 C 321.37 1042.6 355.849 1041.44 384.053 1043.15 C 386.354 1044.98 389.876 1047.32 391.407 1049.84 C 396.087 1057.54 394.694 1171.01 393.59 1187.57 C 393.244 1192.76 392.491 1197.73 391.065 1202.75 C 391.082 1154.82 392.133 1102.57 390.845 1055.04 C 388.531 1051.73 385.586 1046.6 381.63 1046.34 C 367.018 1045.37 348.831 1045.83 334.399 1045.88 L 229.628 1046.07 L 229.54 1163.2 C 229.555 1171.72 230.118 1210.84 228.907 1216.62 L 228.342 1217.79 L 227.301 1217.43 C 224.726 1208.84 225.476 1056.64 227.355 1043.26 Z"></path>
<path transform="translate(0,0)" style="fill: rgb(0,0,0)" stroke-linecap="round" d="M 1607.46 1028.14 C 1607.94 1034.76 1606.61 1038.93 1606.05 1045.22 C 1602.15 1088.79 1605.06 1132.21 1605.1 1175.87 C 1605.12 1204.18 1601.57 1231.58 1624.3 1252.73 C 1631.17 1259.16 1639.51 1263.81 1648.59 1266.28 C 1663.83 1270.28 1694.49 1269.07 1711.59 1269.01 L 1780.83 1268.8 C 1789.38 1268.75 1813.83 1265.65 1818.03 1272.63 C 1817.72 1276.23 1817.93 1276.65 1816.21 1279.9 C 1816.2 1276.8 1816.4 1275.32 1815.29 1272.39 C 1804.03 1271.33 1784.42 1272 1772.41 1272.04 L 1698.88 1272.15 C 1681.99 1272.17 1659.14 1273.74 1643.33 1268.34 C 1621.35 1260.31 1602.6 1238.11 1602.36 1214 C 1601.81 1159.58 1601.48 1104.6 1602.54 1050.16 C 1602.68 1043.07 1605.06 1034.75 1607.46 1028.14 Z"></path>
<path transform="translate(0,0)" style="fill: rgb(0,0,0)" stroke-linecap="round" d="M 1413.18 1777.18 C 1476.22 1775.83 1539.98 1777.43 1603.08 1776.91 C 1603.71 1777.28 1604.33 1777.65 1604.96 1778.02 L 1604.78 1779.83 C 1542.9 1780.97 1477.79 1780.02 1415.67 1779.89 C 1416.32 1790.76 1415.88 1793.28 1425.21 1799.98 C 1475.67 1802.9 1539.43 1799.89 1591.12 1800.58 C 1586.78 1803.3 1581.69 1803.98 1576.39 1803.97 C 1526.91 1803.87 1476.51 1805.61 1427.17 1803.12 C 1413.35 1802.42 1412.94 1788.04 1413.18 1777.18 Z"></path>
<path transform="translate(0,0)" style="fill: rgb(0,0,0)" stroke-linecap="round" d="M 703.43 493.387 C 701.642 484.319 701.75 475.304 701.838 466.044 C 702.131 435.374 701.956 405.029 701.91 374.324 C 701.887 358.873 701.303 343.03 703.442 327.443 C 708.516 290.462 737.95 259.756 772.935 248.582 C 777.988 246.968 781.781 246.437 786.275 248.903 C 759.516 254.393 736.856 266.929 721.412 290.133 C 714.377 300.725 709.485 312.594 707.013 325.068 C 704.254 339.688 705.098 369.17 705.12 385.134 C 705.358 420.375 705.321 455.616 705.011 490.856 C 714.471 490.873 766.448 491.79 770.96 489.971 L 771.152 491.461 C 761.969 494.837 714.616 494.2 703.43 493.387 Z"></path>
<path transform="translate(0,0)" style="fill: rgb(0,0,0)" stroke-linecap="round" d="M 882.335 247.883 C 885.035 245.778 893.185 246.453 897.804 246.298 C 893.567 246.201 882.234 246.493 879.272 245.192 C 886.306 244.267 896.571 244.625 903.986 244.808 C 941.168 245.724 978.278 243.892 1015.45 244.577 C 1020.02 244.662 1021.37 244.616 1024.33 248.108 C 977.738 247.25 928.547 249.378 882.335 247.883 Z"></path>
<path transform="translate(0,0)" style="fill: rgb(0,0,0)" stroke-linecap="round" d="M 783.833 1726.03 L 826.518 1726.06 C 828.978 1727.74 829.401 1727.75 831.057 1730.14 C 813.22 1729.91 794.043 1730.76 776.635 1730.11 C 779.236 1727.18 780.147 1727.18 783.833 1726.03 Z"></path>
<path transform="translate(0,0)" style="fill: rgb(0,0,0)" stroke-linecap="round" d="M 1821.25 546.141 C 1841.07 564.535 1861.31 599.767 1866.77 626.199 C 1874.24 662.313 1871.84 706.356 1871.77 743.506 L 1871.81 874.343 L 1871.81 1296.28 L 1871.88 1517.87 L 1871.94 1581.89 C 1871.99 1638.7 1867.88 1682.47 1826.61 1726.68 C 1797.63 1757.72 1757.89 1777.55 1715.05 1779.94 C 1697.31 1780.57 1676.15 1780.05 1658.12 1779.99 C 1658.1 1801.72 1654.69 1819.51 1638.78 1835.52 C 1615.66 1858.77 1587.86 1856.23 1557.81 1856 C 1515.07 1855.68 1472.4 1855.95 1429.68 1856.07 C 1410.08 1856.12 1391.58 1850.23 1377.72 1835.96 C 1364.96 1822.92 1356.96 1797.47 1360.75 1779.6 L 1361.65 1779.54 C 1363.54 1781.39 1364.79 1804.11 1366.52 1809.36 C 1381.8 1855.61 1419.15 1852.46 1459.68 1852.45 L 1516.64 1852.49 L 1566.17 1852.5 C 1590.72 1852.49 1610.14 1854.24 1630.63 1838.27 C 1651.88 1821.71 1653.29 1801.61 1656.41 1777.09 C 1686.86 1776.58 1720.96 1779.96 1749.75 1770.91 C 1793.88 1756.79 1826.16 1732.02 1848.01 1691.37 C 1872.48 1645.88 1868.06 1608.14 1868.02 1558.64 L 1868 1443.99 L 1868 1075.45 L 1868 786.497 L 1868.04 702.143 C 1868.12 648.35 1868.46 611.009 1834.34 565.703 C 1829.85 559.74 1822.78 553.37 1821.25 546.141 Z"></path>
</svg>