<?xml version="1.0" encoding="UTF-8" standalone="no"?>
<!-- Generated by SVGMaker - https://svgmaker.io -->
<!-- Prompt: STYLE: Clean outline / line-art icons. Use a single consistent stroke weight throughout. Corners should be slightly rounded for a modern, approachable feel. No heavy gradients inside icons. No decorative flourishes or playful elements.

TONE: Clinical, private, and family-friendly. Icons must feel trustworthy and professional — like a medical utility tool, not a consumer wellness app.

SIZE ＆ READABILITY: Every icon must be readable and distinct at 20px to 28px. Shapes should be bold enough silhouettes to work at small sizes.

STROKE ＆ GEOMETRY: Consistent stroke weight and corner radius across all icons in the set. Prefer simple, recognisable silhouettes. Avoid overly complex detail. Use black (000000) as the only colour on a transparent background.

STATES: For status icons (confirm, warning, delete, iCloud), use stronger filled or badge variants to signal importance. All other icons remain outline-only unless noted.

EXPORT: Vector SVG with transparent background. Do not include drop shadows, outer glows, or bounding box fills.

COLOR: Output in monochrome / single foreground color so the app can tint icons programmatically.

DO NOT include: playful cartoon shapes, thick gradients, photorealistic elements, brand logos, or overly decorative styling.

App icon: A stethoscope with its round chest piece at the bottom and the earpieces looping upward. Clean silhouette, minimal detail. Represents doctor visits and clinical consultations. - updated by SVGMaker Editor -->
<!-- Quality: low -->
<!-- Type: generate -->
<!-- Created: 2026-06-01T14:22:49.092Z -->
<svg xmlns="http://www.w3.org/2000/svg" xmlns:xlink="http://www.w3.org/1999/xlink" version="1.1" width="1024" height="1024" viewBox="0 0 2048 2048">
<desc>Created with SVGMaker Editor 3.0.0</desc>
<defs>
</defs>
<path transform="translate(0,0)" style="fill: rgb(0,0,0)" stroke-linecap="round" d="M 832.136 165.386 C 854.847 160.962 898.669 177.323 922.697 180.589 C 964.258 186.237 995.339 202.824 1002.45 247.204 C 1014.27 248.608 1025.17 252.087 1036 256.983 C 1065.15 270.034 1087.83 294.269 1098.92 324.227 C 1112.32 360.384 1112.03 404.014 1112.42 442.312 C 1114.01 528.801 1107.41 615.246 1092.71 700.492 C 1089.77 717.517 1082.68 755.438 1075.68 770.894 C 1087.85 778.782 1095.91 789.99 1099.58 803.983 C 1111.56 849.704 1060.85 962.84 1036.24 1004.04 C 981.032 1096.47 895.262 1167.55 789.978 1193.98 C 792.333 1233.5 792.801 1271.48 796.705 1311.13 C 818.67 1534.13 927.789 1768.47 1185.02 1770.03 C 1457.7 1771.68 1520.4 1491.02 1529.78 1272.96 C 1531.08 1242.69 1530.17 1211.54 1530.07 1181.34 C 1424.68 1168.42 1341.54 1092.28 1329.37 985.485 C 1314.51 854.967 1398.87 741.957 1530.7 727.294 C 1592.43 720.7 1654.26 738.759 1702.74 777.54 C 1750.4 816.143 1779.99 867.979 1786.39 928.958 C 1792.77 989.763 1776.16 1053.58 1736.83 1100.91 C 1707.11 1136.67 1663.58 1164.38 1618.3 1175.56 C 1603.36 1179.26 1589.28 1180.63 1574.11 1182.14 C 1574.02 1214.33 1575.04 1243.71 1573.64 1276.45 C 1568.56 1394.44 1547.69 1527.69 1490.48 1632.41 C 1440.79 1723.36 1335.05 1828.73 1233.71 1858.26 C 1207.67 1866.86 1177.86 1870.81 1150.3 1871.92 C 1037.66 1876.46 931.827 1827.74 850.406 1751.56 C 710.3 1620.48 678.091 1388.45 674.03 1204.82 C 621.255 1200.35 577.568 1189.93 528.109 1166.51 C 423.708 1117.08 335.059 1022.11 291.738 915 C 281.621 889.984 282.992 868.668 294.464 844.768 C 293.487 842.617 292.534 840.455 291.605 838.283 C 251.058 742.806 154.959 478.147 193.952 382.666 C 203.8 358.551 221.948 338.297 246.066 328.112 C 237.677 262.92 303.013 243.567 349.558 219.747 C 401.079 190.72 466.207 218.4 472.43 278.838 C 479.993 352.285 420.152 368.539 362.484 378.859 C 318.511 386.728 301.986 398.196 264.465 368.139 C 252.178 376.13 242.045 384.993 236.275 398.904 C 209.868 462.567 266.411 644.138 288.978 709.186 C 302.452 746.985 317.053 784.371 332.761 821.297 C 383.225 815.6 389.323 853.238 407.041 887.985 C 435.931 944.643 477.571 995.068 529.727 1031.82 C 614.897 1091.82 725.741 1100.83 817.908 1051.32 C 898.743 1006.81 956.529 918.966 978.045 830.506 C 981.92 814.574 982.947 799.121 992.641 785.216 C 1004.25 768.559 1015.67 763.101 1035.41 759.604 C 1039.99 745.398 1043.01 730.61 1046.01 716.003 C 1061.67 639.773 1090.29 386.7 1048.56 324.364 C 1034.14 302.821 1014.39 295.653 989.913 290.657 C 988.473 292.689 987.002 294.699 985.501 296.687 C 973.11 313.018 955.168 323.261 935.175 325.471 C 910.926 328.153 841.845 321.088 820.451 314.436 C 810.143 311.261 800.47 306.305 791.872 299.793 C 736.531 257.357 761.426 173.969 832.136 165.386 Z M 1577.22 1138.97 C 1678.88 1127.97 1752.45 1036.73 1741.63 935.04 C 1730.82 833.353 1639.72 759.619 1538.01 770.241 C 1436.04 780.89 1362.06 872.287 1372.9 974.244 C 1383.74 1076.2 1475.28 1150 1577.22 1138.97 Z M 336.588 911.261 C 382.704 1013.41 471.596 1100.11 576.71 1140.17 C 659.363 1171.17 750.854 1168.67 831.692 1133.21 C 946.812 1081.51 1024.18 968.537 1052.89 847.058 C 1057.36 828.117 1066.59 802.806 1037.4 803.935 L 1036.29 804.626 C 1033.49 806.408 1027.72 810.56 1026.99 813.844 C 1018.37 852.502 1008.63 884.549 991.907 920.565 C 869.337 1184.51 548.493 1191.54 394.692 951.606 C 383.416 933.971 373.141 915.716 363.914 896.928 C 359.757 888.28 356.672 879.139 352.455 870.588 C 348.523 862.611 339.952 863.755 334.014 867.838 C 320.675 877.01 332.032 900.361 336.588 911.261 Z M 719.345 1204.11 C 719.936 1223.37 719.322 1243.19 720.566 1262.46 C 730.983 1423.83 760.631 1604.89 882.257 1722.3 C 973.231 1810.11 1108.86 1853.63 1232.06 1815.59 C 1243.91 1811.71 1253.14 1808.32 1264.57 1802.93 C 1194.03 1816.31 1115.69 1811.54 1046.63 1786.66 C 830.411 1708.76 757.55 1460.49 749.073 1252.22 C 748.737 1243.95 748.599 1208.51 747.22 1202.8 C 744.791 1201.5 743.319 1202.03 740.551 1202.41 C 734.115 1203 725.628 1204.02 719.345 1204.11 Z M 293.424 335.349 C 305.506 342.66 313.265 342.628 326.996 342.019 C 339.35 339.466 351.647 336.647 363.879 333.563 C 383.898 328.715 415.162 322.694 425.912 303.952 C 439.811 279.721 419.817 251.616 392.441 252.234 C 380.908 254.282 367.239 259.123 356.822 264.536 C 331.245 277.825 270.621 295.432 293.424 335.349 Z M 928.233 281.809 C 962.91 274.813 966.621 242.269 943.598 231.572 C 930.611 225.538 847.065 207.462 835.788 209.263 C 825.928 211.206 817.35 213.578 811.388 222.343 C 800.069 238.98 805.092 256.162 822.281 265.909 C 842.42 277.33 865.796 277.397 888.131 280.473 C 900.407 282.055 916.432 283.257 928.233 281.809 Z"></path>
</svg>