<?xml version="1.0" encoding="UTF-8" standalone="no"?>
<!-- Generated by SVGMaker - https://svgmaker.io -->
<!-- Prompt: STYLE: Clean outline / line-art icons. Use a single consistent stroke weight throughout. Corners should be slightly rounded for a modern, approachable feel. No heavy gradients inside icons. No decorative flourishes or playful elements.

TONE: Clinical, private, and family-friendly. Icons must feel trustworthy and professional — like a medical utility tool, not a consumer wellness app.

SIZE ＆ READABILITY: Every icon must be readable and distinct at 20px to 28px. Shapes should be bold enough silhouettes to work at small sizes.

STROKE ＆ GEOMETRY: Consistent stroke weight and corner radius across all icons in the set. Prefer simple, recognisable silhouettes. Avoid overly complex detail. Use black (000000) as the only colour on a transparent background.

STATES: For status icons (confirm, warning, delete, iCloud), use stronger filled or badge variants to signal importance. All other icons remain outline-only unless noted.

EXPORT: Vector SVG with transparent background. Do not include drop shadows, outer glows, or bounding box fills.

COLOR: Output in monochrome / single foreground color so the app can tint icons programmatically.

DO NOT include: playful cartoon shapes, thick gradients, photorealistic elements, brand logos, or overly decorative styling.

App icon: A clean, centered checkmark. Balanced proportions, strong silhouette. Represents confirmed field. Outline style with slightly thicker stroke than decorative checks. - updated by SVGMaker Editor -->
<!-- Quality: low -->
<!-- Type: generate -->
<!-- Created: 2026-06-01T14:31:05.986Z -->
<svg xmlns="http://www.w3.org/2000/svg" xmlns:xlink="http://www.w3.org/1999/xlink" version="1.1" width="1024" height="1024" viewBox="0 0 2048 2048">
<desc>Created with SVGMaker Editor 3.0.0</desc>
<defs>
</defs>
<path transform="translate(0,0)" style="fill: rgb(0,0,0)" stroke-linecap="round" d="M 839.464 317.465 C 877.143 318.054 915.47 317.452 953.192 317.573 L 1277.96 317.692 L 1393.88 317.695 C 1431.46 317.758 1471.01 316.164 1507.63 324.876 C 1558.65 337.009 1604.75 363.611 1641.94 400.302 C 1700 457.596 1728.72 528.073 1729.05 609.495 L 1729.07 1208.21 L 1729.12 1369.84 C 1729.13 1412.19 1731.39 1453.87 1723.96 1495.59 C 1702.08 1618.52 1593.9 1716.87 1469.14 1725.67 C 1436.54 1727.97 1402.53 1726.99 1369.54 1726.99 L 1214.75 1726.98 L 781.155 1726.98 L 659.989 1727 C 619.432 1727.03 577.105 1728.89 537.461 1720.04 C 488.093 1708.9 442.744 1684.39 406.384 1649.19 C 351.341 1595.91 320.864 1523.3 320.212 1446.7 C 319.654 1381.2 320.138 1315.56 320.137 1250.05 L 320.14 864.615 L 320.136 686.507 C 320.12 640.447 317.19 589.566 326.315 544.639 C 350.358 426.259 454.213 325.984 576.893 318.548 C 607.633 316.684 639.985 317.783 670.843 317.726 C 727.05 317.925 783.258 317.838 839.464 317.465 Z M 446.874 1587.75 C 472.87 1614.73 505.694 1636.54 541.826 1647.18 C 580.393 1658.53 619.944 1656.17 659.66 1656.16 L 779.178 1656.12 L 1145.85 1656.15 L 1355.49 1656.14 C 1387.14 1656.16 1447.9 1657.99 1477.08 1653.15 C 1518.81 1646.16 1557.58 1627.08 1588.58 1598.27 C 1660.95 1531.43 1656.84 1467.49 1656.84 1378.09 L 1656.81 1255.44 L 1656.86 879.351 L 1656.89 685.895 C 1656.88 649.322 1659.19 600.666 1653.1 565.284 C 1637.07 472.286 1550.25 392.329 1454.48 389.856 L 829.599 390.022 L 669.3 389.964 C 580.926 389.898 521.33 382.198 453.137 451.563 C 422.664 482.232 402.425 521.577 395.195 564.201 C 390.105 592.732 391.867 642.261 391.885 673.424 L 391.95 849.879 L 391.962 1252.01 C 391.543 1316.74 391.536 1381.47 391.943 1446.2 C 392.809 1503.25 409.927 1545.02 446.874 1587.75 Z"></path>
<path transform="translate(0,0)" style="fill: rgb(0,0,0)" stroke-linecap="round" d="M 1421.06 588.243 C 1426.92 587.939 1433.57 587.69 1439.36 588 C 1495.75 591.018 1541.68 644.478 1537.85 700.489 C 1536.7 718.288 1530.95 736.59 1520.52 751.246 C 1506.84 770.447 1491.82 789.289 1477.23 807.864 L 1406.03 898.79 C 1324.23 1003.47 1241.85 1107.7 1158.91 1211.48 L 1037.57 1363.31 C 1018.26 1387.23 995.23 1418.04 973.33 1438.89 C 955.048 1456.29 923.253 1466.4 897.804 1464.46 C 877.91 1463.13 858.826 1456.07 842.85 1444.14 C 826.543 1431.86 791.074 1387.73 776.22 1370.32 L 650.744 1222.97 C 645.104 1214.96 629.841 1198.34 622.632 1189.92 L 570.311 1128.2 C 560.833 1116.99 548.227 1103 541.021 1090.64 C 534.653 1079.72 530.298 1067.75 528.162 1055.29 C 523.323 1025.8 532.073 998.524 549.539 974.773 C 565.596 953.07 589.74 938.774 616.49 935.129 C 681.58 925.926 714.107 973.753 753.531 1016.18 L 855.695 1126.91 C 867.251 1139.32 885.3 1160.82 898.275 1170.14 C 907.583 1162.62 928.244 1137.31 936.684 1127.43 L 1009.81 1041.16 L 1280.73 717.598 L 1336.05 650.405 C 1364.4 615.873 1374.8 597.299 1421.06 588.243 Z M 652.741 1119.19 L 803.89 1296.4 L 845.125 1344.18 C 864.628 1366.95 894.621 1412.69 929.107 1382.2 C 940.148 1372.44 952.046 1357.22 961.674 1345.81 C 985.125 1317.6 1008.22 1289.08 1030.94 1260.27 C 1091.39 1185.14 1151.32 1109.6 1210.73 1033.64 L 1375 824.205 L 1433.19 750.252 C 1451.8 726.604 1489.76 693.184 1452.97 663.917 C 1446.65 658.889 1440.72 658.001 1432.88 657.408 C 1424.07 658.462 1417.68 660.641 1411.51 667.265 C 1396.34 683.554 1381.71 702.269 1367.44 719.488 L 1283.46 820.794 L 1017.02 1141.23 C 1000.2 1161.25 940.296 1236.86 923.58 1246.7 C 905.922 1257.09 888.227 1255.59 872.226 1242.8 C 855.61 1229.51 838.406 1208.02 823.354 1192.18 C 781.184 1147.82 740.029 1102.48 698.179 1057.81 C 685.417 1044.19 665.304 1019.23 650.715 1009.8 C 644.393 1005.71 634.755 1003.9 627.318 1004.67 C 617.74 1005.67 608.986 1010.54 603.079 1018.14 C 597.575 1025.16 594.314 1033.09 595.667 1042.05 C 598.773 1062.61 638.494 1101.67 652.741 1119.19 Z"></path>
<path transform="translate(0,0)" style="fill: rgb(0,0,0)" stroke-linecap="round" d="M 446.874 1587.75 C 433.831 1582.94 422.408 1561.8 415.514 1550.32 C 389.89 1507.65 388.75 1464.64 388.545 1416.86 L 388.529 1335.6 L 388.52 1090.86 L 388.506 760.123 L 388.467 651.665 C 388.465 632.082 387.881 609.386 388.834 590.156 C 389.801 573.884 392.455 557.756 396.755 542.033 C 411.017 489.212 451.182 439.315 498.502 412.279 C 523.428 398.161 551.157 389.704 579.719 387.507 C 585.884 386.993 593.688 386.428 599.822 386.764 C 634.194 388.645 668.546 386.057 702.949 386.967 C 714.355 387.269 726.199 389.093 737.505 388.904 C 917.85 386.438 1098.22 385.874 1278.57 387.212 L 1389.83 387.024 C 1407.94 387.063 1438.04 385.356 1454.48 389.856 L 829.599 390.022 L 669.3 389.964 C 580.926 389.898 521.33 382.198 453.137 451.563 C 422.664 482.232 402.425 521.577 395.195 564.201 C 390.105 592.732 391.867 642.261 391.885 673.424 L 391.95 849.879 L 391.962 1252.01 C 391.543 1316.74 391.536 1381.47 391.943 1446.2 C 392.809 1503.25 409.927 1545.02 446.874 1587.75 Z"></path>
</svg>