<?xml version="1.0" encoding="UTF-8" standalone="no"?>
<!-- Generated by SVGMaker - https://svgmaker.io -->
<!-- Prompt: STYLE: Clean outline / line-art icons. Use a single consistent stroke weight throughout. Corners should be slightly rounded for a modern, approachable feel. No heavy gradients inside icons. No decorative flourishes or playful elements.

TONE: Clinical, private, and family-friendly. Icons must feel trustworthy and professional — like a medical utility tool, not a consumer wellness app.

SIZE ＆ READABILITY: Every icon must be readable and distinct at 20px to 28px. Shapes should be bold enough silhouettes to work at small sizes.

STROKE ＆ GEOMETRY: Consistent stroke weight and corner radius across all icons in the set. Prefer simple, recognisable silhouettes. Avoid overly complex detail. Use black (000000) as the only colour on a transparent background.

STATES: For status icons (confirm, warning, delete, iCloud), use stronger filled or badge variants to signal importance. All other icons remain outline-only unless noted.

EXPORT: Vector SVG with transparent background. Do not include drop shadows, outer glows, or bounding box fills.

COLOR: Output in monochrome / single foreground color so the app can tint icons programmatically.

DO NOT include: playful cartoon shapes, thick gradients, photorealistic elements, brand logos, or overly decorative styling.

App icon: A rectangular panel (like an imaging report frame) with a small ECG or radiology waveform running across it. Must not look like a generic chart or graph — it should feel like a scan or imaging result. Outline style. - updated by SVGMaker Editor -->
<!-- Quality: low -->
<!-- Type: generate -->
<!-- Created: 2026-06-01T14:22:40.177Z -->
<svg xmlns="http://www.w3.org/2000/svg" xmlns:xlink="http://www.w3.org/1999/xlink" version="1.1" width="1024" height="1024" viewBox="0 0 2048 2048">
<desc>Created with SVGMaker Editor 3.0.0</desc>
<defs>
</defs>
<path transform="translate(0,0)" style="stroke-width: 0; fill: rgb(0,0,0)" vector-effect="non-scaling-stroke" stroke-linecap="round" d="M1849.07 1568.3C1846.01 1589.19 1841.21 1605.42 1829.61 1623.49 1811.34 1652 1782.35 1671.95 1749.19 1678.81 1731.35 1682.53 1705.48 1681.39 1686.62 1681.4L1603.13 1681.4 1272.65 1681.39 622.923 1681.4 414.47 1681.41C378.839 1681.43 342.434 1681.74 306.794 1681.15 288.354 1680.85 266.727 1672.04 251.313 1662.05 225.414 1645.26 204.742 1615.73 198.517 1585.37 195.113 1568.77 195.998 1543.83 196.087 1526.13L196.166 1460.01 196.247 1188.41 196.013 687.892 195.882 543.344C195.897 519.431 195.394 494.662 196.476 471.033 198.949 417.054 243.8 368.997 296.586 359.901 317.436 356.308 340.711 357.408 361.85 357.42L448.669 357.393 785.422 357.363 1420.7 357.406 1625.51 357.465C1656.15 357.454 1702.07 355.909 1731.61 357.739 1754.05 358.969 1775.7 366.421 1794.15 379.26 1825.39 400.615 1842.24 429.784 1849 466.425 1850.39 481.553 1849.55 510.819 1849.54 526.807L1849.46 639.169 1849.5 1001.03 1849.5 1384.71 1849.51 1505.91C1849.51 1522.7 1850.41 1552.45 1849.07 1568.3ZM1680.75 1625.89C1714.18 1625.73 1749.73 1630.99 1775.46 1604.72 1800.67 1578.99 1796.43 1550.58 1796.42 1517.33L1796.34 1442.03 1796.3 1195.18 1796.34 724.057 1796.29 572.893C1796.31 544.644 1796.48 516.417 1796.28 488.153 1796.18 473.823 1794.7 463.767 1787.65 451.029 1776.04 430.04 1753.09 413.525 1728.7 412.271 1709.29 411.272 1688.93 411.822 1669.28 411.857L1560.84 411.9 1209.28 411.964 614.078 411.925 422.84 411.909C390.462 411.892 355.345 410.665 323.175 411.952 308.893 412.761 298.268 414.598 285.779 422.205 265.255 434.706 252.625 454.228 251.499 478.512 250.497 500.103 250.942 521.868 250.967 543.552L250.966 658.358 251.105 1017.94 250.861 1392.87 251.017 1500.22C250.928 1539.87 242.867 1581.81 275.598 1609.73 298.975 1629.66 326.312 1625.78 354.568 1625.82L431.472 1625.83 676.806 1625.82 1319.37 1625.83 1562.25 1625.88C1600.62 1625.92 1642.65 1624.86 1680.75 1625.89Z"></path>
<path transform="translate(0,0)" style="stroke-width: 0; fill: rgb(0,0,0)" vector-effect="non-scaling-stroke" stroke-linecap="round" d="M1849 466.425C1850.39 481.553 1849.55 510.819 1849.54 526.807L1849.46 639.169 1849.5 1001.03 1849.5 1384.71 1849.51 1505.91C1849.51 1522.7 1850.41 1552.45 1849.07 1568.3 1845.54 1561.84 1846.04 1557.54 1845.96 1550.27 1845.55 1480.63 1845.58 1410.98 1846.04 1341.34L1846.39 823.94C1845.81 740.418 1845.72 656.892 1846.12 573.369 1846.18 554.154 1844.29 480.984 1849 466.425Z"></path>
<path transform="translate(0,0)" style="stroke-width: 0; fill: rgb(0,0,0)" vector-effect="non-scaling-stroke" stroke-linecap="round" d="M370.674 483.794C394.464 482.969 421.931 483.602 446.049 483.597L588.694 483.586 1018.28 483.591 1450.75 483.608 1590.88 483.6C1615.85 483.579 1640.96 483.469 1665.93 483.685 1674.28 483.758 1681.73 485.184 1689.21 489.194 1700.51 495.336 1708.88 505.737 1712.46 518.083 1714.77 526.18 1714.05 590.941 1714.06 604.714L1714.08 804.025 1714.11 1277.77 1714.06 1438.08C1714.03 1460.77 1714.35 1483.49 1714.22 1506.18 1714.07 1532.72 1701.43 1548.32 1676 1554.72 1660.78 1555.69 1635.36 1554.86 1619.36 1554.85L1504.86 1554.82 1154.43 1554.81 633.102 1554.85 456.71 1554.86C428.299 1554.84 399.877 1554.88 371.468 1554.78 363.273 1554.75 356.608 1553.94 349.52 1549.34 339.962 1543.14 331.256 1533.22 328.257 1522.02 326.754 1511.76 327.161 1498.49 327.15 1487.92L327.188 1429.47 327.202 1213.92 327.214 759.125 327.192 610.854C327.189 584.905 326.923 558.853 327.416 532.905 327.957 504.398 342.897 488.31 370.674 483.794ZM558.445 1014.68L591.602 973.979C598.314 965.584 611.147 948.264 618.535 942.199 622.396 939.063 627.068 937.088 632.008 936.504 638.194 935.825 644.969 938.149 649.505 942.436 657.361 949.861 703.626 1052.69 710.843 1071.47 714.398 1053.61 722.266 1028.07 727.157 1009.71L757.527 893.694 792.01 760.783C795.909 745.962 806.431 692.618 817.86 685.313 824.27 681.214 832.081 679.92 839.47 681.733 857.413 686.202 859.95 705.78 863.835 721.094 868.343 738.869 872.321 756.789 876.891 774.558L943.904 1044.63 963.947 1124.26C967.214 1137.07 972 1157.65 976.222 1169.8 984.258 1150.01 994.005 1116.25 1000.81 1095.08L1042.86 966.319C1048.99 947.792 1055.5 924.515 1063.21 906.757 1068.74 894.018 1095.79 890.094 1104.25 905.485 1130.96 954.055 1152.28 1006.61 1178.34 1055.57 1184.19 1048.25 1190.55 1040.41 1196.35 1033.15 1209.68 1016.43 1213.56 1013.29 1234.29 1013.56L1512.22 1013.54 1610.75 1013.51C1625.18 1013.54 1648.58 1012.97 1662.54 1013.99 1661.85 1003.22 1662.42 986.019 1662.42 974.769L1662.43 896.38 1662.47 652.753C1662.48 632.908 1664.02 559.252 1659.81 546.517 1654.21 539.592 1643.79 540.876 1635.77 540.827 1611.99 540.68 1588.2 540.712 1564.42 540.773L1358.5 541.216 399.705 541.049C393.79 541.104 392.121 541.256 386.998 543.995 384.058 548.903 382.761 556.895 382.72 562.604 382.516 590.597 382.653 618.775 382.661 646.755L382.692 814.768 382.656 940.522C382.622 961.942 381.734 992.371 383.099 1013.2L385.924 1013.71C403.369 1013.57 551.6 1012.1 558.445 1014.68ZM832.597 816.165C822.298 851.318 813.399 887.462 804.118 922.899L773.027 1041.14C764.009 1076.71 754.856 1112.64 745.427 1148.11 742.944 1157.45 739.903 1166.23 730.95 1170.77 724.091 1174.19 716.132 1174.64 708.931 1172.02 694.688 1166.75 679.74 1126.06 672.799 1111.03 657.688 1078.04 642.361 1045.15 626.821 1012.36 613.379 1027.1 600.41 1046.85 586.315 1061.38 583.032 1065.06 577.834 1067.21 572.808 1067.25 509.996 1067.65 445.536 1068.95 382.792 1067.68L382.699 1330.52C382.697 1380.73 382.458 1430.95 382.805 1481.16 382.887 1493.02 383.025 1499.7 396.282 1501.64 541.499 1501.54 689.964 1500.11 834.959 1501.66 848.761 1501.5 862.564 1501.46 876.367 1501.56L1386.54 1501.59C1472.91 1501.59 1563.86 1500.14 1649.89 1501.81 1661.11 1496.67 1662.01 1493.33 1662.32 1481.26 1662.71 1466 1662.48 1450.7 1662.47 1435.44L1662.36 1346.49 1662.36 1067.8 1233.81 1067.66C1226.47 1078.31 1195.35 1114.92 1183.48 1122.79 1179.23 1125.6 1169.03 1126.05 1163.14 1123.75 1158.93 1122.15 1155.26 1119.39 1152.55 1115.8 1149.13 1111.28 1145.94 1105.19 1143.47 1100.08 1125.31 1062.51 1105.89 1025.05 1089.19 986.814L1035.18 1160.36C1023.26 1199.66 1011.18 1238.91 999.231 1278.21 995.745 1289.66 991.555 1299.24 978.23 1301.05 967.282 1302.54 954.399 1296.61 951.223 1285.44 941.759 1252.17 933.617 1218.43 925.118 1184.87L876.799 993.222 847.715 877.535C843.925 862.767 834.399 830.051 832.597 816.165Z"></path>
<path transform="translate(0,0)" style="stroke-width: 0; fill: rgb(0,0,0)" vector-effect="non-scaling-stroke" stroke-linecap="round" d="M876.367 1501.56L1386.54 1501.59C1472.91 1501.59 1563.86 1500.14 1649.89 1501.81 1648.74 1503.04 1647.09 1504.62 1645.37 1504.74 1628.27 1505.95 1606.94 1505.47 1589.92 1505.47L1445.68 1505.47 1066.3 1505.32C1008.52 1505.26 950.628 1505.72 892.84 1505.28 885.796 1505.23 882.491 1505.19 876.367 1501.56Z"></path>
<path transform="translate(0,0)" style="stroke-width: 0; fill: rgb(0,0,0)" vector-effect="non-scaling-stroke" stroke-linecap="round" d="M396.282 1501.64C541.499 1501.54 689.964 1500.11 834.959 1501.66 828.527 1507.07 792.365 1505.37 782.016 1505.38L687.65 1505.37 509.352 1505.47C477.055 1505.49 444.472 1505.73 412.182 1505.15 406.183 1505.04 401.024 1505.15 396.282 1501.64Z"></path>
<path transform="translate(0,0)" style="stroke-width: 0; fill: rgb(0,0,0)" vector-effect="non-scaling-stroke" stroke-linecap="round" d="M1234.29 1013.56L1512.22 1013.54 1610.75 1013.51C1625.18 1013.54 1648.58 1012.97 1662.54 1013.99 1654.33 1018.39 1623 1017.31 1612.68 1017.3L1542.19 1017.41 1365.76 1017.18C1327.11 1017.2 1288.25 1017.46 1249.61 1016.8 1243.59 1016.7 1239.42 1016.77 1234.29 1013.56Z"></path>
<path transform="translate(0,0)" style="stroke-width: 0; fill: rgb(0,0,0)" vector-effect="non-scaling-stroke" stroke-linecap="round" d="M385.924 1013.71C403.369 1013.57 551.6 1012.1 558.445 1014.68 558.142 1015.61 558.418 1014.97 557.065 1016.24 527.836 1018.66 409.835 1020.39 385.924 1013.71Z"></path>
</svg>