<?xml version="1.0" encoding="UTF-8" standalone="no"?>
<!-- Generated by SVGMaker - https://svgmaker.io -->
<!-- Prompt: STYLE: Clean outline / line-art icons. Use a single consistent stroke weight throughout. Corners should be slightly rounded for a modern, approachable feel. No heavy gradients inside icons. No decorative flourishes or playful elements.

TONE: Clinical, private, and family-friendly. Icons must feel trustworthy and professional — like a medical utility tool, not a consumer wellness app.

SIZE ＆ READABILITY: Every icon must be readable and distinct at 20px to 28px. Shapes should be bold enough silhouettes to work at small sizes.

STROKE ＆ GEOMETRY: Consistent stroke weight and corner radius across all icons in the set. Prefer simple, recognisable silhouettes. Avoid overly complex detail.

STATES: For status icons (confirm, warning, delete, iCloud), use stronger filled or badge variants to signal importance. All other icons remain outline-only unless noted.

EXPORT: Vector SVG with transparent background. Do not include drop shadows, outer glows, or bounding box fills.

COLOR: Output in monochrome / single foreground color so the app can tint icons programmatically.

DO NOT include: playful cartoon shapes, thick gradients, photorealistic elements, brand logos, or overly decorative styling.

App icon: A clean single-page medical document with one or two horizontal ruled lines suggesting text. Outline style. The page should feel clinical and minimal, not like a generic file folder. - updated by SVGMaker Editor -->
<!-- Quality: low -->
<!-- Type: generate -->
<!-- Created: 2026-06-01T14:21:15.141Z -->
<svg xmlns="http://www.w3.org/2000/svg" xmlns:xlink="http://www.w3.org/1999/xlink" version="1.1" width="1024" height="1024" viewBox="0 0 2048 2048">
<desc>Created with SVGMaker Editor 3.0.0</desc>
<defs>
</defs>
<path transform="translate(0,0)" style="fill: rgb(0,0,0)" stroke-linecap="round" d="M 565.888 329.424 C 571.648 328.712 585.481 328.957 591.643 328.958 L 638.989 328.984 L 796.46 328.969 L 1333.52 329.019 C 1391.09 329.343 1404.66 350.334 1442.77 388.329 C 1477.62 423.064 1512.96 458.292 1548.08 492.782 C 1581.78 525.878 1579.34 554.087 1579.37 597.698 L 1579.37 666.354 L 1579.41 900.187 L 1579.42 1406.51 C 1579.38 1477.81 1579.37 1549.26 1579.53 1620.4 C 1579.46 1662.12 1557.43 1699.27 1517.23 1713.49 C 1500.54 1719.4 1491.4 1719.85 1473.7 1719.51 C 1426.59 1720.88 1373.97 1719.37 1326.5 1719.54 L 905.734 1719.47 L 683.886 1719.59 L 607.628 1719.49 C 592.141 1719.57 573.808 1720.79 558.719 1719.22 C 530.387 1715.85 504.93 1698.31 490.497 1674.14 C 472.323 1643.72 477.966 1605.52 477.816 1570.71 L 477.717 1427 L 477.919 1032.89 L 477.744 618.26 L 477.745 486.497 C 477.723 462.157 477.474 436.795 478.36 412.533 C 478.996 395.093 487.818 376.869 499.15 363.707 C 517.277 342.653 538.27 331.624 565.888 329.424 Z M 982.15 1674.8 C 991.208 1673.64 1021.75 1674.19 1032.06 1674.42 C 1045.71 1674.74 1071.66 1673.72 1084.41 1674.92 C 1150.98 1672.01 1220.31 1676.9 1287.12 1674.55 C 1298.26 1673.63 1321.66 1674.57 1334.18 1674.55 L 1439.09 1674.47 C 1466.74 1674.5 1498.61 1679.16 1519.91 1657.9 C 1540.08 1637.76 1536.1 1606.44 1536.1 1580.05 L 1536.06 1507.31 L 1536.02 1279.21 L 1535.9 560.002 L 1477.64 560.093 C 1441.03 560.138 1413.31 562.89 1384.93 534.979 C 1356.52 507.043 1360.85 474.396 1360.93 437.394 L 1360.99 373.095 L 810.134 373.25 L 654.266 373.264 C 632.659 373.255 593.207 371.947 573.034 374.064 C 561.287 375.221 550.167 379.913 541.143 387.522 C 516.489 408.001 520.441 429.697 519.941 458.622 C 519.75 469.622 519.916 480.704 519.922 491.708 L 520.045 606.499 L 520.072 961.298 L 520.002 1396.08 L 520.025 1536.2 C 519.986 1563.38 519.643 1590.54 520.407 1617.66 C 521.078 1641.53 529.492 1657.23 551.486 1668.11 C 565.349 1674.96 577.477 1674.25 592.481 1674.91 C 609.768 1673.94 631.514 1674.61 649.183 1674.64 L 751.434 1674.69 L 902.309 1674.69 C 927.509 1674.7 957.268 1673.92 982.15 1674.8 Z M 1505.4 514.269 C 1498.17 507.023 1490.95 499.6 1483.42 492.684 C 1457.27 468.681 1433.05 442.672 1407.06 418.528 C 1406.4 463.306 1396.9 517.588 1459.53 515.17 C 1474.63 514.588 1490.24 515.708 1505.4 514.269 Z"></path>
<path transform="translate(0,0)" style="fill: rgb(0,0,0)" stroke-linecap="round" d="M 767.237 467.211 C 779.93 466.306 794.007 466.851 806.787 466.814 C 830.454 466.188 867.471 463.55 872.232 495.381 C 875.497 517.211 873.874 548.374 873.779 571.186 C 897.144 572.822 940.946 565.986 958.656 579.058 C 965.74 584.619 973.218 601.045 972.258 609.972 C 969.588 634.796 983.027 695.371 949.837 703.881 C 929.524 709.089 895.425 706.721 873.799 707.1 C 873.894 721.627 875.057 766.188 872.665 776.969 C 871.225 783.774 867.926 790.046 863.135 795.09 C 854.915 803.589 845.441 805.875 834.17 806.094 C 813.51 806.146 790.72 807.153 770.849 805.941 C 735.335 803.775 733.913 769.429 735.709 742.499 C 736.478 730.979 734.067 719.16 735.9 707.556 C 711.702 706.787 684.808 709.046 661.543 705.586 C 630.27 700.935 631.876 665.538 633.51 642.198 C 634.691 625.319 628.856 595.14 642.478 582.614 C 661.345 565.268 710.44 571.026 736.023 571.191 C 735.532 566.08 734.919 558.31 735.27 553.214 C 737.569 519.828 722.832 477.251 767.237 467.211 Z M 677.311 613.785 C 677.38 629.844 677.866 648.33 677.037 664.178 C 781.625 665.307 780.498 655.06 779.674 762.959 C 792.328 765.073 812.633 763.214 826.145 763.745 L 829.089 762.877 C 838.506 739.075 808.966 665.258 866.268 664.351 C 886.854 664.025 907.359 664.57 927.992 664.243 L 927.893 613.995 C 916.703 613.885 904.222 613.381 893.84 613.66 C 871.16 614.269 834.804 615.076 831.053 584.87 C 828.226 562.103 830.319 533.279 829.829 509.688 C 818.625 509.766 789.056 510.617 779.302 509.469 C 780.48 533.287 781.154 561.431 778.44 584.914 C 776.253 603.842 754.105 614.383 736.777 613.753 C 717.201 613.042 696.894 614.342 677.311 613.785 Z"></path>
<path transform="translate(0,0)" style="fill: rgb(0,0,0)" stroke-linecap="round" d="M 652.085 1529.24 C 700.169 1527.55 757.112 1528.9 805.735 1528.99 L 1063.06 1529 L 1294.73 1528.99 C 1331.67 1529 1368.69 1528.56 1405.62 1529.06 C 1416.34 1529.21 1425.51 1538.15 1426.79 1548.78 C 1427.58 1554.93 1425.85 1561.14 1422 1565.99 C 1417.79 1571.31 1413.2 1572.39 1406.85 1573.23 L 822.848 1573.29 L 705.38 1573.25 C 691.717 1573.28 677.811 1573.35 664.172 1573.63 C 647.125 1573.99 638.941 1574.75 630.123 1558.63 C 629.832 1553.86 630.026 1549.26 630.131 1544.49 C 635.965 1534.26 640.632 1531.39 652.085 1529.24 Z"></path>
<path transform="translate(0,0)" style="fill: rgb(0,0,0)" stroke-linecap="round" d="M 651.563 1013.22 C 683.62 1011.63 727.343 1012.94 760.09 1012.94 L 964.457 1012.92 L 1249.23 1012.89 C 1298.3 1012.89 1347.47 1012.9 1396.55 1013.12 C 1401.54 1013.14 1413.63 1013.96 1417.6 1016.62 C 1422.06 1019.66 1425.2 1024.28 1426.39 1029.54 C 1429.32 1043.11 1421.29 1054.26 1407.92 1057.01 C 1359.83 1058.41 1305.25 1057.13 1256.79 1057.11 L 968.701 1057.08 L 757.16 1057.1 C 721.569 1057.11 685.943 1057.46 650.366 1057 C 644.567 1056.92 639.394 1054.93 635.574 1050.58 C 630.079 1044.31 629.703 1037.96 629.29 1030.24 C 635.074 1018.55 638.778 1015.26 651.563 1013.22 Z"></path>
<path transform="translate(0,0)" style="fill: rgb(0,0,0)" stroke-linecap="round" d="M 649.124 885.121 C 674.837 883.318 720.053 884.921 747.644 884.916 L 946.869 884.916 L 1264.75 884.891 C 1311.51 884.925 1358.24 884.939 1405.03 884.735 C 1424.11 884.651 1433.19 906.34 1422.2 921.174 C 1418.57 926.077 1414.53 927.674 1408.67 928.508 C 1349.31 930.16 1283.34 928.738 1223.53 928.729 L 872.475 928.705 L 719.506 928.689 C 702.722 928.731 656.042 930.114 641.261 927.445 C 622.671 913.411 625.694 891.329 649.124 885.121 Z"></path>
<path transform="translate(0,0)" style="fill: rgb(0,0,0)" stroke-linecap="round" d="M 661.359 1400.44 L 1195.84 1400.93 L 1349.46 1401.04 C 1367.07 1401.08 1398.79 1397.99 1415.94 1403.67 C 1422.25 1405.76 1425.76 1415.38 1427.77 1421.68 C 1424.97 1434.1 1424.4 1436.73 1413.68 1443.88 C 1409.03 1444.18 1403.95 1444.16 1399.25 1444.25 L 844.482 1444.3 L 709.521 1444.21 C 694.679 1444.22 679.732 1444.63 664.897 1444.5 C 648.11 1444.35 639.538 1446.69 630.161 1430.77 C 628.806 1407.08 638.605 1401.02 661.359 1400.44 Z"></path>
<path transform="translate(0,0)" style="fill: rgb(0,0,0)" stroke-linecap="round" d="M 648.66 1273.2 C 659.171 1272.53 675.117 1273.02 686.051 1273.02 L 756.827 1273.02 L 972.127 1273.03 L 1264.74 1273.03 L 1357.71 1273.05 C 1373.5 1273.05 1402.6 1270.38 1416.83 1276.98 C 1423.76 1280.19 1426.03 1288.87 1427.78 1295.99 C 1424.54 1307.83 1422.01 1313.92 1408.95 1316.52 C 1343.75 1315.2 1274.63 1316.3 1209.22 1316.31 L 845.28 1316.29 L 713.241 1316.32 C 693.423 1316.34 673.59 1316.6 653.809 1316.59 C 645.336 1316.39 632.936 1313.08 630.577 1303.49 C 626.693 1287.7 634.292 1277.53 648.66 1273.2 Z"></path>
<path transform="translate(0,0)" style="fill: rgb(0,0,0)" stroke-linecap="round" d="M 646.062 1144.17 L 1121.94 1144.19 L 1317.02 1144.23 C 1344.84 1144.27 1372.05 1144.1 1400.58 1144.03 C 1420.19 1143.99 1432.33 1153.79 1424.2 1175.26 C 1421.94 1181.21 1416.65 1184.13 1410.64 1185.98 C 1369.11 1187.31 1319.99 1186.12 1277.96 1186.12 L 1017.25 1186.12 L 774.925 1186.15 C 732.592 1186.16 684.778 1187.33 643.128 1185.8 C 623.859 1174.8 624.311 1151.8 646.062 1144.17 Z"></path>
<path transform="translate(0,0)" style="fill: rgb(0,0,0)" stroke-linecap="round" d="M 592.481 1674.91 C 609.768 1673.94 631.514 1674.61 649.183 1674.64 L 751.434 1674.69 L 902.309 1674.69 C 927.509 1674.7 957.268 1673.92 982.15 1674.8 C 971.481 1678.57 913.467 1676.33 897.009 1676.49 C 796.096 1677.5 694.962 1675.73 594.008 1676.4 C 593.499 1675.9 592.99 1675.41 592.481 1674.91 Z"></path>
<path transform="translate(0,0)" style="fill: rgb(0,0,0)" stroke-linecap="round" d="M 1084.41 1674.92 C 1150.98 1672.01 1220.31 1676.9 1287.12 1674.55 L 1291.14 1675.66 L 1290.27 1676.35 C 1255.88 1677.41 1219.32 1675.61 1184.71 1676.49 C 1158.47 1677.14 1132.31 1677.43 1106.07 1676.64 C 1101.13 1676.49 1087.31 1677.4 1084.41 1674.92 Z"></path>
</svg>