<?xml version="1.0" encoding="UTF-8" standalone="no"?>
<!-- Generated by SVGMaker - https://svgmaker.io -->
<!-- Prompt: STYLE: Clean outline / line-art icons. Use a single consistent stroke weight throughout. Corners should be slightly rounded for a modern, approachable feel. No heavy gradients inside icons. No decorative flourishes or playful elements.

TONE: Clinical, private, and family-friendly. Icons must feel trustworthy and professional — like a medical utility tool, not a consumer wellness app.

SIZE ＆ READABILITY: Every icon must be readable and distinct at 20px to 28px. Shapes should be bold enough silhouettes to work at small sizes.

STROKE ＆ GEOMETRY: Consistent stroke weight and corner radius across all icons in the set. Prefer simple, recognisable silhouettes. Avoid overly complex detail. Use black (000000) as the only colour on a transparent background.

STATES: For status icons (confirm, warning, delete, iCloud), use stronger filled or badge variants to signal importance. All other icons remain outline-only unless noted.

EXPORT: Vector SVG with transparent background. Do not include drop shadows, outer glows, or bounding box fills.

COLOR: Output in monochrome / single foreground color so the app can tint icons programmatically.

DO NOT include: playful cartoon shapes, thick gradients, photorealistic elements, brand logos, or overly decorative styling.

App icon: A document page with a small magnifying glass overlapping its lower right corner, suggesting detail or search within a record. Outline style. Compact and readable. - updated by SVGMaker Editor -->
<!-- Quality: low -->
<!-- Type: generate -->
<!-- Created: 2026-06-01T14:28:43.869Z -->
<svg xmlns="http://www.w3.org/2000/svg" xmlns:xlink="http://www.w3.org/1999/xlink" version="1.1" width="1024" height="1024" viewBox="0 0 2048 2048">
<desc>Created with SVGMaker Editor 3.0.0</desc>
<defs>
</defs>
<path transform="translate(0,0)" style="fill: rgb(0,0,0)" stroke-linecap="round" d="M 1232.56 882.404 C 1238.99 881.667 1255.87 881.854 1262.62 881.934 C 1326.85 882.71 1389.51 901.939 1443.12 937.328 C 1518.79 986.677 1569.64 1059.07 1588.17 1147.64 C 1603.47 1219.39 1594.78 1294.18 1563.43 1360.52 C 1554.83 1378.38 1544.25 1395.11 1533.39 1411.66 C 1548.1 1428.28 1568.11 1447.15 1584.1 1463.15 L 1671.91 1550.84 C 1686.96 1565.72 1711.35 1587.05 1723.27 1603.65 C 1740.2 1627.22 1733.32 1667.46 1714.01 1687.16 C 1701.69 1699.78 1684.85 1706.97 1667.21 1707.11 C 1630.54 1707.43 1610.29 1679.22 1586.43 1655.25 C 1568.8 1637.45 1551.05 1619.79 1533.16 1602.26 L 1469.98 1539.05 C 1458.87 1527.9 1444.95 1514.61 1434.67 1502.95 C 1391.53 1533.48 1340.74 1550.21 1288.35 1555.26 C 1198.19 1564.58 1108.07 1537.26 1038.26 1479.46 C 968.486 1422.87 924.767 1340.31 917.177 1250.79 C 901.584 1083.66 1005.2 935.398 1167.95 892.102 C 1189.75 886.302 1210.2 884.409 1232.56 882.404 Z M 1276.52 1512.15 C 1438.44 1500.27 1560.12 1359.46 1548.42 1197.54 C 1536.71 1035.61 1396.05 913.77 1234.11 925.293 C 1071.91 936.833 949.836 1077.77 961.559 1239.95 C 973.281 1402.14 1114.35 1524.05 1276.52 1512.15 Z M 1470.8 1477.24 C 1528.41 1537.96 1590.5 1596.35 1649.3 1656.02 C 1651.53 1658.28 1655.55 1660.4 1658.47 1661.78 C 1667.3 1662.88 1673.8 1662.82 1681.14 1657.26 C 1692.76 1648.45 1692.3 1632.86 1683.02 1622.9 C 1668.07 1606.85 1652.61 1591.87 1637.15 1576.56 L 1552.53 1492.88 C 1545.99 1486.39 1510.76 1449.19 1505.31 1445.81 C 1492.87 1458.84 1484.61 1466.02 1470.8 1477.24 Z"></path>
<path transform="translate(0,0)" style="fill: rgb(0,0,0)" stroke-linecap="round" d="M 1245.56 968.678 C 1383.21 963.35 1499.23 1070.37 1505.02 1207.99 C 1510.8 1345.62 1404.18 1462 1266.57 1468.25 C 1128.31 1474.52 1011.26 1367.28 1005.44 1229 C 999.629 1090.72 1107.26 974.032 1245.56 968.678 Z M 1274.63 1423.16 C 1387.59 1412.43 1470.47 1312.16 1459.74 1199.2 C 1449.02 1086.24 1348.75 1003.36 1235.79 1014.08 C 1122.83 1024.81 1039.94 1125.08 1050.67 1238.04 C 1061.39 1351.01 1161.67 1433.89 1274.63 1423.16 Z"></path>
<path transform="translate(0,0)" style="fill: rgb(0,0,0)" stroke-linecap="round" d="M 526.996 222.464 L 1024.79 222.562 L 1176.63 222.469 C 1199.9 222.449 1224.84 221.605 1247.95 222.988 C 1254.34 223.371 1265.04 227.405 1269.72 231.69 C 1286.5 247.078 1303.25 264.332 1319.36 280.411 L 1420.97 382.064 L 1509.26 470.236 C 1522.26 483.241 1542.78 502.1 1553.64 515.906 C 1574.27 542.111 1569.05 598.965 1569.05 631.122 L 1569.09 763.667 L 1569.27 873.213 C 1569.31 887.579 1570.34 916.421 1568.65 929.181 C 1560.25 941.497 1547.16 946.419 1534.39 937.763 C 1522.41 929.64 1526.03 896.127 1526.05 882.724 L 1526.06 809.216 L 1526.15 556.258 C 1479.94 555.19 1432.13 556.965 1385.78 556.196 C 1362.4 555.287 1335.53 558.407 1312.76 553.509 C 1279.29 546.305 1244.95 512.542 1237.41 479.184 C 1231.76 454.193 1233.98 420.859 1233.97 394.873 L 1234.03 267.54 C 1154.78 268.562 1073.2 267.647 993.851 267.549 L 639.833 267.599 L 570.373 267.564 C 553.86 267.561 524.525 266.507 509.645 270.394 C 495.884 274 483.357 281.268 473.397 291.425 C 460.872 304.252 452.87 320.814 450.606 338.598 C 448.817 352.401 449.99 393.685 449.995 409.574 L 449.959 559.36 L 449.945 1072.91 L 449.964 1437.45 L 449.924 1529.63 C 449.922 1543.25 449.236 1573.4 451.663 1585.22 C 456.163 1606.47 469.02 1625.02 487.34 1636.69 C 515.331 1654.59 552.229 1649.53 584.495 1649.43 L 685.298 1649.42 L 1022.81 1649.35 L 1306.13 1649.33 L 1394.88 1649.4 C 1409.44 1649.41 1426.93 1649.79 1441.05 1649.08 C 1461.06 1647.47 1475.37 1631.65 1493.67 1626.45 C 1505.43 1623.1 1519.76 1634.72 1520.44 1646.12 C 1522.14 1674.37 1469.19 1693.53 1446.58 1694.71 C 1426.53 1695.75 1404.05 1695.23 1383.84 1695.2 L 1271.68 1695.12 L 899.138 1695.15 L 633.251 1695.16 L 558.314 1695.23 C 513.523 1695.37 486.924 1697.98 449.941 1666.84 C 397.336 1622.56 406.871 1565.97 406.956 1503.93 L 406.972 1360.22 L 406.96 899.196 L 406.932 516.911 L 406.905 398.496 C 406.892 377.024 406.163 354.678 407.713 333.513 C 410.95 289.322 439.561 250.453 479.719 232.411 C 495.989 225.102 509.476 223.607 526.996 222.464 Z M 1485.67 510.045 L 1341.3 366.009 C 1320.21 344.918 1297.52 320.782 1276.28 300.563 L 1276.38 399.539 C 1276.34 444.775 1269.02 496.225 1326.72 508.838 C 1341.87 512.15 1369.09 510.403 1385.25 510.343 L 1485.67 510.045 Z"></path>
<path transform="translate(0,0)" style="fill: rgb(0,0,0)" stroke-linecap="round" d="M 629.403 715.498 L 1143.88 715.405 L 1304.93 715.543 L 1352.99 715.708 C 1369.8 715.749 1397.25 711.819 1396.76 737.498 C 1396.66 743.74 1394.09 749.687 1389.61 754.037 C 1379.95 763.332 1352.38 760.603 1337.75 760.548 L 833.431 760.438 L 678.077 760.386 C 651.411 760.416 624.673 760.606 597.995 760.329 C 566.205 759.998 565.868 717.327 595.307 715.663 C 606.226 715.045 618.281 715.617 629.403 715.498 Z"></path>
<path transform="translate(0,0)" style="fill: rgb(0,0,0)" stroke-linecap="round" d="M 591.13 532.299 C 615.304 531.16 647.6 532.065 672.344 532.085 L 824.231 532.119 L 1000.43 532.124 C 1030.85 532.115 1061.5 531.923 1091.9 532.205 C 1098 532.901 1105.91 531.819 1110.93 535.833 C 1127.16 548.797 1123.25 570.312 1103.21 577.118 C 1096.34 578.571 1065.21 578.043 1055.86 578.03 L 958 577.948 L 718.802 577.969 C 703.452 577.971 595.684 579.461 588.11 576.006 C 581.72 573.152 576.774 567.811 574.419 561.221 C 569.829 548.064 578.801 536.507 591.13 532.299 Z"></path>
<path transform="translate(0,0)" style="fill: rgb(0,0,0)" stroke-linecap="round" d="M 591.047 898.157 C 613.579 897.133 640.503 897.799 663.266 897.792 L 791.681 897.767 L 873.748 897.775 C 888.077 897.781 903.9 897.377 917.462 898.397 C 935.156 899.728 943.642 925.658 929.896 937.445 C 921.876 944.322 919.394 944.032 909.652 944.386 C 854.11 945.598 798.279 944.528 742.708 944.544 C 723.635 944.549 598.094 946.558 588.095 942.773 C 582.411 940.622 578.041 936.125 575.634 930.596 C 572.952 924.438 572.878 917.025 575.66 910.886 C 578.74 904.092 584.307 900.673 591.047 898.157 Z"></path>
<path transform="translate(0,0)" style="fill: rgb(0,0,0)" stroke-linecap="round" d="M 589.882 1082.24 C 602.452 1081.53 618.071 1081.97 630.98 1081.97 L 704.799 1081.94 C 749.864 1081.91 794.56 1081.85 839.984 1082.04 C 858.772 1082.12 872.409 1091.22 867.17 1113.6 C 865.703 1119.86 858.2 1124.77 852.458 1127.45 C 841.201 1128.82 816.707 1128.2 804.517 1128.2 L 715.285 1128.19 L 631.727 1128.25 C 618.306 1128.26 602.683 1128.85 589.667 1127.36 C 578.856 1126.13 569.228 1106.88 575.074 1096.73 C 580.124 1087.96 580.562 1086.84 589.882 1082.24 Z"></path>
<path transform="translate(0,0)" style="fill: rgb(0,0,0)" stroke-linecap="round" d="M 593.713 1266.38 C 638.688 1265.67 683.798 1266.41 728.789 1266.38 C 748.27 1266.36 841.836 1263.91 854.258 1268.24 C 860.315 1270.35 865.273 1275.91 867.661 1281.75 C 869.917 1287.27 869.345 1292.04 867.024 1297.42 C 863.802 1304.89 858.718 1309.03 851.2 1311.84 C 831.981 1312.55 811.665 1312.05 792.337 1312.04 C 727.204 1311.99 662.009 1312.33 596.888 1311.83 C 568.65 1311.61 563.625 1271.72 593.713 1266.38 Z"></path>
</svg>