<?xml version="1.0" encoding="UTF-8" standalone="no"?>
<!-- Generated by SVGMaker - https://svgmaker.io -->
<!-- Prompt: STYLE: Clean outline / line-art icons. Use a single consistent stroke weight throughout. Corners should be slightly rounded for a modern, approachable feel. No heavy gradients inside icons. No decorative flourishes or playful elements.

TONE: Clinical, private, and family-friendly. Icons must feel trustworthy and professional — like a medical utility tool, not a consumer wellness app.

SIZE ＆ READABILITY: Every icon must be readable and distinct at 20px to 28px. Shapes should be bold enough silhouettes to work at small sizes.

STROKE ＆ GEOMETRY: Consistent stroke weight and corner radius across all icons in the set. Prefer simple, recognisable silhouettes. Avoid overly complex detail. Use black (000000) as the only colour on a transparent background.

STATES: For status icons (confirm, warning, delete, iCloud), use stronger filled or badge variants to signal importance. All other icons remain outline-only unless noted.

EXPORT: Vector SVG with transparent background. Do not include drop shadows, outer glows, or bounding box fills.

COLOR: Output in monochrome / single foreground color so the app can tint icons programmatically.

DO NOT include: playful cartoon shapes, thick gradients, photorealistic elements, brand logos, or overly decorative styling.

App icon: A syringe pointing diagonally, minimal and friendly. The plunger and needle tip should be clearly readable at small size. Outline style. Not alarming. - updated by SVGMaker Editor -->
<!-- Quality: low -->
<!-- Type: generate -->
<!-- Created: 2026-06-01T14:23:51.056Z -->
<svg xmlns="http://www.w3.org/2000/svg" xmlns:xlink="http://www.w3.org/1999/xlink" version="1.1" width="1024" height="1024" viewBox="0 0 2048 2048">
<desc>Created with SVGMaker Editor 3.0.0</desc>
<defs>
</defs>
<path transform="translate(0,0)" style="fill: rgb(0,0,0)" stroke-linecap="round" d="M 1867.9 142.078 L 1869.17 142.02 C 1890.23 141.175 1898.31 151.973 1897.94 171.94 C 1890.89 182.03 1875.15 196.588 1865.88 205.703 C 1849.54 221.687 1833.28 237.756 1817.11 253.908 L 1695.37 373.707 C 1663.94 404.75 1628.11 441.321 1595.5 470.926 C 1599.88 480.151 1601.99 488.311 1602.03 498.557 C 1602.13 523.312 1582.97 538.019 1567.15 553.955 C 1552.49 568.722 1537.25 583.007 1522.02 597.243 C 1559.91 641.387 1513.07 672.515 1483.11 701.303 C 1494.81 714.16 1507.84 726.683 1519.87 739.44 C 1553.6 773.67 1555.66 830.552 1524.33 867.131 C 1502.63 892.47 1474.42 918.334 1450.31 942.312 L 1293.01 1098.13 L 991.263 1398.38 C 942.485 1446.24 889.28 1500.03 838.991 1545.37 C 853.666 1561.93 877.914 1577.93 878.085 1600.37 C 878.173 1611.87 873.347 1623.77 865.176 1631.85 C 856.183 1640.91 843.892 1645.92 831.131 1645.72 C 806.466 1645.24 791.155 1623.85 774.574 1607.99 C 746.407 1581.14 718.629 1553.87 691.25 1526.21 C 653.443 1563.9 615.402 1601.36 577.132 1638.58 C 557.844 1657.54 535.348 1681.21 515.562 1698.93 C 537.185 1719.01 568.983 1750.23 588.326 1773.01 C 591.495 1776.74 594.326 1789.11 594.644 1794.53 C 595.471 1807.47 590.852 1820.16 581.904 1829.53 C 561.841 1850.97 527.954 1852.96 506.46 1832.7 C 492.699 1819.73 479.391 1806.26 465.904 1792.99 L 369.286 1697.67 L 264.549 1593.96 C 251.18 1580.88 213.486 1547.15 204.202 1532.34 C 184.374 1500.7 205.039 1453.37 247.696 1452.94 C 257.471 1452.77 267.108 1455.25 275.58 1460.13 C 287.27 1466.89 300.149 1481.13 309.849 1490.92 C 321.701 1503 333.654 1514.98 345.708 1526.85 C 356.546 1512.87 390.824 1481.11 405.577 1466.88 C 444.197 1429.62 481.949 1390 520.651 1353.18 L 433.596 1267.22 C 420.056 1253.86 398.545 1235.09 387.521 1220.03 C 368.643 1194.25 390.574 1151.51 423.979 1151.8 C 451.373 1152.04 463.092 1170.12 481.035 1187.72 C 548.206 1118.16 621.474 1048.46 690.341 980.164 L 968.476 703.595 L 1095.47 578 C 1109.91 563.548 1124.44 549.182 1139.06 534.903 C 1146.74 527.402 1157.32 516.604 1165.47 510.239 C 1181.99 497.272 1202.26 489.98 1223.25 489.446 C 1274.85 487.793 1295.48 517.036 1330.01 549.636 C 1336.05 542.387 1343.26 535.376 1349.88 528.778 C 1363.45 515.25 1375.95 500.541 1396.4 498.511 C 1416.08 496.557 1426.99 502.364 1441.52 513.588 C 1450.17 504.98 1458.72 495.885 1467.66 487.596 C 1498.94 458.591 1514.04 428.571 1561.93 441.124 L 1791.44 215.104 L 1828.92 178.213 C 1838.23 168.916 1857.96 147.891 1867.9 142.078 Z M 804.263 1509.85 L 810.705 1516.16 L 1303.16 1028.24 L 1433.09 898.171 C 1453.18 878.025 1474.62 858.015 1493.31 836.79 C 1505.19 823.296 1506.64 792.913 1496.63 778.518 C 1486.46 763.89 1472.3 750.815 1459.62 738.26 L 1416.78 695.724 L 1323.59 604.347 C 1311.01 591.843 1298.49 579.245 1285.75 566.914 C 1268.22 549.954 1251.77 530.787 1225.34 530.977 C 1222.84 531.008 1220.34 531.097 1217.85 531.244 C 1200.8 534.662 1192.54 540.393 1180.21 552.477 C 1165.22 567.175 1150.48 582.187 1135.51 596.889 L 1013.04 717.841 L 675.034 1053.86 L 567.19 1161.51 C 548.312 1180.27 529.179 1199.85 509.703 1217.91 C 566.25 1275.07 623.291 1331.73 680.821 1387.89 L 755.185 1461.74 C 771.098 1477.57 787.79 1494.82 804.263 1509.85 Z M 374.734 1556.33 C 383.636 1563.72 397.893 1579.01 406.378 1587.56 L 461.511 1643.01 C 465.925 1647.5 482.985 1665.76 486.484 1667.93 L 487.599 1667.82 C 543.218 1611.34 604.646 1549.09 662.043 1494.54 C 650.399 1485.37 636.815 1471.29 626.045 1460.64 L 574.344 1409.39 C 570.666 1405.74 551.827 1386.71 548.549 1384.72 L 459.81 1472.31 C 432.084 1499.39 401.522 1528.54 374.734 1556.33 Z M 428.722 1201.49 C 434.18 1210.64 457.671 1232.65 466.445 1241.38 L 531.044 1305.72 L 704.652 1479.32 C 741.085 1516.1 777.749 1552.64 814.642 1588.96 C 820.438 1594.55 823.612 1599.2 831.913 1600.23 C 827.626 1594.21 809.596 1577.65 802.97 1571.17 L 742.424 1511.42 L 495.169 1264.29 C 487.61 1256.74 436.472 1202.95 430.593 1201.77 C 430.13 1201.68 429.657 1201.65 429.19 1201.58 C 429.033 1201.55 428.878 1201.52 428.722 1201.49 Z M 1492.43 565.817 C 1495.39 564.766 1520.45 539.352 1525.06 534.164 C 1533.88 524.227 1577.04 492.771 1549.28 482.515 C 1546.65 481.516 1543.86 480.973 1541.04 480.91 C 1532.22 485.439 1479.99 536.606 1471.13 546.1 C 1477.61 552.358 1485.47 560.374 1492.43 565.817 Z M 1401.31 542.046 C 1388.75 547.265 1370.81 568.722 1359.16 579.248 C 1389.01 606.376 1423.55 642.507 1452.66 671.403 C 1460.64 665.476 1488.68 638.197 1492.36 629.617 C 1482.87 615.988 1414.67 545.604 1401.31 542.046 Z M 247.314 1492.6 C 241.742 1495.87 233.828 1501.84 239.735 1509.18 C 251.238 1523.47 265.481 1536.64 278.538 1549.61 C 307.978 1579.09 337.679 1608.32 367.635 1637.28 L 486.024 1754.43 C 501.694 1769.72 517.473 1785.16 533.355 1800.25 C 536.548 1803.28 539.349 1804.15 543.524 1805.4 C 549.431 1802.22 552.901 1797.48 548.532 1791.49 C 542.204 1782.81 532.38 1774.87 524.749 1767.28 L 468.506 1711.06 L 327.164 1569.68 C 315.306 1557.81 256.2 1496.26 247.314 1492.6 Z"></path>
<path transform="translate(0,0)" style="fill: rgb(0,0,0)" stroke-linecap="round" d="M 1062.79 820.123 C 1069.61 819.507 1075.77 819.328 1081 824.628 C 1117.95 862.157 1154.72 899.927 1192.11 937.032 C 1199.85 944.712 1210.18 952.737 1205.89 964.741 C 1202.98 972.876 1196.71 976.993 1189.42 980.823 C 1181.66 982.091 1175.28 980.748 1169.47 975.033 C 1153.51 959.347 1138.04 943.118 1122.28 927.207 L 1078.4 882.989 C 1068.24 872.74 1057.62 862.642 1049.06 850.99 C 1039.89 838.504 1052.13 826.215 1062.79 820.123 Z"></path>
<path transform="translate(0,0)" style="fill: rgb(0,0,0)" stroke-linecap="round" d="M 945.73 950.1 C 949.092 949.939 952.94 949.799 956.241 950.495 C 958.662 951.006 960.683 952.283 962.541 953.871 C 975.16 964.657 1081.86 1071.51 1085.29 1078.42 C 1086.91 1081.68 1086.62 1086.71 1085.44 1090.07 C 1082.42 1098.58 1074.55 1102.98 1066.85 1106.53 C 1056.41 1108.85 1047.81 1101.93 1041.72 1094.42 C 1021.93 1070.02 934.761 996.647 927.647 972.871 C 930.588 961.186 934.318 955.102 945.73 950.1 Z"></path>
<path transform="translate(0,0)" style="fill: rgb(0,0,0)" stroke-linecap="round" d="M 828.141 1078.09 C 831.816 1077.93 835.623 1077.95 839.175 1079.05 C 841.425 1079.74 843.297 1081.06 845.071 1082.58 C 858.917 1094.37 953.108 1188.63 958.657 1200.47 C 960.349 1204.08 960.11 1208.34 958.723 1212.02 C 955.894 1219.53 948.65 1224.45 941.749 1227.8 C 938.072 1228.12 934.068 1228.47 930.436 1227.61 C 927.964 1227.03 925.934 1225.49 924.019 1223.9 C 909.329 1211.69 817.403 1119.51 810.925 1107.55 C 809.013 1104.03 809.317 1098.56 810.656 1094.88 C 813.573 1086.86 820.691 1081.59 828.141 1078.09 Z"></path>
<path transform="translate(0,0)" style="fill: rgb(0,0,0)" stroke-linecap="round" d="M 1193.02 702.089 C 1198.64 701.921 1206.51 702.368 1210.82 706.366 C 1225.25 719.76 1239.08 734.259 1253.03 748.156 L 1295.97 790.837 C 1315.46 810.247 1342.37 827.078 1307.9 847.537 C 1300.26 848.606 1294.51 848.455 1288.62 842.38 C 1252.51 804.974 1212.63 770.008 1178.4 731.002 C 1170.2 721.649 1183.85 706.525 1193.02 702.089 Z"></path>
</svg>