<?xml version="1.0" encoding="UTF-8" standalone="no"?>
<!-- Generated by SVGMaker - https://svgmaker.io -->
<!-- Prompt: STYLE: Clean outline / line-art icons. Use a single consistent stroke weight throughout. Corners should be slightly rounded for a modern, approachable feel. No heavy gradients inside icons. No decorative flourishes or playful elements.

TONE: Clinical, private, and family-friendly. Icons must feel trustworthy and professional — like a medical utility tool, not a consumer wellness app.

SIZE ＆ READABILITY: Every icon must be readable and distinct at 20px to 28px. Shapes should be bold enough silhouettes to work at small sizes.

STROKE ＆ GEOMETRY: Consistent stroke weight and corner radius across all icons in the set. Prefer simple, recognisable silhouettes. Avoid overly complex detail. Use black (000000) as the only colour on a transparent background.

STATES: For status icons (confirm, warning, delete, iCloud), use stronger filled or badge variants to signal importance. All other icons remain outline-only unless noted.

EXPORT: Vector SVG with transparent background. Do not include drop shadows, outer glows, or bounding box fills.

COLOR: Output in monochrome / single foreground color so the app can tint icons programmatically.

DO NOT include: playful cartoon shapes, thick gradients, photorealistic elements, brand logos, or overly decorative styling.

App icon: Two or three small spark or gleam marks arranged subtly — a discovery/insight cue. Must feel subtle and clinical, not magical or consumer-app sparkly. Outline style. - updated by SVGMaker Editor -->
<!-- Quality: low -->
<!-- Type: generate -->
<!-- Created: 2026-06-01T15:02:45.943Z -->
<svg xmlns="http://www.w3.org/2000/svg" xmlns:xlink="http://www.w3.org/1999/xlink" version="1.1" width="1024" height="1024" viewBox="0 0 2048 2048">
<desc>Created with SVGMaker Editor 3.0.0</desc>
<defs>
</defs>
<path transform="translate(0,0)" style="fill: rgb(0,0,0)" stroke-linecap="round" d="M 774.043 338.436 C 788.619 337.058 817.702 338.621 831.981 339.653 C 936.395 347.2 1024.3 378.272 1110.02 437.332 C 1232.52 520.483 1316.5 649.348 1343.1 794.997 C 1365.15 913.944 1347.11 1036.85 1291.8 1144.44 C 1280.85 1165.26 1267.38 1185.59 1253.98 1204.91 C 1297.7 1250.4 1345.62 1296.99 1390.5 1341.56 L 1550.96 1502.18 C 1577.95 1528.99 1604.71 1556.02 1631.26 1583.26 C 1644.59 1596.9 1665.4 1616.9 1675.99 1632 C 1688.08 1649.39 1694.84 1669.94 1695.43 1691.11 C 1697.39 1774.29 1601.42 1829.7 1531 1786.22 C 1507.97 1772 1479.87 1740.55 1459.79 1720.54 L 1359.76 1620.79 L 1197.16 1457.93 C 1166.43 1427.18 1128.44 1391.34 1099.47 1359.74 C 1020.98 1410.87 931.496 1438.01 838.265 1444.19 C 689.699 1454.04 543.267 1404.73 430.929 1307.01 C 322.066 1212.12 255.653 1077.64 246.473 933.521 C 237.129 781.02 283.681 633.44 386.683 519.594 C 492.789 402.316 617.882 347.678 774.043 338.436 Z M 758.196 390.097 C 480.9 411.919 273.927 654.606 296.149 931.869 C 318.372 1209.13 561.357 1415.76 838.588 1393.13 C 1115.25 1370.56 1321.36 1128.17 1299.19 851.477 C 1277.01 574.779 1034.93 368.32 758.196 390.097 Z M 1139.27 1328.86 C 1173.92 1362.79 1208.28 1397.03 1242.33 1431.55 L 1434.54 1623.59 L 1505.09 1694.31 C 1521.32 1710.64 1546.93 1740.38 1567.75 1747.47 C 1584.14 1752.39 1596.76 1752.43 1612.63 1744.17 C 1626.74 1736.83 1636.39 1725.12 1641.08 1709.99 C 1645.74 1694.97 1643.48 1681.99 1637.9 1667.82 C 1636 1663 1625.51 1650.56 1621.58 1646.59 C 1591.66 1616.35 1561.44 1586.22 1531.36 1556.15 L 1352.27 1377.19 L 1265.37 1290.3 C 1258.37 1283.27 1229.58 1253.54 1222.58 1248.53 C 1202.64 1276.2 1165.8 1308.14 1139.27 1328.86 Z"></path>
<path transform="translate(0,0)" style="fill: rgb(0,0,0)" stroke-linecap="round" d="M 771.72 510.818 C 982.471 496.782 1164.76 656.115 1179.04 866.849 C 1193.33 1077.58 1034.21 1260.06 823.492 1274.59 C 612.422 1289.15 429.576 1129.71 415.267 918.622 C 400.959 707.535 560.616 524.877 771.72 510.818 Z M 808.496 1224.94 C 991.238 1218.66 1134.44 1065.7 1128.68 882.944 C 1122.93 700.185 970.372 556.546 787.598 561.787 C 604.09 567.05 459.747 720.35 465.53 903.842 C 471.313 1087.33 625.021 1231.24 808.496 1224.94 Z"></path>
<path transform="translate(0,0)" style="fill: rgb(0,0,0)" stroke-linecap="round" d="M 1377.29 195.365 C 1400.99 197.49 1402.17 214.64 1401.86 234.595 C 1401.27 284.395 1438.23 326.112 1485.6 337.851 C 1506.23 343.713 1545 334.245 1542.05 368.474 C 1539.85 394.077 1520.22 391.446 1502.98 392.343 C 1443.14 395.462 1399.92 448.405 1402.01 507.064 C 1402.65 525.112 1391.7 536.676 1373.31 535.59 C 1346.35 526.022 1355.47 508.708 1351.3 485.669 C 1343.19 440.937 1308.95 403.391 1264.06 394.035 C 1247.45 390.573 1229.04 395.986 1214.73 385.981 C 1203.59 378.186 1203.92 359.344 1211.95 349.771 C 1222.67 337.722 1242.06 341.917 1256.42 339.87 C 1304.51 333.014 1346.88 294.378 1351.79 244.925 C 1353.99 222.867 1347.99 197.946 1377.29 195.365 Z M 1318.65 365.763 C 1339.8 379.852 1365.06 399.007 1377.08 422.118 C 1394.92 394.61 1408.07 383.889 1435.63 365.86 C 1408.95 351.907 1393.36 334.75 1377.17 309.761 C 1362.46 332.404 1342.74 353.03 1318.65 365.763 Z"></path>
<path transform="translate(0,0)" style="fill: rgb(0,0,0)" stroke-linecap="round" d="M 1675.28 412.139 C 1712.95 410.423 1701.79 440.394 1707.33 465.344 C 1710.98 481.131 1718.49 495.768 1729.18 507.948 C 1743.25 523.709 1762.72 533.632 1783.74 535.766 C 1802.16 537.611 1824.76 535.195 1822.04 566.402 C 1819.94 590.501 1790.94 584.405 1774.55 587.821 C 1747.52 593.451 1723.65 613.318 1713.36 639.21 C 1705.64 657.295 1705.72 672.302 1703.11 691.137 C 1697.65 698.63 1694.31 700.683 1685.68 703.228 C 1656.56 703.919 1659.41 680.36 1655.71 660.351 C 1654.14 651.797 1651.39 643.504 1647.54 635.706 C 1634.99 610.227 1610.65 590.893 1582.12 587.186 C 1569.37 585.529 1548.33 588.529 1541.43 573.494 C 1538.86 567.902 1538.44 556.499 1541.09 550.742 C 1548.52 534.612 1568.37 536.579 1583.14 534.411 C 1589.44 533.441 1595.62 531.749 1601.54 529.369 C 1631.63 517.246 1651.58 487.716 1656.16 456.105 C 1659.04 436.154 1652.9 421.011 1675.28 412.139 Z M 1640.26 559.785 C 1658.51 575.947 1666.14 582.084 1681.01 601.163 C 1684.51 597.432 1688.34 591.01 1691.89 586.52 C 1700.66 575.428 1708.37 569.024 1719.21 560.236 C 1701.14 545.388 1694.32 538.001 1680.55 519.775 C 1665 538.378 1659.57 545.007 1640.26 559.785 Z"></path>
<path transform="translate(0,0)" style="fill: rgb(0,0,0)" stroke-linecap="round" d="M 1506.14 707.304 C 1539.27 703.092 1534.79 726.776 1540.09 748.388 C 1542.25 757.125 1546.17 765.331 1551.6 772.508 C 1565.35 790.6 1585.09 796.493 1606.75 798.131 C 1623.28 799.379 1634.94 813.274 1630.53 829.714 C 1622.81 858.552 1583.9 840.669 1562.71 858.652 C 1543.42 875.023 1538.74 885.685 1537.05 911.391 C 1536.04 921.535 1531.85 926.097 1524.38 931.474 C 1519.52 932.972 1512.07 934.121 1507.02 932.526 C 1482.98 924.941 1494.93 896.623 1481.4 876.369 C 1472.27 860.21 1455.02 851.19 1436.88 849.146 C 1424.91 848.035 1408.62 847.827 1402.81 834.915 C 1396.26 822.589 1404.37 800.243 1419.39 799.075 C 1453.85 796.394 1481.81 780.762 1487.84 744.056 C 1490.49 727.878 1488.01 715.023 1506.14 707.304 Z M 1490.82 819.977 C 1500.18 828.145 1505.02 833.535 1513.44 842.426 C 1520.86 833.181 1526.33 827.606 1535.58 820.134 C 1527.94 814.041 1517.82 805.871 1513.32 796.895 C 1505.11 807.154 1501.25 812.392 1490.82 819.977 Z"></path>
</svg>