<?xml version="1.0" encoding="UTF-8" standalone="no"?>
<!-- Generated by SVGMaker - https://svgmaker.io -->
<!-- Prompt: STYLE: Clean outline / line-art icons. Use a single consistent stroke weight throughout. Corners should be slightly rounded for a modern, approachable feel. No heavy gradients inside icons. No decorative flourishes or playful elements.

TONE: Clinical, private, and family-friendly. Icons must feel trustworthy and professional — like a medical utility tool, not a consumer wellness app.

SIZE ＆ READABILITY: Every icon must be readable and distinct at 20px to 28px. Shapes should be bold enough silhouettes to work at small sizes.

STROKE ＆ GEOMETRY: Consistent stroke weight and corner radius across all icons in the set. Prefer simple, recognisable silhouettes. Avoid overly complex detail. Use black (000000) as the only colour on a transparent background.

STATES: For status icons (confirm, warning, delete, iCloud), use stronger filled or badge variants to signal importance. All other icons remain outline-only unless noted.

EXPORT: Vector SVG with transparent background. Do not include drop shadows, outer glows, or bounding box fills.

COLOR: Output in monochrome / single foreground color so the app can tint icons programmatically.

DO NOT include: playful cartoon shapes, thick gradients, photorealistic elements, brand logos, or overly decorative styling.

App icon: An ECG or metric waveform — a smooth line with a single peak. Consistent with the trends and confidence icons. Outline style. Used as a metric filter cue. - updated by SVGMaker Editor -->
<!-- Quality: low -->
<!-- Type: generate -->
<!-- Created: 2026-06-01T15:20:10.477Z -->
<svg xmlns="http://www.w3.org/2000/svg" xmlns:xlink="http://www.w3.org/1999/xlink" version="1.1" width="1024" height="1024" viewBox="0 0 2048 2048">
<desc>Created with SVGMaker Editor 3.0.0</desc>
<defs>
</defs>
<path transform="translate(0,0)" style="fill: rgb(0,0,0)" stroke-linecap="round" d="M 1838.95 1730.05 C 1798.95 1802.94 1709.22 1861.78 1627.67 1872.17 C 1599.07 1875.81 1568.01 1874.89 1539 1874.9 L 1413.47 1874.92 L 987.308 1874.92 L 603.775 1874.92 L 494.999 1874.91 C 470.305 1874.92 441.773 1875.9 417.734 1872.74 C 369.138 1866.04 323.119 1846.82 284.198 1816.96 C 221.347 1768.45 180.37 1696.93 170.302 1618.17 C 166.962 1592.73 167.937 1563.12 167.939 1537.2 L 167.97 1422.52 L 167.874 1027.53 L 167.675 629.568 L 167.422 516.072 C 167.31 489.691 166.284 456.603 169.568 430.891 C 175.754 379.263 195.79 330.27 227.554 289.102 C 274.1 228.981 339.137 188.532 415.241 178.531 C 443.643 174.799 473.944 175.892 502.782 175.905 L 619.558 175.92 L 1017.31 175.931 L 1418.65 175.939 L 1533.73 175.934 C 1625.85 175.883 1688.49 178.053 1765.31 238.414 C 1836.26 294.162 1868.85 359.167 1879.41 448.156 C 1880.78 465.502 1879.85 497.697 1879.84 516.054 L 1879.8 645.601 L 1879.94 1057.66 L 1879.88 1425.61 L 1879.85 1537.54 C 1879.85 1562.79 1880.39 1587.52 1878.17 1612.54 C 1875.08 1647.28 1858.47 1700.75 1838.95 1730.05 Z M 1614.25 1807.92 C 1678.89 1798.81 1729.19 1770.72 1769 1718.26 C 1793.77 1685.68 1809.45 1647.11 1814.44 1606.49 C 1816.99 1584.99 1816.06 1553.01 1816.05 1530.28 L 1816.03 1407.17 L 1816.04 994.945 L 1816.05 620.806 L 1816.08 514.567 C 1816.08 489.012 1817.12 462.168 1813.45 436.674 C 1799.59 340.414 1713.84 253.864 1616.97 241.692 C 1590.91 238.417 1557.6 239.878 1530.99 239.881 L 1392.06 239.895 L 933.714 239.9 L 585.669 239.897 L 486.309 239.844 C 476.32 239.839 445.34 239.228 436.699 240.402 C 372.798 247.825 322.232 275.645 282.063 326.504 C 255.583 360.302 238.776 400.656 233.437 443.259 C 231.064 461.448 231.854 490.976 231.852 510.419 L 231.875 620.446 L 231.912 993.905 L 231.91 1402.92 L 231.898 1523.53 C 231.879 1551.24 230.832 1580.61 234.118 1607.94 C 241.847 1670.14 274.039 1726.69 323.572 1765.09 C 378.252 1807.7 420.901 1809.02 485.775 1809.06 L 576.222 1809.06 L 878.643 1809.05 L 1357.11 1809.07 L 1511.67 1809.06 C 1545.17 1809.05 1580.97 1809.68 1614.25 1807.92 Z"></path>
<path transform="translate(0,0)" style="fill: rgb(0,0,0)" stroke-linecap="round" d="M 1879.41 448.156 C 1880.78 465.502 1879.85 497.697 1879.84 516.054 L 1879.8 645.601 L 1879.94 1057.66 L 1879.88 1425.61 L 1879.85 1537.54 C 1879.85 1562.79 1880.39 1587.52 1878.17 1612.54 C 1875.08 1647.28 1858.47 1700.75 1838.95 1730.05 C 1837.69 1725.14 1848.24 1705.57 1850.77 1699.93 C 1856.6 1686.6 1861.7 1672.96 1866.05 1659.07 C 1874.74 1631.08 1876.3 1597.72 1876.33 1568.66 L 1876.24 738 L 1876.12 549.319 C 1876.05 521.49 1873.42 474.197 1879.41 448.156 Z"></path>
<path transform="translate(0,0)" style="fill: rgb(0,0,0)" stroke-linecap="round" d="M 779.439 1219.41 C 784.007 1206.84 790.528 1174.24 793.842 1159.87 L 822.134 1035.78 L 910.259 640.94 C 917.891 606.365 925.755 571.84 933.852 537.37 C 937.315 522.455 940.669 501.294 946.846 487.682 C 960.923 456.656 1004.16 460.962 1012.38 495.182 C 1017.93 518.301 1021.68 541.866 1025.94 565.477 L 1049.6 694.312 L 1130.74 1142.88 L 1152.96 1266.25 C 1157.53 1291.81 1163.21 1326.19 1169.8 1350.73 C 1173.55 1342.52 1177.75 1328.52 1180.69 1319.61 L 1200.13 1259.81 L 1279.16 1018.93 L 1304.08 943.993 C 1309.19 928.631 1319.89 891.251 1329.93 880.808 C 1336.57 873.936 1345.73 870.072 1355.28 870.11 C 1364.95 870.113 1374.17 874.169 1380.71 881.29 C 1390.11 891.504 1397.53 911.892 1403.04 925.126 L 1436.41 1005.36 C 1443.2 1021.67 1452.97 1050.5 1465 1062.14 L 1619.39 1062.16 C 1633.49 1062.17 1679.66 1061.27 1690.43 1063.63 C 1716.94 1076.48 1721.48 1111.63 1694.06 1124.65 C 1681.69 1130.05 1640.28 1128.43 1624.9 1128.01 C 1601.66 1128.97 1565.92 1128.3 1542.5 1127.91 C 1521.33 1128.33 1462.21 1130.67 1444.43 1125.67 C 1434.35 1122.84 1425.52 1117.2 1418.02 1109.98 C 1397.41 1090.16 1381 1039.06 1369.54 1011.22 C 1366.91 1004.83 1364.05 994.772 1359.37 989.848 C 1354.52 996.864 1341.3 1042.52 1337.13 1054.2 C 1325.69 1087.25 1314.63 1120.43 1303.95 1153.73 L 1231.36 1375.35 L 1206.01 1453.21 C 1199.09 1474.43 1193.67 1506.5 1168.47 1511.48 C 1158.87 1513.3 1148.95 1511.25 1140.86 1505.77 C 1133.51 1500.72 1128.12 1493.07 1126.14 1484.49 C 1121.3 1463.42 1117.73 1440.98 1113.82 1419.7 L 1088.35 1279.16 L 999.296 790.294 C 997.265 779.377 978.478 673.269 975.729 669.218 C 970.927 675.968 862.516 1157.8 851.123 1206.61 L 835.13 1275.08 C 832.145 1287.86 828.14 1310.76 822.335 1321.97 C 809.672 1346.45 775.133 1350.41 757.732 1326.83 C 751.791 1319.93 735.234 1279.93 730.739 1269.66 L 686.984 1169.15 C 683.656 1161.41 673.261 1135.58 668.786 1130.23 C 659.013 1126.73 599.593 1128.07 585.842 1128.07 L 468.706 1128.02 C 460.286 1128.16 451.863 1128.13 443.444 1127.94 C 427.985 1128.62 409.363 1128.09 393.668 1127.99 C 379.972 1128.31 365.556 1130.05 353.296 1122.89 C 337.415 1113.76 333.396 1093.48 343.21 1078.32 C 349.958 1067.9 357.526 1064.65 368.992 1062.34 C 442.606 1061.37 518.295 1062.25 592.031 1062.22 L 655.554 1062.12 C 666.951 1062.11 685.689 1061.48 696.184 1063.49 C 708.386 1069.04 716.974 1076.03 723.187 1088.06 C 738.633 1117.97 750.555 1149.93 764.245 1180.73 C 769.345 1192.2 777.019 1207.6 779.439 1219.41 Z"></path>
<path transform="translate(0,0)" style="fill: rgb(0,0,0)" stroke-linecap="round" d="M 472.406 1125.02 L 606.379 1124.55 C 623.163 1124.61 654.843 1123.94 670.575 1126.37 C 678.857 1138.4 694.587 1178.15 701.558 1193.91 L 736.692 1274.15 C 743.572 1289.8 750.489 1305.43 757.253 1321.13 C 758.197 1323.32 758.259 1324.59 757.732 1326.83 C 751.791 1319.93 735.234 1279.93 730.739 1269.66 L 686.984 1169.15 C 683.656 1161.41 673.261 1135.58 668.786 1130.23 C 659.013 1126.73 599.593 1128.07 585.842 1128.07 L 468.706 1128.02 L 467.701 1126.64 L 472.406 1125.02 Z"></path>
<path transform="translate(0,0)" style="fill: rgb(0,0,0)" stroke-linecap="round" d="M 368.992 1062.34 C 442.606 1061.37 518.295 1062.25 592.031 1062.22 L 655.554 1062.12 C 666.951 1062.11 685.689 1061.48 696.184 1063.49 C 688.936 1067.2 659.506 1066.04 649.482 1066.04 L 569.02 1066.06 L 442.38 1066.05 C 420.482 1066.05 398.204 1066.28 376.303 1065.66 C 373.042 1065.57 371.505 1064.36 368.992 1062.34 Z"></path>
<path transform="translate(0,0)" style="fill: rgb(0,0,0)" stroke-linecap="round" d="M 1465 1062.14 L 1619.39 1062.16 C 1633.49 1062.17 1679.66 1061.27 1690.43 1063.63 C 1685.93 1064.89 1680.27 1065.63 1675.57 1065.69 C 1613.18 1066.48 1550.73 1065.97 1488.32 1065.97 C 1483.07 1065.97 1467.81 1066.59 1465 1062.14 Z"></path>
<path transform="translate(0,0)" style="fill: rgb(0,0,0)" stroke-linecap="round" d="M 1542.5 1127.91 C 1543.02 1127.21 1543.38 1126.65 1544.07 1126.08 C 1547.71 1123.04 1616.76 1124.72 1624.95 1125.11 C 1624.87 1126.09 1624.66 1127.16 1624.9 1128.01 C 1601.66 1128.97 1565.92 1128.3 1542.5 1127.91 Z"></path>
<path transform="translate(0,0)" style="fill: rgb(0,0,0)" stroke-linecap="round" d="M 1624.95 1125.11 C 1633.59 1125.03 1691.06 1122.77 1694.06 1124.65 C 1681.69 1130.05 1640.28 1128.43 1624.9 1128.01 C 1624.66 1127.16 1624.87 1126.09 1624.95 1125.11 Z"></path>
<path transform="translate(0,0)" style="fill: rgb(0,0,0)" stroke-linecap="round" d="M 393.668 1127.99 C 398.074 1122.73 422.039 1124.94 429.461 1125.14 C 434.742 1126.68 439.838 1126.64 443.444 1127.94 C 427.985 1128.62 409.363 1128.09 393.668 1127.99 Z"></path>
<path transform="translate(0,0)" style="fill: rgb(0,0,0)" stroke-linecap="round" d="M 429.461 1125.14 C 441.291 1124.86 460.986 1124.32 472.406 1125.02 L 467.701 1126.64 L 468.706 1128.02 C 460.286 1128.16 451.863 1128.13 443.444 1127.94 C 439.838 1126.64 434.742 1126.68 429.461 1125.14 Z"></path>
</svg>