<?xml version="1.0" encoding="UTF-8" standalone="no"?>
<!-- Generated by SVGMaker - https://svgmaker.io -->
<!-- Prompt: STYLE: Clean outline / line-art icons. Use a single consistent stroke weight throughout. Corners should be slightly rounded for a modern, approachable feel. No heavy gradients inside icons. No decorative flourishes or playful elements.

TONE: Clinical, private, and family-friendly. Icons must feel trustworthy and professional — like a medical utility tool, not a consumer wellness app.

SIZE ＆ READABILITY: Every icon must be readable and distinct at 20px to 28px. Shapes should be bold enough silhouettes to work at small sizes.

STROKE ＆ GEOMETRY: Consistent stroke weight and corner radius across all icons in the set. Prefer simple, recognisable silhouettes. Avoid overly complex detail. Use black (000000) as the only colour on a transparent background.

STATES: For status icons (confirm, warning, delete, iCloud), use stronger filled or badge variants to signal importance. All other icons remain outline-only unless noted.

EXPORT: Vector SVG with transparent background. Do not include drop shadows, outer glows, or bounding box fills.

COLOR: Output in monochrome / single foreground color so the app can tint icons programmatically.

DO NOT include: playful cartoon shapes, thick gradients, photorealistic elements, brand logos, or overly decorative styling.

App icon: A document page with a question mark in its centre or as a small badge. Conveys a missing or unavailable file. Clear but not alarming. Outline style. -->
<!-- Quality: low -->
<!-- Type: generate -->
<!-- Created: 2026-06-01T14:58:02.047Z -->
<svg xmlns="http://www.w3.org/2000/svg" xmlns:xlink="http://www.w3.org/1999/xlink" version="1.1" width="1024" height="1024" viewBox="0 0 2048 2048">
<desc>Created with SVGMaker Editor 3.0.0</desc>
<defs>
</defs>
<path transform="translate(0,0)" style="fill: rgb(0,0,0)" stroke-linecap="round" d="M 1494.99 1771.9 C 1472.55 1772.58 1447.4 1772.11 1424.7 1772.11 L 1298.56 1772.05 L 911.333 1772.08 L 666.119 1772.05 L 589.922 1772.12 C 574.906 1772.13 557.96 1772.79 543.183 1771.5 C 493.975 1767.1 450.951 1724.55 448.707 1674.67 C 447.631 1650.74 448.224 1626.2 448.255 1602.24 L 448.318 1463.31 L 448.324 1014.81 L 448.353 576.696 L 448.274 442.535 C 448.242 423.03 447.184 387.176 448.871 368.571 C 451.5 342.272 464.269 318.032 484.47 300.991 C 519.768 271.685 549.852 276.134 592.915 276.214 L 678.289 276.256 L 964.846 276.285 L 1199.62 276.274 L 1268.61 276.275 C 1292.74 276.29 1316.76 274.283 1337.05 291.312 C 1352.15 303.982 1367 318.911 1381.05 332.818 L 1454.09 405.483 L 1510.92 461.918 C 1518.25 469.2 1534.42 484.491 1540.18 491.922 C 1548.64 498.737 1556.67 507.29 1564.27 514.632 C 1583.84 533.534 1597.35 546.613 1599.26 575.273 C 1600.55 594.801 1600.01 615.245 1599.99 635.061 L 1599.95 742.74 L 1600 1103.12 L 1600.01 1493.3 L 1600.01 1613.67 C 1600 1632.5 1601.34 1659.12 1599.34 1677.23 C 1593.44 1730.63 1549.1 1770.98 1494.99 1771.9 Z M 1500.88 1724.67 C 1517.35 1721.71 1531.96 1712.31 1541.49 1698.56 C 1547.76 1689.67 1551.5 1679.26 1552.33 1668.41 C 1553.39 1655.75 1552.98 1639.73 1552.99 1626.74 L 1552.98 1559.12 L 1552.95 1349.04 L 1552.99 847.573 C 1552.99 762.946 1552.02 676.264 1553.09 591.782 L 1426.98 591.85 C 1406.79 591.87 1364.2 593.344 1346.23 588.988 C 1328.91 584.804 1313.07 575.92 1300.47 563.315 C 1288.54 551.467 1280.09 536.566 1276.06 520.242 C 1270.54 498.46 1272.15 456.782 1272.16 432.475 L 1272.24 329.494 C 1272.25 326.91 1272.29 324.326 1272.34 321.742 L 787.253 321.843 L 631.638 321.837 C 607.085 321.832 573.377 320.856 549.542 322.145 C 525.273 327.527 500.609 344.324 496.896 371.443 C 494.456 389.266 495.874 413.183 495.875 431.523 L 495.886 536.128 L 495.925 880.567 L 495.935 1411.12 L 495.952 1583.08 C 495.948 1611.47 495.579 1640.25 496.066 1668.51 C 496.534 1695.71 521.937 1721.6 548.756 1723.98 C 564.633 1725.53 581.619 1725.05 597.683 1725.05 L 674.687 1725.01 L 927.099 1725.01 L 1307.24 1724.98 L 1430.72 1725.04 C 1452.6 1725.06 1479.39 1725.71 1500.88 1724.67 Z M 1527.84 545.232 C 1476.84 497.489 1427.73 445.103 1377.6 396.318 C 1369.07 388.011 1326.19 343.727 1319.05 339.443 L 1319.18 445.46 C 1319.17 492.364 1312.15 544.26 1378.69 545.303 C 1389.48 545.472 1400.46 545.314 1411.27 545.299 L 1487.42 545.135 C 1499.61 545.107 1516.09 544.615 1527.84 545.232 Z"></path>
<path transform="translate(0,0)" style="fill: rgb(0,0,0)" stroke-linecap="round" d="M 1540.18 491.922 C 1548.64 498.737 1556.67 507.29 1564.27 514.632 C 1583.84 533.534 1597.35 546.613 1599.26 575.273 C 1600.55 594.801 1600.01 615.245 1599.99 635.061 L 1599.95 742.74 L 1600 1103.12 L 1600.01 1493.3 L 1600.01 1613.67 C 1600 1632.5 1601.34 1659.12 1599.34 1677.23 C 1593.44 1730.63 1549.1 1770.98 1494.99 1771.9 C 1500.78 1768.15 1516.12 1767.41 1523.56 1765.07 C 1531.63 1762.52 1538.18 1759.75 1545.53 1755.43 C 1569.25 1741.6 1586.45 1718.83 1593.27 1692.23 C 1598.15 1673.44 1596.78 1628.06 1596.77 1606.75 L 1596.75 1494.97 L 1596.75 1013.41 L 1596.67 707.929 L 1596.7 624.148 C 1596.72 604.858 1597.28 582.491 1594.4 563.627 C 1590.4 539.021 1569.06 524.493 1552.96 507.757 C 1548.19 502.804 1543.25 498.061 1540.18 491.922 Z"></path>
<path transform="translate(0,0)" style="fill: rgb(0,0,0)" stroke-linecap="round" d="M 998.228 637.564 C 1035.25 634.681 1072.92 641.993 1108.45 652.89 C 1238.73 692.845 1304.92 826.611 1257.07 953.92 C 1244.78 986.599 1223.72 1013.26 1198.71 1037.57 C 1171.39 1064.14 1134.07 1081.36 1112.61 1113.44 C 1095.82 1139.74 1104.07 1170.53 1096.79 1198.58 C 1093.19 1212.46 1077.91 1222.8 1063.95 1223.53 C 1044.98 1224.51 1025.77 1224.4 1006.61 1224.03 C 987.722 1223.67 966.159 1226.58 948.045 1220.72 C 919.698 1209.14 922.155 1182.99 922.006 1158.5 C 921.81 1126.11 923.961 1101.01 936.011 1070.64 C 955.894 1026.76 987.875 998.845 1026.76 970.502 C 1076.11 934.524 1117.22 873.324 1058.05 823.576 C 1016.12 788.324 947.042 811.041 932.301 863.712 C 925.908 886.556 923.623 909.972 892.783 911.883 C 869.727 913.109 845.656 911.604 822.474 912.011 C 809.204 912.244 795.4 912.671 782.217 911.501 C 762.883 909.004 750.905 893.148 750.121 874.45 C 748.091 819.844 770.897 765.519 806.294 724.61 C 857.145 665.842 922.988 642.366 998.228 637.564 Z M 795.652 865.864 C 823.567 865.86 853.987 865.242 881.695 865.999 C 898.638 793.347 965.563 746.356 1039.67 763.957 C 1072.1 771.764 1100.1 792.137 1117.51 820.593 C 1159.93 890.413 1114.35 965.633 1055.96 1006.47 C 1047.82 1012.17 1033.68 1023.11 1026.57 1029.62 C 971.602 1074.49 969.73 1111.56 969.854 1178.11 C 997.664 1178.28 1025.47 1178.26 1053.28 1178.05 C 1051.77 1092.19 1081.68 1067.91 1147.58 1019.96 C 1196.25 984.549 1226.72 929.044 1225.79 867.789 C 1225.39 820.869 1206.1 776.09 1172.27 743.569 C 1122.97 695.789 1061.15 680.8 994.669 684.017 C 993.216 684.087 992.864 684.082 991.395 684.386 C 929.768 690.66 880.519 709.51 839.096 758.608 C 815.176 786.96 798.688 828.818 795.652 865.864 Z"></path>
<path transform="translate(0,0)" style="fill: rgb(0,0,0)" stroke-linecap="round" d="M 995.625 1264.87 C 1049.82 1257.45 1099.73 1295.49 1106.95 1349.71 C 1114.17 1403.93 1075.97 1453.7 1021.72 1460.73 C 967.743 1467.73 918.273 1429.76 911.085 1375.8 C 903.896 1321.85 941.698 1272.25 995.625 1264.87 Z M 1016.69 1414.32 C 1035.22 1411.62 1050.87 1399.18 1057.68 1381.73 C 1064.48 1364.29 1061.39 1344.54 1049.59 1330 C 1037.78 1315.47 1019.08 1308.4 1000.61 1311.48 C 972.472 1316.18 953.363 1342.67 957.77 1370.86 C 962.177 1399.05 988.459 1418.43 1016.69 1414.32 Z"></path>
</svg>