<?xml version="1.0" encoding="UTF-8" standalone="no"?>
<!-- Generated by SVGMaker - https://svgmaker.io -->
<!-- Prompt: STYLE: Clean outline / line-art icons. Use a single consistent stroke weight throughout. Corners should be slightly rounded for a modern, approachable feel. No heavy gradients inside icons. No decorative flourishes or playful elements.

TONE: Clinical, private, and family-friendly. Icons must feel trustworthy and professional — like a medical utility tool, not a consumer wellness app.

SIZE ＆ READABILITY: Every icon must be readable and distinct at 20px to 28px. Shapes should be bold enough silhouettes to work at small sizes.

STROKE ＆ GEOMETRY: Consistent stroke weight and corner radius across all icons in the set. Prefer simple, recognisable silhouettes. Avoid overly complex detail. Use black (000000) as the only colour on a transparent background.

STATES: For status icons (confirm, warning, delete, iCloud), use stronger filled or badge variants to signal importance. All other icons remain outline-only unless noted.

EXPORT: Vector SVG with transparent background. Do not include drop shadows, outer glows, or bounding box fills.

COLOR: Output in monochrome / single foreground color so the app can tint icons programmatically.

DO NOT include: playful cartoon shapes, thick gradients, photorealistic elements, brand logos, or overly decorative styling.

App icon: A clean X / cross mark, symmetrical and neutral. Not aggressive — used for reject and clear actions. Outline style, balanced stroke. - updated by SVGMaker Editor -->
<!-- Quality: low -->
<!-- Type: generate -->
<!-- Created: 2026-06-01T14:36:20.105Z -->
<svg xmlns="http://www.w3.org/2000/svg" xmlns:xlink="http://www.w3.org/1999/xlink" version="1.1" width="1024" height="1024" viewBox="0 0 2048 2048">
<desc>Created with SVGMaker Editor 3.0.0</desc>
<defs>
</defs>
<path transform="translate(0,0)" style="stroke-linecap: round; fill: rgb(0,0,0)" stroke-linecap="round" d="M 420.021 184.938 C 452.363 184.14 486.63 184.724 519.119 184.725 L 699.672 184.745 L 1243.71 184.74 L 1519.3 184.749 L 1598.39 184.718 C 1609.81 184.717 1632.4 184.204 1643.19 185.724 C 1697.52 187.649 1755.98 218.116 1793.42 256.741 C 1829.11 292.958 1852.62 339.393 1860.7 389.592 C 1864.8 415.013 1863.95 433.43 1863.93 458.924 L 1863.91 531.693 L 1863.9 787.082 L 1863.89 1343.55 L 1863.92 1523.33 C 1863.95 1555.59 1864.57 1589.7 1863.87 1621.82 C 1862.24 1684.66 1835.76 1744.29 1790.25 1787.66 C 1753.23 1823.08 1709.6 1845.78 1658.88 1853.99 C 1635.83 1857.71 1613.22 1857.06 1589.99 1857.06 L 1515.65 1857.01 L 1249.62 1857 L 698.546 1857.01 L 519.445 1857.04 C 486.769 1857.06 453.628 1857.35 421.004 1856.92 C 355.618 1856.06 294.091 1828.63 249.033 1780.95 C 215.283 1745.62 193.147 1700.82 185.595 1652.55 C 181.112 1624.48 182.03 1604.25 182.054 1576.3 L 182.098 1499.37 L 182.092 1224.37 L 182.123 688.71 L 182.055 512.335 C 182.055 482.294 181.386 448.963 182.286 419.22 C 184.295 355.164 211.644 294.523 258.327 250.614 C 302.624 209.199 358.45 182.777 420.021 184.938 Z M 240.902 622.506 C 239.236 641.111 240.087 675.085 240.155 694.22 L 240.065 805.651 L 239.272 1156.5 L 238.178 1480.21 L 238.104 1566.47 C 237.894 1627 238.97 1681.92 280.762 1731.14 C 287.369 1738.92 303.946 1757.5 313.99 1759.56 C 344.888 1778.79 368.738 1792.62 406.871 1793.34 C 434.327 1793.86 462.829 1793.25 490.363 1793.24 L 665.004 1793.23 L 1197.46 1793.24 L 1505.72 1793.23 L 1594.98 1793.31 C 1613.06 1793.32 1636.36 1794.09 1653.76 1791.81 C 1688.53 1787.13 1720.99 1771.75 1746.63 1747.81 C 1782.27 1715.25 1803.3 1669.71 1804.97 1621.47 C 1805.98 1591.89 1805.19 1557.67 1805.17 1527.68 L 1805.13 1355.8 L 1805.16 826.498 L 1805.16 544.907 L 1805.19 461.69 C 1805.19 444.035 1805.83 420.769 1803.45 403.802 C 1797.9 365.978 1780.9 330.761 1754.73 302.886 C 1724.61 270.581 1680.85 246.601 1636.29 246.242 C 1604.25 245.984 1571.83 246.219 1539.76 246.257 L 1362.99 246.237 L 814.706 246.24 L 536.153 246.228 L 452.647 246.181 C 391.071 246.18 347.084 247.789 299.533 293.748 C 267.024 324.519 244.133 371.219 242.079 416.684 C 239.014 484.499 242.733 554.465 240.902 622.506 Z"></path>
<path transform="translate(0,0)" style="stroke-linecap: round; fill: rgb(0,0,0)" stroke-linecap="round" d="M 420.021 184.938 C 452.363 184.14 486.63 184.724 519.119 184.725 L 699.672 184.745 L 1243.71 184.74 L 1519.3 184.749 L 1598.39 184.718 C 1609.81 184.717 1632.4 184.204 1643.19 185.724 C 1634.46 186.147 1625.51 187.549 1616.74 187.71 C 1593.73 188.134 1570.59 187.974 1547.57 187.976 L 1423.7 187.974 L 1097.94 187.979 L 660.139 187.944 C 586.488 187.939 512.653 188.1 438.994 187.824 C 432.76 187.801 425.487 187.897 420.021 184.938 Z"></path>
<path transform="translate(0,0)" style="stroke-linecap: round; fill: rgb(0,0,0)" stroke-linecap="round" d="M 1024.29 930.4901 C 1048.69 904.8611 1075.35 878.9581 1100.44 853.8451 L 1236.54 717.7101 L 1343.56 610.6621 C 1363.68 590.5041 1383.68 570.2931 1404.13 550.3521 C 1417.89 536.9381 1430.23 531.6551 1449.74 531.9971 C 1465.05 532.2661 1479.65 539.1731 1489.86 550.8251 C 1499.82 562.0081 1504.86 576.7301 1503.84 591.6691 C 1503 602.5231 1499.95 611.4861 1492.7 619.5441 C 1475.53 638.6061 1455.93 657.4441 1437.8 675.5871 L 1339.75 774.5971 L 1185.21 929.9641 C 1162.74 952.4651 1127.74 989.6251 1104.45 1009.7981 C 1132.72 1035.7631 1166.59 1071.1531 1194.35 1098.9431 L 1361.07 1266.9831 L 1448.32 1354.7031 C 1459.8 1366.2331 1471.34 1377.7331 1482.71 1389.3631 C 1494.92 1401.8431 1502.63 1411.303 1503.88 1429.2231 C 1504.96 1444.2231 1499.91 1459.0131 1489.91 1470.2431 C 1480.42 1481.073 1468.05 1487.053 1453.69 1487.9831 L 1452.38 1487.9931 C 1418.71 1488.1031 1402.38 1463.043 1380.24 1440.9931 L 1304.93 1365.9231 L 1025.39 1086.3431 C 1019.16 1094.2531 1011.8 1101.2731 1004.68 1108.3631 C 984.672 1128.313 964.556 1148.1631 944.576 1168.1431 L 792.628 1320.3631 L 687.412 1425.6131 C 670.917 1442.0831 653.44 1459.9631 636.335 1475.8331 C 626.609 1483.8531 615.77 1487.5231 603.49 1488.1031 C 556.683 1490.3831 529.884 1434.323 559.049 1398.6331 C 570.985 1384.0231 586.072 1370.1631 599.494 1356.7231 L 679.777 1276.3831 L 942.699 1009.6501 C 913.898 982.1351 882.088 948.8571 853.638 920.3081 L 687.378 753.2531 L 603.611 668.7761 C 588.606 653.7071 572.932 638.4831 558.603 622.7621 C 553.145 616.7741 548.56 605.4541 547.574 597.1551 C 543.312 561.3021 565.715 536.5031 600.286 532.0441 C 628.833 531.6041 641.823 548.2361 660.223 566.6421 L 698.717 605.1771 L 825.943 732.4191 L 948.034 853.8231 L 993.359 898.5481 C 1003.14 908.2321 1015.71 920.1181 1024.29 930.4901 Z"></path>
<path transform="translate(0,0)" style="stroke-linecap: round; fill: rgb(0,0,0)" stroke-linecap="round" d="M 313.99 1759.56 C 303.946 1757.5 287.369 1738.92 280.762 1731.14 C 238.97 1681.92 237.894 1627 238.104 1566.47 L 238.178 1480.21 L 239.272 1156.5 L 240.065 805.651 L 240.155 694.22 C 240.087 675.085 239.236 641.111 240.902 622.506 C 242.482 703.929 241.118 789.792 241.126 871.543 L 241.17 1350.96 L 241.192 1528.2 C 241.205 1562.49 239.553 1615.09 245.291 1647.18 C 251.648 1684.43 269.907 1718.61 297.33 1744.61 C 302.69 1749.8 308.248 1754.79 313.99 1759.56 Z"></path>
</svg>