<?xml version="1.0" encoding="UTF-8" standalone="no"?>
<!-- Generated by SVGMaker - https://svgmaker.io -->
<!-- Prompt: STYLE: Clean outline / line-art icons. Use a single consistent stroke weight throughout. Corners should be slightly rounded for a modern, approachable feel. No heavy gradients inside icons. No decorative flourishes or playful elements.

TONE: Clinical, private, and family-friendly. Icons must feel trustworthy and professional — like a medical utility tool, not a consumer wellness app.

SIZE ＆ READABILITY: Every icon must be readable and distinct at 20px to 28px. Shapes should be bold enough silhouettes to work at small sizes.

STROKE ＆ GEOMETRY: Consistent stroke weight and corner radius across all icons in the set. Prefer simple, recognisable silhouettes. Avoid overly complex detail. Use black (000000) as the only colour on a transparent background.

STATES: For status icons (confirm, warning, delete, iCloud), use stronger filled or badge variants to signal importance. All other icons remain outline-only unless noted.

EXPORT: Vector SVG with transparent background. Do not include drop shadows, outer glows, or bounding box fills.

COLOR: Output in monochrome / single foreground color so the app can tint icons programmatically.

DO NOT include: playful cartoon shapes, thick gradients, photorealistic elements, brand logos, or overly decorative styling.

App icon: An inbox tray with a downward arrow above it, suggesting a downloaded or recently imported record. Outline style, clean silhouette. - updated by SVGMaker Editor -->
<!-- Quality: low -->
<!-- Type: generate -->
<!-- Created: 2026-06-01T14:59:16.961Z -->
<svg xmlns="http://www.w3.org/2000/svg" xmlns:xlink="http://www.w3.org/1999/xlink" version="1.1" width="1024" height="1024" viewBox="0 0 2048 2048">
<desc>Created with SVGMaker Editor 3.0.0</desc>
<defs>
</defs>
<path transform="translate(0,0)" style="fill: rgb(0,0,0)" stroke-linecap="round" d="M 501.648 648.42 C 507.727 647.706 528.155 648.156 534.959 648.172 L 604.003 648.254 L 714.18 648.231 C 728.904 648.222 767.313 646.125 779.009 651.149 C 788.362 655.231 795.597 663.018 798.982 672.645 C 802.169 681.585 801.569 691.438 797.322 699.926 C 784.257 725.741 747.069 719.498 722.531 719.521 L 574.023 719.589 C 557.233 719.675 528.41 718.482 513.066 719.667 C 508.155 720.002 503.312 721.008 498.674 722.656 C 469.467 733.04 463.039 761.357 454.116 787.363 C 447.688 806.277 441.127 825.146 434.435 843.969 L 352.463 1077.36 L 324.993 1155.48 C 321.13 1166.45 313.955 1188.62 309.372 1198.23 L 319.496 1198.18 L 515.793 1198.22 L 592.185 1198.22 C 658.036 1198.22 703.374 1196.05 742.967 1259.16 C 759.966 1286.25 768.771 1336.31 790.28 1357.29 C 799.383 1366.09 811.01 1371.83 823.536 1373.71 C 833.173 1375.05 859.859 1374.27 870.937 1374.19 L 952.737 1374.05 L 1124.11 1373.99 C 1152.72 1373.99 1181.08 1374.38 1210.11 1374.02 C 1287.98 1373.04 1275.76 1278.68 1321.13 1235.16 C 1357.11 1197.4 1394.85 1198.87 1443.44 1198.28 C 1541.77 1197.08 1641.45 1200.19 1739.82 1198.03 C 1734.3 1184.6 1728.62 1166.95 1723.75 1152.98 L 1698.55 1081.27 L 1616.07 848.556 C 1608.27 826.742 1584.7 751.074 1572.64 737.341 C 1566.24 730.056 1556.2 723.616 1546.83 721.405 C 1528.75 717.135 1501.75 719.389 1482.75 719.409 L 1343.38 719.484 C 1322.6 719.487 1301.77 720.187 1280.97 719.479 C 1247.62 718.342 1236.1 674.292 1262.16 655.231 C 1265.72 652.623 1270.45 649.586 1274.89 649.174 C 1291.23 647.656 1308.12 648.177 1324.51 648.168 L 1414.94 648.154 L 1506.13 648.188 C 1519.87 648.196 1544.6 647.445 1557.23 649.255 C 1576.08 652.055 1593.96 659.419 1609.32 670.704 C 1625.33 682.241 1640.62 699.63 1648.39 717.74 C 1660.33 745.548 1670.15 776.958 1680.2 805.659 L 1740.1 976.362 L 1793.41 1127.56 C 1801.31 1149.92 1818.83 1193.97 1821.81 1215.76 C 1825.12 1239.92 1824.04 1279.78 1824.05 1305.54 L 1824.07 1457.6 L 1824.06 1603.24 C 1824.06 1664.2 1829.33 1711.45 1790 1763.69 C 1764.76 1797.01 1727.27 1818.87 1685.84 1824.42 C 1668.01 1826.78 1636.39 1825.85 1617.51 1825.83 L 1502.18 1825.75 L 1101.77 1825.78 L 599.532 1825.79 L 444.062 1825.82 C 383.613 1825.85 336.663 1833.54 285.82 1793.6 C 218.547 1740.76 225.214 1673.62 225.223 1597.97 L 225.233 1445.48 L 225.156 1304.41 C 225.121 1279.17 224.097 1242.06 227.162 1217.97 C 230.457 1192.07 246.904 1150.08 256.052 1124.1 L 305.026 985.789 L 363.266 818.89 C 374.467 786.46 385.487 753.496 397.521 721.361 C 400.451 713.537 409.702 699.029 415.066 692.56 C 438.249 664.604 466.5 652.31 501.648 648.42 Z M 395.4 1752.27 C 482.605 1754.46 576.533 1752.74 664.118 1752.72 L 1158.16 1752.71 L 1489.71 1752.74 L 1593.55 1752.74 C 1616.39 1752.76 1639.53 1753.2 1662.31 1751.92 C 1675.98 1751.15 1687.03 1746.44 1699.26 1740.69 C 1717.59 1729.05 1727.54 1717.01 1737.7 1698.27 C 1748.61 1672.34 1746.97 1651.18 1746.79 1623.6 C 1746.65 1602.79 1746.53 1581.91 1746.47 1561.09 L 1746.44 1385.79 C 1746.36 1349.56 1745.15 1305.36 1747.06 1270.01 L 1715.97 1269.87 C 1643.18 1270.88 1568.37 1269.98 1495.43 1269.98 L 1443.58 1269.97 C 1430.43 1269.95 1414.13 1269.01 1401.51 1271.57 C 1370 1277.99 1360.06 1308.92 1349.94 1334.97 C 1343.16 1352.41 1336.57 1369.89 1327.39 1386.07 C 1303.44 1425.31 1262.2 1447.8 1216.45 1447.95 C 1127.87 1448.24 1039.22 1448.06 950.661 1448.09 L 868.535 1448.11 C 817.767 1448.11 778.418 1449.5 738.847 1411.23 C 713.303 1386.52 704.953 1356.44 692.349 1324.34 C 683.889 1301.94 672.876 1276.64 646.054 1271.4 C 633.026 1268.85 616.248 1269.81 602.75 1269.82 L 541.291 1269.85 C 462.271 1269.7 380.818 1269.06 301.984 1269.94 L 299.966 1269.97 L 300.018 1548.76 L 300.023 1623.78 C 300.031 1662.85 297.515 1696.03 327.816 1725.9 C 347.135 1744.94 368.625 1751.99 395.4 1752.27 Z"></path>
<path transform="translate(0,0)" style="fill: rgb(0,0,0)" stroke-linecap="round" d="M 1699.26 1740.69 C 1683.9 1759.16 1631.16 1756.01 1608.73 1756.01 L 1525.18 1756.01 L 1256.03 1755.97 L 644.201 1755.97 L 504.202 1755.98 C 480.653 1756.01 414.468 1758.19 395.4 1752.27 C 482.605 1754.46 576.533 1752.74 664.118 1752.72 L 1158.16 1752.71 L 1489.71 1752.74 L 1593.55 1752.74 C 1616.39 1752.76 1639.53 1753.2 1662.31 1751.92 C 1675.98 1751.15 1687.03 1746.44 1699.26 1740.69 Z"></path>
<path transform="translate(0,0)" style="fill: rgb(0,0,0)" stroke-linecap="round" d="M 1715.97 1269.87 C 1723.76 1265.49 1739.43 1266.96 1748.89 1267.08 C 1750.11 1293.22 1749.38 1319.82 1749.45 1346.01 L 1749.66 1490.76 L 1749.77 1596.16 C 1749.81 1616.54 1753.75 1687.12 1737.7 1698.27 C 1748.61 1672.34 1746.97 1651.18 1746.79 1623.6 C 1746.65 1602.79 1746.53 1581.91 1746.47 1561.09 L 1746.44 1385.79 C 1746.36 1349.56 1745.15 1305.36 1747.06 1270.01 L 1715.97 1269.87 Z"></path>
<path transform="translate(0,0)" style="fill: rgb(0,0,0)" stroke-linecap="round" d="M 1014.13 211.161 C 1034.88 208.038 1056.65 221.857 1057.46 243.876 C 1058.34 267.502 1057.89 291.412 1057.87 315.094 L 1057.83 460.673 L 1058.03 930.611 L 1152.69 834.449 C 1168.25 818.697 1183.66 802.824 1199.67 787.54 C 1211.55 776.203 1228.45 772.18 1243.67 779.333 C 1252.53 783.585 1259.35 791.159 1262.66 800.412 C 1265.79 809.445 1265.15 819.356 1260.88 827.91 C 1256.08 837.336 1196.4 895.476 1184.19 907.785 L 1099.88 992.435 C 1084 1008.27 1067.79 1024.49 1051.28 1039.71 C 1046.5 1044.12 1040.45 1047.26 1034.23 1049.15 C 1019.95 1052.9 1002.56 1049.69 991.567 1039.54 C 974.096 1023.42 957.435 1006.19 940.626 989.343 C 909.062 957.969 877.757 926.336 846.714 894.447 C 827.369 874.517 806.522 855.064 788.139 834.216 C 783.84 829.34 781.345 820.407 780.999 813.973 C 780.413 804.192 783.846 794.595 790.504 787.406 C 801.837 775.276 825.382 771.629 837.675 781.867 C 853.929 795.404 871.452 814.223 886.507 829.317 L 984.215 927.66 L 984.116 486.463 L 984.079 329.321 C 984.051 301.631 983.777 273.898 984.284 246.22 C 984.624 227.66 996.397 215.094 1014.13 211.161 Z"></path>
</svg>