<?xml version="1.0" encoding="UTF-8" standalone="no"?>
<!-- Generated by SVGMaker - https://svgmaker.io -->
<!-- Prompt: STYLE: Clean outline / line-art icons. Use a single consistent stroke weight throughout. Corners should be slightly rounded for a modern, approachable feel. No heavy gradients inside icons. No decorative flourishes or playful elements.

TONE: Clinical, private, and family-friendly. Icons must feel trustworthy and professional — like a medical utility tool, not a consumer wellness app.

SIZE ＆ READABILITY: Every icon must be readable and distinct at 20px to 28px. Shapes should be bold enough silhouettes to work at small sizes.

STROKE ＆ GEOMETRY: Consistent stroke weight and corner radius across all icons in the set. Prefer simple, recognisable silhouettes. Avoid overly complex detail. Use black (000000) as the only colour on a transparent background.

STATES: For status icons (confirm, warning, delete, iCloud), use stronger filled or badge variants to signal importance. All other icons remain outline-only unless noted.

EXPORT: Vector SVG with transparent background. Do not include drop shadows, outer glows, or bounding box fills.

COLOR: Output in monochrome / single foreground color so the app can tint icons programmatically.

DO NOT include: playful cartoon shapes, thick gradients, photorealistic elements, brand logos, or overly decorative styling.

App icon: A folder with a small plus symbol on it or above it, suggesting adding a file. Upload or choose-file cue. Outline style. Folder should be clearly distinguishable from a document page. - updated by SVGMaker Editor -->
<!-- Quality: low -->
<!-- Type: generate -->
<!-- Created: 2026-06-01T14:56:58.444Z -->
<svg xmlns="http://www.w3.org/2000/svg" xmlns:xlink="http://www.w3.org/1999/xlink" version="1.1" width="1024" height="1024" viewBox="0 0 2048 2048">
<desc>Created with SVGMaker Editor 3.0.0</desc>
<defs>
</defs>
<path transform="translate(0,0)" style="fill: rgb(0,0,0)" stroke-linecap="round" d="M 363.712 487.024 C 378.951 470.169 417.027 458.521 439.276 458.199 C 463.002 457.855 487.315 457.971 511.092 458 L 642.09 458.039 L 731.842 457.948 C 752.98 457.927 775.373 456.502 796.12 460.507 C 844.407 469.83 868.176 500.041 895.423 536.887 L 934.223 589.597 C 952.878 614.919 968.942 638.995 1003.42 639.879 C 1023.97 640.405 1044.65 639.988 1065.2 639.99 L 1209.39 640.018 C 1220.57 639.995 1255.22 638.967 1263.43 641.733 C 1274.12 645.338 1281.44 655.205 1281.78 666.476 C 1282.54 701.647 1244.88 696.216 1221.31 696.085 L 1163.73 696.104 L 1061.31 696.131 C 1008.29 696.187 955.647 702.273 916.532 657.118 C 894.133 631.26 875.494 602.155 854.686 575.024 C 833.091 546.142 814.143 514.616 773.545 513.846 C 748.58 513.373 723.492 513.613 698.461 513.62 L 554.977 513.652 L 475.418 513.569 C 465.544 513.557 443.018 512.963 434.213 514.358 C 420.205 516.54 407.149 522.799 396.675 532.354 C 382.13 545.658 373.981 566.964 373.884 586.289 C 373.648 633.402 373.867 680.852 373.863 727.963 L 373.865 1014.84 L 373.857 1195.16 C 373.832 1221.53 372.424 1268.83 374.755 1293.43 C 391.183 1192.76 407.025 1091.99 422.281 991.142 L 432.742 924.475 C 435.441 906.609 437.952 883.601 443.846 867.103 C 452.094 843.448 467.401 822.894 487.701 808.215 C 523.841 782.187 555.854 785 597.816 785.05 L 678.944 785.14 L 940.375 785.131 L 1434.41 785.114 C 1514.61 785.102 1598.76 783.769 1678.73 785.013 C 1681.31 760.842 1680.37 739.672 1664.32 719.763 C 1653.55 706.656 1638.05 698.318 1621.18 696.555 C 1605.29 695.021 1588.37 698.767 1575.91 685.516 C 1566.45 675.458 1569.62 654.199 1580.42 646.743 C 1606.95 628.433 1675.65 646.902 1693.23 670.991 C 1704.81 680.332 1715.16 695.262 1722.14 708.332 C 1740.5 742.697 1736.19 777.8 1732.73 814.887 L 1724.1 900.203 L 1683.19 1286.61 L 1662.73 1480.38 L 1657.07 1532.07 C 1655.69 1545.48 1654.42 1562.04 1651.81 1574.99 C 1647.5 1596.91 1637.82 1617.43 1623.63 1634.69 C 1601.55 1661.4 1569.68 1678.15 1535.15 1681.17 C 1516.76 1682.81 1485.75 1681.92 1466.58 1681.92 L 1341.43 1681.89 L 945.061 1681.87 L 587.952 1681.83 L 481.382 1681.94 C 435.004 1682.03 397.541 1687.1 359.431 1654.66 C 334.722 1633.62 320.955 1607.16 318.408 1574.29 C 317.13 1548.97 317.649 1519.89 317.627 1493.97 L 317.671 1344.57 L 317.7 1172.02 C 317.726 1147.02 316.545 1110.62 317.962 1086.65 C 316.547 1074.76 317.735 1033.59 317.766 1019.54 L 317.697 879.618 L 317.654 676.498 C 317.644 646.468 317.638 616.421 317.896 586.387 C 318.212 549.629 332.875 509.385 363.712 487.024 Z M 1532.37 1625.98 C 1545.11 1621.9 1553.46 1621.11 1565.68 1613.4 C 1601.45 1590.84 1600.66 1546.06 1604.54 1508.58 L 1613.87 1422.54 L 1657.01 1016.19 L 1669.36 896.651 C 1670.82 882.71 1673.17 851.783 1675.81 840.11 C 1594.22 838.99 1509.57 840.127 1427.72 840.123 L 931.086 840.112 L 680.519 840.133 L 601.938 840.052 C 588.545 840.046 568.498 839.498 555.624 840.777 C 539.524 842.453 524.448 849.467 512.795 860.701 C 490.564 881.734 489.594 914.544 485.213 943.2 C 481.418 968.273 477.473 993.322 473.378 1018.35 L 428.577 1301.53 L 400.399 1479.69 L 390.938 1538.59 C 388.826 1552.07 383.816 1577.2 386.727 1589.91 C 396.129 1630.96 441.03 1626.1 473.148 1626.09 L 547.981 1626.01 L 1202.62 1626 C 1311.53 1626 1423.84 1627.44 1532.37 1625.98 Z"></path>
<path transform="translate(0,0)" style="fill: rgb(0,0,0)" stroke-linecap="round" d="M 317.962 1086.65 C 316.547 1074.76 317.735 1033.59 317.766 1019.54 L 317.697 879.618 L 317.654 676.498 C 317.644 646.468 317.638 616.421 317.896 586.387 C 318.212 549.629 332.875 509.385 363.712 487.024 C 361.129 492.56 356.067 496.259 352.029 500.979 C 341.222 513.614 330.984 528.412 326.209 544.509 C 318.722 571.925 320.624 604.197 320.904 632.729 C 321.114 653.671 321.189 674.615 321.131 695.558 L 320.95 947.626 L 321.089 1036.07 C 321.112 1053.07 321.569 1072.54 320.772 1089.31 L 321.138 1425.73 C 321.247 1455.41 321.141 1485.09 320.819 1514.76 C 320.64 1534.53 320.114 1554.11 321.213 1573.91 C 324.261 1628.86 370.586 1676.93 426.222 1678.22 C 448.768 1678.74 471.704 1678.34 494.421 1678.27 L 614.136 1678.14 L 990.893 1678.15 L 1356.26 1678.12 L 1467.65 1678.2 C 1489.25 1678.25 1510.85 1678.61 1532.43 1678.02 C 1581.44 1676.67 1623.11 1643.6 1641.34 1599.37 C 1645.65 1589.08 1648.62 1578.27 1650.18 1567.22 C 1652.85 1549.23 1654.6 1527 1656.56 1508.55 C 1661.07 1468.76 1665.26 1428.94 1669.14 1389.09 L 1705.06 1054.83 C 1713.15 977.992 1721.42 901.079 1728.74 824.162 C 1730.74 803.077 1733.98 778.792 1732.72 757.849 C 1731.13 732.714 1722.02 708.638 1706.56 688.749 C 1702.51 683.554 1695.11 676.853 1693.23 670.991 C 1704.81 680.332 1715.16 695.262 1722.14 708.332 C 1740.5 742.697 1736.19 777.8 1732.73 814.887 L 1724.1 900.203 L 1683.19 1286.61 L 1662.73 1480.38 L 1657.07 1532.07 C 1655.69 1545.48 1654.42 1562.04 1651.81 1574.99 C 1647.5 1596.91 1637.82 1617.43 1623.63 1634.69 C 1601.55 1661.4 1569.68 1678.15 1535.15 1681.17 C 1516.76 1682.81 1485.75 1681.92 1466.58 1681.92 L 1341.43 1681.89 L 945.061 1681.87 L 587.952 1681.83 L 481.382 1681.94 C 435.004 1682.03 397.541 1687.1 359.431 1654.66 C 334.722 1633.62 320.955 1607.16 318.408 1574.29 C 317.13 1548.97 317.649 1519.89 317.627 1493.97 L 317.671 1344.57 L 317.7 1172.02 C 317.726 1147.02 316.545 1110.62 317.962 1086.65 Z"></path>
<path transform="translate(0,0)" style="fill: rgb(0,0,0)" stroke-linecap="round" d="M 547.981 1626.01 L 1202.62 1626 C 1311.53 1626 1423.84 1627.44 1532.37 1625.98 C 1526.04 1631.39 1433.34 1628.91 1419.07 1628.52 C 1420.42 1627.78 1464.71 1627.92 1469.78 1627.81 C 1465.85 1626.78 1439.62 1627.51 1434.16 1627.5 C 1397.61 1627.22 1361.05 1627.29 1324.5 1627.71 L 1337.5 1628.27 C 1313.58 1629.68 1288.46 1628.95 1264.5 1628.8 L 1182.79 1628.39 C 1136.36 1627.7 1088.79 1629.37 1042.48 1628.63 C 989.124 1627.77 937.546 1625.98 884.015 1627.86 C 889.631 1628.47 906.542 1628.07 913.008 1628.09 C 860.438 1629.96 805.94 1629.22 753.223 1628.76 L 655.501 1628.64 C 637.321 1628.44 619.139 1628.46 600.959 1628.7 C 589.673 1628.92 556.224 1631.6 547.981 1626.01 Z"></path>
<path transform="translate(0,0)" style="fill: rgb(0,0,0)" stroke-linecap="round" d="M1427.6207 577.0643C1433.6962 576.7539 1440.5028 578.6704 1440.9641 585.4997 1442.4146 607.0001 1440.7765 629.8584 1441.6249 651.3225L1484.3842 651.2806C1491.1556 651.2806 1504.4326 649.9209 1509.8161 654.0295 1516.3686 659.0283 1514.1167 671.6453 1505.3162 672.776 1498.5565 673.6443 1490.6317 673.2416 1483.6335 673.2412L1441.5037 673.192 1441.5076 718.6141C1441.5076 723.5152 1441.5232 728.512 1441.5037 733.4065 1441.4724 742.2461 1441.9963 748.5311 1431.6749 750.6013 1422.5577 750.7014 1419.2307 746.0884 1419.3128 737.4787 1419.3753 731.3567 1419.3089 725.0689 1419.3128 718.9355L1419.4027 673.2107 1375.5644 673.2385C1368.9649 673.2432 1361.4077 673.615 1354.9295 673.0266 1342.9778 671.9409 1342.1099 653.9399 1353.9599 651.7224 1357.8304 650.9984 1363.081 651.1876 1366.9945 651.256 1384.361 651.5594 1402.0128 650.8205 1419.3441 651.5105L1419.3206 609.5132C1419.3167 602.4141 1419.215 595.2952 1419.3558 588.2 1419.4848 581.755 1421.8188 579.2529 1427.6207 577.0643Z"></path>
</svg>