<?xml version="1.0" encoding="UTF-8" standalone="no"?>
<!-- Generated by SVGMaker - https://svgmaker.io -->
<!-- Prompt: STYLE: Clean outline / line-art icons. Use a single consistent stroke weight throughout. Corners should be slightly rounded for a modern, approachable feel. No heavy gradients inside icons. No decorative flourishes or playful elements.

TONE: Clinical, private, and family-friendly. Icons must feel trustworthy and professional — like a medical utility tool, not a consumer wellness app.

SIZE ＆ READABILITY: Every icon must be readable and distinct at 20px to 28px. Shapes should be bold enough silhouettes to work at small sizes.

STROKE ＆ GEOMETRY: Consistent stroke weight and corner radius across all icons in the set. Prefer simple, recognisable silhouettes. Avoid overly complex detail. Use black (000000) as the only colour on a transparent background.

STATES: For status icons (confirm, warning, delete, iCloud), use stronger filled or badge variants to signal importance. All other icons remain outline-only unless noted.

EXPORT: Vector SVG with transparent background. Do not include drop shadows, outer glows, or bounding box fills.

COLOR: Output in monochrome / single foreground color so the app can tint icons programmatically.

DO NOT include: playful cartoon shapes, thick gradients, photorealistic elements, brand logos, or overly decorative styling.

App icon: A document page with a small viewfinder or scanning frame overlaid at its centre, suggesting document scanning or import. Outline style. - updated by SVGMaker Editor -->
<!-- Quality: low -->
<!-- Type: generate -->
<!-- Created: 2026-06-01T14:55:12.167Z -->
<svg xmlns="http://www.w3.org/2000/svg" xmlns:xlink="http://www.w3.org/1999/xlink" version="1.1" width="1024" height="1024" viewBox="0 0 2048 2048">
<desc>Created with SVGMaker Editor 3.0.0</desc>
<defs>
</defs>
<path transform="translate(0,0)" style="fill: rgb(0,0,0)" stroke-linecap="round" d="M 480.13 470.617 C 485.903 427.326 521.753 389.141 562.896 376.109 C 586.79 368.542 608.121 369.543 632.799 369.531 L 698.362 369.552 L 915.393 369.582 L 1124.43 369.556 L 1185.12 369.566 C 1199.64 369.578 1218.21 369.263 1232.3 371.354 C 1251.63 374.157 1269.96 381.69 1285.67 393.285 C 1301.48 404.9 1325.66 430.531 1340.42 445.329 L 1426.7 531.835 L 1500.69 605.62 C 1531.23 636.136 1562 662.321 1565.76 708.833 C 1567.6 731.551 1567.04 753.831 1567.03 776.576 L 1567.01 880.342 L 1566.99 1218.46 L 1567.04 1457.42 L 1567.06 1526.64 C 1567.04 1580.02 1565.17 1619.6 1517.09 1653.43 C 1499.71 1665.88 1479.32 1673.49 1458.03 1675.47 C 1441.04 1677.06 1413.65 1676.23 1395.74 1676.22 L 1285.5 1676.17 L 933.469 1676.19 L 689.687 1676.14 L 622.914 1676.21 C 586.959 1676.23 558.161 1677.31 527.553 1655.16 C 523.651 1652.34 514.42 1645.49 511.853 1641.82 C 492.558 1625.85 478.86 1591.69 478.436 1567.02 C 477.99 1541.1 478.13 1514.95 478.132 1489.01 L 478.127 1338.49 L 478.166 865.273 L 478.172 591.477 L 478.124 520.574 C 478.117 506.737 477.172 483.276 480.13 470.617 Z M 1517.5 705.827 C 1460.09 705.825 1402.4 706.418 1345.01 705.829 C 1301.99 705.466 1273.14 682.806 1245.3 652.684 C 1219.41 625.61 1212.28 596.805 1212.84 560.09 C 1213.56 512.85 1211.83 464.992 1213.31 417.697 L 770.905 417.693 L 647.838 417.796 C 605.302 417.809 583.65 410.543 548.938 439.441 L 547.38 438.801 C 535.943 445.623 526.46 468.923 525.587 481.754 C 523.247 516.157 524.084 551.696 524.067 586.198 L 524.057 808.371 L 524.048 1301.15 L 524.093 1463.66 C 524.11 1494.44 523.956 1525.4 524.492 1556.16 C 524.693 1567.71 526.62 1581.26 532.718 1591.21 C 535.147 1595.18 537.475 1599.14 541.986 1600.71 C 543.086 1601.58 548.802 1607.8 550.958 1609.7 C 565.195 1622.28 580.383 1627.78 599.416 1628.14 C 621.403 1628.55 643.716 1628.36 665.799 1628.34 L 780.329 1628.32 L 1138.03 1628.37 L 1347.59 1628.36 L 1413.33 1628.36 C 1444.13 1628.34 1470 1631.45 1494.56 1608.94 C 1518.96 1586.59 1518 1562.07 1517.47 1531.28 C 1517.25 1518.3 1517.43 1504.61 1517.43 1491.57 L 1517.47 1339.12 L 1517.49 918.48 L 1517.31 781.856 C 1517.27 757.276 1516.7 730.152 1517.5 705.827 Z M 1489.35 657.834 C 1413.38 585.035 1337.26 508.774 1262.48 434.612 C 1262.16 466.118 1262.08 497.626 1262.23 529.133 C 1262.19 547.243 1260.98 569.807 1263.6 587.542 C 1265.68 601.657 1276 617.835 1285.84 627.647 C 1306.68 648.693 1327.2 657.781 1356.87 657.901 C 1401.05 658.079 1445.24 657.615 1489.35 657.834 Z"></path>
<path transform="translate(0,0)" style="fill: rgb(0,0,0)" stroke-linecap="round" d="M 480.13 470.617 C 483.04 475.029 481.63 494.759 481.549 500.874 C 481.456 513.514 481.472 526.154 481.597 538.793 L 481.22 717.748 L 481.737 1240.74 C 480.828 1351.36 480.446 1466.59 482.248 1577.57 C 482.414 1587.83 490.543 1607.21 495.434 1616.37 C 499.2 1623.06 511.138 1635.83 511.853 1641.82 C 492.558 1625.85 478.86 1591.69 478.436 1567.02 C 477.99 1541.1 478.13 1514.95 478.132 1489.01 L 478.127 1338.49 L 478.166 865.273 L 478.172 591.477 L 478.124 520.574 C 478.117 506.737 477.172 483.276 480.13 470.617 Z"></path>
<path transform="translate(0,0)" style="fill: rgb(0,0,0)" stroke-linecap="round" d="M1126.7198 997.5541C1137.6208 997.2441 1148.8898 997.4201 1159.7938 997.4471 1170.1778 998.2891 1185.5878 996.1261 1195.5778 998.0711 1213.4878 1001.5561 1219.8378 1027.7281 1207.0378 1040.0651 1199.9678 1046.8771 1193.0378 1047.2761 1184.3078 1047.3121 1114.3328 1047.5961 1044.3608 1047.4071 974.3868 1047.4111L898.2918 1047.3961C885.4708 1047.3861 871.9058 1047.6041 859.0918 1047.0411 854.4488 1046.8361 848.4098 1043.2181 845.1138 1039.9191 840.1498 1034.9761 837.3828 1028.2431 837.4378 1021.2381 837.4858 1015.0371 840.1458 1009.1431 844.7648 1005.0051 855.3128 995.3991 870.2528 997.1561 883.5018 997.5501 937.2828 996.9581 991.8058 997.4241 1045.6408 997.4371L1099.2948 997.4191C1106.2048 997.4141 1120.1608 996.9861 1126.7198 997.5541Z"></path>
<path transform="translate(0,0)" style="fill: rgb(0,0,0)" stroke-linecap="round" d="M 725.777 1173.34 C 732.847 1173.07 739.518 1174.58 744.685 1179.61 C 746.942 1181.65 751.889 1188.67 752.065 1191.6 C 754.186 1226.95 751.804 1263.66 753.183 1299.01 C 755.409 1302.49 758.137 1306.44 762.072 1307.89 C 782.249 1315.29 861.23 1305.13 876.878 1313.26 C 882.216 1316.05 886.145 1320.95 887.719 1326.77 C 889.528 1333.5 888.582 1340.66 885.09 1346.69 C 880.704 1354.32 875.369 1357.15 867.201 1359.14 C 834.802 1360.1 802.287 1359.05 769.627 1359.63 C 738.558 1360.18 709.563 1339.15 704.008 1307.94 C 700.345 1287.35 703.016 1262.51 702.167 1241.3 C 701.583 1226.7 702.188 1210.65 702.757 1196.05 C 704.081 1180.3 711.414 1175.57 725.777 1173.34 Z"></path>
<path transform="translate(0,0)" style="fill: rgb(0,0,0)" stroke-linecap="round" d="M 1317.29 1173.26 C 1339.83 1174 1346.43 1189.55 1344.59 1209.44 C 1340.81 1250.21 1356.6 1308.47 1325.53 1340.02 C 1301.6 1364.32 1271.7 1359.59 1241.47 1359.47 C 1223.56 1359.4 1205.66 1359.44 1187.75 1359.59 C 1182.25 1359.62 1176.87 1359.11 1171.95 1356.49 C 1165.81 1353.22 1161.06 1347.69 1159.34 1340.89 C 1157.58 1333.93 1159.12 1325.72 1163.09 1319.75 C 1166.3 1314.93 1171.73 1312.3 1177.24 1311.07 C 1191.39 1307.9 1238.74 1310.44 1256.51 1310.57 C 1263.9 1310.63 1272.49 1311.41 1279.71 1309.65 C 1284.85 1308.41 1289 1305.83 1291.32 1300.95 C 1300.5 1281.69 1286.59 1201 1298.34 1183.61 C 1303.21 1176.39 1309.1 1174.69 1317.29 1173.26 Z"></path>
<path transform="translate(0,0)" style="fill: rgb(0,0,0)" stroke-linecap="round" d="M 758.919 812.65 C 776.102 811.419 801.491 812.556 819.176 812.33 C 830.647 812.184 863.069 811.476 872.341 813.736 C 875.21 815.028 877.884 816.716 880.283 818.752 C 896.652 832.691 886.637 860.669 869.21 862.18 C 835.703 865.086 798.255 862.137 764.635 863.421 C 761.534 865.316 757.862 867.466 756.039 870.711 C 745.205 890.001 760.766 962.352 748.847 981.53 C 745.589 986.772 740.553 990.374 734.482 991.534 C 727.365 992.894 718.648 991.535 712.714 987.242 C 706.721 982.907 703.72 976.107 702.6 968.971 C 700.376 954.796 702.247 938.441 702.328 924.014 C 702.437 904.606 700.195 883.486 703.703 864.399 C 705.39 854.9 709.206 845.906 714.866 838.093 C 725.821 823.265 740.906 815.302 758.919 812.65 Z"></path>
<path transform="translate(0,0)" style="fill: rgb(0,0,0)" stroke-linecap="round" d="M 758.919 812.65 C 776.102 811.419 801.491 812.556 819.176 812.33 C 830.647 812.184 863.069 811.476 872.341 813.736 C 855.159 817.819 805.202 815.285 785.556 815.237 C 781.927 815.228 765.07 813.006 758.919 812.65 Z"></path>
<path transform="translate(0,0)" style="fill: rgb(0,0,0)" stroke-linecap="round" d="M 1184.31 812.387 C 1203.59 811.908 1222.97 812.476 1242.26 812.416 C 1257.21 812.369 1273.05 811.22 1287.85 813.016 C 1295.61 813.959 1304.02 816.056 1310.87 819.91 C 1324.59 827.629 1337.37 843.9 1341.46 859.128 C 1345.48 874.123 1347.37 970.162 1341.03 980.8 C 1337.16 987.297 1331.65 990.025 1324.49 991.688 C 1317.35 992.122 1310.68 992.062 1304.46 987.996 C 1300.06 985.114 1296.95 980.64 1295.38 975.647 C 1291.04 961.831 1293.89 915.449 1294.05 898.284 C 1294.12 891.151 1294.87 883.27 1293.11 876.299 C 1291.99 871.878 1289.95 867.761 1285.67 865.703 C 1267.14 856.804 1187.2 870.366 1168.97 858.729 C 1163.71 855.372 1160.25 850.354 1159.08 844.209 C 1157.69 836.861 1159.49 828.833 1164.05 822.883 C 1169.57 815.665 1175.67 813.638 1184.31 812.387 Z"></path>
<path transform="translate(0,0)" style="fill: rgb(0,0,0)" stroke-linecap="round" d="M 541.986 1600.71 C 537.475 1599.14 535.147 1595.18 532.718 1591.21 C 526.62 1581.26 524.693 1567.71 524.492 1556.16 C 523.956 1525.4 524.11 1494.44 524.093 1463.66 L 524.048 1301.15 L 524.057 808.371 L 524.067 586.198 C 524.084 551.696 523.247 516.157 525.587 481.754 C 526.46 468.923 535.943 445.623 547.38 438.801 L 548.938 439.441 C 535.723 455.07 528.117 468.01 527.911 489.068 C 527.752 505.365 527.749 521.69 527.763 537.984 L 527.784 642.723 L 527.795 983.589 L 527.799 1377.14 L 527.808 1501.74 C 527.816 1523.78 527.468 1546.48 528.361 1568.46 C 528.807 1579.44 536.078 1591.65 541.986 1600.71 Z"></path>
</svg>