<?xml version="1.0" encoding="UTF-8" standalone="no"?>
<!-- Generated by SVGMaker - https://svgmaker.io -->
<!-- Prompt: STYLE: Clean outline / line-art icons. Use a single consistent stroke weight throughout. Corners should be slightly rounded for a modern, approachable feel. No heavy gradients inside icons. No decorative flourishes or playful elements.

TONE: Clinical, private, and family-friendly. Icons must feel trustworthy and professional — like a medical utility tool, not a consumer wellness app.

SIZE ＆ READABILITY: Every icon must be readable and distinct at 20px to 28px. Shapes should be bold enough silhouettes to work at small sizes.

STROKE ＆ GEOMETRY: Consistent stroke weight and corner radius across all icons in the set. Prefer simple, recognisable silhouettes. Avoid overly complex detail. Use black (000000) as the only colour on a transparent background.

STATES: For status icons (confirm, warning, delete, iCloud), use stronger filled or badge variants to signal importance. All other icons remain outline-only unless noted.

EXPORT: Vector SVG with transparent background. Do not include drop shadows, outer glows, or bounding box fills.

COLOR: Output in monochrome / single foreground color so the app can tint icons programmatically.

DO NOT include: playful cartoon shapes, thick gradients, photorealistic elements, brand logos, or overly decorative styling.

App icon: A single human silhouette, minimal. Used as a member filter cue. Clean and compact. Outline style, no badge. - updated by SVGMaker Editor -->
<!-- Quality: low -->
<!-- Type: generate -->
<!-- Created: 2026-06-01T15:15:51.225Z -->
<svg xmlns="http://www.w3.org/2000/svg" xmlns:xlink="http://www.w3.org/1999/xlink" version="1.1" width="1024" height="1024" viewBox="0 0 2048 2048">
<desc>Created with SVGMaker Editor 3.0.0</desc>
<defs>
</defs>
<path transform="translate(0,0)" style="fill: rgb(0,0,0)" stroke-linecap="round" d="M 1003.32 207.566 C 1032.33 205.01 1070.19 209.066 1098.49 214.694 C 1193.46 233.579 1276.66 285.896 1323.12 372.296 C 1371.01 461.353 1366.91 553.121 1366.18 650.773 C 1366.09 662.08 1373.07 673.271 1375.8 684.085 C 1381.32 712.898 1375.77 747.792 1369.8 776.286 C 1363.22 807.722 1352.87 840.091 1333.95 866.087 C 1327.39 875.111 1314.37 880.509 1310.32 891.636 C 1305.96 902.787 1302.77 914.248 1298.99 925.667 C 1292.94 944.34 1285.75 962.629 1277.48 980.432 C 1271.17 993.765 1264.18 1006.77 1256.53 1019.38 C 1250.25 1029.6 1241.95 1039.77 1237.73 1051.03 C 1234.02 1060.91 1234.5 1072.95 1234.55 1083.36 C 1234.67 1110.32 1238.2 1138.47 1255.33 1160.37 C 1320.61 1243.83 1586.93 1268.07 1691.93 1373.35 C 1745.52 1427.08 1769.52 1495.83 1769.74 1570.81 L 1769.85 1657.11 C 1769.9 1714.4 1776.96 1762.16 1733.37 1805.73 C 1692.51 1846.58 1650.85 1840.38 1598.6 1840.36 L 1477.45 1840.28 L 1032.75 1840.29 L 578.786 1840.33 L 450.022 1840.34 C 399.75 1840.33 353.767 1846.48 314.475 1807.99 C 291.54 1786.28 275.695 1753.25 276.399 1721.03 C 277.721 1660.51 272.916 1593.35 278.479 1533.55 C 288.212 1432.42 353.742 1353 444.895 1312.19 C 523.956 1276.78 609.451 1255.09 689.493 1221.86 C 723.206 1207.87 760.313 1190.64 786.362 1164.79 C 810.768 1140.57 811.391 1103.34 810.454 1071.34 C 810.056 1045.95 798.379 1034.97 786.089 1013.83 C 776.508 996.967 767.875 979.581 760.231 961.754 C 754.923 949.223 750.161 936.468 745.96 923.524 C 742.255 911.94 738.965 899.349 733.866 888.236 C 730.708 881.354 723.779 877.664 719.167 872.626 C 684.981 835.285 671.133 764.423 669.026 714.785 C 668.687 706.809 669.07 688.331 671.158 681.316 C 674.615 669.702 679.144 665.682 679.439 652.335 C 680.281 614.311 678.213 575.027 680.166 537.163 C 684.559 452.025 708.994 370.128 768.415 306.773 C 825.799 245.588 920.262 209.617 1003.32 207.566 Z M 1599.02 1376.37 C 1523.42 1335.53 1442.26 1313.85 1361.73 1284.95 C 1290.07 1259.22 1207.3 1224.55 1183.74 1144.52 C 1175.63 1116.79 1169.36 1044.98 1185.87 1019.39 C 1203.62 991.882 1217.56 971.207 1230.68 940.277 C 1236.18 927.276 1241.06 914.019 1245.3 900.553 C 1249.4 887.456 1251.53 877.495 1257.6 863.996 C 1265.79 845.806 1282.92 836.723 1292.5 821.677 C 1313.27 789.064 1322.51 724.315 1316.9 686.354 C 1316.29 682.265 1309.18 668.387 1308.57 662.282 C 1307.38 650.442 1308.7 639.329 1308.37 628.025 C 1307.62 602.043 1309.2 574.64 1308.18 548.904 C 1303.98 443.204 1263.85 351.716 1166.73 300.372 C 1095.18 262.543 1002.12 258.798 925.546 281.062 C 861.101 299.801 804.15 342.822 773.126 402.262 C 730.94 483.088 738.118 570.364 737.771 658.18 C 737.717 672.063 729.449 681.975 728.456 691.024 C 725.634 722.304 730.859 757.804 739.677 787.755 C 745.295 806.836 753.122 826.488 768.351 839.552 C 789.843 857.99 793.15 877.298 801.182 903.138 C 805.175 916.049 809.901 928.721 815.338 941.094 C 821.964 955.95 829.215 970.786 837.512 984.785 C 848.753 1003.75 863.745 1020.4 868.427 1042.54 C 872.004 1059.45 870.931 1077.85 870.329 1095.03 C 869.361 1122.63 865.387 1145.61 852.488 1170.44 C 788.163 1294.22 531.866 1310.54 420.618 1393.61 C 389.814 1416.22 366.066 1447.11 352.14 1482.7 C 335.54 1524.36 336.133 1562.51 336.163 1605.95 L 336.26 1674.82 C 336.297 1695.83 334.506 1721.31 339.764 1741.63 C 342.946 1753.92 354.465 1766.13 365.565 1771.87 C 375.01 1776.86 387.762 1777.74 398.341 1777.75 C 499.427 1777.79 600.517 1777.73 701.605 1777.73 L 1313.71 1777.74 L 1541.94 1777.76 L 1612.38 1777.8 C 1628.49 1777.8 1644.59 1778.06 1660.68 1777.33 C 1675.35 1776.67 1685.1 1772.54 1695.31 1761.86 C 1697.08 1759.66 1698.74 1757.37 1700.29 1755 C 1714.31 1733.96 1710.76 1687.69 1710.15 1661.91 C 1709.07 1616.79 1714.03 1565.09 1705.8 1521.18 C 1693.51 1455.64 1653.36 1411.92 1599.02 1376.37 Z"></path>
<path transform="translate(0,0)" style="fill: rgb(0,0,0)" stroke-linecap="round" d="M 1599.02 1376.37 C 1604.95 1377.45 1611.07 1381.99 1616.17 1385.41 C 1639.65 1400.98 1659.98 1420.84 1676.09 1443.95 C 1692.16 1467.58 1703.24 1494.24 1708.68 1522.3 C 1717.73 1566.76 1712.05 1619.91 1713.42 1665.68 C 1714.1 1688.48 1713.78 1713.22 1711.71 1735.84 C 1710.58 1744.33 1703.78 1758.44 1695.31 1761.86 C 1697.08 1759.66 1698.74 1757.37 1700.29 1755 C 1714.31 1733.96 1710.76 1687.69 1710.15 1661.91 C 1709.07 1616.79 1714.03 1565.09 1705.8 1521.18 C 1693.51 1455.64 1653.36 1411.92 1599.02 1376.37 Z"></path>
</svg>