<?xml version="1.0" encoding="UTF-8" standalone="no"?>
<!-- Generated by SVGMaker - https://svgmaker.io -->
<!-- Prompt: 1. icon_tab_dashboard
App icon: A compact health overview tile. Combine a small heart shape with a card or document panel behind it, suggesting a dashboard of health records. Outline style, clean line art, readable at 24px. - updated by SVGMaker Editor -->
<!-- Quality: medium -->
<!-- Type: generate -->
<!-- Created: 2026-06-01T14:20:29.250Z -->
<svg xmlns="http://www.w3.org/2000/svg" xmlns:xlink="http://www.w3.org/1999/xlink" version="1.1" width="1024" height="1024" viewBox="0 0 2048 2048">
<desc>Created with SVGMaker Editor 3.0.0</desc>
<defs>
</defs>
<path transform="translate(0,0)" style="fill: rgb(0,0,0)" stroke-linecap="round" d="M 676.085 845.218 C 761.641 747.31 929.999 750.403 1009.89 853.013 C 1047.17 900.887 1057.98 961.404 1050.79 1020.6 C 1035.42 1147.25 931.29 1239.29 835.92 1312.2 C 806.055 1333.71 715.397 1400.24 684.704 1403.83 C 676.091 1404.84 666.834 1402.73 658.802 1399.68 C 617.617 1384.01 533.696 1324.15 497.619 1295.37 C 407.927 1223.82 313.108 1133.25 300.062 1012.96 C 293.659 953.915 306.432 894.317 344.342 847.665 C 383.15 799.909 433.437 780.706 493.017 774.39 C 496.778 773.985 506.335 773.859 510.283 773.967 C 578.053 775.811 628.946 798.23 676.085 845.218 Z M 679.443 1350.66 C 739.356 1320.92 793.429 1278.98 845.995 1238.27 C 922.176 1176.31 1005.48 1087.49 1001.77 982.605 C 1000.49 946.191 989.653 910.152 966.24 881.853 C 911.021 813.938 795.493 806.19 730.18 863.457 C 722.65 869.996 715.895 876.628 709.638 884.413 C 701.8 893.137 686.419 921.321 673.347 918.428 C 665.312 916.649 647.455 891.287 639.922 883.41 C 604.16 846.019 558.496 824.639 506.339 825.691 C 501.593 825.787 491.052 825.735 486.726 826.37 C 443.373 832.006 410.827 846.892 382.433 882.057 C 353.611 917.753 345.901 966.44 351.66 1011.47 C 364.736 1113.7 460.609 1201.63 537.729 1261.58 C 575.449 1290.91 636.217 1330.75 679.443 1350.66 Z"></path>
<path transform="translate(0,0)" style="fill: rgb(0,0,0)" stroke-linecap="round" d="M 632.593 506.345 C 636.426 506.001 642.232 506.026 646.194 505.992 L 1332.43 505.96 L 1537.05 505.999 L 1598.39 505.929 C 1639.65 505.897 1671.54 506.106 1703.13 537.982 C 1726.9 561.966 1735.04 588.144 1735.18 621.471 L 1735.11 1046.51 L 1735.14 1165.01 C 1735.15 1213.46 1741.1 1255.26 1703.37 1291.98 C 1674.52 1320.06 1647.54 1325.44 1608.56 1324.18 C 1594.45 1323.73 1578.51 1324.2 1564.38 1324.2 L 1412.92 1324.17 L 890.105 1323.93 C 907.396 1307.74 921.733 1289.16 941.085 1274.94 C 954.128 1273.5 974.577 1274.07 988.181 1274.09 L 1068.75 1274.13 L 1458.52 1274.21 L 1572.57 1274.29 C 1592.82 1274.34 1614.35 1275 1634.46 1273.51 C 1646 1272.65 1659.68 1264.85 1668.05 1257.07 C 1679.83 1246.13 1686.54 1230.38 1686.17 1214.26 C 1686.08 1168.43 1686.11 1122.53 1686.1 1076.7 L 1686.03 798.467 L 1686.12 668.94 C 1686.14 648.868 1686.67 626.431 1685.47 606.451 C 1684.9 596.907 1677.03 582.153 1670.18 575.433 C 1657.39 562.9 1642.29 555.885 1624.13 555.968 C 1554.37 556.289 1484.53 556.184 1414.8 556.182 L 966.086 556.173 L 738.492 556.162 L 671.503 556.093 C 645.048 556.001 623.107 551.885 602.076 572.316 C 578.606 595.115 583.851 622.913 583.916 653.588 C 584.064 681.661 584.061 709.734 583.907 737.806 L 534.281 738.119 C 534.044 708.621 534.011 679.121 534.18 649.623 C 534.275 630.42 532.826 610.1 536.814 591.392 C 540.157 575.544 546.927 560.62 556.649 547.666 C 576.345 521.724 601.307 510.774 632.593 506.345 Z"></path>
<path transform="translate(0,0)" style="fill: rgb(0,0,0)" stroke-linecap="round" d="M 1327.2 595.203 C 1337.06 595.388 1349.44 600.4 1353.21 609.912 C 1360 627.043 1364.93 646.541 1370.04 664.226 L 1405.07 786.066 C 1414.33 767.534 1421.27 744.805 1430.1 724.401 C 1438.93 703.999 1444.97 678.794 1475.71 688.56 C 1489.81 693.038 1498.84 722.496 1504.32 735.932 C 1540.1 737.194 1576.63 735.051 1612.42 737.149 C 1618.24 737.49 1624.44 742.527 1627.75 747.115 C 1631.64 752.507 1633.07 759.3 1631.66 765.803 C 1630.42 771.862 1626.81 777.175 1621.64 780.561 C 1618.97 782.323 1615.95 783.474 1612.79 783.931 C 1597.99 786.058 1495.38 786.169 1482.75 783.069 C 1474.54 781.053 1469.77 774.332 1465.46 767.665 C 1462.86 778.122 1429.14 859.848 1424.38 866.45 C 1419 873.905 1411.57 877.151 1402.72 878.465 C 1392.92 878.105 1378.84 872.987 1375.33 862.861 C 1368.63 843.536 1363.29 823.437 1357.3 803.818 C 1349.53 778.537 1341.9 753.21 1334.41 727.841 C 1331.11 716.932 1325.04 700.651 1323.2 690.268 C 1309.95 716.723 1300.63 746.28 1285 771.2 C 1274.61 787.745 1248.81 784.363 1231.89 784.206 C 1217.01 784.102 1202.12 784.098 1187.24 784.197 L 1127.33 784.382 C 1116.35 784.413 1105.45 784.716 1094.49 783.893 C 1074.57 782.8 1067.58 756.512 1080.67 743.605 C 1092.15 732.28 1126.09 736.088 1141.91 736.098 L 1244.95 736.063 C 1249.41 730.485 1255.74 716.001 1259.11 708.787 L 1289.17 642.997 C 1298.15 623.196 1303.59 599.504 1327.2 595.203 Z"></path>
<path transform="translate(0,0)" style="fill: rgb(0,0,0)" stroke-linecap="round" d="M 1129.43 975.192 L 1416.22 975.734 L 1530.02 975.763 C 1549.61 975.753 1569.15 975.418 1588.77 975.741 C 1598.25 975.402 1608.44 982.414 1611.25 991.848 C 1616.19 1008.4 1607.38 1018.81 1592.8 1023.77 C 1570.21 1024.94 1538.8 1023.96 1515.4 1023.96 L 1359.17 1023.9 L 1212 1023.98 C 1184.98 1024.01 1157.5 1024.31 1130.51 1023.65 C 1124.63 1023.5 1121.79 1022.57 1116.9 1019.29 C 1111.62 1015.78 1108.01 1010.26 1106.93 1004.02 C 1103.82 987.123 1113.67 977.802 1129.43 975.192 Z"></path>
<path transform="translate(0,0)" style="fill: rgb(0,0,0)" stroke-linecap="round" d="M 1127.43 1082.22 C 1138.95 1081.55 1156.39 1081.98 1168.22 1081.97 L 1246.41 1081.96 C 1269.47 1081.96 1409.04 1079.84 1419.8 1083.42 C 1426.44 1085.63 1432.67 1091.98 1435.34 1098.35 C 1437.78 1104.21 1437.73 1110.53 1435.12 1116.33 C 1431.79 1123.72 1425.43 1127.43 1418.05 1130.05 C 1396.48 1130.42 1128.74 1131.96 1121.39 1128.92 C 1114.88 1126.22 1109.78 1121.1 1107.42 1114.44 C 1105.26 1108.35 1105.63 1100.99 1108.68 1095.25 C 1112.7 1087.69 1119.63 1084.52 1127.43 1082.22 Z"></path>
</svg>