<?xml version="1.0" encoding="UTF-8" standalone="no"?>
<!-- Generated by SVGMaker - https://svgmaker.io -->
<!-- Prompt: STYLE: Clean outline / line-art icons. Use a single consistent stroke weight throughout. Corners should be slightly rounded for a modern, approachable feel. No heavy gradients inside icons. No decorative flourishes or playful elements.

TONE: Clinical, private, and family-friendly. Icons must feel trustworthy and professional — like a medical utility tool, not a consumer wellness app.

SIZE ＆ READABILITY: Every icon must be readable and distinct at 20px to 28px. Shapes should be bold enough silhouettes to work at small sizes.

STROKE ＆ GEOMETRY: Consistent stroke weight and corner radius across all icons in the set. Prefer simple, recognisable silhouettes. Avoid overly complex detail. Use black (000000) as the only colour on a transparent background.

STATES: For status icons (confirm, warning, delete, iCloud), use stronger filled or badge variants to signal importance. All other icons remain outline-only unless noted.

EXPORT: Vector SVG with transparent background. Do not include drop shadows, outer glows, or bounding box fills.

COLOR: Output in monochrome / single foreground color so the app can tint icons programmatically.

DO NOT include: playful cartoon shapes, thick gradients, photorealistic elements, brand logos, or overly decorative styling.

App icon: A single human silhouette with a small plus badge to its upper right. Represents adding a family member. Outline style with small filled badge. - updated by SVGMaker Editor -->
<!-- Quality: low -->
<!-- Type: generate -->
<!-- Created: 2026-06-01T15:13:38.059Z -->
<svg xmlns="http://www.w3.org/2000/svg" xmlns:xlink="http://www.w3.org/1999/xlink" version="1.1" width="1024" height="1024" viewBox="0 0 2048 2048">
<desc>Created with SVGMaker Editor 3.0.0</desc>
<defs>
</defs>
<path transform="translate(0,0)" style="fill: rgb(0,0,0)" stroke-linecap="round" d="M 760.796 943.603 C 721.876 919.275 682.394 873.776 658.794 834.814 C 566.012 681.641 598.736 485.706 758.868 391.726 C 903.438 306.88 1089.81 358.771 1174.9 501.101 C 1211.04 561.55 1221.69 659.191 1203.53 726.972 C 1201.56 737.816 1196.22 757.47 1191.75 768.049 C 1168.05 839.417 1121.52 895.207 1061.95 939.573 C 1071.7 973.084 1082.55 1003.05 1115.3 1019.57 C 1148.6 1036.36 1187.55 1044.3 1223.06 1056.92 C 1331.03 1095.27 1433.6 1161 1467.36 1277.24 C 1484.75 1337.1 1488 1392.61 1486.46 1454.49 C 1486.11 1468.59 1485.4 1500.56 1482.6 1513.81 C 1480.87 1531.7 1475.64 1561.9 1469.41 1578.03 C 1457.75 1609.93 1439.92 1633.86 1410.2 1650.69 C 1331.86 1695.05 1236.84 1689.93 1150.51 1689.91 L 950.872 1689.91 L 710.384 1689.92 L 622.801 1690 C 574.048 1690.04 525.021 1690.02 477.545 1677.32 C 432.261 1665.21 390.238 1645.19 366.164 1603.06 C 323.383 1528.19 332.559 1367.03 355.271 1285.02 C 389.891 1160.03 487.626 1096.99 604.008 1058.17 C 637.094 1047.13 678.692 1039.48 708.703 1022.25 C 739.778 1004.41 751.788 976.599 760.796 943.603 Z M 396.845 1320.92 C 395.47 1328.45 393.588 1340.99 391.712 1348.03 L 391.624 1349.89 C 390.856 1364.32 386.42 1387.9 386.251 1401.34 C 385.578 1454.9 381.634 1549.77 418.061 1591.2 C 448.691 1626.04 518.743 1637.68 563.304 1639.71 C 577.245 1640.34 592.495 1640.01 606.211 1640.62 L 979.495 1640.48 C 1064.66 1640.42 1151.64 1641.58 1236.67 1640.61 C 1264.43 1639.87 1291.86 1637.7 1319.14 1632.3 C 1354.74 1625.26 1393.2 1610.43 1414.04 1578.94 C 1447.23 1528.78 1441.33 1386.02 1429.35 1327.47 C 1421.48 1289.02 1407.14 1251.09 1383.83 1219.27 C 1339.18 1158.32 1259 1118.77 1188.68 1096.08 C 1151.71 1084.15 1110.82 1077.53 1078.05 1055.55 C 1046.55 1034.43 1028.67 1001.38 1021.6 964.909 L 1003.48 972.412 C 935.869 1000.21 869.617 994.451 803.561 966.885 L 803.279 968.006 C 790.511 1017.55 761.252 1060.93 709.97 1076.9 C 605.118 1109.56 485.204 1137.67 426.437 1240.96 C 411.612 1267.01 403.975 1292.24 396.845 1320.92 Z M 934.237 938.833 C 1006.59 927.992 1057.89 889.461 1100.95 833.059 C 1190.27 716.07 1188.71 537.042 1060.06 448.095 C 1007.12 411.49 951.386 395.425 886.571 400.158 C 886.214 400.224 885.857 400.289 885.5 400.355 C 739.201 420.153 639.194 544.807 659.053 692.951 C 676.549 823.464 792.26 958.953 934.237 938.833 Z"></path>
<path transform="translate(0,0)" style="fill: rgb(0,0,0)" stroke-linecap="round" d="M 1469.41 1578.03 C 1468.85 1576.9 1468.02 1574.99 1468.59 1573.88 C 1472.09 1567.08 1479.56 1512.65 1481.5 1511.11 L 1482.6 1513.81 C 1480.87 1531.7 1475.64 1561.9 1469.41 1578.03 Z"></path>
<path transform="translate(0,0)" style="fill: rgb(0,0,0)" stroke-linecap="round" d="M 1191.75 768.049 C 1189.77 763.082 1199.19 733.122 1201.91 726.91 L 1203.53 726.972 C 1201.56 737.816 1196.22 757.47 1191.75 768.049 Z"></path>
<path transform="translate(0,0)" style="fill: rgb(0,0,0)" stroke-linecap="round" d="M 606.211 1640.62 L 979.495 1640.48 C 1064.66 1640.42 1151.64 1641.58 1236.67 1640.61 L 1250.23 1641.15 L 1251.44 1642.38 L 1253.31 1641.93 L 1253.09 1641.81 L 1251.62 1642.53 L 1251.48 1641.5 L 1250.7 1642.66 C 1236.99 1644.26 1217.4 1643.81 1203.13 1643.83 L 1128.23 1643.87 L 884.993 1643.81 L 674.07 1643.85 L 620.669 1643.8 C 605.015 1643.81 586.982 1644.6 571.818 1641.5 C 582.711 1640.62 595.175 1640.75 606.211 1640.62 Z"></path>
<path transform="translate(0,0)" style="fill: rgb(0,0,0)" stroke-linecap="round" d="M 581.745 1687.49 C 793.583 1683.99 1006.47 1688.78 1218.4 1686.77 C 1226.73 1686.69 1245.11 1686.07 1252.18 1688.59 C 1201.87 1690.44 1142.9 1689.04 1092.14 1689.03 L 796.726 1689.03 L 652.963 1689.05 C 631.008 1689.05 603.078 1690.36 581.745 1687.49 Z"></path>
<path transform="translate(0,0)" style="fill: rgb(0,0,0)" stroke-linecap="round" d="M 391.712 1348.03 C 388.359 1343.78 392.638 1324.43 395.633 1319.99 L 396.845 1320.92 C 395.47 1328.45 393.588 1340.99 391.712 1348.03 Z"></path>
<path transform="translate(0,0)" style="fill: rgb(0,0,0)" stroke-linecap="round" d="M 1472.4 433.5 C 1601.42 428.326 1710.24 528.644 1715.56 657.657 C 1720.87 786.669 1620.68 895.6 1491.67 901.059 C 1362.46 906.525 1253.32 806.137 1248 676.923 C 1242.68 547.71 1343.18 438.683 1472.4 433.5 Z M 1500.56 851.419 C 1602.17 840.874 1676.06 750.054 1665.71 648.425 C 1655.36 546.795 1564.69 472.731 1463.04 482.882 C 1361.11 493.06 1286.8 584.04 1297.17 685.948 C 1307.55 787.857 1398.67 861.992 1500.56 851.419 Z"></path>
<path transform="translate(0,0)" style="fill: rgb(0,0,0)" stroke-linecap="round" d="M 1470.89 535.236 C 1509.85 532.26 1504.3 558.208 1504.24 587.263 C 1504.2 604.042 1505.33 621.968 1504.15 638.619 C 1505.17 638.542 1506.19 638.477 1507.22 638.424 C 1522.89 637.742 1555.86 639.441 1570.08 637.972 C 1614.58 633.377 1618.33 685.103 1584.39 689.186 C 1564.05 691.633 1527.02 689.996 1504.97 689.878 C 1502.5 716.396 1505.4 751.086 1503.76 779.52 C 1499 787.519 1494.29 791.06 1485.78 794.132 C 1459.19 797.375 1452.85 782.002 1453.66 758.588 C 1454.46 735.814 1452.47 712.755 1453.87 689.894 C 1428.36 690.054 1400.28 691.34 1375.24 689.112 C 1345.89 685.277 1348 641.51 1375.12 639.223 C 1398.9 637.218 1430.2 637.115 1453.69 638.733 C 1452.06 622.786 1452.4 566.436 1455.78 548.876 C 1456.88 543.121 1465.23 537.749 1470.89 535.236 Z"></path>
</svg>