<?xml version="1.0" encoding="UTF-8" standalone="no"?>
<!-- Generated by SVGMaker - https://svgmaker.io -->
<!-- Prompt: STYLE: Clean outline / line-art icons. Use a single consistent stroke weight throughout. Corners should be slightly rounded for a modern, approachable feel. No heavy gradients inside icons. No decorative flourishes or playful elements.

TONE: Clinical, private, and family-friendly. Icons must feel trustworthy and professional — like a medical utility tool, not a consumer wellness app.

SIZE ＆ READABILITY: Every icon must be readable and distinct at 20px to 28px. Shapes should be bold enough silhouettes to work at small sizes.

STROKE ＆ GEOMETRY: Consistent stroke weight and corner radius across all icons in the set. Prefer simple, recognisable silhouettes. Avoid overly complex detail.

STATES: For status icons (confirm, warning, delete, iCloud), use stronger filled or badge variants to signal importance. All other icons remain outline-only unless noted.

EXPORT: Vector SVG with transparent background. Do not include drop shadows, outer glows, or bounding box fills.

COLOR: Output in monochrome / single foreground color so the app can tint icons programmatically.

DO NOT include: playful cartoon shapes, thick gradients, photorealistic elements, brand logos, or overly decorative styling.

App icon: A checklist with two or three lines and check marks beside them. Feels actionable and task-oriented. Outline style, no filled boxes. Readable at small tab size. - updated by SVGMaker Editor -->
<!-- Quality: low -->
<!-- Type: generate -->
<!-- Created: 2026-06-01T14:21:22.885Z -->
<svg xmlns="http://www.w3.org/2000/svg" xmlns:xlink="http://www.w3.org/1999/xlink" version="1.1" width="1024" height="1024" viewBox="0 0 2048 2048">
<desc>Created with SVGMaker Editor 3.0.0</desc>
<defs>
</defs>
<path transform="translate(0,0)" style="fill: rgb(0,0,0)" stroke-linecap="round" d="M 506.033 230.43 L 1228 230.284 L 1441.61 230.326 L 1506.41 230.278 C 1556.74 230.267 1588.05 231.317 1628.97 265.419 C 1658.28 290.21 1676.51 325.648 1679.64 363.906 C 1681.77 388.463 1680.68 426.603 1680.64 452.21 L 1680.64 601.124 L 1680.69 1078.64 L 1680.72 1485.07 L 1680.71 1609.48 C 1680.7 1632.89 1682.03 1659.93 1679.36 1682.98 C 1671.06 1754.4 1615.59 1804.04 1545.69 1809.03 L 805.746 1809.01 L 592.112 1809.02 L 528.82 1809.13 C 519.844 1809.15 510.825 1809.09 501.874 1809.07 C 430.279 1808.9 371.672 1748.13 368.768 1677.44 C 367.687 1651.13 368.156 1624.27 368.18 1597.64 L 368.237 1447.98 L 368.231 967.787 L 368.196 551.232 L 368.207 424.778 C 368.211 407.572 367.291 373.168 368.972 357.036 C 371.876 329.058 383.195 302.618 401.436 281.207 C 429.264 248.529 464.016 233.609 506.033 230.43 Z M 1550.24 1752.01 C 1591.67 1744.16 1621.06 1715.93 1622.06 1672.05 C 1622.85 1637.72 1622.32 1603.17 1622.3 1568.81 L 1622.28 1373.6 L 1622.27 769.04 L 1622.27 478.668 L 1622.28 405.392 C 1622.38 363.939 1624.47 328.514 1585.15 302.216 C 1572.83 293.953 1558.55 289.099 1543.75 288.145 C 1521.93 286.897 1491.37 287.776 1469.05 287.792 L 1334.26 287.808 L 916.315 287.805 L 631.197 287.82 L 543.556 287.775 C 532.672 287.772 508.463 287.159 498.297 288.284 C 454.201 294.895 425.197 326.616 424.042 371.343 C 423.21 403.581 423.787 436.191 423.805 468.465 L 423.82 652.516 L 423.829 1226.87 L 423.839 1545.81 L 423.789 1634.01 C 423.767 1675.62 420.311 1710.27 459.324 1737.4 C 473.135 1747 486.845 1751.35 503.664 1752.2 C 528.433 1753.55 553.68 1753.05 578.522 1753.03 L 701.958 1752.98 L 1093.84 1753 L 1398.37 1753.02 L 1492.66 1753.04 C 1509.45 1753.05 1533.91 1753.69 1550.24 1752.01 Z"></path>
<path transform="translate(0,0)" style="fill: rgb(0,0,0)" stroke-linecap="round" d="M 956.078 1346.46 C 973.495 1344.87 1004.04 1345.8 1022.37 1345.8 L 1147.52 1345.81 L 1357.15 1345.78 C 1377.14 1345.78 1477.55 1343.93 1487.29 1348.85 C 1494.67 1352.52 1500.28 1358.97 1502.87 1366.79 C 1509.04 1385.71 1498.28 1398.89 1480.55 1403.9 C 1379.5 1405.47 1274.79 1404.16 1173.5 1404.17 L 1038.64 1404.18 C 1014.25 1404.17 989.876 1404.27 965.491 1403.97 C 950.221 1403.77 937.199 1400.35 932.143 1383.97 C 929.837 1376.54 930.715 1368.48 934.568 1361.73 C 939.508 1352.93 946.669 1348.85 956.078 1346.46 Z"></path>
<path transform="translate(0,0)" style="fill: rgb(0,0,0)" stroke-linecap="round" d="M 955.224 960.391 C 976.873 959.09 1008.64 960.009 1030.85 960.009 L 1170.76 960.022 L 1368.75 960.116 C 1402.8 960.12 1436.96 960.012 1471 960.192 C 1476.76 960.539 1483.2 960.134 1488.38 962.936 C 1503.19 970.936 1509.4 990.549 1500.14 1005.05 C 1494.91 1013.23 1489.12 1015.45 1480.26 1017.82 C 1449.98 1018.99 1416.12 1018.31 1385.59 1018.31 L 1222.42 1018.29 L 1055.04 1018.31 C 1025.05 1018.31 994.896 1018.48 964.925 1018.08 C 958.546 1017.73 953.187 1017.92 947.291 1015.32 C 931.793 1008.49 926.618 989.84 934.607 975.316 C 939.087 967.172 946.438 963.024 955.224 960.391 Z"></path>
<path transform="translate(0,0)" style="fill: rgb(0,0,0)" stroke-linecap="round" d="M 955.88 570.423 C 975.635 569.413 1002.92 570.181 1023.03 570.132 L 1170.51 570.118 L 1367.16 570.118 C 1402.19 570.129 1437.39 570.061 1472.41 570.262 C 1478.81 570.511 1482.27 570.301 1488.09 573.202 C 1502.25 580.252 1508.45 597.94 1500.61 611.927 C 1496.22 619.746 1488.41 623.472 1479.76 625.608 C 1452.92 626.989 1418.96 626.048 1391.75 626.025 L 1233.15 625.995 L 1066.04 625.913 C 1031.57 626.032 997.117 626.179 962.651 625.962 C 925.752 625.73 918.498 579.052 955.88 570.423 Z"></path>
<path transform="translate(0,0)" style="fill: rgb(0,0,0)" stroke-linecap="round" d="M 835.257 860.242 C 864.051 858.727 879.514 881.607 862.028 906.03 C 854.717 916.24 844.043 926.731 835.516 936.286 L 783.89 994.824 C 762.203 1019.87 740.331 1044.76 718.275 1069.48 C 707.921 1081.16 697.457 1093.56 686.539 1104.7 C 681.515 1110.3 670.53 1114.8 663.014 1113.92 C 645.923 1111.91 630.459 1089.88 619.757 1077.64 L 573.219 1024.2 C 570.84 1021.26 564.98 1013.66 561.761 1010.89 C 539.066 991.409 526.246 956.61 566.025 948.213 C 580.975 945.057 596.068 964.557 606.185 976.113 L 641.954 1017.17 C 648.814 1025.05 657.348 1035.72 665.239 1042.27 C 717.574 984.816 768.442 924.642 821.514 867.784 C 825.504 863.509 829.878 862.075 835.257 860.242 Z"></path>
<path transform="translate(0,0)" style="fill: rgb(0,0,0)" stroke-linecap="round" d="M 833.278 1246.31 C 844.45 1245.46 853.083 1245.33 861.517 1253.77 C 872.866 1264.85 870.602 1280.74 861.171 1292.3 C 851.871 1303.71 841.5 1314.67 831.679 1325.76 L 771.995 1393.5 L 712.299 1460.96 C 703.568 1470.8 694.016 1482.6 684.76 1491.6 C 674.566 1501.51 653.501 1499.36 644.107 1488.83 C 638.286 1482.31 632.088 1475.39 626.051 1468.61 L 571.76 1406.71 C 564.119 1396.91 555.158 1388.17 547.569 1378.62 C 540.354 1370.82 536.987 1352.79 544.797 1343.64 C 570.049 1314.07 592.861 1345.47 606 1360.61 L 640.565 1400.56 C 647.312 1408.41 656.694 1419.95 663.914 1426.75 L 664.958 1427.72 C 676.668 1416.11 695.046 1393.7 706.817 1380.35 L 780.864 1297.27 C 794.296 1282.1 808.703 1264.8 823.528 1250.97 C 825.688 1248.95 830.448 1247.3 833.278 1246.31 Z"></path>
<path transform="translate(0,0)" style="fill: rgb(0,0,0)" stroke-linecap="round" d="M 835.855 468.177 C 856.608 466.888 864.74 475.555 870.214 494.62 C 866.501 513.559 852.345 524.735 839.765 538.846 L 795.622 588.991 L 724.59 669 C 711.72 683.588 698.443 699.135 685.047 713.142 C 679.816 718.348 669.035 721.3 661.834 720.074 C 646.415 717.449 630.585 694.962 620.568 683.412 C 604.707 664.872 588.589 646.554 572.219 628.463 C 557.694 609.962 523.645 584.915 549.054 561.354 C 575.405 536.92 600.958 576.945 615.109 593.409 L 664.525 650.305 C 700.882 608.995 737.457 567.877 774.247 526.953 C 789.564 509.859 805.255 490.965 821.377 474.597 C 824.626 471.298 831.459 469.336 835.855 468.177 Z"></path>
</svg>